<svg xmlns="http://www.w3.org/2000/svg" xmlns:xlink="http://www.w3.org/1999/xlink" xmlns:lucid="lucid" width="1148.17" height="727"><g transform="translate(81.49999999999997 203)" lucid:page-tab-id="HWEp-vi-RSFO"><path d="M-500-500h2000v1500H-500z" fill="#fff"/><path d="M240 181.5h160v80H240z" stroke="#ced4db" stroke-width="3" fill="#fff"/><use xlink:href="#a" transform="matrix(1,0,0,1,248,189.5) translate(25.271913580246917 36.48888888888889)"/><path d="M520 181.5h160v80H520z" stroke="#ced4db" stroke-width="3" fill="#fff"/><use xlink:href="#b" transform="matrix(1,0,0,1,528,189.5) translate(11.58703703703705 36.48888888888889)"/><path d="M285.33 395.5V265.73" stroke="#979ea8" stroke-width="3" fill="none"/><path d="M286.8 397h-2.94v-1.54h2.95z" stroke="#979ea8" stroke-width=".05" fill="#979ea8"/><path d="M295.5 283.16l-10.17-17.2-10.18 17.2M600 395.5V265.73" stroke="#979ea8" stroke-width="3" fill="none"/><path d="M601.48 397h-2.96v-1.54h2.96z" stroke="#979ea8" stroke-width=".05" fill="#979ea8"/><path d="M610.18 283.16L600 265.96l-10.18 17.2" stroke="#979ea8" stroke-width="3" fill="none"/><path d="M420 280h240v60H420z" fill="none"/><use xlink:href="#c" transform="matrix(1,0,0,1,420,280) translate(66.72006172839508 34.044444444444444)"/><path d="M100 280h240v60H100z" fill="none"/><use xlink:href="#c" transform="matrix(1,0,0,1,100,280) translate(66.72006172839508 34.044444444444444)"/><path d="M285.33 395.5V346a12 12 0 0 0-12-12h-127.5a12 12 0 0 0-12 12v80.5a12 12 0 0 0 12 12h25.28" stroke="#979ea8" stroke-width="3" fill="none"/><path d="M286.8 397h-2.94v-1.54h2.95z" stroke="#979ea8" stroke-width=".05" fill="#979ea8"/><path d="M153.68 448.68l17.2-10.18-17.2-10.18M600 395.5V346a12 12 0 0 0-12-12H462a12 12 0 0 0-12 12v80.5a12 12 0 0 0 12 12h23.78" stroke="#979ea8" stroke-width="3" fill="none"/><path d="M601.48 397h-2.96v-1.54h2.96z" stroke="#979ea8" stroke-width=".05" fill="#979ea8"/><path d="M468.34 448.68l17.22-10.18-17.22-10.18" stroke="#979ea8" stroke-width="3" fill="none"/><path d="M840 181.5h160v80H840z" stroke="#ced4db" stroke-width="3" fill="#fff"/><use xlink:href="#d" transform="matrix(1,0,0,1,848,189.5) translate(25.33425925925927 36.48888888888889)"/><path d="M720 277h240v60H720z" fill="none"/><use xlink:href="#c" transform="matrix(1,0,0,1,720,277) translate(66.72006172839508 34.044444444444444)"/><path d="M920 395.5v-49a12 12 0 0 0-12-12H772a12 12 0 0 0-12 12v80a12 12 0 0 0 12 12h33.78" stroke="#979ea8" stroke-width="3" fill="none"/><path d="M921.48 397h-2.96v-1.54h2.96z" stroke="#979ea8" stroke-width=".05" fill="#979ea8"/><path d="M788.34 448.68l17.22-10.18-17.22-10.18M920 395.5V265.73" stroke="#979ea8" stroke-width="3" fill="none"/><path d="M921.48 397h-2.96v-1.54h2.96z" stroke="#979ea8" stroke-width=".05" fill="#979ea8"/><path d="M930.18 283.16L920 265.96l-10.18 17.2" stroke="#979ea8" stroke-width="3" fill="none"/><path d="M-50-181.5h160v80H-50z" stroke="#ced4db" stroke-width="3" fill="#fff"/><use xlink:href="#e" transform="matrix(1,0,0,1,-41.99999999999997,-173.5) translate(11.618209876543226 36.48888888888889)"/><path d="M-60 0h180v80H-60z" stroke="#333" stroke-width="3" fill="#fff"/><use xlink:href="#f" transform="matrix(1,0,0,1,-51.99999999999997,8) translate(1.0441358024691425 36.48888888888889)"/><path d="M30-3v-71.03" stroke="#333" stroke-width="3" fill="none"/><path d="M31.48-1.5h-2.96v-1.54h2.96z" stroke="#333" stroke-width=".05" fill="#333"/><path d="M30-97.05l12.73 21.52H17.27z" stroke="#333" stroke-width="3" fill="#fff"/><path d="M175.34 398.5h220v80h-220z" stroke="#ced4db" stroke-width="3" fill="#fff"/><use xlink:href="#g" transform="matrix(1,0,0,1,183.33744470207694,406.5) translate(6.143518518518519 36.48888888888889)"/><path d="M490 398.5h220v80H490z" stroke="#ced4db" stroke-width="3" fill="#fff"/><use xlink:href="#h" transform="matrix(1,0,0,1,498.0041113687436,406.5) translate(-7.541358024691348 36.48888888888889)"/><path d="M810 398.5h220v80H810z" stroke="#ced4db" stroke-width="3" fill="#fff"/><use xlink:href="#i" transform="matrix(1,0,0,1,818.0041113687437,406.5) translate(6.205864197530872 36.48888888888889)"/><path d="M30 83v425a12 12 0 0 0 12 12h231.33a12 12 0 0 0 12-12v-25.27" stroke="#333" stroke-width="3" fill="none"/><path d="M31.48 83.04h-2.96V81.5h2.96z" stroke="#333" stroke-width=".05" fill="#333"/><path d="M295.5 500.16l-10.17-17.2-10.18 17.2" stroke="#333" stroke-width="3" fill="none"/><path d="M30 83v425a12 12 0 0 0 12 12h546a12 12 0 0 0 12-12v-25.27" stroke="#333" stroke-width="3" fill="none"/><path d="M31.48 83.04h-2.96V81.5h2.96z" stroke="#333" stroke-width=".05" fill="#333"/><path d="M610.18 500.16L600 482.96l-10.18 17.2" stroke="#333" stroke-width="3" fill="none"/><path d="M30 83v425a12 12 0 0 0 12 12h866a12 12 0 0 0 12-12v-25.27" stroke="#333" stroke-width="3" fill="none"/><path d="M31.48 83.04h-2.96V81.5h2.96z" stroke="#333" stroke-width=".05" fill="#333"/><path d="M930.18 500.16L920 482.96l-10.18 17.2" stroke="#333" stroke-width="3" fill="none"/><path d="M60 121.5h180v60H60z" fill="none"/><use xlink:href="#j" transform="matrix(1,0,0,1,60,121.5) translate(-17.20586419753083 34.044444444444444)"/><path d="M30 83v35a12 12 0 0 0 12 12h107.5a12 12 0 0 0 12-12V52a12 12 0 0 0-12-12h-25.27" stroke="#333" stroke-width="3" fill="none"/><path d="M31.48 83.04h-2.96V81.5h2.96z" stroke="#333" stroke-width=".05" fill="#333"/><path d="M141.66 29.82L124.46 40l17.2 10.18M30 83v35.75a12 12 0 0 0 12 12h266a12 12 0 0 1 12 12v34.52" stroke="#333" stroke-width="3" fill="none"/><path d="M31.48 83.04h-2.96V81.5h2.96z" stroke="#333" stroke-width=".05" fill="#333"/><path d="M309.82 159.84l10.18 17.2 10.18-17.2M30 83v35.75a12 12 0 0 0 12 12h546a12 12 0 0 1 12 12v34.52" stroke="#333" stroke-width="3" fill="none"/><path d="M31.48 83.04h-2.96V81.5h2.96z" stroke="#333" stroke-width=".05" fill="#333"/><path d="M589.82 159.84l10.18 17.2 10.18-17.2" stroke="#333" stroke-width="3" fill="none"/><path d="M30 83v35.75a12 12 0 0 0 12 12h866a12 12 0 0 1 12 12v34.52" stroke="#333" stroke-width="3" fill="none"/><path d="M31.48 83.04h-2.96V81.5h2.96z" stroke="#333" stroke-width=".05" fill="#333"/><path d="M909.82 159.84l10.18 17.2 10.18-17.2" stroke="#333" stroke-width="3" fill="none"/><path d="M885.17-130h160v80h-160z" stroke="#979ea8" stroke-width="3" fill="#fff"/><use xlink:href="#k" transform="matrix(1,0,0,1,893.1673355428352,-122) translate(22.778086419753095 36.48888888888889)"/><path d="M642.4 178.5V77.75a12 12 0 0 1 12-12h298.77a12 12 0 0 0 12-12v-76.28" stroke="#979ea8" stroke-width="3" fill="none"/><path d="M643.87 180h-2.95v-1.54h2.95z" stroke="#979ea8" stroke-width=".05" fill="#979ea8"/><path d="M965.17-45.55l12.72 21.5-25.46.02z" stroke="#979ea8" stroke-width="3" fill="#fff"/><path d="M965.17 178.5V-22.53" stroke="#979ea8" stroke-width="3" fill="none"/><path d="M966.64 180h-2.95v-1.54h2.94z" stroke="#979ea8" stroke-width=".05" fill="#979ea8"/><path d="M965.17-45.55l12.72 21.5-25.46.02z" stroke="#979ea8" stroke-width="3" fill="#fff"/><path d="M965.17 75.5v-98.03M965.17 75.46V77" stroke="#979ea8" stroke-width="3" fill="none"/><path d="M965.17-45.55l12.72 21.5-25.46.02z" stroke="#979ea8" stroke-width="3" fill="#fff"/><path d="M368.15 178.5V77.75a12 12 0 0 1 12-12h573.02a12 12 0 0 0 12-12v-76.28" stroke="#979ea8" stroke-width="3" fill="none"/><path d="M369.63 180h-2.95v-1.54h2.95z" stroke="#979ea8" stroke-width=".05" fill="#979ea8"/><path d="M965.17-45.55l12.72 21.5-25.46.02z" stroke="#979ea8" stroke-width="3" fill="#fff"/><path d="M30 83v35a12 12 0 0 0 12 12h860.67a12 12 0 0 0 12-12V-45.77" stroke="#333" stroke-width="3" fill="none"/><path d="M31.48 83.04h-2.96V81.5h2.96z" stroke="#333" stroke-width=".05" fill="#333"/><path d="M924.85-28.34l-10.18-17.2-10.18 17.2" stroke="#333" stroke-width="3" fill="none"/><defs><path fill="#282c33" d="M205 0l-28-72H64L36 0H1l101-248h38L239 0h-34zm-38-99l-47-123c-12 45-31 82-46 123h93" id="l"/><path fill="#282c33" d="M96-169c-40 0-48 33-48 73s9 75 48 75c24 0 41-14 43-38l32 2c-6 37-31 61-74 61-59 0-76-41-82-99-10-93 101-131 147-64 4 7 5 14 7 22l-32 3c-4-21-16-35-41-35" id="m"/><path fill="#282c33" d="M59-47c-2 24 18 29 38 22v24C64 9 27 4 27-40v-127H5v-23h24l9-43h21v43h35v23H59v120" id="n"/><path fill="#282c33" d="M84 4C-5 8 30-112 23-190h32v120c0 31 7 50 39 49 72-2 45-101 50-169h31l1 190h-30c-1-10 1-25-2-33-11 22-28 36-60 37" id="o"/><path fill="#282c33" d="M141-36C126-15 110 5 73 4 37 3 15-17 15-53c-1-64 63-63 125-63 3-35-9-54-41-54-24 1-41 7-42 31l-33-3c5-37 33-52 76-52 45 0 72 20 72 64v82c-1 20 7 32 28 27v20c-31 9-61-2-59-35zM48-53c0 20 12 33 32 33 41-3 63-29 60-74-43 2-92-5-92 41" id="p"/><path fill="#282c33" d="M24-231v-30h32v30H24zM24 0v-190h32V0H24" id="q"/><path fill="#282c33" d="M100-194c62-1 85 37 85 99 1 63-27 99-86 99S16-35 15-95c0-66 28-99 85-99zM99-20c44 1 53-31 53-75 0-43-8-75-51-75s-53 32-53 75 10 74 51 75" id="r"/><path fill="#282c33" d="M117-194c89-4 53 116 60 194h-32v-121c0-31-8-49-39-48C34-167 62-67 57 0H25l-1-190h30c1 10-1 24 2 32 11-22 29-35 61-36" id="s"/><g id="a"><use transform="matrix(0.06234567901234567,0,0,0.06234567901234567,0,0)" xlink:href="#l"/><use transform="matrix(0.06234567901234567,0,0,0.06234567901234567,14.96296296296296,0)" xlink:href="#m"/><use transform="matrix(0.06234567901234567,0,0,0.06234567901234567,26.18518518518518,0)" xlink:href="#n"/><use transform="matrix(0.06234567901234567,0,0,0.06234567901234567,32.419753086419746,0)" xlink:href="#o"/><use transform="matrix(0.06234567901234567,0,0,0.06234567901234567,44.88888888888888,0)" xlink:href="#p"/><use transform="matrix(0.06234567901234567,0,0,0.06234567901234567,57.35802469135801,0)" xlink:href="#n"/><use transform="matrix(0.06234567901234567,0,0,0.06234567901234567,63.59259259259258,0)" xlink:href="#q"/><use transform="matrix(0.06234567901234567,0,0,0.06234567901234567,68.51790123456789,0)" xlink:href="#r"/><use transform="matrix(0.06234567901234567,0,0,0.06234567901234567,80.98703703703703,0)" xlink:href="#s"/></g><path fill="#282c33" d="M140-251c81 0 123 46 123 126C263-46 219 4 140 4 59 4 17-45 17-125s42-126 123-126zm0 227c63 0 89-41 89-101s-29-99-89-99c-61 0-89 39-89 99S79-25 140-24" id="t"/><path fill="#282c33" d="M115-194c53 0 69 39 70 98 0 66-23 100-70 100C84 3 66-7 56-30L54 0H23l1-261h32v101c10-23 28-34 59-34zm-8 174c40 0 45-34 45-75 0-40-5-75-45-74-42 0-51 32-51 76 0 43 10 73 51 73" id="u"/><path fill="#282c33" d="M135-143c-3-34-86-38-87 0 15 53 115 12 119 90S17 21 10-45l28-5c4 36 97 45 98 0-10-56-113-15-118-90-4-57 82-63 122-42 12 7 21 19 24 35" id="v"/><path fill="#282c33" d="M100-194c63 0 86 42 84 106H49c0 40 14 67 53 68 26 1 43-12 49-29l28 8c-11 28-37 45-77 45C44 4 14-33 15-96c1-61 26-98 85-98zm52 81c6-60-76-77-97-28-3 7-6 17-6 28h103" id="w"/><path fill="#282c33" d="M114-163C36-179 61-72 57 0H25l-1-190h30c1 12-1 29 2 39 6-27 23-49 58-41v29" id="x"/><path fill="#282c33" d="M108 0H70L1-190h34L89-25l56-165h34" id="y"/><g id="b"><use transform="matrix(0.06234567901234567,0,0,0.06234567901234567,0,0)" xlink:href="#t"/><use transform="matrix(0.06234567901234567,0,0,0.06234567901234567,17.456790123456788,0)" xlink:href="#u"/><use transform="matrix(0.06234567901234567,0,0,0.06234567901234567,29.92592592592592,0)" xlink:href="#v"/><use transform="matrix(0.06234567901234567,0,0,0.06234567901234567,41.14814814814814,0)" xlink:href="#w"/><use transform="matrix(0.06234567901234567,0,0,0.06234567901234567,53.61728395061727,0)" xlink:href="#x"/><use transform="matrix(0.06234567901234567,0,0,0.06234567901234567,61.036419753086406,0)" xlink:href="#y"/><use transform="matrix(0.06234567901234567,0,0,0.06234567901234567,72.25864197530862,0)" xlink:href="#p"/><use transform="matrix(0.06234567901234567,0,0,0.06234567901234567,84.72777777777776,0)" xlink:href="#n"/><use transform="matrix(0.06234567901234567,0,0,0.06234567901234567,90.96234567901233,0)" xlink:href="#q"/><use transform="matrix(0.06234567901234567,0,0,0.06234567901234567,95.88765432098764,0)" xlink:href="#r"/><use transform="matrix(0.06234567901234567,0,0,0.06234567901234567,108.35679012345676,0)" xlink:href="#s"/></g><path fill="#282c33" d="M67-158c15-20 31-36 64-36 94 0 33 127 27 194h-32l25-140c3-38-53-32-70-12C52-117 51-51 37 0H6l51-261h31" id="z"/><path fill="#282c33" d="M165-48c-4 18 1 34 23 27l-3 20c-29 8-62 0-52-35h-2C116-14 99 4 63 4 30 4 8-16 8-49c0-68 71-67 138-67 10-26 0-56-31-54-26 1-42 9-47 31l-32-5c8-67 160-71 144 15-5 28-9 54-15 81zM42-50c3 52 80 24 89-6 7-12 7-24 11-38-47 1-103-4-100 44" id="A"/><path fill="#282c33" d="M55-144c13 50 104 24 104 88C159 21 15 23 1-39l26-10c6 40 102 42 102-4-13-50-104-23-104-87 0-71 143-71 148-8l-29 4c-5-35-85-37-89 0" id="B"/><path fill="#282c33" d="M222 0l43-216c-8 16-17 34-26 49L143 0h-22L81-216 41 0H11l48-248h42l38 208 116-208h45L252 0h-30" id="C"/><path fill="#282c33" d="M111-194c62-3 86 47 72 106H45c-7 38 6 69 45 68 27-1 43-14 53-32l24 11C152-15 129 4 87 4 38 3 12-23 12-71c0-70 32-119 99-123zm44 81c14-66-71-72-95-28-4 8-8 17-11 28h106" id="D"/><path fill="#282c33" d="M248-111c6-24 9-61-24-58-72 9-57 108-77 169h-31l26-142c3-37-50-30-64-10C52-115 50-51 37 0H6l36-190h30c-1 10-6 24-4 32 13-43 101-52 105 5 13-22 29-41 61-41 90 0 28 129 23 194h-31" id="E"/><path fill="#282c33" d="M68-162c25-46 127-43 121 31C183-60 169 1 98 4 69 5 53-11 43-31L36 0H5l52-261h31zm88 36c2-27-9-43-34-43-55 0-70 51-70 103 0 29 15 45 43 46 52 0 58-58 61-106" id="F"/><path fill="#282c33" d="M66-151c12-25 30-51 66-40l-6 26C45-176 58-65 38 0H6l36-190h30" id="G"/><g id="c"><use transform="matrix(0.056172839506172814,0,0,0.056172839506172814,0,0)" xlink:href="#z"/><use transform="matrix(0.056172839506172814,0,0,0.056172839506172814,11.234567901234563,0)" xlink:href="#A"/><use transform="matrix(0.056172839506172814,0,0,0.056172839506172814,22.469135802469125,0)" xlink:href="#B"/><use transform="matrix(0.056172839506172814,0,0,0.056172839506172814,32.58024691358023,0)" xlink:href="#C"/><use transform="matrix(0.056172839506172814,0,0,0.056172839506172814,49.375925925925905,0)" xlink:href="#D"/><use transform="matrix(0.056172839506172814,0,0,0.056172839506172814,60.61049382716047,0)" xlink:href="#E"/><use transform="matrix(0.056172839506172814,0,0,0.056172839506172814,77.40617283950614,0)" xlink:href="#F"/><use transform="matrix(0.056172839506172814,0,0,0.056172839506172814,88.64074074074071,0)" xlink:href="#D"/><use transform="matrix(0.056172839506172814,0,0,0.056172839506172814,99.87530864197527,0)" xlink:href="#G"/></g><path fill="#282c33" d="M185-189c-5-48-123-54-124 2 14 75 158 14 163 119 3 78-121 87-175 55-17-10-28-26-33-46l33-7c5 56 141 63 141-1 0-78-155-14-162-118-5-82 145-84 179-34 5 7 8 16 11 25" id="H"/><path fill="#282c33" d="M210-169c-67 3-38 105-44 169h-31v-121c0-29-5-50-35-48C34-165 62-65 56 0H25l-1-190h30c1 10-1 24 2 32 10-44 99-50 107 0 11-21 27-35 58-36 85-2 47 119 55 194h-31v-121c0-29-5-49-35-48" id="I"/><path fill="#282c33" d="M115-194c55 1 70 41 70 98S169 2 115 4C84 4 66-9 55-30l1 105H24l-1-265h31l2 30c10-21 28-34 59-34zm-8 174c40 0 45-34 45-75s-6-73-45-74c-42 0-51 32-51 76 0 43 10 73 51 73" id="J"/><path fill="#282c33" d="M24 0v-261h32V0H24" id="K"/><path fill="#282c33" d="M177-190C167-65 218 103 67 71c-23-6-38-20-44-43l32-5c15 47 100 32 89-28v-30C133-14 115 1 83 1 29 1 15-40 15-95c0-56 16-97 71-98 29-1 48 16 59 35 1-10 0-23 2-32h30zM94-22c36 0 50-32 50-73 0-42-14-75-50-75-39 0-46 34-46 75s6 73 46 73" id="L"/><g id="d"><use transform="matrix(0.06234567901234567,0,0,0.06234567901234567,0,0)" xlink:href="#H"/><use transform="matrix(0.06234567901234567,0,0,0.06234567901234567,14.96296296296296,0)" xlink:href="#p"/><use transform="matrix(0.06234567901234567,0,0,0.06234567901234567,27.432098765432094,0)" xlink:href="#I"/><use transform="matrix(0.06234567901234567,0,0,0.06234567901234567,46.073456790123444,0)" xlink:href="#J"/><use transform="matrix(0.06234567901234567,0,0,0.06234567901234567,58.54259259259258,0)" xlink:href="#K"/><use transform="matrix(0.06234567901234567,0,0,0.06234567901234567,63.46790123456788,0)" xlink:href="#q"/><use transform="matrix(0.06234567901234567,0,0,0.06234567901234567,68.3932098765432,0)" xlink:href="#s"/><use transform="matrix(0.06234567901234567,0,0,0.06234567901234567,80.86234567901232,0)" xlink:href="#L"/></g><path fill="#282c33" d="M33-154v-36h34v36H33zM33 0v-36h34V0H33" id="M"/><path fill="#282c33" d="M179-190L93 31C79 59 56 82 12 73V49c39 6 53-20 64-50L1-190h34L92-34l54-156h33" id="N"/><g id="e"><use transform="matrix(0.06234567901234567,0,0,0.06234567901234567,0,0)" xlink:href="#J"/><use transform="matrix(0.06234567901234567,0,0,0.06234567901234567,12.469135802469133,0)" xlink:href="#x"/><use transform="matrix(0.06234567901234567,0,0,0.06234567901234567,19.888271604938268,0)" xlink:href="#r"/><use transform="matrix(0.06234567901234567,0,0,0.06234567901234567,32.3574074074074,0)" xlink:href="#y"/><use transform="matrix(0.06234567901234567,0,0,0.06234567901234567,43.57962962962962,0)" xlink:href="#M"/><use transform="matrix(0.06234567901234567,0,0,0.06234567901234567,49.81419753086419,0)" xlink:href="#l"/><use transform="matrix(0.06234567901234567,0,0,0.06234567901234567,64.77716049382715,0)" xlink:href="#m"/><use transform="matrix(0.06234567901234567,0,0,0.06234567901234567,75.99938271604937,0)" xlink:href="#n"/><use transform="matrix(0.06234567901234567,0,0,0.06234567901234567,82.23395061728394,0)" xlink:href="#q"/><use transform="matrix(0.06234567901234567,0,0,0.06234567901234567,87.15925925925924,0)" xlink:href="#y"/><use transform="matrix(0.06234567901234567,0,0,0.06234567901234567,98.38148148148146,0)" xlink:href="#q"/><use transform="matrix(0.06234567901234567,0,0,0.06234567901234567,103.30679012345676,0)" xlink:href="#n"/><use transform="matrix(0.06234567901234567,0,0,0.06234567901234567,109.54135802469133,0)" xlink:href="#N"/></g><path fill="#282c33" d="M16-82v-28h88v28H16" id="O"/><g id="f"><use transform="matrix(0.06234567901234567,0,0,0.06234567901234567,0,0)" xlink:href="#v"/><use transform="matrix(0.06234567901234567,0,0,0.06234567901234567,11.22222222222222,0)" xlink:href="#r"/><use transform="matrix(0.06234567901234567,0,0,0.06234567901234567,23.691358024691354,0)" xlink:href="#v"/><use transform="matrix(0.06234567901234567,0,0,0.06234567901234567,34.913580246913575,0)" xlink:href="#p"/><use transform="matrix(0.06234567901234567,0,0,0.06234567901234567,47.38271604938271,0)" xlink:href="#O"/><use transform="matrix(0.06234567901234567,0,0,0.06234567901234567,54.80185185185184,0)" xlink:href="#p"/><use transform="matrix(0.06234567901234567,0,0,0.06234567901234567,67.27098765432098,0)" xlink:href="#m"/><use transform="matrix(0.06234567901234567,0,0,0.06234567901234567,78.49320987654319,0)" xlink:href="#n"/><use transform="matrix(0.06234567901234567,0,0,0.06234567901234567,84.72777777777776,0)" xlink:href="#M"/><use transform="matrix(0.06234567901234567,0,0,0.06234567901234567,90.96234567901233,0)" xlink:href="#l"/><use transform="matrix(0.06234567901234567,0,0,0.06234567901234567,105.92530864197529,0)" xlink:href="#m"/><use transform="matrix(0.06234567901234567,0,0,0.06234567901234567,117.1475308641975,0)" xlink:href="#n"/><use transform="matrix(0.06234567901234567,0,0,0.06234567901234567,123.38209876543208,0)" xlink:href="#q"/><use transform="matrix(0.06234567901234567,0,0,0.06234567901234567,128.3074074074074,0)" xlink:href="#y"/><use transform="matrix(0.06234567901234567,0,0,0.06234567901234567,139.52962962962962,0)" xlink:href="#q"/><use transform="matrix(0.06234567901234567,0,0,0.06234567901234567,144.45493827160493,0)" xlink:href="#n"/><use transform="matrix(0.06234567901234567,0,0,0.06234567901234567,150.6895061728395,0)" xlink:href="#N"/></g><path fill="#282c33" d="M212-179c-10-28-35-45-73-45-59 0-87 40-87 99 0 60 29 101 89 101 43 0 62-24 78-52l27 14C228-24 195 4 139 4 59 4 22-46 18-125c-6-104 99-153 187-111 19 9 31 26 39 46" id="P"/><g id="g"><use transform="matrix(0.06234567901234567,0,0,0.06234567901234567,0,0)" xlink:href="#l"/><use transform="matrix(0.06234567901234567,0,0,0.06234567901234567,14.96296296296296,0)" xlink:href="#m"/><use transform="matrix(0.06234567901234567,0,0,0.06234567901234567,26.18518518518518,0)" xlink:href="#n"/><use transform="matrix(0.06234567901234567,0,0,0.06234567901234567,32.419753086419746,0)" xlink:href="#o"/><use transform="matrix(0.06234567901234567,0,0,0.06234567901234567,44.88888888888888,0)" xlink:href="#p"/><use transform="matrix(0.06234567901234567,0,0,0.06234567901234567,57.35802469135801,0)" xlink:href="#n"/><use transform="matrix(0.06234567901234567,0,0,0.06234567901234567,63.59259259259258,0)" xlink:href="#q"/><use transform="matrix(0.06234567901234567,0,0,0.06234567901234567,68.51790123456789,0)" xlink:href="#r"/><use transform="matrix(0.06234567901234567,0,0,0.06234567901234567,80.98703703703703,0)" xlink:href="#s"/><use transform="matrix(0.06234567901234567,0,0,0.06234567901234567,93.45617283950617,0)" xlink:href="#P"/><use transform="matrix(0.06234567901234567,0,0,0.06234567901234567,109.6037037037037,0)" xlink:href="#r"/><use transform="matrix(0.06234567901234567,0,0,0.06234567901234567,122.07283950617284,0)" xlink:href="#K"/><use transform="matrix(0.06234567901234567,0,0,0.06234567901234567,126.99814814814815,0)" xlink:href="#K"/><use transform="matrix(0.06234567901234567,0,0,0.06234567901234567,131.92345679012345,0)" xlink:href="#w"/><use transform="matrix(0.06234567901234567,0,0,0.06234567901234567,144.3925925925926,0)" xlink:href="#m"/><use transform="matrix(0.06234567901234567,0,0,0.06234567901234567,155.61481481481482,0)" xlink:href="#n"/><use transform="matrix(0.06234567901234567,0,0,0.06234567901234567,161.84938271604938,0)" xlink:href="#q"/><use transform="matrix(0.06234567901234567,0,0,0.06234567901234567,166.77469135802468,0)" xlink:href="#r"/><use transform="matrix(0.06234567901234567,0,0,0.06234567901234567,179.24382716049382,0)" xlink:href="#s"/></g><g id="h"><use transform="matrix(0.06234567901234567,0,0,0.06234567901234567,0,0)" xlink:href="#t"/><use transform="matrix(0.06234567901234567,0,0,0.06234567901234567,17.456790123456788,0)" xlink:href="#u"/><use transform="matrix(0.06234567901234567,0,0,0.06234567901234567,29.92592592592592,0)" xlink:href="#v"/><use transform="matrix(0.06234567901234567,0,0,0.06234567901234567,41.14814814814814,0)" xlink:href="#w"/><use transform="matrix(0.06234567901234567,0,0,0.06234567901234567,53.61728395061727,0)" xlink:href="#x"/><use transform="matrix(0.06234567901234567,0,0,0.06234567901234567,61.036419753086406,0)" xlink:href="#y"/><use transform="matrix(0.06234567901234567,0,0,0.06234567901234567,72.25864197530862,0)" xlink:href="#p"/><use transform="matrix(0.06234567901234567,0,0,0.06234567901234567,84.72777777777776,0)" xlink:href="#n"/><use transform="matrix(0.06234567901234567,0,0,0.06234567901234567,90.96234567901233,0)" xlink:href="#q"/><use transform="matrix(0.06234567901234567,0,0,0.06234567901234567,95.88765432098764,0)" xlink:href="#r"/><use transform="matrix(0.06234567901234567,0,0,0.06234567901234567,108.35679012345676,0)" xlink:href="#s"/><use transform="matrix(0.06234567901234567,0,0,0.06234567901234567,120.8259259259259,0)" xlink:href="#P"/><use transform="matrix(0.06234567901234567,0,0,0.06234567901234567,136.97345679012344,0)" xlink:href="#r"/><use transform="matrix(0.06234567901234567,0,0,0.06234567901234567,149.44259259259258,0)" xlink:href="#K"/><use transform="matrix(0.06234567901234567,0,0,0.06234567901234567,154.36790123456788,0)" xlink:href="#K"/><use transform="matrix(0.06234567901234567,0,0,0.06234567901234567,159.2932098765432,0)" xlink:href="#w"/><use transform="matrix(0.06234567901234567,0,0,0.06234567901234567,171.76234567901233,0)" xlink:href="#m"/><use transform="matrix(0.06234567901234567,0,0,0.06234567901234567,182.98456790123456,0)" xlink:href="#n"/><use transform="matrix(0.06234567901234567,0,0,0.06234567901234567,189.2191358024691,0)" xlink:href="#q"/><use transform="matrix(0.06234567901234567,0,0,0.06234567901234567,194.14444444444442,0)" xlink:href="#r"/><use transform="matrix(0.06234567901234567,0,0,0.06234567901234567,206.61358024691356,0)" xlink:href="#s"/></g><g id="i"><use transform="matrix(0.06234567901234567,0,0,0.06234567901234567,0,0)" xlink:href="#H"/><use transform="matrix(0.06234567901234567,0,0,0.06234567901234567,14.96296296296296,0)" xlink:href="#p"/><use transform="matrix(0.06234567901234567,0,0,0.06234567901234567,27.432098765432094,0)" xlink:href="#I"/><use transform="matrix(0.06234567901234567,0,0,0.06234567901234567,46.073456790123444,0)" xlink:href="#J"/><use transform="matrix(0.06234567901234567,0,0,0.06234567901234567,58.54259259259258,0)" xlink:href="#K"/><use transform="matrix(0.06234567901234567,0,0,0.06234567901234567,63.46790123456788,0)" xlink:href="#q"/><use transform="matrix(0.06234567901234567,0,0,0.06234567901234567,68.3932098765432,0)" xlink:href="#s"/><use transform="matrix(0.06234567901234567,0,0,0.06234567901234567,80.86234567901232,0)" xlink:href="#L"/><use transform="matrix(0.06234567901234567,0,0,0.06234567901234567,93.33148148148146,0)" xlink:href="#P"/><use transform="matrix(0.06234567901234567,0,0,0.06234567901234567,109.479012345679,0)" xlink:href="#r"/><use transform="matrix(0.06234567901234567,0,0,0.06234567901234567,121.94814814814814,0)" xlink:href="#K"/><use transform="matrix(0.06234567901234567,0,0,0.06234567901234567,126.87345679012344,0)" xlink:href="#K"/><use transform="matrix(0.06234567901234567,0,0,0.06234567901234567,131.79876543209875,0)" xlink:href="#w"/><use transform="matrix(0.06234567901234567,0,0,0.06234567901234567,144.2679012345679,0)" xlink:href="#m"/><use transform="matrix(0.06234567901234567,0,0,0.06234567901234567,155.49012345679012,0)" xlink:href="#n"/><use transform="matrix(0.06234567901234567,0,0,0.06234567901234567,161.72469135802467,0)" xlink:href="#q"/><use transform="matrix(0.06234567901234567,0,0,0.06234567901234567,166.64999999999998,0)" xlink:href="#r"/><use transform="matrix(0.06234567901234567,0,0,0.06234567901234567,179.11913580246912,0)" xlink:href="#s"/></g><path fill="#282c33" d="M30-147c31-64 166-65 159 27C183-49 158 1 86 4 9 8 1-88 30-147zM88-20c53 0 68-48 68-100 0-31-11-51-44-50-52 1-68 46-68 97 0 32 13 53 44 53" id="Q"/><path fill="#282c33" d="M18-82l6-28h88l-6 28H18" id="R"/><path fill="#282c33" d="M44-68c0 29 11 47 38 47 30 0 42-19 51-41l28 9C148-21 126 4 82 4 31 4 10-29 12-85c3-77 74-140 146-93 12 8 15 23 18 40l-31 5c-1-22-13-36-36-36-52 0-65 49-65 101" id="S"/><path fill="#282c33" d="M51-54c-9 22 5 41 31 30L79-1C43 14 10-4 19-52l22-115H19l5-23h22l19-43h21l-9 43h35l-4 23H73" id="T"/><path fill="#282c33" d="M44-154l7-36h35l-8 36H44zM14 0l7-36h35L49 0H14" id="U"/><path fill="#282c33" d="M194-120c59 52 2 134-86 124-53-6-90-18-98-63l31-7c8 30 29 43 70 43 46 0 84-17 71-62-32-43-135-20-137-98-3-89 178-90 191-16l-30 9c-8-48-127-53-127 5 0 53 81 35 115 65" id="V"/><path fill="#282c33" d="M67 3c-93-2-31-127-26-193h32L48-50c-3 39 53 32 70 12 30-34 30-101 43-152h32L157 0h-30c1-10 6-24 4-33-14 20-29 37-64 36" id="W"/><path fill="#282c33" d="M187 0l-14-72H61L19 0h-37l149-248h38L221 0h-34zm-19-99l-22-123L76-99h92" id="X"/><path fill="#282c33" d="M50-231l6-30h32l-6 30H50zM6 0l37-190h31L37 0H6" id="Y"/><path fill="#282c33" d="M89 0H52L20-190h33L74-25l89-165h34" id="Z"/><path fill="#282c33" d="M198-190L69 30C53 58 25 83-20 72c4-11-1-27 19-22 33-1 43-29 59-52L20-190h32L79-34l84-156h35" id="aa"/><g id="j"><use transform="matrix(0.056172839506172814,0,0,0.056172839506172814,0,0)" xlink:href="#B"/><use transform="matrix(0.056172839506172814,0,0,0.056172839506172814,10.111111111111107,0)" xlink:href="#Q"/><use transform="matrix(0.056172839506172814,0,0,0.056172839506172814,21.34567901234567,0)" xlink:href="#B"/><use transform="matrix(0.056172839506172814,0,0,0.056172839506172814,31.456790123456777,0)" xlink:href="#A"/><use transform="matrix(0.056172839506172814,0,0,0.056172839506172814,42.69135802469134,0)" xlink:href="#R"/><use transform="matrix(0.056172839506172814,0,0,0.056172839506172814,49.375925925925905,0)" xlink:href="#A"/><use transform="matrix(0.056172839506172814,0,0,0.056172839506172814,60.61049382716047,0)" xlink:href="#S"/><use transform="matrix(0.056172839506172814,0,0,0.056172839506172814,70.72160493827158,0)" xlink:href="#T"/><use transform="matrix(0.056172839506172814,0,0,0.056172839506172814,76.33888888888886,0)" xlink:href="#U"/><use transform="matrix(0.056172839506172814,0,0,0.056172839506172814,81.95617283950614,0)" xlink:href="#z"/><use transform="matrix(0.056172839506172814,0,0,0.056172839506172814,93.1907407407407,0)" xlink:href="#A"/><use transform="matrix(0.056172839506172814,0,0,0.056172839506172814,104.42530864197525,0)" xlink:href="#B"/><use transform="matrix(0.056172839506172814,0,0,0.056172839506172814,114.53641975308636,0)" xlink:href="#V"/><use transform="matrix(0.056172839506172814,0,0,0.056172839506172814,128.01790123456783,0)" xlink:href="#W"/><use transform="matrix(0.056172839506172814,0,0,0.056172839506172814,139.2524691358024,0)" xlink:href="#F"/><use transform="matrix(0.056172839506172814,0,0,0.056172839506172814,150.48703703703694,0)" xlink:href="#X"/><use transform="matrix(0.056172839506172814,0,0,0.056172839506172814,163.9685185185184,0)" xlink:href="#S"/><use transform="matrix(0.056172839506172814,0,0,0.056172839506172814,174.07962962962952,0)" xlink:href="#T"/><use transform="matrix(0.056172839506172814,0,0,0.056172839506172814,179.69691358024681,0)" xlink:href="#Y"/><use transform="matrix(0.056172839506172814,0,0,0.056172839506172814,184.13456790123448,0)" xlink:href="#Z"/><use transform="matrix(0.056172839506172814,0,0,0.056172839506172814,194.2456790123456,0)" xlink:href="#Y"/><use transform="matrix(0.056172839506172814,0,0,0.056172839506172814,198.68333333333325,0)" xlink:href="#T"/><use transform="matrix(0.056172839506172814,0,0,0.056172839506172814,204.30061728395054,0)" xlink:href="#aa"/></g><path fill="#282c33" d="M30 0v-248h187v28H63v79h144v27H63v87h162V0H30" id="ab"/><path fill="#282c33" d="M141 0L90-78 38 0H4l68-98-65-92h35l48 74 47-74h35l-64 92 68 98h-35" id="ac"/><g id="k"><use transform="matrix(0.06234567901234567,0,0,0.06234567901234567,0,0)" xlink:href="#ab"/><use transform="matrix(0.06234567901234567,0,0,0.06234567901234567,14.96296296296296,0)" xlink:href="#ac"/><use transform="matrix(0.06234567901234567,0,0,0.06234567901234567,26.18518518518518,0)" xlink:href="#w"/><use transform="matrix(0.06234567901234567,0,0,0.06234567901234567,38.654320987654316,0)" xlink:href="#m"/><use transform="matrix(0.06234567901234567,0,0,0.06234567901234567,49.87654320987654,0)" xlink:href="#o"/><use transform="matrix(0.06234567901234567,0,0,0.06234567901234567,62.34567901234567,0)" xlink:href="#n"/><use transform="matrix(0.06234567901234567,0,0,0.06234567901234567,68.58024691358024,0)" xlink:href="#q"/><use transform="matrix(0.06234567901234567,0,0,0.06234567901234567,73.50555555555555,0)" xlink:href="#r"/><use transform="matrix(0.06234567901234567,0,0,0.06234567901234567,85.97469135802467,0)" xlink:href="#s"/></g></defs></g></svg>