<svg xmlns="http://www.w3.org/2000/svg" xmlns:xlink="http://www.w3.org/1999/xlink" xmlns:lucid="lucid" width="763.05" height="441"><g transform="translate(-1177.4457620817468 -939.5)" lucid:page-tab-id="0_0"><path d="M0 0h2634.9v2346.38H0z" fill="#fff"/><path d="M1799.13 1198.53A11.65 11.65 0 0 0 1810 1206h102a8 8 0 0 1 8 8v138a8 8 0 0 1-8 8h-304a8 8 0 0 1-8-8v-164a8 8 0 0 1 8-8h176a11.65 11.65 0 0 1 10.87 7.47zM1600 1206h202" stroke="#333" fill="#ffd9d9"/><use xlink:href="#a" transform="matrix(1,0,0,1,1608,1180) translate(48.074999999999996 16.6)"/><use xlink:href="#b" transform="matrix(1,0,0,1,1612,1214) translate(0 40.19999999999999)"/><use xlink:href="#c" transform="matrix(1,0,0,1,1612,1214) translate(0 61.79999999999999)"/><use xlink:href="#d" transform="matrix(1,0,0,1,1612,1214) translate(0 83.4)"/><use xlink:href="#e" transform="matrix(1,0,0,1,1612,1214) translate(0 105)"/><path d="M1399.13 1198.53A11.65 11.65 0 0 0 1410 1206h102a8 8 0 0 1 8 8v138a8 8 0 0 1-8 8h-304a8 8 0 0 1-8-8v-164a8 8 0 0 1 8-8h176a11.65 11.65 0 0 1 10.87 7.47zM1200 1206h202" stroke="#333" fill="#ffd6f5"/><use xlink:href="#f" transform="matrix(1,0,0,1,1208,1180) translate(48.55 16.6)"/><use xlink:href="#g" transform="matrix(1,0,0,1,1212,1214) translate(0 51)"/><use xlink:href="#h" transform="matrix(1,0,0,1,1212,1214) translate(0 72.60000000000001)"/><use xlink:href="#i" transform="matrix(1,0,0,1,1212,1214) translate(0 94.20000000000002)"/><path d="M1553.7 978.27a10.44 10.44 0 0 0 10.08 7.73H1632a8 8 0 0 1 8 8v58a8 8 0 0 1-8 8h-211.22a8 8 0 0 1-8-8v-84a8 8 0 0 1 8-8h120a10.44 10.44 0 0 1 10.07 7.73zM1412.77 986h143" stroke="#333" fill="#ced4db"/><use xlink:href="#j" transform="matrix(1,0,0,1,1420.774525774339,960) translate(21.049999999999997 16.6)"/><path d="M1526.4 1061v7.83m0 7.84v15.66m0 7.84v7.83l-.16 1.88-.44 1.83-.72 1.75-.98 1.6-1.23 1.43-1.43 1.23-1.6 1-1.74.7-1.84.45-1.87.15h-9.14m-9.13 0h-18.25m-9.13 0h-18.25m-9.13 0h-18.25m-9.13 0h-18.27m-9.12 0h-9.12l-1.88.15-1.83.44-1.74.7-1.6 1-1.44 1.22-1.23 1.43-.98 1.6-.73 1.74-.44 1.82-.15 1.88v7.77m0 7.76v15.53m0 7.77v7.76" stroke="#333" fill="none"/><path d="M1526.86 1061h-.95v-.5h.96z" stroke="#333" stroke-width=".05" fill="#333"/><path d="M1355.3 1161.3l10.18 17.22 10.18-17.22M1526.4 1061v7.83m0 7.84v15.66m0 7.84v7.83l.13 1.88.44 1.83.72 1.75.98 1.6 1.22 1.43 1.43 1.23 1.6 1 1.75.7 1.83.45 1.9.15h9.43m9.44 0h18.88m9.44 0h18.87m9.44 0h18.9m9.43 0h18.88m9.45 0h18.88m9.44 0h9.44l1.88.15 1.83.44 1.75.7 1.6 1 1.44 1.22 1.2 1.43 1 1.6.72 1.74.44 1.82.15 1.88v7.77m0 7.76v15.53m0 7.77v7.76" stroke="#333" fill="none"/><path d="M1526.86 1061h-.95v-.5h.96z" stroke="#333" stroke-width=".05" fill="#333"/><path d="M1710.13 1161.3l10.18 17.22 10.2-17.22" stroke="#333" fill="none"/><path d="M1197.45 1108a8 8 0 0 1 8-8h224a8 8 0 0 1 8 8v44a8 8 0 0 1-8 8h-224a8 8 0 0 1-8-8z" fill="none"/><g><use xlink:href="#k" transform="matrix(1,0,0,1,1197.4457620817468,1100) translate(84.625 33.6)"/></g><path d="M1640 1108a8 8 0 0 1 8-8h224a8 8 0 0 1 8 8v44a8 8 0 0 1-8 8h-224a8 8 0 0 1-8-8z" fill="none"/><g><use xlink:href="#k" transform="matrix(1,0,0,1,1640.0000000000155,1100) translate(84.625 33.6)"/></g><defs><path fill="#333" d="M240 0l2-218c-23 76-54 145-80 218h-23L58-218 59 0H30v-248h44l77 211c21-75 51-140 76-211h43V0h-30" id="l"/><path fill="#333" d="M100-194c62-1 85 37 85 99 1 63-27 99-86 99S16-35 15-95c0-66 28-99 85-99zM99-20c44 1 53-31 53-75 0-43-8-75-51-75s-53 32-53 75 10 74 51 75" id="m"/><path fill="#333" d="M85-194c31 0 48 13 60 33l-1-100h32l1 261h-30c-2-10 0-23-3-31C134-8 116 4 85 4 32 4 16-35 15-94c0-66 23-100 70-100zm9 24c-40 0-46 34-46 75 0 40 6 74 45 74 42 0 51-32 51-76 0-42-9-74-50-73" id="n"/><path fill="#333" d="M84 4C-5 8 30-112 23-190h32v120c0 31 7 50 39 49 72-2 45-101 50-169h31l1 190h-30c-1-10 1-25-2-33-11 22-28 36-60 37" id="o"/><path fill="#333" d="M24 0v-261h32V0H24" id="p"/><path fill="#333" d="M100-194c63 0 86 42 84 106H49c0 40 14 67 53 68 26 1 43-12 49-29l28 8c-11 28-37 45-77 45C44 4 14-33 15-96c1-61 26-98 85-98zm52 81c6-60-76-77-97-28-3 7-6 17-6 28h103" id="q"/><path fill="#333" d="M212-179c-10-28-35-45-73-45-59 0-87 40-87 99 0 60 29 101 89 101 43 0 62-24 78-52l27 14C228-24 195 4 139 4 59 4 22-46 18-125c-6-104 99-153 187-111 19 9 31 26 39 46" id="r"/><g id="a"><use transform="matrix(0.05,0,0,0.05,0,0)" xlink:href="#l"/><use transform="matrix(0.05,0,0,0.05,14.950000000000001,0)" xlink:href="#m"/><use transform="matrix(0.05,0,0,0.05,24.950000000000003,0)" xlink:href="#n"/><use transform="matrix(0.05,0,0,0.05,34.95,0)" xlink:href="#o"/><use transform="matrix(0.05,0,0,0.05,44.95,0)" xlink:href="#p"/><use transform="matrix(0.05,0,0,0.05,48.900000000000006,0)" xlink:href="#q"/><use transform="matrix(0.05,0,0,0.05,58.900000000000006,0)" xlink:href="#r"/></g><path fill="#333" d="M141-36C126-15 110 5 73 4 37 3 15-17 15-53c-1-64 63-63 125-63 3-35-9-54-41-54-24 1-41 7-42 31l-33-3c5-37 33-52 76-52 45 0 72 20 72 64v82c-1 20 7 32 28 27v20c-31 9-61-2-59-35zM48-53c0 20 12 33 32 33 41-3 63-29 60-74-43 2-92-5-92 41" id="s"/><path fill="#333" d="M135-143c-3-34-86-38-87 0 15 53 115 12 119 90S17 21 10-45l28-5c4 36 97 45 98 0-10-56-113-15-118-90-4-57 82-63 122-42 12 7 21 19 24 35" id="t"/><path fill="#333" d="M134-131c28 9 52 24 51 62-1 50-34 73-85 73S17-19 16-69c0-36 21-54 49-61-75-25-45-126 34-121 46 3 78 18 79 63 0 33-17 51-44 57zm-34-11c31 1 46-15 46-44 0-28-17-43-47-42-29 0-46 13-45 42 1 28 16 44 46 44zm1 122c35 0 51-18 51-52 0-30-18-46-53-46-33 0-51 17-51 47 0 34 19 51 53 51" id="u"/><g id="b"><use transform="matrix(0.05,0,0,0.05,0,0)" xlink:href="#r"/><use transform="matrix(0.05,0,0,0.05,12.950000000000001,0)" xlink:href="#p"/><use transform="matrix(0.05,0,0,0.05,16.900000000000002,0)" xlink:href="#s"/><use transform="matrix(0.05,0,0,0.05,26.900000000000002,0)" xlink:href="#t"/><use transform="matrix(0.05,0,0,0.05,35.900000000000006,0)" xlink:href="#t"/><use transform="matrix(0.05,0,0,0.05,44.900000000000006,0)" xlink:href="#u"/></g><path fill="#333" d="M99-251c64 0 84 50 84 122C183-37 130 33 47-8c-14-7-20-23-25-40l30-5c6 39 69 39 84 7 9-19 16-44 16-74-10 22-31 35-62 35-49 0-73-33-73-83 0-54 28-83 82-83zm-1 141c31-1 51-18 51-49 0-36-14-67-51-67-34 0-49 23-49 58 0 34 15 58 49 58" id="v"/><g id="c"><use transform="matrix(0.05,0,0,0.05,0,0)" xlink:href="#r"/><use transform="matrix(0.05,0,0,0.05,12.950000000000001,0)" xlink:href="#p"/><use transform="matrix(0.05,0,0,0.05,16.900000000000002,0)" xlink:href="#s"/><use transform="matrix(0.05,0,0,0.05,26.900000000000002,0)" xlink:href="#t"/><use transform="matrix(0.05,0,0,0.05,35.900000000000006,0)" xlink:href="#t"/><use transform="matrix(0.05,0,0,0.05,44.900000000000006,0)" xlink:href="#v"/></g><path fill="#333" d="M27 0v-27h64v-190l-56 39v-29l58-41h29v221h61V0H27" id="w"/><path fill="#333" d="M101-251c68 0 85 55 85 127S166 4 100 4C33 4 14-52 14-124c0-73 17-127 87-127zm-1 229c47 0 54-49 54-102s-4-102-53-102c-51 0-55 48-55 102 0 53 5 102 54 102" id="x"/><g id="d"><use transform="matrix(0.05,0,0,0.05,0,0)" xlink:href="#r"/><use transform="matrix(0.05,0,0,0.05,12.950000000000001,0)" xlink:href="#p"/><use transform="matrix(0.05,0,0,0.05,16.900000000000002,0)" xlink:href="#s"/><use transform="matrix(0.05,0,0,0.05,26.900000000000002,0)" xlink:href="#t"/><use transform="matrix(0.05,0,0,0.05,35.900000000000006,0)" xlink:href="#t"/><use transform="matrix(0.05,0,0,0.05,44.900000000000006,0)" xlink:href="#w"/><use transform="matrix(0.05,0,0,0.05,54.900000000000006,0)" xlink:href="#x"/></g><g id="e"><use transform="matrix(0.05,0,0,0.05,0,0)" xlink:href="#r"/><use transform="matrix(0.05,0,0,0.05,12.950000000000001,0)" xlink:href="#p"/><use transform="matrix(0.05,0,0,0.05,16.900000000000002,0)" xlink:href="#s"/><use transform="matrix(0.05,0,0,0.05,26.900000000000002,0)" xlink:href="#t"/><use transform="matrix(0.05,0,0,0.05,35.900000000000006,0)" xlink:href="#t"/><use transform="matrix(0.05,0,0,0.05,44.900000000000006,0)" xlink:href="#w"/><use transform="matrix(0.05,0,0,0.05,53.550000000000004,0)" xlink:href="#w"/></g><path fill="#333" d="M160-131c35 5 61 23 61 61C221 17 115-2 30 0v-248c76 3 177-17 177 60 0 33-19 50-47 57zm-97-11c50-1 110 9 110-42 0-47-63-36-110-37v79zm0 115c55-2 124 14 124-45 0-56-70-42-124-44v89" id="y"/><g id="f"><use transform="matrix(0.05,0,0,0.05,0,0)" xlink:href="#l"/><use transform="matrix(0.05,0,0,0.05,14.950000000000001,0)" xlink:href="#m"/><use transform="matrix(0.05,0,0,0.05,24.950000000000003,0)" xlink:href="#n"/><use transform="matrix(0.05,0,0,0.05,34.95,0)" xlink:href="#o"/><use transform="matrix(0.05,0,0,0.05,44.95,0)" xlink:href="#p"/><use transform="matrix(0.05,0,0,0.05,48.900000000000006,0)" xlink:href="#q"/><use transform="matrix(0.05,0,0,0.05,58.900000000000006,0)" xlink:href="#y"/></g><g id="g"><use transform="matrix(0.05,0,0,0.05,0,0)" xlink:href="#r"/><use transform="matrix(0.05,0,0,0.05,12.950000000000001,0)" xlink:href="#p"/><use transform="matrix(0.05,0,0,0.05,16.900000000000002,0)" xlink:href="#s"/><use transform="matrix(0.05,0,0,0.05,26.900000000000002,0)" xlink:href="#t"/><use transform="matrix(0.05,0,0,0.05,35.900000000000006,0)" xlink:href="#t"/><use transform="matrix(0.05,0,0,0.05,44.900000000000006,0)" xlink:href="#w"/></g><path fill="#333" d="M101-251c82-7 93 87 43 132L82-64C71-53 59-42 53-27h129V0H18c2-99 128-94 128-182 0-28-16-43-45-43s-46 15-49 41l-32-3c6-41 34-60 81-64" id="z"/><g id="h"><use transform="matrix(0.05,0,0,0.05,0,0)" xlink:href="#r"/><use transform="matrix(0.05,0,0,0.05,12.950000000000001,0)" xlink:href="#p"/><use transform="matrix(0.05,0,0,0.05,16.900000000000002,0)" xlink:href="#s"/><use transform="matrix(0.05,0,0,0.05,26.900000000000002,0)" xlink:href="#t"/><use transform="matrix(0.05,0,0,0.05,35.900000000000006,0)" xlink:href="#t"/><use transform="matrix(0.05,0,0,0.05,44.900000000000006,0)" xlink:href="#z"/></g><path fill="#333" d="M126-127c33 6 58 20 58 59 0 88-139 92-164 29-3-8-5-16-6-25l32-3c6 27 21 44 54 44 32 0 52-15 52-46 0-38-36-46-79-43v-28c39 1 72-4 72-42 0-27-17-43-46-43-28 0-47 15-49 41l-32-3c6-42 35-63 81-64 48-1 79 21 79 65 0 36-21 52-52 59" id="A"/><g id="i"><use transform="matrix(0.05,0,0,0.05,0,0)" xlink:href="#r"/><use transform="matrix(0.05,0,0,0.05,12.950000000000001,0)" xlink:href="#p"/><use transform="matrix(0.05,0,0,0.05,16.900000000000002,0)" xlink:href="#s"/><use transform="matrix(0.05,0,0,0.05,26.900000000000002,0)" xlink:href="#t"/><use transform="matrix(0.05,0,0,0.05,35.900000000000006,0)" xlink:href="#t"/><use transform="matrix(0.05,0,0,0.05,44.900000000000006,0)" xlink:href="#A"/></g><path d="M240 0l2-218c-23 76-54 145-80 218h-23L58-218 59 0H30v-248h44l77 211c21-75 51-140 76-211h43V0h-30" id="B"/><path d="M100-194c62-1 85 37 85 99 1 63-27 99-86 99S16-35 15-95c0-66 28-99 85-99zM99-20c44 1 53-31 53-75 0-43-8-75-51-75s-53 32-53 75 10 74 51 75" id="C"/><path d="M85-194c31 0 48 13 60 33l-1-100h32l1 261h-30c-2-10 0-23-3-31C134-8 116 4 85 4 32 4 16-35 15-94c0-66 23-100 70-100zm9 24c-40 0-46 34-46 75 0 40 6 74 45 74 42 0 51-32 51-76 0-42-9-74-50-73" id="D"/><path d="M84 4C-5 8 30-112 23-190h32v120c0 31 7 50 39 49 72-2 45-101 50-169h31l1 190h-30c-1-10 1-25-2-33-11 22-28 36-60 37" id="E"/><path d="M24 0v-261h32V0H24" id="F"/><path d="M100-194c63 0 86 42 84 106H49c0 40 14 67 53 68 26 1 43-12 49-29l28 8c-11 28-37 45-77 45C44 4 14-33 15-96c1-61 26-98 85-98zm52 81c6-60-76-77-97-28-3 7-6 17-6 28h103" id="G"/><path d="M205 0l-28-72H64L36 0H1l101-248h38L239 0h-34zm-38-99l-47-123c-12 45-31 82-46 123h93" id="H"/><g id="j"><use transform="matrix(0.05,0,0,0.05,0,0)" xlink:href="#B"/><use transform="matrix(0.05,0,0,0.05,14.950000000000001,0)" xlink:href="#C"/><use transform="matrix(0.05,0,0,0.05,24.950000000000003,0)" xlink:href="#D"/><use transform="matrix(0.05,0,0,0.05,34.95,0)" xlink:href="#E"/><use transform="matrix(0.05,0,0,0.05,44.95,0)" xlink:href="#F"/><use transform="matrix(0.05,0,0,0.05,48.900000000000006,0)" xlink:href="#G"/><use transform="matrix(0.05,0,0,0.05,58.900000000000006,0)" xlink:href="#H"/></g><path d="M17-49c1-102 45-165 103-212h30C92-210 49-145 49-46 49 4 63 43 85 75H54C30 43 18 2 17-49" id="I"/><path d="M50-231l6-30h32l-6 30H50zM6 0l37-190h31L37 0H6" id="J"/><path d="M248-111c6-24 9-61-24-58-72 9-57 108-77 169h-31l26-142c3-37-50-30-64-10C52-115 50-51 37 0H6l36-190h30c-1 10-6 24-4 32 13-43 101-52 105 5 13-22 29-41 61-41 90 0 28 129 23 194h-31" id="K"/><path d="M67-162c32-53 139-36 121 50C175-51 163 2 97 4 68 4 52-11 42-31 38 6 28 39 22 75H-9l50-265h29c-1 10 0 20-3 28zm89 36c0-26-10-43-35-43-54 0-67 50-69 103-1 29 14 45 42 46 53 0 62-58 62-106" id="L"/><path d="M30-147c31-64 166-65 159 27C183-49 158 1 86 4 9 8 1-88 30-147zM88-20c53 0 68-48 68-100 0-31-11-51-44-50-52 1-68 46-68 97 0 32 13 53 44 53" id="M"/><path d="M66-151c12-25 30-51 66-40l-6 26C45-176 58-65 38 0H6l36-190h30" id="N"/><path d="M51-54c-9 22 5 41 31 30L79-1C43 14 10-4 19-52l22-115H19l5-23h22l19-43h21l-9 43h35l-4 23H73" id="O"/><path d="M55-144c13 50 104 24 104 88C159 21 15 23 1-39l26-10c6 40 102 42 102-4-13-50-104-23-104-87 0-71 143-71 148-8l-29 4c-5-35-85-37-89 0" id="P"/><path d="M98-137C97-35 54 29-4 75h-31C23 23 67-41 67-140c0-50-15-89-37-121h31c24 32 36 73 37 124" id="Q"/><g id="k"><use transform="matrix(0.05,0,0,0.05,0,0)" xlink:href="#I"/><use transform="matrix(0.05,0,0,0.05,5.95,0)" xlink:href="#J"/><use transform="matrix(0.05,0,0,0.05,9.9,0)" xlink:href="#K"/><use transform="matrix(0.05,0,0,0.05,24.85,0)" xlink:href="#L"/><use transform="matrix(0.05,0,0,0.05,34.85,0)" xlink:href="#M"/><use transform="matrix(0.05,0,0,0.05,44.85,0)" xlink:href="#N"/><use transform="matrix(0.05,0,0,0.05,50.800000000000004,0)" xlink:href="#O"/><use transform="matrix(0.05,0,0,0.05,55.800000000000004,0)" xlink:href="#P"/><use transform="matrix(0.05,0,0,0.05,64.80000000000001,0)" xlink:href="#Q"/></g></defs></g></svg>