<svg xmlns="http://www.w3.org/2000/svg" xmlns:xlink="http://www.w3.org/1999/xlink" xmlns:lucid="lucid" width="1359.83" height="705"><g transform="translate(339.83333330832556 201.5)" lucid:page-tab-id="HWEp-vi-RSFO"><path d="M-500-500h1500V500H-500z" fill="#fff"/><path d="M320-7.5h220v60H320z" stroke="#000" stroke-width="3" fill="#fff7a1"/><use xlink:href="#a" transform="matrix(1,0,0,1,328,0.5) translate(14.186111111111131 26.488888888888887)"/><path d="M524.23 230.32h75.93a9.84 9.84 0 0 1 9.84 9.84 9.84 9.84 0 0 0 9.84 9.84H697" stroke="#000" stroke-width="3" fill="none"/><path d="M541.66 220.14l-17.2 10.18 17.2 10.18" stroke="#000" stroke-width="3" fill="none"/><path d="M698.5 251.47h-1.54v-2.94h1.54z" stroke="#000" stroke-width=".05"/><path d="M360 220h160v60H360z" stroke="#000" stroke-width="3" fill="#fff7a1"/><use xlink:href="#b" transform="matrix(1,0,0,1,368,228) translate(20.31543209876544 26.488888888888887)"/><path d="M690.33 61.5h-26.5a12 12 0 0 1-12-12V16.4a12 12 0 0 0-12-12l-95.6-.02" stroke="#333" stroke-width="3" fill="none"/><path d="M691.83 62.98h-1.54v-2.95h1.53z" stroke="#333" stroke-width=".05" fill="#333"/><path d="M561.66-5.8l-17.2 10.2 17.2 10.17" stroke="#333" stroke-width="3" fill="none"/><path d="M400-60h240V0H400z" fill="none"/><use xlink:href="#c" transform="matrix(1,0,0,1,400,-60) translate(24.59043209876546 34.044444444444444)"/><path d="M400 180h240v60H400z" fill="none"/><use xlink:href="#d" transform="matrix(1,0,0,1,400,180) translate(51.52530864197534 34.044444444444444)"/><path d="M700 208.5h223.33v83H700z" stroke="#282c33" stroke-width="3" fill="#dedeff"/><path d="M700 251.43h223.33" stroke="#282c33" stroke-width="3" fill="none"/><use xlink:href="#e" transform="matrix(1,0,0,1,708,216.5) translate(43.58703703703705 17.988888888888887)"/><use xlink:href="#f" transform="matrix(1,0,0,1,712,259.43333333333334) translate(53.03950617283952 16.544444444444444)"/><path d="M360 327.5h160v60H360z" stroke="#000" stroke-width="3" fill="#ffdda6"/><use xlink:href="#g" transform="matrix(1,0,0,1,368,335.5) translate(36.494135802469145 26.488888888888887)"/><path d="M697 268.1h-75a12 12 0 0 0-12 12v65.4a12 12 0 0 1-12 12h-73.77" stroke="#333" stroke-width="3" fill="none"/><path d="M698.5 269.57h-1.54v-2.94h1.54z" stroke="#333" stroke-width=".05" fill="#333"/><path d="M541.66 347.32l-17.2 10.18 17.2 10.18" stroke="#333" stroke-width="3" fill="none"/><path d="M480 354.5h240v60H480z" fill="none"/><use xlink:href="#h" transform="matrix(1,0,0,1,480,354.5) translate(50.96358024691361 34.044444444444444)"/><path d="M480 427h160v55H480z" stroke="#282c33" stroke-width="3" fill="#fff7a1"/><use xlink:href="#i" transform="matrix(1,0,0,1,488,435) translate(40.266049382716055 23.988888888888887)"/><path d="M811.67 294.5v148a12 12 0 0 1-12 12H644.23" stroke="#333" stroke-width="3" fill="none"/><path d="M813.14 294.54h-2.95V293h2.94z" stroke="#333" stroke-width=".05" fill="#333"/><path d="M661.66 444.32l-17.2 10.18 17.2 10.18" stroke="#333" stroke-width="3" fill="none"/><path d="M580 407h240v60H580z" fill="none"/><use xlink:href="#j" transform="matrix(1,0,0,1,580,407) translate(75.11790123456792 34.044444444444444)"/><path d="M693.33 20h243.34v83H693.33z" stroke="#282c33" stroke-width="3" fill="#dedeff"/><path d="M693.33 62.93h243.34" stroke="#282c33" stroke-width="3" fill="none"/><use xlink:href="#k" transform="matrix(1,0,0,1,701.3333333333333,28) translate(4.458641975308652 17.988888888888887)"/><path d="M693.33-180h243.34v83H693.33z" stroke="#282c33" stroke-width="3" fill="#dedeff"/><path d="M693.33-137.07h243.34" stroke="#282c33" stroke-width="3" fill="none"/><use xlink:href="#k" transform="matrix(1,0,0,1,701.3333333333333,-172) translate(4.458641975308652 17.988888888888887)"/><path d="M320 120h220v60H320z" stroke="#000" stroke-width="3" fill="#fff7a1"/><use xlink:href="#l" transform="matrix(1,0,0,1,328,128) translate(2.3716049382716164 26.488888888888887)"/><path d="M697 229.83h-65a12 12 0 0 1-12-12v-73.2a12 12 0 0 0-12-12h-63.77" stroke="#333" stroke-width="3" fill="none"/><path d="M698.5 231.3h-1.54v-2.94h1.54z" stroke="#333" stroke-width=".05" fill="#333"/><path d="M561.66 122.44l-17.2 10.18 17.2 10.18" stroke="#333" stroke-width="3" fill="none"/><path d="M400 80h240v60H400z" fill="none"/><use xlink:href="#m" transform="matrix(1,0,0,1,400,79.99999999999994) translate(40.31882716049387 34.044444444444444)"/><path d="M815-94V15.77" stroke="#333" stroke-width="3" fill="none"/><path d="M816.48-93.96h-2.96v-1.54h2.96z" stroke="#333" stroke-width=".05" fill="#333"/><path d="M804.82-1.66L815 15.54l10.18-17.2" stroke="#333" stroke-width="3" fill="none"/><path d="M760-60h240V0H760z" fill="none"/><use xlink:href="#n" transform="matrix(1,0,0,1,760,-60) translate(60.86512345679013 34.48888888888889)"/><path d="M811.67 106v98.27" stroke="#333" stroke-width="3" fill="none"/><path d="M813.14 106.04h-2.95v-1.54h2.94z" stroke="#333" stroke-width=".05" fill="#333"/><path d="M801.5 186.84l10.17 17.2 10.18-17.2" stroke="#333" stroke-width="3" fill="none"/><path d="M760 140h240v60H760z" fill="none"/><use xlink:href="#n" transform="matrix(1,0,0,1,760,140) translate(60.86512345679013 34.48888888888889)"/><path d="M60-7.5h220v60H60z" stroke="#000" stroke-width="3" fill="#fff7a1"/><use xlink:href="#o" transform="matrix(1,0,0,1,68,0.5) translate(45.920061728395076 26.488888888888887)"/><path d="M95.77 297.5h-62.1a12 12 0 0 1-12-12V262a12 12 0 0 0-12-12h-63.34" stroke="#000" stroke-width="3" fill="none"/><path d="M78.34 307.68l17.2-10.18-17.2-10.18" stroke="#000" stroke-width="3" fill="none"/><path d="M-53.63 251.47h-1.54v-2.94h1.54z" stroke="#000" stroke-width=".05"/><path d="M100 267.5h160v60H100z" stroke="#000" stroke-width="3" fill="#fff7a1"/><use xlink:href="#p" transform="matrix(1,0,0,1,108,275.5) translate(2.8586419753086716 26.488888888888887)"/><path d="M-40.33 61.5h36.66a12 12 0 0 0 12-12V17.6a12 12 0 0 1 12-12h35.44" stroke="#333" stroke-width="3" fill="none"/><path d="M-40.3 62.98h-1.53v-2.95h1.53z" stroke="#333" stroke-width=".05" fill="#333"/><path d="M38.34 15.8l17.2-10.2-17.2-10.17" stroke="#333" stroke-width="3" fill="none"/><path d="M-80-60h240V0H-80z" fill="none"/><use xlink:href="#q" transform="matrix(1,0,0,1,-80,-60) translate(84.10555555555557 34.044444444444444)"/><path d="M-100 300h240v60h-240z" fill="none"/><use xlink:href="#r" transform="matrix(1,0,0,1,-100,300) translate(61.63641975308645 34.044444444444444)"/><path d="M-280 208.5h223.33v83H-280z" stroke="#282c33" stroke-width="3" fill="#dedeff"/><path d="M-280 251.43h223.33" stroke="#282c33" stroke-width="3" fill="none"/><use xlink:href="#s" transform="matrix(1,0,0,1,-272,216.5) translate(7.457716049382739 17.988888888888887)"/><path d="M0 427h160v55H0z" stroke="#282c33" stroke-width="3" fill="#fff7a1"/><use xlink:href="#t" transform="matrix(1,0,0,1,8,435) translate(15.920061728395076 23.988888888888887)"/><path d="M-168.33 294.5v148a12 12 0 0 0 12 12h152.1" stroke="#333" stroke-width="3" fill="none"/><path d="M-166.86 294.54h-2.95V293h2.94z" stroke="#333" stroke-width=".05" fill="#333"/><path d="M-21.66 464.68l17.2-10.18-17.2-10.18" stroke="#333" stroke-width="3" fill="none"/><path d="M-180 407H60v60h-240z" fill="none"/><use xlink:href="#u" transform="matrix(1,0,0,1,-180,407) translate(78.2635802469136 34.044444444444444)"/><path d="M-286.67 20h243.34v83h-243.34z" stroke="#282c33" stroke-width="3" fill="#dedeff"/><path d="M-286.67 62.93h243.34" stroke="#282c33" stroke-width="3" fill="none"/><use xlink:href="#v" transform="matrix(1,0,0,1,-278.66666666666674,28) translate(25.531481481481507 17.988888888888887)"/><path d="M-318.33-180h306.66v83h-306.66z" stroke="#282c33" stroke-width="3" fill="#dedeff"/><path d="M-318.33-137.07h306.66" stroke="#282c33" stroke-width="3" fill="none"/><use xlink:href="#w" transform="matrix(1,0,0,1,-310.33333330832556,-172) translate(7.903086419753123 17.988888888888887)"/><path d="M60 120h220v60H60z" stroke="#000" stroke-width="3" fill="#fff7a1"/><use xlink:href="#x" transform="matrix(1,0,0,1,68,128) translate(5.520061728395078 26.488888888888887)"/><path d="M-53.67 227.7h43.34a12 12 0 0 0 12-12v-71.08a12 12 0 0 1 12-12h42.1" stroke="#333" stroke-width="3" fill="none"/><path d="M-53.63 229.18h-1.54v-2.96h1.54z" stroke="#333" stroke-width=".05" fill="#333"/><path d="M38.34 142.8l17.2-10.18-17.2-10.18" stroke="#333" stroke-width="3" fill="none"/><path d="M-43.33 71.5h240v60h-240z" fill="none"/><use xlink:href="#y" transform="matrix(1,0,0,1,-43.33333333333326,71.49999999999989) translate(49.92438271604941 34.044444444444444)"/><path d="M-165-94V15.77" stroke="#333" stroke-width="3" fill="none"/><path d="M-163.53-93.96h-2.94v-1.54h2.94z" stroke="#333" stroke-width=".05" fill="#333"/><path d="M-175.18-1.66l10.18 17.2 10.18-17.2" stroke="#333" stroke-width="3" fill="none"/><path d="M-220-60H20V0h-240z" fill="none"/><use xlink:href="#n" transform="matrix(1,0,0,1,-220,-60) translate(60.86512345679013 34.48888888888889)"/><path d="M-168.33 106v98.27" stroke="#333" stroke-width="3" fill="none"/><path d="M-166.86 106.04h-2.95v-1.54h2.94z" stroke="#333" stroke-width=".05" fill="#333"/><path d="M-178.5 186.84l10.17 17.2 10.18-17.2" stroke="#333" stroke-width="3" fill="none"/><path d="M-220 140H20v60h-240z" fill="none"/><use xlink:href="#n" transform="matrix(1,0,0,1,-220,139.99999999999994) translate(60.86512345679013 34.48888888888889)"/><path d="M395.5 324.5v-40.27" stroke="#333" stroke-width="3" fill="none"/><path d="M396.98 326h-2.96v-1.54h2.96z" stroke="#333" stroke-width=".05" fill="#333"/><path d="M405.68 301.66l-10.18-17.2-10.18 17.2" stroke="#333" stroke-width="3" fill="none"/><path d="M340 267.5h240v60H340z" fill="none"/><use xlink:href="#z" transform="matrix(1,0,0,1,340,267.5) translate(68.43333333333337 34.044444444444444)"/><defs><path fill="#282c33" d="M63-220v92h138v28H63V0H30v-248h175v28H63" id="A"/><path fill="#282c33" d="M100-194c63 0 86 42 84 106H49c0 40 14 67 53 68 26 1 43-12 49-29l28 8c-11 28-37 45-77 45C44 4 14-33 15-96c1-61 26-98 85-98zm52 81c6-60-76-77-97-28-3 7-6 17-6 28h103" id="B"/><path fill="#282c33" d="M141-36C126-15 110 5 73 4 37 3 15-17 15-53c-1-64 63-63 125-63 3-35-9-54-41-54-24 1-41 7-42 31l-33-3c5-37 33-52 76-52 45 0 72 20 72 64v82c-1 20 7 32 28 27v20c-31 9-61-2-59-35zM48-53c0 20 12 33 32 33 41-3 63-29 60-74-43 2-92-5-92 41" id="C"/><path fill="#282c33" d="M59-47c-2 24 18 29 38 22v24C64 9 27 4 27-40v-127H5v-23h24l9-43h21v43h35v23H59v120" id="D"/><path fill="#282c33" d="M84 4C-5 8 30-112 23-190h32v120c0 31 7 50 39 49 72-2 45-101 50-169h31l1 190h-30c-1-10 1-25-2-33-11 22-28 36-60 37" id="E"/><path fill="#282c33" d="M114-163C36-179 61-72 57 0H25l-1-190h30c1 12-1 29 2 39 6-27 23-49 58-41v29" id="F"/><path fill="#282c33" d="M140-251c81 0 123 46 123 126C263-46 219 4 140 4 59 4 17-45 17-125s42-126 123-126zm0 227c63 0 89-41 89-101s-29-99-89-99c-61 0-89 39-89 99S79-25 140-24" id="G"/><path fill="#282c33" d="M101-234c-31-9-42 10-38 44h38v23H63V0H32v-167H5v-23h27c-7-52 17-82 69-68v24" id="H"/><path fill="#282c33" d="M33 0v-248h34V0H33" id="I"/><path fill="#282c33" d="M117-194c89-4 53 116 60 194h-32v-121c0-31-8-49-39-48C34-167 62-67 57 0H25l-1-190h30c1 10-1 24 2 32 11-22 29-35 61-36" id="J"/><path fill="#282c33" d="M135-143c-3-34-86-38-87 0 15 53 115 12 119 90S17 21 10-45l28-5c4 36 97 45 98 0-10-56-113-15-118-90-4-57 82-63 122-42 12 7 21 19 24 35" id="K"/><g id="a"><use transform="matrix(0.06234567901234567,0,0,0.06234567901234567,0,0)" xlink:href="#A"/><use transform="matrix(0.06234567901234567,0,0,0.06234567901234567,13.653703703703702,0)" xlink:href="#B"/><use transform="matrix(0.06234567901234567,0,0,0.06234567901234567,26.122839506172834,0)" xlink:href="#C"/><use transform="matrix(0.06234567901234567,0,0,0.06234567901234567,38.59197530864196,0)" xlink:href="#D"/><use transform="matrix(0.06234567901234567,0,0,0.06234567901234567,44.82654320987653,0)" xlink:href="#E"/><use transform="matrix(0.06234567901234567,0,0,0.06234567901234567,57.295679012345666,0)" xlink:href="#F"/><use transform="matrix(0.06234567901234567,0,0,0.06234567901234567,64.7148148148148,0)" xlink:href="#B"/><use transform="matrix(0.06234567901234567,0,0,0.06234567901234567,77.18395061728393,0)" xlink:href="#G"/><use transform="matrix(0.06234567901234567,0,0,0.06234567901234567,94.64074074074071,0)" xlink:href="#H"/><use transform="matrix(0.06234567901234567,0,0,0.06234567901234567,100.87530864197528,0)" xlink:href="#I"/><use transform="matrix(0.06234567901234567,0,0,0.06234567901234567,107.10987654320985,0)" xlink:href="#J"/><use transform="matrix(0.06234567901234567,0,0,0.06234567901234567,119.57901234567899,0)" xlink:href="#D"/><use transform="matrix(0.06234567901234567,0,0,0.06234567901234567,125.81358024691356,0)" xlink:href="#B"/><use transform="matrix(0.06234567901234567,0,0,0.06234567901234567,138.28271604938269,0)" xlink:href="#F"/><use transform="matrix(0.06234567901234567,0,0,0.06234567901234567,145.7018518518518,0)" xlink:href="#B"/><use transform="matrix(0.06234567901234567,0,0,0.06234567901234567,158.17098765432095,0)" xlink:href="#K"/><use transform="matrix(0.06234567901234567,0,0,0.06234567901234567,169.39320987654318,0)" xlink:href="#D"/></g><path fill="#282c33" d="M30-248c87 1 191-15 191 75 0 78-77 80-158 76V0H30v-248zm33 125c57 0 124 11 124-50 0-59-68-47-124-48v98" id="L"/><path fill="#282c33" d="M100-194c62-1 85 37 85 99 1 63-27 99-86 99S16-35 15-95c0-66 28-99 85-99zM99-20c44 1 53-31 53-75 0-43-8-75-51-75s-53 32-53 75 10 74 51 75" id="M"/><path fill="#282c33" d="M96-169c-40 0-48 33-48 73s9 75 48 75c24 0 41-14 43-38l32 2c-6 37-31 61-74 61-59 0-76-41-82-99-10-93 101-131 147-64 4 7 5 14 7 22l-32 3c-4-21-16-35-41-35" id="N"/><path fill="#282c33" d="M85-194c31 0 48 13 60 33l-1-100h32l1 261h-30c-2-10 0-23-3-31C134-8 116 4 85 4 32 4 16-35 15-94c0-66 23-100 70-100zm9 24c-40 0-46 34-46 75 0 40 6 74 45 74 42 0 51-32 51-76 0-42-9-74-50-73" id="O"/><g id="b"><use transform="matrix(0.06234567901234567,0,0,0.06234567901234567,0,0)" xlink:href="#L"/><use transform="matrix(0.06234567901234567,0,0,0.06234567901234567,14.96296296296296,0)" xlink:href="#F"/><use transform="matrix(0.06234567901234567,0,0,0.06234567901234567,22.382098765432094,0)" xlink:href="#M"/><use transform="matrix(0.06234567901234567,0,0,0.06234567901234567,34.85123456790123,0)" xlink:href="#N"/><use transform="matrix(0.06234567901234567,0,0,0.06234567901234567,46.07345679012345,0)" xlink:href="#B"/><use transform="matrix(0.06234567901234567,0,0,0.06234567901234567,58.542592592592584,0)" xlink:href="#O"/><use transform="matrix(0.06234567901234567,0,0,0.06234567901234567,71.01172839506171,0)" xlink:href="#E"/><use transform="matrix(0.06234567901234567,0,0,0.06234567901234567,83.48086419753085,0)" xlink:href="#F"/><use transform="matrix(0.06234567901234567,0,0,0.06234567901234567,90.89999999999998,0)" xlink:href="#B"/></g><path fill="#282c33" d="M67-158c15-20 31-36 64-36 94 0 33 127 27 194h-32l25-140c3-38-53-32-70-12C52-117 51-51 37 0H6l51-261h31" id="P"/><path fill="#282c33" d="M165-48c-4 18 1 34 23 27l-3 20c-29 8-62 0-52-35h-2C116-14 99 4 63 4 30 4 8-16 8-49c0-68 71-67 138-67 10-26 0-56-31-54-26 1-42 9-47 31l-32-5c8-67 160-71 144 15-5 28-9 54-15 81zM42-50c3 52 80 24 89-6 7-12 7-24 11-38-47 1-103-4-100 44" id="Q"/><path fill="#282c33" d="M55-144c13 50 104 24 104 88C159 21 15 23 1-39l26-10c6 40 102 42 102-4-13-50-104-23-104-87 0-71 143-71 148-8l-29 4c-5-35-85-37-89 0" id="R"/><path fill="#282c33" d="M87-220l-18 92h140l-5 28H64L45 0H11l48-248h178l-5 28H87" id="S"/><path fill="#282c33" d="M111-194c62-3 86 47 72 106H45c-7 38 6 69 45 68 27-1 43-14 53-32l24 11C152-15 129 4 87 4 38 3 12-23 12-71c0-70 32-119 99-123zm44 81c14-66-71-72-95-28-4 8-8 17-11 28h106" id="T"/><path fill="#282c33" d="M51-54c-9 22 5 41 31 30L79-1C43 14 10-4 19-52l22-115H19l5-23h22l19-43h21l-9 43h35l-4 23H73" id="U"/><path fill="#282c33" d="M67 3c-93-2-31-127-26-193h32L48-50c-3 39 53 32 70 12 30-34 30-101 43-152h32L157 0h-30c1-10 6-24 4-33-14 20-29 37-64 36" id="V"/><path fill="#282c33" d="M66-151c12-25 30-51 66-40l-6 26C45-176 58-65 38 0H6l36-190h30" id="W"/><path fill="#282c33" d="M20-101c0-91 52-143 145-150 126-9 127 168 53 223-23 17-55 32-93 32C57 4 20-33 20-101zm216-33c5-57-18-91-73-90-77 1-110 51-110 125 0 49 23 75 73 75 72-1 104-45 110-110" id="X"/><path fill="#282c33" d="M76-167L44 0H12l33-167H18l4-23h27c3-47 25-81 82-69l-4 24c-35-8-44 15-46 45h37l-5 23H76" id="Y"/><path fill="#282c33" d="M14 0l48-248h34L48 0H14" id="Z"/><path fill="#282c33" d="M67-158c22-48 132-52 116 29L158 0h-32l25-140c3-38-53-32-70-12C52-117 51-52 38 0H6l36-190h30" id="aa"/><g id="c"><use transform="matrix(0.056172839506172814,0,0,0.056172839506172814,0,0)" xlink:href="#P"/><use transform="matrix(0.056172839506172814,0,0,0.056172839506172814,11.234567901234563,0)" xlink:href="#Q"/><use transform="matrix(0.056172839506172814,0,0,0.056172839506172814,22.469135802469125,0)" xlink:href="#R"/><use transform="matrix(0.056172839506172814,0,0,0.056172839506172814,32.58024691358023,0)" xlink:href="#S"/><use transform="matrix(0.056172839506172814,0,0,0.056172839506172814,44.882098765432076,0)" xlink:href="#T"/><use transform="matrix(0.056172839506172814,0,0,0.056172839506172814,56.11666666666664,0)" xlink:href="#Q"/><use transform="matrix(0.056172839506172814,0,0,0.056172839506172814,67.3512345679012,0)" xlink:href="#U"/><use transform="matrix(0.056172839506172814,0,0,0.056172839506172814,72.96851851851848,0)" xlink:href="#V"/><use transform="matrix(0.056172839506172814,0,0,0.056172839506172814,84.20308641975305,0)" xlink:href="#W"/><use transform="matrix(0.056172839506172814,0,0,0.056172839506172814,90.88765432098761,0)" xlink:href="#T"/><use transform="matrix(0.056172839506172814,0,0,0.056172839506172814,102.12222222222218,0)" xlink:href="#X"/><use transform="matrix(0.056172839506172814,0,0,0.056172839506172814,117.85061728395057,0)" xlink:href="#Y"/><use transform="matrix(0.056172839506172814,0,0,0.056172839506172814,123.46790123456785,0)" xlink:href="#Z"/><use transform="matrix(0.056172839506172814,0,0,0.056172839506172814,129.08518518518514,0)" xlink:href="#aa"/><use transform="matrix(0.056172839506172814,0,0,0.056172839506172814,140.3197530864197,0)" xlink:href="#U"/><use transform="matrix(0.056172839506172814,0,0,0.056172839506172814,145.937037037037,0)" xlink:href="#T"/><use transform="matrix(0.056172839506172814,0,0,0.056172839506172814,157.17160493827154,0)" xlink:href="#W"/><use transform="matrix(0.056172839506172814,0,0,0.056172839506172814,163.85617283950612,0)" xlink:href="#T"/><use transform="matrix(0.056172839506172814,0,0,0.056172839506172814,175.09074074074067,0)" xlink:href="#R"/><use transform="matrix(0.056172839506172814,0,0,0.056172839506172814,185.20185185185179,0)" xlink:href="#U"/></g><path fill="#282c33" d="M133-28C103 26-5 8 13-77c13-62 24-115 90-117 29-1 46 15 56 35l19-102h32L160 0h-30zM45-64c-2 27 10 43 35 43 54-1 69-50 69-103 0-29-15-46-42-46-53-1-58 58-62 106" id="ab"/><path fill="#282c33" d="M238-179c0 84-86 86-175 82L45 0H11l48-248c82 0 179-12 179 69zm-34 1c0-53-64-42-116-43l-19 98c63 0 135 9 135-55" id="ac"/><path fill="#282c33" d="M30-147c31-64 166-65 159 27C183-49 158 1 86 4 9 8 1-88 30-147zM88-20c53 0 68-48 68-100 0-31-11-51-44-50-52 1-68 46-68 97 0 32 13 53 44 53" id="ad"/><path fill="#282c33" d="M44-68c0 29 11 47 38 47 30 0 42-19 51-41l28 9C148-21 126 4 82 4 31 4 10-29 12-85c3-77 74-140 146-93 12 8 15 23 18 40l-31 5c-1-22-13-36-36-36-52 0-65 49-65 101" id="ae"/><g id="d"><use transform="matrix(0.056172839506172814,0,0,0.056172839506172814,0,0)" xlink:href="#V"/><use transform="matrix(0.056172839506172814,0,0,0.056172839506172814,11.234567901234563,0)" xlink:href="#R"/><use transform="matrix(0.056172839506172814,0,0,0.056172839506172814,21.34567901234567,0)" xlink:href="#T"/><use transform="matrix(0.056172839506172814,0,0,0.056172839506172814,32.58024691358023,0)" xlink:href="#ab"/><use transform="matrix(0.056172839506172814,0,0,0.056172839506172814,43.814814814814795,0)" xlink:href="#ac"/><use transform="matrix(0.056172839506172814,0,0,0.056172839506172814,57.29629629629627,0)" xlink:href="#W"/><use transform="matrix(0.056172839506172814,0,0,0.056172839506172814,63.980864197530835,0)" xlink:href="#ad"/><use transform="matrix(0.056172839506172814,0,0,0.056172839506172814,75.2154320987654,0)" xlink:href="#ae"/><use transform="matrix(0.056172839506172814,0,0,0.056172839506172814,85.32654320987652,0)" xlink:href="#T"/><use transform="matrix(0.056172839506172814,0,0,0.056172839506172814,96.56111111111107,0)" xlink:href="#ab"/><use transform="matrix(0.056172839506172814,0,0,0.056172839506172814,107.79567901234563,0)" xlink:href="#V"/><use transform="matrix(0.056172839506172814,0,0,0.056172839506172814,119.0302469135802,0)" xlink:href="#W"/><use transform="matrix(0.056172839506172814,0,0,0.056172839506172814,125.71481481481473,0)" xlink:href="#T"/></g><path fill="#282c33" d="M115-194c53 0 69 39 70 98 0 66-23 100-70 100C84 3 66-7 56-30L54 0H23l1-261h32v101c10-23 28-34 59-34zm-8 174c40 0 45-34 45-75 0-40-5-75-45-74-42 0-51 32-51 76 0 43 10 73 51 73" id="af"/><path fill="#282c33" d="M108 0H70L1-190h34L89-25l56-165h34" id="ag"/><path fill="#282c33" d="M24-231v-30h32v30H24zM24 0v-190h32V0H24" id="ah"/><g id="e"><use transform="matrix(0.06234567901234567,0,0,0.06234567901234567,0,0)" xlink:href="#G"/><use transform="matrix(0.06234567901234567,0,0,0.06234567901234567,17.456790123456788,0)" xlink:href="#af"/><use transform="matrix(0.06234567901234567,0,0,0.06234567901234567,29.92592592592592,0)" xlink:href="#K"/><use transform="matrix(0.06234567901234567,0,0,0.06234567901234567,41.14814814814814,0)" xlink:href="#B"/><use transform="matrix(0.06234567901234567,0,0,0.06234567901234567,53.61728395061727,0)" xlink:href="#F"/><use transform="matrix(0.06234567901234567,0,0,0.06234567901234567,61.036419753086406,0)" xlink:href="#ag"/><use transform="matrix(0.06234567901234567,0,0,0.06234567901234567,72.25864197530862,0)" xlink:href="#C"/><use transform="matrix(0.06234567901234567,0,0,0.06234567901234567,84.72777777777776,0)" xlink:href="#D"/><use transform="matrix(0.06234567901234567,0,0,0.06234567901234567,90.96234567901233,0)" xlink:href="#ah"/><use transform="matrix(0.06234567901234567,0,0,0.06234567901234567,95.88765432098764,0)" xlink:href="#M"/><use transform="matrix(0.06234567901234567,0,0,0.06234567901234567,108.35679012345676,0)" xlink:href="#J"/></g><path fill="#282c33" d="M6 0l50-261h32L37 0H6" id="ai"/><path fill="#282c33" d="M151-220L108 0H75l42-220H32l6-28h203l-5 28h-85" id="aj"/><path fill="#282c33" d="M50-231l6-30h32l-6 30H50zM6 0l37-190h31L37 0H6" id="ak"/><path fill="#282c33" d="M248-111c6-24 9-61-24-58-72 9-57 108-77 169h-31l26-142c3-37-50-30-64-10C52-115 50-51 37 0H6l36-190h30c-1 10-6 24-4 32 13-43 101-52 105 5 13-22 29-41 61-41 90 0 28 129 23 194h-31" id="al"/><g id="f"><use transform="matrix(0.056172839506172814,0,0,0.056172839506172814,0,0)" xlink:href="#W"/><use transform="matrix(0.056172839506172814,0,0,0.056172839506172814,6.684567901234565,0)" xlink:href="#T"/><use transform="matrix(0.056172839506172814,0,0,0.056172839506172814,17.91913580246913,0)" xlink:href="#R"/><use transform="matrix(0.056172839506172814,0,0,0.056172839506172814,28.030246913580235,0)" xlink:href="#V"/><use transform="matrix(0.056172839506172814,0,0,0.056172839506172814,39.2648148148148,0)" xlink:href="#ai"/><use transform="matrix(0.056172839506172814,0,0,0.056172839506172814,43.70246913580245,0)" xlink:href="#U"/><use transform="matrix(0.056172839506172814,0,0,0.056172839506172814,49.31975308641974,0)" xlink:href="#aj"/><use transform="matrix(0.056172839506172814,0,0,0.056172839506172814,61.453086419753056,0)" xlink:href="#ak"/><use transform="matrix(0.056172839506172814,0,0,0.056172839506172814,65.89074074074071,0)" xlink:href="#al"/><use transform="matrix(0.056172839506172814,0,0,0.056172839506172814,82.68641975308638,0)" xlink:href="#T"/></g><path fill="#282c33" d="M185-189c-5-48-123-54-124 2 14 75 158 14 163 119 3 78-121 87-175 55-17-10-28-26-33-46l33-7c5 56 141 63 141-1 0-78-155-14-162-118-5-82 145-84 179-34 5 7 8 16 11 25" id="am"/><g id="g"><use transform="matrix(0.06234567901234567,0,0,0.06234567901234567,0,0)" xlink:href="#am"/><use transform="matrix(0.06234567901234567,0,0,0.06234567901234567,14.96296296296296,0)" xlink:href="#B"/><use transform="matrix(0.06234567901234567,0,0,0.06234567901234567,27.432098765432094,0)" xlink:href="#J"/><use transform="matrix(0.06234567901234567,0,0,0.06234567901234567,39.90123456790123,0)" xlink:href="#K"/><use transform="matrix(0.06234567901234567,0,0,0.06234567901234567,51.12345679012345,0)" xlink:href="#M"/><use transform="matrix(0.06234567901234567,0,0,0.06234567901234567,63.59259259259258,0)" xlink:href="#F"/></g><path fill="#282c33" d="M219-77C219 17 104-2 11 0l48-248c73 2 169-15 169 57 0 38-24 54-60 60 29 5 51 21 51 54zm-26-111c0-44-62-31-105-33l-16 79c55 0 121 9 121-46zm-7 110c-1-49-69-36-119-38L50-27c61-1 137 12 136-51" id="an"/><path fill="#282c33" d="M198-190L69 30C53 58 25 83-20 72c4-11-1-27 19-22 33-1 43-29 59-52L20-190h32L79-34l84-156h35" id="ao"/><path fill="#282c33" d="M194-120c59 52 2 134-86 124-53-6-90-18-98-63l31-7c8 30 29 43 70 43 46 0 84-17 71-62-32-43-135-20-137-98-3-89 178-90 191-16l-30 9c-8-48-127-53-127 5 0 53 81 35 115 65" id="ap"/><g id="h"><use transform="matrix(0.056172839506172814,0,0,0.056172839506172814,0,0)" xlink:href="#al"/><use transform="matrix(0.056172839506172814,0,0,0.056172839506172814,16.795679012345673,0)" xlink:href="#Q"/><use transform="matrix(0.056172839506172814,0,0,0.056172839506172814,28.030246913580235,0)" xlink:href="#ab"/><use transform="matrix(0.056172839506172814,0,0,0.056172839506172814,39.2648148148148,0)" xlink:href="#T"/><use transform="matrix(0.056172839506172814,0,0,0.056172839506172814,50.49938271604936,0)" xlink:href="#an"/><use transform="matrix(0.056172839506172814,0,0,0.056172839506172814,63.980864197530835,0)" xlink:href="#ao"/><use transform="matrix(0.056172839506172814,0,0,0.056172839506172814,74.09197530864193,0)" xlink:href="#ap"/><use transform="matrix(0.056172839506172814,0,0,0.056172839506172814,87.57345679012342,0)" xlink:href="#T"/><use transform="matrix(0.056172839506172814,0,0,0.056172839506172814,98.80802469135799,0)" xlink:href="#aa"/><use transform="matrix(0.056172839506172814,0,0,0.056172839506172814,110.04259259259254,0)" xlink:href="#R"/><use transform="matrix(0.056172839506172814,0,0,0.056172839506172814,120.15370370370366,0)" xlink:href="#ad"/><use transform="matrix(0.056172839506172814,0,0,0.056172839506172814,131.3882716049382,0)" xlink:href="#W"/></g><path fill="#282c33" d="M249-183c0 48-29 72-75 77L221 0h-36l-43-103H65L45 0H11l48-248c83 2 190-17 190 65zm-34 3c0-55-74-39-127-41l-18 92c63-1 145 13 145-51" id="aq"/><g id="i"><use transform="matrix(0.06234567901234567,0,0,0.06234567901234567,0,0)" xlink:href="#aq"/><use transform="matrix(0.06234567901234567,0,0,0.06234567901234567,16.147530864197527,0)" xlink:href="#T"/><use transform="matrix(0.06234567901234567,0,0,0.06234567901234567,28.61666666666666,0)" xlink:href="#R"/><use transform="matrix(0.06234567901234567,0,0,0.06234567901234567,39.83888888888888,0)" xlink:href="#V"/><use transform="matrix(0.06234567901234567,0,0,0.06234567901234567,52.308024691358014,0)" xlink:href="#ai"/><use transform="matrix(0.06234567901234567,0,0,0.06234567901234567,57.23333333333332,0)" xlink:href="#U"/></g><g id="j"><use transform="matrix(0.056172839506172814,0,0,0.056172839506172814,0,0)" xlink:href="#P"/><use transform="matrix(0.056172839506172814,0,0,0.056172839506172814,11.234567901234563,0)" xlink:href="#Q"/><use transform="matrix(0.056172839506172814,0,0,0.056172839506172814,22.469135802469125,0)" xlink:href="#R"/><use transform="matrix(0.056172839506172814,0,0,0.056172839506172814,32.58024691358023,0)" xlink:href="#aq"/><use transform="matrix(0.056172839506172814,0,0,0.056172839506172814,47.12901234567899,0)" xlink:href="#T"/><use transform="matrix(0.056172839506172814,0,0,0.056172839506172814,58.36358024691356,0)" xlink:href="#R"/><use transform="matrix(0.056172839506172814,0,0,0.056172839506172814,68.47469135802466,0)" xlink:href="#V"/><use transform="matrix(0.056172839506172814,0,0,0.056172839506172814,79.70925925925923,0)" xlink:href="#ai"/><use transform="matrix(0.056172839506172814,0,0,0.056172839506172814,84.14691358024687,0)" xlink:href="#U"/></g><path fill="#282c33" d="M212-179c-10-28-35-45-73-45-59 0-87 40-87 99 0 60 29 101 89 101 43 0 62-24 78-52l27 14C228-24 195 4 139 4 59 4 22-46 18-125c-6-104 99-153 187-111 19 9 31 26 39 46" id="ar"/><path fill="#282c33" d="M24 0v-261h32V0H24" id="as"/><g id="k"><use transform="matrix(0.06234567901234567,0,0,0.06234567901234567,0,0)" xlink:href="#G"/><use transform="matrix(0.06234567901234567,0,0,0.06234567901234567,17.456790123456788,0)" xlink:href="#af"/><use transform="matrix(0.06234567901234567,0,0,0.06234567901234567,29.92592592592592,0)" xlink:href="#K"/><use transform="matrix(0.06234567901234567,0,0,0.06234567901234567,41.14814814814814,0)" xlink:href="#B"/><use transform="matrix(0.06234567901234567,0,0,0.06234567901234567,53.61728395061727,0)" xlink:href="#F"/><use transform="matrix(0.06234567901234567,0,0,0.06234567901234567,61.036419753086406,0)" xlink:href="#ag"/><use transform="matrix(0.06234567901234567,0,0,0.06234567901234567,72.25864197530862,0)" xlink:href="#C"/><use transform="matrix(0.06234567901234567,0,0,0.06234567901234567,84.72777777777776,0)" xlink:href="#D"/><use transform="matrix(0.06234567901234567,0,0,0.06234567901234567,90.96234567901233,0)" xlink:href="#ah"/><use transform="matrix(0.06234567901234567,0,0,0.06234567901234567,95.88765432098764,0)" xlink:href="#M"/><use transform="matrix(0.06234567901234567,0,0,0.06234567901234567,108.35679012345676,0)" xlink:href="#J"/><use transform="matrix(0.06234567901234567,0,0,0.06234567901234567,120.8259259259259,0)" xlink:href="#ar"/><use transform="matrix(0.06234567901234567,0,0,0.06234567901234567,136.97345679012344,0)" xlink:href="#M"/><use transform="matrix(0.06234567901234567,0,0,0.06234567901234567,149.44259259259258,0)" xlink:href="#as"/><use transform="matrix(0.06234567901234567,0,0,0.06234567901234567,154.36790123456788,0)" xlink:href="#as"/><use transform="matrix(0.06234567901234567,0,0,0.06234567901234567,159.2932098765432,0)" xlink:href="#B"/><use transform="matrix(0.06234567901234567,0,0,0.06234567901234567,171.76234567901233,0)" xlink:href="#N"/><use transform="matrix(0.06234567901234567,0,0,0.06234567901234567,182.98456790123456,0)" xlink:href="#D"/><use transform="matrix(0.06234567901234567,0,0,0.06234567901234567,189.2191358024691,0)" xlink:href="#ah"/><use transform="matrix(0.06234567901234567,0,0,0.06234567901234567,194.14444444444442,0)" xlink:href="#M"/><use transform="matrix(0.06234567901234567,0,0,0.06234567901234567,206.61358024691356,0)" xlink:href="#J"/></g><path fill="#282c33" d="M115-194c55 1 70 41 70 98S169 2 115 4C84 4 66-9 55-30l1 105H24l-1-265h31l2 30c10-21 28-34 59-34zm-8 174c40 0 45-34 45-75s-6-73-45-74c-42 0-51 32-51 76 0 43 10 73 51 73" id="at"/><path fill="#282c33" d="M179-190L93 31C79 59 56 82 12 73V49c39 6 53-20 64-50L1-190h34L92-34l54-156h33" id="au"/><g id="l"><use transform="matrix(0.06234567901234567,0,0,0.06234567901234567,0,0)" xlink:href="#G"/><use transform="matrix(0.06234567901234567,0,0,0.06234567901234567,17.456790123456788,0)" xlink:href="#af"/><use transform="matrix(0.06234567901234567,0,0,0.06234567901234567,29.92592592592592,0)" xlink:href="#K"/><use transform="matrix(0.06234567901234567,0,0,0.06234567901234567,41.14814814814814,0)" xlink:href="#B"/><use transform="matrix(0.06234567901234567,0,0,0.06234567901234567,53.61728395061727,0)" xlink:href="#F"/><use transform="matrix(0.06234567901234567,0,0,0.06234567901234567,61.036419753086406,0)" xlink:href="#ag"/><use transform="matrix(0.06234567901234567,0,0,0.06234567901234567,72.25864197530862,0)" xlink:href="#C"/><use transform="matrix(0.06234567901234567,0,0,0.06234567901234567,84.72777777777776,0)" xlink:href="#af"/><use transform="matrix(0.06234567901234567,0,0,0.06234567901234567,97.1969135802469,0)" xlink:href="#as"/><use transform="matrix(0.06234567901234567,0,0,0.06234567901234567,102.1222222222222,0)" xlink:href="#B"/><use transform="matrix(0.06234567901234567,0,0,0.06234567901234567,114.59135802469135,0)" xlink:href="#L"/><use transform="matrix(0.06234567901234567,0,0,0.06234567901234567,129.5543209876543,0)" xlink:href="#F"/><use transform="matrix(0.06234567901234567,0,0,0.06234567901234567,136.97345679012344,0)" xlink:href="#M"/><use transform="matrix(0.06234567901234567,0,0,0.06234567901234567,149.44259259259258,0)" xlink:href="#at"/><use transform="matrix(0.06234567901234567,0,0,0.06234567901234567,161.91172839506171,0)" xlink:href="#B"/><use transform="matrix(0.06234567901234567,0,0,0.06234567901234567,174.38086419753085,0)" xlink:href="#F"/><use transform="matrix(0.06234567901234567,0,0,0.06234567901234567,181.79999999999998,0)" xlink:href="#D"/><use transform="matrix(0.06234567901234567,0,0,0.06234567901234567,188.03456790123454,0)" xlink:href="#au"/></g><path fill="#282c33" d="M68-162c25-46 127-43 121 31C183-60 169 1 98 4 69 5 53-11 43-31L36 0H5l52-261h31zm88 36c2-27-9-43-34-43-55 0-70 51-70 103 0 29 15 45 43 46 52 0 58-58 61-106" id="av"/><path fill="#282c33" d="M89 0H52L20-190h33L74-25l89-165h34" id="aw"/><path fill="#282c33" d="M67-162c32-53 139-36 121 50C175-51 163 2 97 4 68 4 52-11 42-31 38 6 28 39 22 75H-9l50-265h29c-1 10 0 20-3 28zm89 36c0-26-10-43-35-43-54 0-67 50-69 103-1 29 14 45 42 46 53 0 62-58 62-106" id="ax"/><g id="m"><use transform="matrix(0.056172839506172814,0,0,0.056172839506172814,0,0)" xlink:href="#ad"/><use transform="matrix(0.056172839506172814,0,0,0.056172839506172814,11.234567901234563,0)" xlink:href="#av"/><use transform="matrix(0.056172839506172814,0,0,0.056172839506172814,22.469135802469125,0)" xlink:href="#R"/><use transform="matrix(0.056172839506172814,0,0,0.056172839506172814,32.58024691358023,0)" xlink:href="#T"/><use transform="matrix(0.056172839506172814,0,0,0.056172839506172814,43.814814814814795,0)" xlink:href="#W"/><use transform="matrix(0.056172839506172814,0,0,0.056172839506172814,50.49938271604936,0)" xlink:href="#aw"/><use transform="matrix(0.056172839506172814,0,0,0.056172839506172814,60.61049382716047,0)" xlink:href="#T"/><use transform="matrix(0.056172839506172814,0,0,0.056172839506172814,71.84506172839502,0)" xlink:href="#ab"/><use transform="matrix(0.056172839506172814,0,0,0.056172839506172814,83.07962962962958,0)" xlink:href="#ac"/><use transform="matrix(0.056172839506172814,0,0,0.056172839506172814,96.56111111111106,0)" xlink:href="#W"/><use transform="matrix(0.056172839506172814,0,0,0.056172839506172814,103.24567901234562,0)" xlink:href="#ad"/><use transform="matrix(0.056172839506172814,0,0,0.056172839506172814,114.48024691358017,0)" xlink:href="#ax"/><use transform="matrix(0.056172839506172814,0,0,0.056172839506172814,125.71481481481473,0)" xlink:href="#T"/><use transform="matrix(0.056172839506172814,0,0,0.056172839506172814,136.94938271604929,0)" xlink:href="#W"/><use transform="matrix(0.056172839506172814,0,0,0.056172839506172814,143.63395061728386,0)" xlink:href="#U"/><use transform="matrix(0.056172839506172814,0,0,0.056172839506172814,149.25123456790115,0)" xlink:href="#ao"/></g><path fill="#282c33" d="M106-169C34-169 62-67 57 0H25v-261h32l-1 103c12-21 28-36 61-36 89 0 53 116 60 194h-32v-121c2-32-8-49-39-48" id="ay"/><path fill="#282c33" d="M240 0l2-218c-23 76-54 145-80 218h-23L58-218 59 0H30v-248h44l77 211c21-75 51-140 76-211h43V0h-30" id="az"/><path fill="#282c33" d="M210-169c-67 3-38 105-44 169h-31v-121c0-29-5-50-35-48C34-165 62-65 56 0H25l-1-190h30c1 10-1 24 2 32 10-44 99-50 107 0 11-21 27-35 58-36 85-2 47 119 55 194h-31v-121c0-29-5-49-35-48" id="aA"/><g id="n"><use transform="matrix(0.06234567901234567,0,0,0.06234567901234567,0,0)" xlink:href="#ay"/><use transform="matrix(0.06234567901234567,0,0,0.06234567901234567,12.469135802469133,0)" xlink:href="#C"/><use transform="matrix(0.06234567901234567,0,0,0.06234567901234567,24.938271604938265,0)" xlink:href="#K"/><use transform="matrix(0.06234567901234567,0,0,0.06234567901234567,36.16049382716049,0)" xlink:href="#az"/><use transform="matrix(0.06234567901234567,0,0,0.06234567901234567,54.801851851851836,0)" xlink:href="#B"/><use transform="matrix(0.06234567901234567,0,0,0.06234567901234567,67.27098765432098,0)" xlink:href="#aA"/><use transform="matrix(0.06234567901234567,0,0,0.06234567901234567,85.91234567901233,0)" xlink:href="#af"/><use transform="matrix(0.06234567901234567,0,0,0.06234567901234567,98.38148148148147,0)" xlink:href="#B"/><use transform="matrix(0.06234567901234567,0,0,0.06234567901234567,110.85061728395061,0)" xlink:href="#F"/></g><path fill="#282c33" d="M33-154v-36h34v36H33zM33 0v-36h34V0H33" id="aB"/><path fill="#282c33" d="M30 0v-248h187v28H63v79h144v27H63v87h162V0H30" id="aC"/><g id="o"><use transform="matrix(0.06234567901234567,0,0,0.06234567901234567,0,0)" xlink:href="#M"/><use transform="matrix(0.06234567901234567,0,0,0.06234567901234567,12.469135802469133,0)" xlink:href="#af"/><use transform="matrix(0.06234567901234567,0,0,0.06234567901234567,24.938271604938265,0)" xlink:href="#M"/><use transform="matrix(0.06234567901234567,0,0,0.06234567901234567,37.4074074074074,0)" xlink:href="#B"/><use transform="matrix(0.06234567901234567,0,0,0.06234567901234567,49.87654320987653,0)" xlink:href="#aB"/><use transform="matrix(0.06234567901234567,0,0,0.06234567901234567,56.1111111111111,0)" xlink:href="#aC"/><use transform="matrix(0.06234567901234567,0,0,0.06234567901234567,71.07407407407406,0)" xlink:href="#J"/><use transform="matrix(0.06234567901234567,0,0,0.06234567901234567,83.54320987654319,0)" xlink:href="#D"/><use transform="matrix(0.06234567901234567,0,0,0.06234567901234567,89.77777777777776,0)" xlink:href="#ah"/><use transform="matrix(0.06234567901234567,0,0,0.06234567901234567,94.70308641975306,0)" xlink:href="#D"/><use transform="matrix(0.06234567901234567,0,0,0.06234567901234567,100.93765432098763,0)" xlink:href="#au"/></g><g id="p"><use transform="matrix(0.06234567901234567,0,0,0.06234567901234567,0,0)" xlink:href="#M"/><use transform="matrix(0.06234567901234567,0,0,0.06234567901234567,12.469135802469133,0)" xlink:href="#af"/><use transform="matrix(0.06234567901234567,0,0,0.06234567901234567,24.938271604938265,0)" xlink:href="#M"/><use transform="matrix(0.06234567901234567,0,0,0.06234567901234567,37.4074074074074,0)" xlink:href="#B"/><use transform="matrix(0.06234567901234567,0,0,0.06234567901234567,49.87654320987653,0)" xlink:href="#aB"/><use transform="matrix(0.06234567901234567,0,0,0.06234567901234567,56.1111111111111,0)" xlink:href="#L"/><use transform="matrix(0.06234567901234567,0,0,0.06234567901234567,71.07407407407406,0)" xlink:href="#F"/><use transform="matrix(0.06234567901234567,0,0,0.06234567901234567,78.49320987654319,0)" xlink:href="#M"/><use transform="matrix(0.06234567901234567,0,0,0.06234567901234567,90.96234567901232,0)" xlink:href="#D"/><use transform="matrix(0.06234567901234567,0,0,0.06234567901234567,97.19691358024689,0)" xlink:href="#M"/><use transform="matrix(0.06234567901234567,0,0,0.06234567901234567,109.66604938271601,0)" xlink:href="#N"/><use transform="matrix(0.06234567901234567,0,0,0.06234567901234567,120.88827160493823,0)" xlink:href="#M"/><use transform="matrix(0.06234567901234567,0,0,0.06234567901234567,133.35740740740735,0)" xlink:href="#as"/></g><path fill="#282c33" d="M11 0l48-248h184l-5 28H87l-15 79h140l-5 27H67L50-27h158l-5 27H11" id="aD"/><g id="q"><use transform="matrix(0.056172839506172814,0,0,0.056172839506172814,0,0)" xlink:href="#ad"/><use transform="matrix(0.056172839506172814,0,0,0.056172839506172814,11.234567901234563,0)" xlink:href="#Y"/><use transform="matrix(0.056172839506172814,0,0,0.056172839506172814,16.851851851851844,0)" xlink:href="#aD"/><use transform="matrix(0.056172839506172814,0,0,0.056172839506172814,30.333333333333318,0)" xlink:href="#aa"/><use transform="matrix(0.056172839506172814,0,0,0.056172839506172814,41.567901234567884,0)" xlink:href="#U"/><use transform="matrix(0.056172839506172814,0,0,0.056172839506172814,47.18518518518516,0)" xlink:href="#ak"/><use transform="matrix(0.056172839506172814,0,0,0.056172839506172814,51.62283950617282,0)" xlink:href="#ak"/><use transform="matrix(0.056172839506172814,0,0,0.056172839506172814,56.06049382716047,0)" xlink:href="#U"/><use transform="matrix(0.056172839506172814,0,0,0.056172839506172814,61.67777777777775,0)" xlink:href="#ao"/></g><g id="r"><use transform="matrix(0.056172839506172814,0,0,0.056172839506172814,0,0)" xlink:href="#V"/><use transform="matrix(0.056172839506172814,0,0,0.056172839506172814,11.234567901234563,0)" xlink:href="#R"/><use transform="matrix(0.056172839506172814,0,0,0.056172839506172814,21.34567901234567,0)" xlink:href="#T"/><use transform="matrix(0.056172839506172814,0,0,0.056172839506172814,32.58024691358023,0)" xlink:href="#R"/><use transform="matrix(0.056172839506172814,0,0,0.056172839506172814,42.69135802469134,0)" xlink:href="#ac"/><use transform="matrix(0.056172839506172814,0,0,0.056172839506172814,56.172839506172814,0)" xlink:href="#W"/><use transform="matrix(0.056172839506172814,0,0,0.056172839506172814,62.85740740740738,0)" xlink:href="#ad"/><use transform="matrix(0.056172839506172814,0,0,0.056172839506172814,74.09197530864193,0)" xlink:href="#U"/><use transform="matrix(0.056172839506172814,0,0,0.056172839506172814,79.70925925925921,0)" xlink:href="#ad"/><use transform="matrix(0.056172839506172814,0,0,0.056172839506172814,90.94382716049378,0)" xlink:href="#ae"/><use transform="matrix(0.056172839506172814,0,0,0.056172839506172814,101.0549382716049,0)" xlink:href="#ad"/><use transform="matrix(0.056172839506172814,0,0,0.056172839506172814,112.28950617283945,0)" xlink:href="#ai"/></g><g id="s"><use transform="matrix(0.06234567901234567,0,0,0.06234567901234567,0,0)" xlink:href="#M"/><use transform="matrix(0.06234567901234567,0,0,0.06234567901234567,12.469135802469133,0)" xlink:href="#af"/><use transform="matrix(0.06234567901234567,0,0,0.06234567901234567,24.938271604938265,0)" xlink:href="#M"/><use transform="matrix(0.06234567901234567,0,0,0.06234567901234567,37.4074074074074,0)" xlink:href="#B"/><use transform="matrix(0.06234567901234567,0,0,0.06234567901234567,49.87654320987653,0)" xlink:href="#aB"/><use transform="matrix(0.06234567901234567,0,0,0.06234567901234567,56.1111111111111,0)" xlink:href="#az"/><use transform="matrix(0.06234567901234567,0,0,0.06234567901234567,74.75246913580246,0)" xlink:href="#B"/><use transform="matrix(0.06234567901234567,0,0,0.06234567901234567,87.22160493827158,0)" xlink:href="#C"/><use transform="matrix(0.06234567901234567,0,0,0.06234567901234567,99.69074074074072,0)" xlink:href="#K"/><use transform="matrix(0.06234567901234567,0,0,0.06234567901234567,110.91296296296294,0)" xlink:href="#E"/><use transform="matrix(0.06234567901234567,0,0,0.06234567901234567,123.38209876543206,0)" xlink:href="#F"/><use transform="matrix(0.06234567901234567,0,0,0.06234567901234567,130.8012345679012,0)" xlink:href="#B"/><use transform="matrix(0.06234567901234567,0,0,0.06234567901234567,143.27037037037033,0)" xlink:href="#aA"/><use transform="matrix(0.06234567901234567,0,0,0.06234567901234567,161.9117283950617,0)" xlink:href="#B"/><use transform="matrix(0.06234567901234567,0,0,0.06234567901234567,174.38086419753083,0)" xlink:href="#J"/><use transform="matrix(0.06234567901234567,0,0,0.06234567901234567,186.84999999999997,0)" xlink:href="#D"/></g><g id="t"><use transform="matrix(0.06234567901234567,0,0,0.06234567901234567,0,0)" xlink:href="#M"/><use transform="matrix(0.06234567901234567,0,0,0.06234567901234567,12.469135802469133,0)" xlink:href="#af"/><use transform="matrix(0.06234567901234567,0,0,0.06234567901234567,24.938271604938265,0)" xlink:href="#M"/><use transform="matrix(0.06234567901234567,0,0,0.06234567901234567,37.4074074074074,0)" xlink:href="#B"/><use transform="matrix(0.06234567901234567,0,0,0.06234567901234567,49.87654320987653,0)" xlink:href="#aB"/><use transform="matrix(0.06234567901234567,0,0,0.06234567901234567,56.1111111111111,0)" xlink:href="#aC"/><use transform="matrix(0.06234567901234567,0,0,0.06234567901234567,71.07407407407406,0)" xlink:href="#J"/><use transform="matrix(0.06234567901234567,0,0,0.06234567901234567,83.54320987654319,0)" xlink:href="#D"/><use transform="matrix(0.06234567901234567,0,0,0.06234567901234567,89.77777777777776,0)" xlink:href="#ah"/><use transform="matrix(0.06234567901234567,0,0,0.06234567901234567,94.70308641975306,0)" xlink:href="#D"/><use transform="matrix(0.06234567901234567,0,0,0.06234567901234567,100.93765432098763,0)" xlink:href="#au"/></g><path fill="#282c33" d="M119 0H84L31-248h34l41 218 126-218h36" id="aE"/><g id="u"><use transform="matrix(0.056172839506172814,0,0,0.056172839506172814,0,0)" xlink:href="#P"/><use transform="matrix(0.056172839506172814,0,0,0.056172839506172814,11.234567901234563,0)" xlink:href="#Q"/><use transform="matrix(0.056172839506172814,0,0,0.056172839506172814,22.469135802469125,0)" xlink:href="#R"/><use transform="matrix(0.056172839506172814,0,0,0.056172839506172814,32.58024691358023,0)" xlink:href="#aE"/><use transform="matrix(0.056172839506172814,0,0,0.056172839506172814,45.33148148148146,0)" xlink:href="#Q"/><use transform="matrix(0.056172839506172814,0,0,0.056172839506172814,56.566049382716024,0)" xlink:href="#ai"/><use transform="matrix(0.056172839506172814,0,0,0.056172839506172814,61.00370370370368,0)" xlink:href="#V"/><use transform="matrix(0.056172839506172814,0,0,0.056172839506172814,72.23827160493823,0)" xlink:href="#T"/></g><g id="v"><use transform="matrix(0.06234567901234567,0,0,0.06234567901234567,0,0)" xlink:href="#M"/><use transform="matrix(0.06234567901234567,0,0,0.06234567901234567,12.469135802469133,0)" xlink:href="#af"/><use transform="matrix(0.06234567901234567,0,0,0.06234567901234567,24.938271604938265,0)" xlink:href="#M"/><use transform="matrix(0.06234567901234567,0,0,0.06234567901234567,37.4074074074074,0)" xlink:href="#B"/><use transform="matrix(0.06234567901234567,0,0,0.06234567901234567,49.87654320987653,0)" xlink:href="#aB"/><use transform="matrix(0.06234567901234567,0,0,0.06234567901234567,56.1111111111111,0)" xlink:href="#G"/><use transform="matrix(0.06234567901234567,0,0,0.06234567901234567,73.56790123456788,0)" xlink:href="#af"/><use transform="matrix(0.06234567901234567,0,0,0.06234567901234567,86.03703703703701,0)" xlink:href="#K"/><use transform="matrix(0.06234567901234567,0,0,0.06234567901234567,97.25925925925922,0)" xlink:href="#B"/><use transform="matrix(0.06234567901234567,0,0,0.06234567901234567,109.72839506172835,0)" xlink:href="#F"/><use transform="matrix(0.06234567901234567,0,0,0.06234567901234567,117.14753086419748,0)" xlink:href="#ag"/><use transform="matrix(0.06234567901234567,0,0,0.06234567901234567,128.3697530864197,0)" xlink:href="#C"/><use transform="matrix(0.06234567901234567,0,0,0.06234567901234567,140.83888888888885,0)" xlink:href="#D"/><use transform="matrix(0.06234567901234567,0,0,0.06234567901234567,147.0734567901234,0)" xlink:href="#ah"/><use transform="matrix(0.06234567901234567,0,0,0.06234567901234567,151.9987654320987,0)" xlink:href="#M"/><use transform="matrix(0.06234567901234567,0,0,0.06234567901234567,164.46790123456785,0)" xlink:href="#J"/></g><g id="w"><use transform="matrix(0.06234567901234567,0,0,0.06234567901234567,0,0)" xlink:href="#M"/><use transform="matrix(0.06234567901234567,0,0,0.06234567901234567,12.469135802469133,0)" xlink:href="#af"/><use transform="matrix(0.06234567901234567,0,0,0.06234567901234567,24.938271604938265,0)" xlink:href="#M"/><use transform="matrix(0.06234567901234567,0,0,0.06234567901234567,37.4074074074074,0)" xlink:href="#B"/><use transform="matrix(0.06234567901234567,0,0,0.06234567901234567,49.87654320987653,0)" xlink:href="#aB"/><use transform="matrix(0.06234567901234567,0,0,0.06234567901234567,56.1111111111111,0)" xlink:href="#G"/><use transform="matrix(0.06234567901234567,0,0,0.06234567901234567,73.56790123456788,0)" xlink:href="#af"/><use transform="matrix(0.06234567901234567,0,0,0.06234567901234567,86.03703703703701,0)" xlink:href="#K"/><use transform="matrix(0.06234567901234567,0,0,0.06234567901234567,97.25925925925922,0)" xlink:href="#B"/><use transform="matrix(0.06234567901234567,0,0,0.06234567901234567,109.72839506172835,0)" xlink:href="#F"/><use transform="matrix(0.06234567901234567,0,0,0.06234567901234567,117.14753086419748,0)" xlink:href="#ag"/><use transform="matrix(0.06234567901234567,0,0,0.06234567901234567,128.3697530864197,0)" xlink:href="#C"/><use transform="matrix(0.06234567901234567,0,0,0.06234567901234567,140.83888888888885,0)" xlink:href="#D"/><use transform="matrix(0.06234567901234567,0,0,0.06234567901234567,147.0734567901234,0)" xlink:href="#ah"/><use transform="matrix(0.06234567901234567,0,0,0.06234567901234567,151.9987654320987,0)" xlink:href="#M"/><use transform="matrix(0.06234567901234567,0,0,0.06234567901234567,164.46790123456785,0)" xlink:href="#J"/><use transform="matrix(0.06234567901234567,0,0,0.06234567901234567,176.937037037037,0)" xlink:href="#ar"/><use transform="matrix(0.06234567901234567,0,0,0.06234567901234567,193.08456790123452,0)" xlink:href="#M"/><use transform="matrix(0.06234567901234567,0,0,0.06234567901234567,205.55370370370366,0)" xlink:href="#as"/><use transform="matrix(0.06234567901234567,0,0,0.06234567901234567,210.47901234567897,0)" xlink:href="#as"/><use transform="matrix(0.06234567901234567,0,0,0.06234567901234567,215.40432098765427,0)" xlink:href="#B"/><use transform="matrix(0.06234567901234567,0,0,0.06234567901234567,227.8734567901234,0)" xlink:href="#N"/><use transform="matrix(0.06234567901234567,0,0,0.06234567901234567,239.09567901234564,0)" xlink:href="#D"/><use transform="matrix(0.06234567901234567,0,0,0.06234567901234567,245.3302469135802,0)" xlink:href="#ah"/><use transform="matrix(0.06234567901234567,0,0,0.06234567901234567,250.2555555555555,0)" xlink:href="#M"/><use transform="matrix(0.06234567901234567,0,0,0.06234567901234567,262.72469135802464,0)" xlink:href="#J"/></g><g id="x"><use transform="matrix(0.06234567901234567,0,0,0.06234567901234567,0,0)" xlink:href="#M"/><use transform="matrix(0.06234567901234567,0,0,0.06234567901234567,12.469135802469133,0)" xlink:href="#af"/><use transform="matrix(0.06234567901234567,0,0,0.06234567901234567,24.938271604938265,0)" xlink:href="#M"/><use transform="matrix(0.06234567901234567,0,0,0.06234567901234567,37.4074074074074,0)" xlink:href="#B"/><use transform="matrix(0.06234567901234567,0,0,0.06234567901234567,49.87654320987653,0)" xlink:href="#aB"/><use transform="matrix(0.06234567901234567,0,0,0.06234567901234567,56.1111111111111,0)" xlink:href="#ar"/><use transform="matrix(0.06234567901234567,0,0,0.06234567901234567,72.25864197530862,0)" xlink:href="#ay"/><use transform="matrix(0.06234567901234567,0,0,0.06234567901234567,84.72777777777776,0)" xlink:href="#C"/><use transform="matrix(0.06234567901234567,0,0,0.06234567901234567,97.1969135802469,0)" xlink:href="#F"/><use transform="matrix(0.06234567901234567,0,0,0.06234567901234567,104.61604938271603,0)" xlink:href="#C"/><use transform="matrix(0.06234567901234567,0,0,0.06234567901234567,117.08518518518517,0)" xlink:href="#N"/><use transform="matrix(0.06234567901234567,0,0,0.06234567901234567,128.3074074074074,0)" xlink:href="#D"/><use transform="matrix(0.06234567901234567,0,0,0.06234567901234567,134.54197530864195,0)" xlink:href="#B"/><use transform="matrix(0.06234567901234567,0,0,0.06234567901234567,147.0111111111111,0)" xlink:href="#F"/><use transform="matrix(0.06234567901234567,0,0,0.06234567901234567,154.43024691358022,0)" xlink:href="#ah"/><use transform="matrix(0.06234567901234567,0,0,0.06234567901234567,159.35555555555553,0)" xlink:href="#K"/><use transform="matrix(0.06234567901234567,0,0,0.06234567901234567,170.57777777777775,0)" xlink:href="#D"/><use transform="matrix(0.06234567901234567,0,0,0.06234567901234567,176.8123456790123,0)" xlink:href="#ah"/><use transform="matrix(0.06234567901234567,0,0,0.06234567901234567,181.73765432098762,0)" xlink:href="#N"/></g><path fill="#282c33" d="M125-24c46 0 70-25 89-51l25 16C214-24 183 4 123 4 8 4-5-146 60-208c32-50 158-61 191-5 5 7 9 14 11 22l-32 10c-9-28-33-43-69-43-74 0-108 51-108 125 0 46 24 75 72 75" id="aF"/><g id="y"><use transform="matrix(0.056172839506172814,0,0,0.056172839506172814,0,0)" xlink:href="#ad"/><use transform="matrix(0.056172839506172814,0,0,0.056172839506172814,11.234567901234563,0)" xlink:href="#Y"/><use transform="matrix(0.056172839506172814,0,0,0.056172839506172814,16.851851851851844,0)" xlink:href="#aF"/><use transform="matrix(0.056172839506172814,0,0,0.056172839506172814,31.400617283950602,0)" xlink:href="#P"/><use transform="matrix(0.056172839506172814,0,0,0.056172839506172814,42.635185185185165,0)" xlink:href="#Q"/><use transform="matrix(0.056172839506172814,0,0,0.056172839506172814,53.86975308641973,0)" xlink:href="#W"/><use transform="matrix(0.056172839506172814,0,0,0.056172839506172814,60.55432098765429,0)" xlink:href="#Q"/><use transform="matrix(0.056172839506172814,0,0,0.056172839506172814,71.78888888888886,0)" xlink:href="#ae"/><use transform="matrix(0.056172839506172814,0,0,0.056172839506172814,81.89999999999998,0)" xlink:href="#U"/><use transform="matrix(0.056172839506172814,0,0,0.056172839506172814,87.51728395061726,0)" xlink:href="#T"/><use transform="matrix(0.056172839506172814,0,0,0.056172839506172814,98.75185185185182,0)" xlink:href="#W"/><use transform="matrix(0.056172839506172814,0,0,0.056172839506172814,105.43641975308638,0)" xlink:href="#ak"/><use transform="matrix(0.056172839506172814,0,0,0.056172839506172814,109.87407407407403,0)" xlink:href="#R"/><use transform="matrix(0.056172839506172814,0,0,0.056172839506172814,119.98518518518516,0)" xlink:href="#U"/><use transform="matrix(0.056172839506172814,0,0,0.056172839506172814,125.60246913580241,0)" xlink:href="#ak"/><use transform="matrix(0.056172839506172814,0,0,0.056172839506172814,130.04012345679007,0)" xlink:href="#ae"/></g><g id="z"><use transform="matrix(0.056172839506172814,0,0,0.056172839506172814,0,0)" xlink:href="#ak"/><use transform="matrix(0.056172839506172814,0,0,0.056172839506172814,4.437654320987653,0)" xlink:href="#al"/><use transform="matrix(0.056172839506172814,0,0,0.056172839506172814,21.233333333333327,0)" xlink:href="#ax"/><use transform="matrix(0.056172839506172814,0,0,0.056172839506172814,32.46790123456789,0)" xlink:href="#ai"/><use transform="matrix(0.056172839506172814,0,0,0.056172839506172814,36.905555555555544,0)" xlink:href="#T"/><use transform="matrix(0.056172839506172814,0,0,0.056172839506172814,48.14012345679011,0)" xlink:href="#al"/><use transform="matrix(0.056172839506172814,0,0,0.056172839506172814,64.93580246913578,0)" xlink:href="#T"/><use transform="matrix(0.056172839506172814,0,0,0.056172839506172814,76.17037037037034,0)" xlink:href="#aa"/><use transform="matrix(0.056172839506172814,0,0,0.056172839506172814,87.40493827160489,0)" xlink:href="#U"/><use transform="matrix(0.056172839506172814,0,0,0.056172839506172814,93.02222222222217,0)" xlink:href="#R"/></g></defs></g></svg>