<svg xmlns="http://www.w3.org/2000/svg" xmlns:xlink="http://www.w3.org/1999/xlink" xmlns:lucid="lucid" width="1195.63" height="844.5"><g transform="translate(-200 -75.5)" lucid:page-tab-id="HWEp-vi-RSFO"><path d="M0 0h1500v1000H0z" fill="#fff"/><path d="M791.67 397v-53.63" stroke="#ced4db" stroke-width="3" fill="none"/><path d="M793.14 398.5h-2.95v-1.54h2.94z" stroke="#ced4db" stroke-width=".05" fill="#ced4db"/><path d="M791.67 330.45l7.63 12.9h-15.27zM1100 400h220v80h-220z" stroke="#ced4db" stroke-width="3" fill="#fff"/><use xlink:href="#a" transform="matrix(1,0,0,1,1108,408) translate(14.186111111111131 36.48888888888889)"/><path d="M280 480h220v80H280z" stroke="#000" stroke-width="3" fill="#fff"/><use xlink:href="#b" transform="matrix(1,0,0,1,288,488) translate(-0.7456790123456756 36.48888888888889)"/><path d="M905.9 423.57h71.43a12 12 0 0 1 12 12v23.1a12 12 0 0 0 12 12h94.44" stroke="#333" stroke-width="3" fill="none"/><path d="M923.33 413.4l-17.22 10.17 17.23 10.18M1078.34 480.85l17.2-10.18-17.2-10.18" stroke="#333" stroke-width="3" fill="none"/><path d="M980 480h240v60H980z" fill="none"/><use xlink:href="#c" transform="matrix(1,0,0,1,980,480) translate(24.59043209876546 34.044444444444444)"/><path d="M800 360h240v60H800z" fill="none"/><use xlink:href="#d" transform="matrix(1,0,0,1,800,360) translate(22.933333333333366 34.044444444444444)"/><path d="M681.67 400h220v253h-220z" stroke="#000" stroke-width="3" fill="#fff"/><path d="M681.67 442.93h220" stroke="#000" stroke-width="3" fill="none"/><use xlink:href="#e" transform="matrix(1,0,0,1,689.6666666666667,408) translate(41.58703703703705 17.988888888888887)"/><use xlink:href="#f" transform="matrix(1,0,0,1,693.6666666666667,450.93333333333334) translate(56.066975308642 16.611111111111153)"/><use xlink:href="#g" transform="matrix(1,0,0,1,693.6666666666667,450.93333333333334) translate(51.03950617283952 40.87777777777781)"/><use xlink:href="#h" transform="matrix(1,0,0,1,693.6666666666667,450.93333333333334) translate(16.74598765432104 65.14444444444447)"/><use xlink:href="#i" transform="matrix(1,0,0,1,693.6666666666667,450.93333333333334) translate(33.794444444444466 89.41111111111114)"/><use xlink:href="#j" transform="matrix(1,0,0,1,693.6666666666667,450.93333333333334) translate(25.930246913580277 113.67777777777779)"/><use xlink:href="#k" transform="matrix(1,0,0,1,693.6666666666667,450.93333333333334) translate(53.117901234567924 137.94444444444443)"/><use xlink:href="#l" transform="matrix(1,0,0,1,693.6666666666667,450.93333333333334) translate(22.307098765432116 162.21111111111108)"/><use xlink:href="#m" transform="matrix(1,0,0,1,693.6666666666667,450.93333333333334) translate(41.93950617283954 186.47777777777773)"/><path d="M280 740h220v80H280z" stroke="#000" stroke-width="3" fill="#fff"/><use xlink:href="#n" transform="matrix(1,0,0,1,288,748) translate(66.49413580246915 36.48888888888889)"/><path d="M677.44 644H572a12 12 0 0 0-12 12v86.67a12 12 0 0 1-12 12h-43.77" stroke="#333" stroke-width="3" fill="none"/><path d="M660 654.18L677.23 644 660 633.82M521.66 744.5l-17.2 10.17 17.2 10.18" stroke="#333" stroke-width="3" fill="none"/><path d="M540 640h240v60H540z" fill="none"/><use xlink:href="#o" transform="matrix(1,0,0,1,540,640) translate(40.31882716049387 34.044444444444444)"/><path d="M340 700h240v60H340z" fill="none"/><use xlink:href="#p" transform="matrix(1,0,0,1,340,700) translate(50.96358024691361 34.044444444444444)"/><path d="M678.67 541.4H504.23" stroke="#333" stroke-width="3" fill="none"/><path d="M680.17 542.9h-1.54v-2.96h1.54z" stroke="#333" stroke-width=".05" fill="#333"/><path d="M521.66 531.23l-17.2 10.18 17.2 10.2" stroke="#333" stroke-width="3" fill="none"/><path d="M380 560h240v60H380z" fill="none"/><use xlink:href="#q" transform="matrix(1,0,0,1,380,560) translate(51.52530864197534 34.044444444444444)"/><path d="M1100 740h220v80h-220z" stroke="#000" stroke-width="3" fill="#fff"/><use xlink:href="#r" transform="matrix(1,0,0,1,1108,748) translate(2.3716049382716164 36.48888888888889)"/><path d="M905.9 642.67h82.93a12 12 0 0 1 12 12V736a12 12 0 0 0 12 12h82.94" stroke="#333" stroke-width="3" fill="none"/><path d="M923.33 632.5l-17.22 10.17 17.23 10.18M1078.34 758.18l17.2-10.18-17.2-10.18" stroke="#333" stroke-width="3" fill="none"/><path d="M1000 700h240v60h-240z" fill="none"/><use xlink:href="#s" transform="matrix(1,0,0,1,1000,700) translate(40.31882716049387 34.044444444444444)"/><path d="M780 640h240v60H780z" fill="none"/><use xlink:href="#t" transform="matrix(1,0,0,1,780,640) translate(57.142592592592635 34.044444444444444)"/><path d="M1120 580h240v60h-240z" fill="none"/><use xlink:href="#u" transform="matrix(1,0,0,1,1120,580) translate(-12.371296296296237 34.044444444444444)"/><path d="M904.67 526.5h26.5a12 12 0 0 1 12 12v33a12 12 0 0 0 12 12h394.33a12 12 0 0 0 12-12V452a12 12 0 0 0-12-12h-25.27" stroke="#333" stroke-width="3" fill="none"/><path d="M904.7 527.98h-1.53V525h1.54z" stroke="#333" stroke-width=".05" fill="#333"/><path d="M1341.66 429.82l-17.2 10.18 17.2 10.18" stroke="#333" stroke-width="3" fill="none"/><path d="M681.67 800h220v80h-220z" stroke="#000" stroke-width="3" fill="#fff"/><use xlink:href="#v" transform="matrix(1,0,0,1,689.6666666666667,808) translate(59.07500000000002 36.48888888888889)"/><path d="M791.67 656v139.77" stroke="#333" stroke-width="3" fill="none"/><path d="M793.14 656.04h-2.95v-1.54h2.94z" stroke="#333" stroke-width=".05" fill="#333"/><path d="M781.5 778.34l10.17 17.2 10.18-17.2M503 800h75.83a12 12 0 0 1 12 12v16a12 12 0 0 0 12 12h74.6" stroke="#333" stroke-width="3" fill="none"/><path d="M503.04 801.48h-1.54v-2.96h1.54z" stroke="#333" stroke-width=".05" fill="#333"/><path d="M660 850.18L677.23 840 660 829.82" stroke="#333" stroke-width="3" fill="none"/><path d="M780 740h240v60H780z" fill="none"/><use xlink:href="#w" transform="matrix(1,0,0,1,780,740) translate(43.717283950617315 34.044444444444444)"/><path d="M520 840h240v60H520z" fill="none"/><use xlink:href="#x" transform="matrix(1,0,0,1,520,840) translate(87.41975308641976 34.044444444444444)"/><path d="M904.67 840h84.16a12 12 0 0 0 12-12v-12a12 12 0 0 1 12-12h82.94" stroke="#333" stroke-width="3" fill="none"/><path d="M904.7 841.48h-1.53v-2.96h1.54z" stroke="#333" stroke-width=".05" fill="#333"/><path d="M1078.34 814.18l17.2-10.18-17.2-10.18" stroke="#333" stroke-width="3" fill="none"/><path d="M980 810h240v60H980z" fill="none"/><use xlink:href="#y" transform="matrix(1,0,0,1,980,810) translate(71.80370370370372 34.044444444444444)"/><path d="M711.67 240h160v86h-160z" stroke="#ced4db" stroke-width="3" fill="#fff"/><use xlink:href="#z" transform="matrix(1,0,0,1,719.6666666666667,248) translate(22.778086419753095 39.48888888888889)"/><path d="M280 97h300v277H280z" stroke="#000" stroke-width="3" fill="#fff"/><path d="M280 139.93h300" stroke="#000" stroke-width="3" fill="none"/><use xlink:href="#A" transform="matrix(1,0,0,1,288,105) translate(32.45864197530865 17.988888888888887)"/><use xlink:href="#f" transform="matrix(1,0,0,1,292,147.93333333333334) translate(96.066975308642 16.477777777777828)"/><use xlink:href="#g" transform="matrix(1,0,0,1,292,147.93333333333334) translate(91.03950617283952 40.74444444444448)"/><use xlink:href="#B" transform="matrix(1,0,0,1,292,147.93333333333334) translate(56.74598765432104 65.01111111111115)"/><use xlink:href="#C" transform="matrix(1,0,0,1,292,147.93333333333334) translate(42.59043209876546 89.27777777777781)"/><use xlink:href="#D" transform="matrix(1,0,0,1,292,147.93333333333334) translate(5.6287037037037635 113.54444444444447)"/><use xlink:href="#E" transform="matrix(1,0,0,1,292,147.93333333333334) translate(58.31882716049387 137.8111111111111)"/><use xlink:href="#F" transform="matrix(1,0,0,1,292,147.93333333333334) translate(68.96358024691361 162.07777777777775)"/><use xlink:href="#G" transform="matrix(1,0,0,1,292,147.93333333333334) translate(69.52530864197534 186.3444444444444)"/><use xlink:href="#H" transform="matrix(1,0,0,1,292,147.93333333333334) translate(93.11790123456792 210.61111111111106)"/><path d="M500 460h240v60H500z" fill="none"/><g><use xlink:href="#I" transform="matrix(1,0,0,1,500,460) translate(66.72006172839508 34.044444444444444)"/></g><path d="M583 235.5h15a12 12 0 0 1 12 12v156a12 12 0 0 1-12 12H442a12 12 0 0 1-12-12v-25.27" stroke="#333" stroke-width="3" fill="none"/><path d="M583.04 236.97h-1.54v-2.94h1.54z" stroke="#333" stroke-width=".05" fill="#333"/><path d="M440.18 395.66L430 378.46l-10.18 17.2" stroke="#333" stroke-width="3" fill="none"/><path d="M220 374h240v60H220z" fill="none"/><g><use xlink:href="#I" transform="matrix(1,0,0,1,220,374) translate(66.72006172839508 34.044444444444444)"/></g><path d="M583 235.5h15a12 12 0 0 1 12 12v188.94a12 12 0 0 0 12 12h55.44" stroke="#000" stroke-width="3" fill="none"/><path d="M583.04 236.97h-1.54v-2.94h1.54z" stroke="#000" stroke-width=".05"/><path d="M660 458.62l17.22-10.18L660 438.26" stroke="#000" stroke-width="3" fill="none"/><defs><path fill="#979ea8" d="M63-220v92h138v28H63V0H30v-248h175v28H63" id="J"/><path fill="#979ea8" d="M100-194c63 0 86 42 84 106H49c0 40 14 67 53 68 26 1 43-12 49-29l28 8c-11 28-37 45-77 45C44 4 14-33 15-96c1-61 26-98 85-98zm52 81c6-60-76-77-97-28-3 7-6 17-6 28h103" id="K"/><path fill="#979ea8" d="M141-36C126-15 110 5 73 4 37 3 15-17 15-53c-1-64 63-63 125-63 3-35-9-54-41-54-24 1-41 7-42 31l-33-3c5-37 33-52 76-52 45 0 72 20 72 64v82c-1 20 7 32 28 27v20c-31 9-61-2-59-35zM48-53c0 20 12 33 32 33 41-3 63-29 60-74-43 2-92-5-92 41" id="L"/><path fill="#979ea8" d="M59-47c-2 24 18 29 38 22v24C64 9 27 4 27-40v-127H5v-23h24l9-43h21v43h35v23H59v120" id="M"/><path fill="#979ea8" d="M84 4C-5 8 30-112 23-190h32v120c0 31 7 50 39 49 72-2 45-101 50-169h31l1 190h-30c-1-10 1-25-2-33-11 22-28 36-60 37" id="N"/><path fill="#979ea8" d="M114-163C36-179 61-72 57 0H25l-1-190h30c1 12-1 29 2 39 6-27 23-49 58-41v29" id="O"/><path fill="#979ea8" d="M140-251c81 0 123 46 123 126C263-46 219 4 140 4 59 4 17-45 17-125s42-126 123-126zm0 227c63 0 89-41 89-101s-29-99-89-99c-61 0-89 39-89 99S79-25 140-24" id="P"/><path fill="#979ea8" d="M101-234c-31-9-42 10-38 44h38v23H63V0H32v-167H5v-23h27c-7-52 17-82 69-68v24" id="Q"/><path fill="#979ea8" d="M33 0v-248h34V0H33" id="R"/><path fill="#979ea8" d="M117-194c89-4 53 116 60 194h-32v-121c0-31-8-49-39-48C34-167 62-67 57 0H25l-1-190h30c1 10-1 24 2 32 11-22 29-35 61-36" id="S"/><path fill="#979ea8" d="M135-143c-3-34-86-38-87 0 15 53 115 12 119 90S17 21 10-45l28-5c4 36 97 45 98 0-10-56-113-15-118-90-4-57 82-63 122-42 12 7 21 19 24 35" id="T"/><g id="a"><use transform="matrix(0.06234567901234567,0,0,0.06234567901234567,0,0)" xlink:href="#J"/><use transform="matrix(0.06234567901234567,0,0,0.06234567901234567,13.653703703703702,0)" xlink:href="#K"/><use transform="matrix(0.06234567901234567,0,0,0.06234567901234567,26.122839506172834,0)" xlink:href="#L"/><use transform="matrix(0.06234567901234567,0,0,0.06234567901234567,38.59197530864196,0)" xlink:href="#M"/><use transform="matrix(0.06234567901234567,0,0,0.06234567901234567,44.82654320987653,0)" xlink:href="#N"/><use transform="matrix(0.06234567901234567,0,0,0.06234567901234567,57.295679012345666,0)" xlink:href="#O"/><use transform="matrix(0.06234567901234567,0,0,0.06234567901234567,64.7148148148148,0)" xlink:href="#K"/><use transform="matrix(0.06234567901234567,0,0,0.06234567901234567,77.18395061728393,0)" xlink:href="#P"/><use transform="matrix(0.06234567901234567,0,0,0.06234567901234567,94.64074074074071,0)" xlink:href="#Q"/><use transform="matrix(0.06234567901234567,0,0,0.06234567901234567,100.87530864197528,0)" xlink:href="#R"/><use transform="matrix(0.06234567901234567,0,0,0.06234567901234567,107.10987654320985,0)" xlink:href="#S"/><use transform="matrix(0.06234567901234567,0,0,0.06234567901234567,119.57901234567899,0)" xlink:href="#M"/><use transform="matrix(0.06234567901234567,0,0,0.06234567901234567,125.81358024691356,0)" xlink:href="#K"/><use transform="matrix(0.06234567901234567,0,0,0.06234567901234567,138.28271604938269,0)" xlink:href="#O"/><use transform="matrix(0.06234567901234567,0,0,0.06234567901234567,145.7018518518518,0)" xlink:href="#K"/><use transform="matrix(0.06234567901234567,0,0,0.06234567901234567,158.17098765432095,0)" xlink:href="#T"/><use transform="matrix(0.06234567901234567,0,0,0.06234567901234567,169.39320987654318,0)" xlink:href="#M"/></g><path fill="#282c33" d="M140-251c81 0 123 46 123 126C263-46 219 4 140 4 59 4 17-45 17-125s42-126 123-126zm0 227c63 0 89-41 89-101s-29-99-89-99c-61 0-89 39-89 99S79-25 140-24" id="U"/><path fill="#282c33" d="M115-194c53 0 69 39 70 98 0 66-23 100-70 100C84 3 66-7 56-30L54 0H23l1-261h32v101c10-23 28-34 59-34zm-8 174c40 0 45-34 45-75 0-40-5-75-45-74-42 0-51 32-51 76 0 43 10 73 51 73" id="V"/><path fill="#282c33" d="M135-143c-3-34-86-38-87 0 15 53 115 12 119 90S17 21 10-45l28-5c4 36 97 45 98 0-10-56-113-15-118-90-4-57 82-63 122-42 12 7 21 19 24 35" id="W"/><path fill="#282c33" d="M100-194c63 0 86 42 84 106H49c0 40 14 67 53 68 26 1 43-12 49-29l28 8c-11 28-37 45-77 45C44 4 14-33 15-96c1-61 26-98 85-98zm52 81c6-60-76-77-97-28-3 7-6 17-6 28h103" id="X"/><path fill="#282c33" d="M114-163C36-179 61-72 57 0H25l-1-190h30c1 12-1 29 2 39 6-27 23-49 58-41v29" id="Y"/><path fill="#282c33" d="M108 0H70L1-190h34L89-25l56-165h34" id="Z"/><path fill="#282c33" d="M24-231v-30h32v30H24zM24 0v-190h32V0H24" id="aa"/><path fill="#282c33" d="M117-194c89-4 53 116 60 194h-32v-121c0-31-8-49-39-48C34-167 62-67 57 0H25l-1-190h30c1 10-1 24 2 32 11-22 29-35 61-36" id="ab"/><path fill="#282c33" d="M177-190C167-65 218 103 67 71c-23-6-38-20-44-43l32-5c15 47 100 32 89-28v-30C133-14 115 1 83 1 29 1 15-40 15-95c0-56 16-97 71-98 29-1 48 16 59 35 1-10 0-23 2-32h30zM94-22c36 0 50-32 50-73 0-42-14-75-50-75-39 0-46 34-46 75s6 73 46 73" id="ac"/><path fill="#282c33" d="M30-248c87 1 191-15 191 75 0 78-77 80-158 76V0H30v-248zm33 125c57 0 124 11 124-50 0-59-68-47-124-48v98" id="ad"/><path fill="#282c33" d="M100-194c62-1 85 37 85 99 1 63-27 99-86 99S16-35 15-95c0-66 28-99 85-99zM99-20c44 1 53-31 53-75 0-43-8-75-51-75s-53 32-53 75 10 74 51 75" id="ae"/><path fill="#282c33" d="M96-169c-40 0-48 33-48 73s9 75 48 75c24 0 41-14 43-38l32 2c-6 37-31 61-74 61-59 0-76-41-82-99-10-93 101-131 147-64 4 7 5 14 7 22l-32 3c-4-21-16-35-41-35" id="af"/><path fill="#282c33" d="M85-194c31 0 48 13 60 33l-1-100h32l1 261h-30c-2-10 0-23-3-31C134-8 116 4 85 4 32 4 16-35 15-94c0-66 23-100 70-100zm9 24c-40 0-46 34-46 75 0 40 6 74 45 74 42 0 51-32 51-76 0-42-9-74-50-73" id="ag"/><path fill="#282c33" d="M84 4C-5 8 30-112 23-190h32v120c0 31 7 50 39 49 72-2 45-101 50-169h31l1 190h-30c-1-10 1-25-2-33-11 22-28 36-60 37" id="ah"/><g id="b"><use transform="matrix(0.06234567901234567,0,0,0.06234567901234567,0,0)" xlink:href="#U"/><use transform="matrix(0.06234567901234567,0,0,0.06234567901234567,17.456790123456788,0)" xlink:href="#V"/><use transform="matrix(0.06234567901234567,0,0,0.06234567901234567,29.92592592592592,0)" xlink:href="#W"/><use transform="matrix(0.06234567901234567,0,0,0.06234567901234567,41.14814814814814,0)" xlink:href="#X"/><use transform="matrix(0.06234567901234567,0,0,0.06234567901234567,53.61728395061727,0)" xlink:href="#Y"/><use transform="matrix(0.06234567901234567,0,0,0.06234567901234567,61.036419753086406,0)" xlink:href="#Z"/><use transform="matrix(0.06234567901234567,0,0,0.06234567901234567,72.25864197530862,0)" xlink:href="#aa"/><use transform="matrix(0.06234567901234567,0,0,0.06234567901234567,77.18395061728393,0)" xlink:href="#ab"/><use transform="matrix(0.06234567901234567,0,0,0.06234567901234567,89.65308641975307,0)" xlink:href="#ac"/><use transform="matrix(0.06234567901234567,0,0,0.06234567901234567,102.1222222222222,0)" xlink:href="#ad"/><use transform="matrix(0.06234567901234567,0,0,0.06234567901234567,117.08518518518517,0)" xlink:href="#Y"/><use transform="matrix(0.06234567901234567,0,0,0.06234567901234567,124.5043209876543,0)" xlink:href="#ae"/><use transform="matrix(0.06234567901234567,0,0,0.06234567901234567,136.97345679012344,0)" xlink:href="#af"/><use transform="matrix(0.06234567901234567,0,0,0.06234567901234567,148.19567901234566,0)" xlink:href="#X"/><use transform="matrix(0.06234567901234567,0,0,0.06234567901234567,160.6648148148148,0)" xlink:href="#ag"/><use transform="matrix(0.06234567901234567,0,0,0.06234567901234567,173.13395061728394,0)" xlink:href="#ah"/><use transform="matrix(0.06234567901234567,0,0,0.06234567901234567,185.60308641975308,0)" xlink:href="#Y"/><use transform="matrix(0.06234567901234567,0,0,0.06234567901234567,193.0222222222222,0)" xlink:href="#X"/></g><path fill="#282c33" d="M67-158c15-20 31-36 64-36 94 0 33 127 27 194h-32l25-140c3-38-53-32-70-12C52-117 51-51 37 0H6l51-261h31" id="ai"/><path fill="#282c33" d="M165-48c-4 18 1 34 23 27l-3 20c-29 8-62 0-52-35h-2C116-14 99 4 63 4 30 4 8-16 8-49c0-68 71-67 138-67 10-26 0-56-31-54-26 1-42 9-47 31l-32-5c8-67 160-71 144 15-5 28-9 54-15 81zM42-50c3 52 80 24 89-6 7-12 7-24 11-38-47 1-103-4-100 44" id="aj"/><path fill="#282c33" d="M55-144c13 50 104 24 104 88C159 21 15 23 1-39l26-10c6 40 102 42 102-4-13-50-104-23-104-87 0-71 143-71 148-8l-29 4c-5-35-85-37-89 0" id="ak"/><path fill="#282c33" d="M87-220l-18 92h140l-5 28H64L45 0H11l48-248h178l-5 28H87" id="al"/><path fill="#282c33" d="M111-194c62-3 86 47 72 106H45c-7 38 6 69 45 68 27-1 43-14 53-32l24 11C152-15 129 4 87 4 38 3 12-23 12-71c0-70 32-119 99-123zm44 81c14-66-71-72-95-28-4 8-8 17-11 28h106" id="am"/><path fill="#282c33" d="M51-54c-9 22 5 41 31 30L79-1C43 14 10-4 19-52l22-115H19l5-23h22l19-43h21l-9 43h35l-4 23H73" id="an"/><path fill="#282c33" d="M67 3c-93-2-31-127-26-193h32L48-50c-3 39 53 32 70 12 30-34 30-101 43-152h32L157 0h-30c1-10 6-24 4-33-14 20-29 37-64 36" id="ao"/><path fill="#282c33" d="M66-151c12-25 30-51 66-40l-6 26C45-176 58-65 38 0H6l36-190h30" id="ap"/><path fill="#282c33" d="M20-101c0-91 52-143 145-150 126-9 127 168 53 223-23 17-55 32-93 32C57 4 20-33 20-101zm216-33c5-57-18-91-73-90-77 1-110 51-110 125 0 49 23 75 73 75 72-1 104-45 110-110" id="aq"/><path fill="#282c33" d="M76-167L44 0H12l33-167H18l4-23h27c3-47 25-81 82-69l-4 24c-35-8-44 15-46 45h37l-5 23H76" id="ar"/><path fill="#282c33" d="M14 0l48-248h34L48 0H14" id="as"/><path fill="#282c33" d="M67-158c22-48 132-52 116 29L158 0h-32l25-140c3-38-53-32-70-12C52-117 51-52 38 0H6l36-190h30" id="at"/><g id="c"><use transform="matrix(0.056172839506172814,0,0,0.056172839506172814,0,0)" xlink:href="#ai"/><use transform="matrix(0.056172839506172814,0,0,0.056172839506172814,11.234567901234563,0)" xlink:href="#aj"/><use transform="matrix(0.056172839506172814,0,0,0.056172839506172814,22.469135802469125,0)" xlink:href="#ak"/><use transform="matrix(0.056172839506172814,0,0,0.056172839506172814,32.58024691358023,0)" xlink:href="#al"/><use transform="matrix(0.056172839506172814,0,0,0.056172839506172814,44.882098765432076,0)" xlink:href="#am"/><use transform="matrix(0.056172839506172814,0,0,0.056172839506172814,56.11666666666664,0)" xlink:href="#aj"/><use transform="matrix(0.056172839506172814,0,0,0.056172839506172814,67.3512345679012,0)" xlink:href="#an"/><use transform="matrix(0.056172839506172814,0,0,0.056172839506172814,72.96851851851848,0)" xlink:href="#ao"/><use transform="matrix(0.056172839506172814,0,0,0.056172839506172814,84.20308641975305,0)" xlink:href="#ap"/><use transform="matrix(0.056172839506172814,0,0,0.056172839506172814,90.88765432098761,0)" xlink:href="#am"/><use transform="matrix(0.056172839506172814,0,0,0.056172839506172814,102.12222222222218,0)" xlink:href="#aq"/><use transform="matrix(0.056172839506172814,0,0,0.056172839506172814,117.85061728395057,0)" xlink:href="#ar"/><use transform="matrix(0.056172839506172814,0,0,0.056172839506172814,123.46790123456785,0)" xlink:href="#as"/><use transform="matrix(0.056172839506172814,0,0,0.056172839506172814,129.08518518518514,0)" xlink:href="#at"/><use transform="matrix(0.056172839506172814,0,0,0.056172839506172814,140.3197530864197,0)" xlink:href="#an"/><use transform="matrix(0.056172839506172814,0,0,0.056172839506172814,145.937037037037,0)" xlink:href="#am"/><use transform="matrix(0.056172839506172814,0,0,0.056172839506172814,157.17160493827154,0)" xlink:href="#ap"/><use transform="matrix(0.056172839506172814,0,0,0.056172839506172814,163.85617283950612,0)" xlink:href="#am"/><use transform="matrix(0.056172839506172814,0,0,0.056172839506172814,175.09074074074067,0)" xlink:href="#ak"/><use transform="matrix(0.056172839506172814,0,0,0.056172839506172814,185.20185185185179,0)" xlink:href="#an"/></g><path fill="#979ea8" d="M50-231l6-30h32l-6 30H50zM6 0l37-190h31L37 0H6" id="au"/><path fill="#979ea8" d="M55-144c13 50 104 24 104 88C159 21 15 23 1-39l26-10c6 40 102 42 102-4-13-50-104-23-104-87 0-71 143-71 148-8l-29 4c-5-35-85-37-89 0" id="av"/><path fill="#979ea8" d="M87-220l-18 92h140l-5 28H64L45 0H11l48-248h178l-5 28H87" id="aw"/><path fill="#979ea8" d="M111-194c62-3 86 47 72 106H45c-7 38 6 69 45 68 27-1 43-14 53-32l24 11C152-15 129 4 87 4 38 3 12-23 12-71c0-70 32-119 99-123zm44 81c14-66-71-72-95-28-4 8-8 17-11 28h106" id="ax"/><path fill="#979ea8" d="M165-48c-4 18 1 34 23 27l-3 20c-29 8-62 0-52-35h-2C116-14 99 4 63 4 30 4 8-16 8-49c0-68 71-67 138-67 10-26 0-56-31-54-26 1-42 9-47 31l-32-5c8-67 160-71 144 15-5 28-9 54-15 81zM42-50c3 52 80 24 89-6 7-12 7-24 11-38-47 1-103-4-100 44" id="ay"/><path fill="#979ea8" d="M51-54c-9 22 5 41 31 30L79-1C43 14 10-4 19-52l22-115H19l5-23h22l19-43h21l-9 43h35l-4 23H73" id="az"/><path fill="#979ea8" d="M67 3c-93-2-31-127-26-193h32L48-50c-3 39 53 32 70 12 30-34 30-101 43-152h32L157 0h-30c1-10 6-24 4-33-14 20-29 37-64 36" id="aA"/><path fill="#979ea8" d="M66-151c12-25 30-51 66-40l-6 26C45-176 58-65 38 0H6l36-190h30" id="aB"/><path fill="#979ea8" d="M20-101c0-91 52-143 145-150 126-9 127 168 53 223-23 17-55 32-93 32C57 4 20-33 20-101zm216-33c5-57-18-91-73-90-77 1-110 51-110 125 0 49 23 75 73 75 72-1 104-45 110-110" id="aC"/><path fill="#979ea8" d="M76-167L44 0H12l33-167H18l4-23h27c3-47 25-81 82-69l-4 24c-35-8-44 15-46 45h37l-5 23H76" id="aD"/><path fill="#979ea8" d="M14 0l48-248h34L48 0H14" id="aE"/><path fill="#979ea8" d="M67-158c22-48 132-52 116 29L158 0h-32l25-140c3-38-53-32-70-12C52-117 51-52 38 0H6l36-190h30" id="aF"/><g id="d"><use transform="matrix(0.056172839506172814,0,0,0.056172839506172814,0,0)" xlink:href="#au"/><use transform="matrix(0.056172839506172814,0,0,0.056172839506172814,4.437654320987653,0)" xlink:href="#av"/><use transform="matrix(0.056172839506172814,0,0,0.056172839506172814,14.548765432098758,0)" xlink:href="#aw"/><use transform="matrix(0.056172839506172814,0,0,0.056172839506172814,26.850617283950605,0)" xlink:href="#ax"/><use transform="matrix(0.056172839506172814,0,0,0.056172839506172814,38.08518518518517,0)" xlink:href="#ay"/><use transform="matrix(0.056172839506172814,0,0,0.056172839506172814,49.31975308641973,0)" xlink:href="#az"/><use transform="matrix(0.056172839506172814,0,0,0.056172839506172814,54.937037037037015,0)" xlink:href="#aA"/><use transform="matrix(0.056172839506172814,0,0,0.056172839506172814,66.17160493827157,0)" xlink:href="#aB"/><use transform="matrix(0.056172839506172814,0,0,0.056172839506172814,72.85617283950613,0)" xlink:href="#ax"/><use transform="matrix(0.056172839506172814,0,0,0.056172839506172814,84.0907407407407,0)" xlink:href="#aC"/><use transform="matrix(0.056172839506172814,0,0,0.056172839506172814,99.81913580246909,0)" xlink:href="#aD"/><use transform="matrix(0.056172839506172814,0,0,0.056172839506172814,105.43641975308637,0)" xlink:href="#aE"/><use transform="matrix(0.056172839506172814,0,0,0.056172839506172814,111.05370370370365,0)" xlink:href="#aF"/><use transform="matrix(0.056172839506172814,0,0,0.056172839506172814,122.28827160493822,0)" xlink:href="#az"/><use transform="matrix(0.056172839506172814,0,0,0.056172839506172814,127.9055555555555,0)" xlink:href="#ax"/><use transform="matrix(0.056172839506172814,0,0,0.056172839506172814,139.14012345679006,0)" xlink:href="#aB"/><use transform="matrix(0.056172839506172814,0,0,0.056172839506172814,145.82469135802464,0)" xlink:href="#ax"/><use transform="matrix(0.056172839506172814,0,0,0.056172839506172814,157.0592592592592,0)" xlink:href="#av"/><use transform="matrix(0.056172839506172814,0,0,0.056172839506172814,167.1703703703703,0)" xlink:href="#az"/><use transform="matrix(0.056172839506172814,0,0,0.056172839506172814,172.7876543209876,0)" xlink:href="#aC"/><use transform="matrix(0.056172839506172814,0,0,0.056172839506172814,188.51604938271598,0)" xlink:href="#aD"/></g><path fill="#282c33" d="M141-36C126-15 110 5 73 4 37 3 15-17 15-53c-1-64 63-63 125-63 3-35-9-54-41-54-24 1-41 7-42 31l-33-3c5-37 33-52 76-52 45 0 72 20 72 64v82c-1 20 7 32 28 27v20c-31 9-61-2-59-35zM48-53c0 20 12 33 32 33 41-3 63-29 60-74-43 2-92-5-92 41" id="aG"/><path fill="#282c33" d="M59-47c-2 24 18 29 38 22v24C64 9 27 4 27-40v-127H5v-23h24l9-43h21v43h35v23H59v120" id="aH"/><g id="e"><use transform="matrix(0.06234567901234567,0,0,0.06234567901234567,0,0)" xlink:href="#U"/><use transform="matrix(0.06234567901234567,0,0,0.06234567901234567,17.456790123456788,0)" xlink:href="#V"/><use transform="matrix(0.06234567901234567,0,0,0.06234567901234567,29.92592592592592,0)" xlink:href="#W"/><use transform="matrix(0.06234567901234567,0,0,0.06234567901234567,41.14814814814814,0)" xlink:href="#X"/><use transform="matrix(0.06234567901234567,0,0,0.06234567901234567,53.61728395061727,0)" xlink:href="#Y"/><use transform="matrix(0.06234567901234567,0,0,0.06234567901234567,61.036419753086406,0)" xlink:href="#Z"/><use transform="matrix(0.06234567901234567,0,0,0.06234567901234567,72.25864197530862,0)" xlink:href="#aG"/><use transform="matrix(0.06234567901234567,0,0,0.06234567901234567,84.72777777777776,0)" xlink:href="#aH"/><use transform="matrix(0.06234567901234567,0,0,0.06234567901234567,90.96234567901233,0)" xlink:href="#aa"/><use transform="matrix(0.06234567901234567,0,0,0.06234567901234567,95.88765432098764,0)" xlink:href="#ae"/><use transform="matrix(0.06234567901234567,0,0,0.06234567901234567,108.35679012345676,0)" xlink:href="#ab"/></g><path fill="#282c33" d="M151-220L108 0H75l42-220H32l6-28h203l-5 28h-85" id="aI"/><path fill="#282c33" d="M50-231l6-30h32l-6 30H50zM6 0l37-190h31L37 0H6" id="aJ"/><path fill="#282c33" d="M248-111c6-24 9-61-24-58-72 9-57 108-77 169h-31l26-142c3-37-50-30-64-10C52-115 50-51 37 0H6l36-190h30c-1 10-6 24-4 32 13-43 101-52 105 5 13-22 29-41 61-41 90 0 28 129 23 194h-31" id="aK"/><g id="f"><use transform="matrix(0.056172839506172814,0,0,0.056172839506172814,0,0)" xlink:href="#ak"/><use transform="matrix(0.056172839506172814,0,0,0.056172839506172814,10.111111111111107,0)" xlink:href="#an"/><use transform="matrix(0.056172839506172814,0,0,0.056172839506172814,15.728395061728389,0)" xlink:href="#aj"/><use transform="matrix(0.056172839506172814,0,0,0.056172839506172814,26.96296296296295,0)" xlink:href="#ap"/><use transform="matrix(0.056172839506172814,0,0,0.056172839506172814,33.64753086419751,0)" xlink:href="#an"/><use transform="matrix(0.056172839506172814,0,0,0.056172839506172814,39.2648148148148,0)" xlink:href="#aI"/><use transform="matrix(0.056172839506172814,0,0,0.056172839506172814,51.398148148148124,0)" xlink:href="#aJ"/><use transform="matrix(0.056172839506172814,0,0,0.056172839506172814,55.83580246913578,0)" xlink:href="#aK"/><use transform="matrix(0.056172839506172814,0,0,0.056172839506172814,72.63148148148144,0)" xlink:href="#am"/></g><path fill="#282c33" d="M6 0l50-261h32L37 0H6" id="aL"/><g id="g"><use transform="matrix(0.056172839506172814,0,0,0.056172839506172814,0,0)" xlink:href="#ap"/><use transform="matrix(0.056172839506172814,0,0,0.056172839506172814,6.684567901234565,0)" xlink:href="#am"/><use transform="matrix(0.056172839506172814,0,0,0.056172839506172814,17.91913580246913,0)" xlink:href="#ak"/><use transform="matrix(0.056172839506172814,0,0,0.056172839506172814,28.030246913580235,0)" xlink:href="#ao"/><use transform="matrix(0.056172839506172814,0,0,0.056172839506172814,39.2648148148148,0)" xlink:href="#aL"/><use transform="matrix(0.056172839506172814,0,0,0.056172839506172814,43.70246913580245,0)" xlink:href="#an"/><use transform="matrix(0.056172839506172814,0,0,0.056172839506172814,49.31975308641974,0)" xlink:href="#aI"/><use transform="matrix(0.056172839506172814,0,0,0.056172839506172814,61.453086419753056,0)" xlink:href="#aJ"/><use transform="matrix(0.056172839506172814,0,0,0.056172839506172814,65.89074074074071,0)" xlink:href="#aK"/><use transform="matrix(0.056172839506172814,0,0,0.056172839506172814,82.68641975308638,0)" xlink:href="#am"/></g><path fill="#282c33" d="M67-162c32-53 139-36 121 50C175-51 163 2 97 4 68 4 52-11 42-31 38 6 28 39 22 75H-9l50-265h29c-1 10 0 20-3 28zm89 36c0-26-10-43-35-43-54 0-67 50-69 103-1 29 14 45 42 46 53 0 62-58 62-106" id="aM"/><path fill="#282c33" d="M30-147c31-64 166-65 159 27C183-49 158 1 86 4 9 8 1-88 30-147zM88-20c53 0 68-48 68-100 0-31-11-51-44-50-52 1-68 46-68 97 0 32 13 53 44 53" id="aN"/><g id="h"><use transform="matrix(0.056172839506172814,0,0,0.056172839506172814,0,0)" xlink:href="#aM"/><use transform="matrix(0.056172839506172814,0,0,0.056172839506172814,11.234567901234563,0)" xlink:href="#ai"/><use transform="matrix(0.056172839506172814,0,0,0.056172839506172814,22.469135802469125,0)" xlink:href="#am"/><use transform="matrix(0.056172839506172814,0,0,0.056172839506172814,33.70370370370369,0)" xlink:href="#at"/><use transform="matrix(0.056172839506172814,0,0,0.056172839506172814,44.93827160493825,0)" xlink:href="#aN"/><use transform="matrix(0.056172839506172814,0,0,0.056172839506172814,56.172839506172814,0)" xlink:href="#aK"/><use transform="matrix(0.056172839506172814,0,0,0.056172839506172814,72.9685185185185,0)" xlink:href="#am"/><use transform="matrix(0.056172839506172814,0,0,0.056172839506172814,84.20308641975305,0)" xlink:href="#at"/><use transform="matrix(0.056172839506172814,0,0,0.056172839506172814,95.4376543209876,0)" xlink:href="#aN"/><use transform="matrix(0.056172839506172814,0,0,0.056172839506172814,106.67222222222216,0)" xlink:href="#at"/><use transform="matrix(0.056172839506172814,0,0,0.056172839506172814,117.90679012345672,0)" xlink:href="#aI"/><use transform="matrix(0.056172839506172814,0,0,0.056172839506172814,130.04012345679004,0)" xlink:href="#aJ"/><use transform="matrix(0.056172839506172814,0,0,0.056172839506172814,134.4777777777777,0)" xlink:href="#aK"/><use transform="matrix(0.056172839506172814,0,0,0.056172839506172814,151.27345679012336,0)" xlink:href="#am"/></g><path fill="#282c33" d="M119 0H84L31-248h34l41 218 126-218h36" id="aO"/><g id="i"><use transform="matrix(0.056172839506172814,0,0,0.056172839506172814,0,0)" xlink:href="#ai"/><use transform="matrix(0.056172839506172814,0,0,0.056172839506172814,11.234567901234563,0)" xlink:href="#aj"/><use transform="matrix(0.056172839506172814,0,0,0.056172839506172814,22.469135802469125,0)" xlink:href="#ak"/><use transform="matrix(0.056172839506172814,0,0,0.056172839506172814,32.58024691358023,0)" xlink:href="#as"/><use transform="matrix(0.056172839506172814,0,0,0.056172839506172814,38.19753086419752,0)" xlink:href="#at"/><use transform="matrix(0.056172839506172814,0,0,0.056172839506172814,49.43209876543208,0)" xlink:href="#aM"/><use transform="matrix(0.056172839506172814,0,0,0.056172839506172814,60.666666666666636,0)" xlink:href="#ao"/><use transform="matrix(0.056172839506172814,0,0,0.056172839506172814,71.90123456790121,0)" xlink:href="#an"/><use transform="matrix(0.056172839506172814,0,0,0.056172839506172814,77.51851851851849,0)" xlink:href="#aO"/><use transform="matrix(0.056172839506172814,0,0,0.056172839506172814,90.26975308641973,0)" xlink:href="#aj"/><use transform="matrix(0.056172839506172814,0,0,0.056172839506172814,101.5043209876543,0)" xlink:href="#aL"/><use transform="matrix(0.056172839506172814,0,0,0.056172839506172814,105.94197530864194,0)" xlink:href="#ao"/><use transform="matrix(0.056172839506172814,0,0,0.056172839506172814,117.17654320987651,0)" xlink:href="#am"/></g><g id="j"><use transform="matrix(0.056172839506172814,0,0,0.056172839506172814,0,0)" xlink:href="#ai"/><use transform="matrix(0.056172839506172814,0,0,0.056172839506172814,11.234567901234563,0)" xlink:href="#aj"/><use transform="matrix(0.056172839506172814,0,0,0.056172839506172814,22.469135802469125,0)" xlink:href="#ak"/><use transform="matrix(0.056172839506172814,0,0,0.056172839506172814,32.58024691358023,0)" xlink:href="#aq"/><use transform="matrix(0.056172839506172814,0,0,0.056172839506172814,48.30864197530862,0)" xlink:href="#ao"/><use transform="matrix(0.056172839506172814,0,0,0.056172839506172814,59.54320987654318,0)" xlink:href="#an"/><use transform="matrix(0.056172839506172814,0,0,0.056172839506172814,65.16049382716047,0)" xlink:href="#aM"/><use transform="matrix(0.056172839506172814,0,0,0.056172839506172814,76.39506172839504,0)" xlink:href="#ao"/><use transform="matrix(0.056172839506172814,0,0,0.056172839506172814,87.62962962962959,0)" xlink:href="#an"/><use transform="matrix(0.056172839506172814,0,0,0.056172839506172814,93.24691358024687,0)" xlink:href="#aO"/><use transform="matrix(0.056172839506172814,0,0,0.056172839506172814,105.9981481481481,0)" xlink:href="#aj"/><use transform="matrix(0.056172839506172814,0,0,0.056172839506172814,117.23271604938266,0)" xlink:href="#aL"/><use transform="matrix(0.056172839506172814,0,0,0.056172839506172814,121.67037037037032,0)" xlink:href="#ao"/><use transform="matrix(0.056172839506172814,0,0,0.056172839506172814,132.9049382716049,0)" xlink:href="#am"/></g><path fill="#282c33" d="M249-183c0 48-29 72-75 77L221 0h-36l-43-103H65L45 0H11l48-248c83 2 190-17 190 65zm-34 3c0-55-74-39-127-41l-18 92c63-1 145 13 145-51" id="aP"/><g id="k"><use transform="matrix(0.056172839506172814,0,0,0.056172839506172814,0,0)" xlink:href="#ai"/><use transform="matrix(0.056172839506172814,0,0,0.056172839506172814,11.234567901234563,0)" xlink:href="#aj"/><use transform="matrix(0.056172839506172814,0,0,0.056172839506172814,22.469135802469125,0)" xlink:href="#ak"/><use transform="matrix(0.056172839506172814,0,0,0.056172839506172814,32.58024691358023,0)" xlink:href="#aP"/><use transform="matrix(0.056172839506172814,0,0,0.056172839506172814,47.12901234567899,0)" xlink:href="#am"/><use transform="matrix(0.056172839506172814,0,0,0.056172839506172814,58.36358024691356,0)" xlink:href="#ak"/><use transform="matrix(0.056172839506172814,0,0,0.056172839506172814,68.47469135802466,0)" xlink:href="#ao"/><use transform="matrix(0.056172839506172814,0,0,0.056172839506172814,79.70925925925923,0)" xlink:href="#aL"/><use transform="matrix(0.056172839506172814,0,0,0.056172839506172814,84.14691358024687,0)" xlink:href="#an"/></g><path fill="#282c33" d="M194-120c59 52 2 134-86 124-53-6-90-18-98-63l31-7c8 30 29 43 70 43 46 0 84-17 71-62-32-43-135-20-137-98-3-89 178-90 191-16l-30 9c-8-48-127-53-127 5 0 53 81 35 115 65" id="aQ"/><g id="l"><use transform="matrix(0.056172839506172814,0,0,0.056172839506172814,0,0)" xlink:href="#ai"/><use transform="matrix(0.056172839506172814,0,0,0.056172839506172814,11.234567901234563,0)" xlink:href="#aj"/><use transform="matrix(0.056172839506172814,0,0,0.056172839506172814,22.469135802469125,0)" xlink:href="#ak"/><use transform="matrix(0.056172839506172814,0,0,0.056172839506172814,32.58024691358023,0)" xlink:href="#aQ"/><use transform="matrix(0.056172839506172814,0,0,0.056172839506172814,46.06172839506171,0)" xlink:href="#aJ"/><use transform="matrix(0.056172839506172814,0,0,0.056172839506172814,50.49938271604936,0)" xlink:href="#aK"/><use transform="matrix(0.056172839506172814,0,0,0.056172839506172814,67.29506172839504,0)" xlink:href="#aM"/><use transform="matrix(0.056172839506172814,0,0,0.056172839506172814,78.5296296296296,0)" xlink:href="#aL"/><use transform="matrix(0.056172839506172814,0,0,0.056172839506172814,82.96728395061724,0)" xlink:href="#am"/><use transform="matrix(0.056172839506172814,0,0,0.056172839506172814,94.20185185185181,0)" xlink:href="#aP"/><use transform="matrix(0.056172839506172814,0,0,0.056172839506172814,108.75061728395058,0)" xlink:href="#am"/><use transform="matrix(0.056172839506172814,0,0,0.056172839506172814,119.98518518518516,0)" xlink:href="#ak"/><use transform="matrix(0.056172839506172814,0,0,0.056172839506172814,130.09629629629626,0)" xlink:href="#ao"/><use transform="matrix(0.056172839506172814,0,0,0.056172839506172814,141.33086419753081,0)" xlink:href="#aL"/><use transform="matrix(0.056172839506172814,0,0,0.056172839506172814,145.76851851851848,0)" xlink:href="#an"/></g><path fill="#282c33" d="M24-61C-1-165 59-251 163-251c67 1 105 36 105 101 0 88-46 140-124 152 2 33 24 47 60 39l-3 23c-50 15-89-11-89-61-46-3-79-26-88-64zm210-73c6-55-18-91-72-90-77 1-111 51-111 125 0 49 24 75 73 75 72 0 103-45 110-110" id="aR"/><path fill="#282c33" d="M198-190L69 30C53 58 25 83-20 72c4-11-1-27 19-22 33-1 43-29 59-52L20-190h32L79-34l84-156h35" id="aS"/><g id="m"><use transform="matrix(0.056172839506172814,0,0,0.056172839506172814,0,0)" xlink:href="#ap"/><use transform="matrix(0.056172839506172814,0,0,0.056172839506172814,6.684567901234565,0)" xlink:href="#am"/><use transform="matrix(0.056172839506172814,0,0,0.056172839506172814,17.91913580246913,0)" xlink:href="#ak"/><use transform="matrix(0.056172839506172814,0,0,0.056172839506172814,28.030246913580235,0)" xlink:href="#ao"/><use transform="matrix(0.056172839506172814,0,0,0.056172839506172814,39.2648148148148,0)" xlink:href="#aL"/><use transform="matrix(0.056172839506172814,0,0,0.056172839506172814,43.70246913580245,0)" xlink:href="#an"/><use transform="matrix(0.056172839506172814,0,0,0.056172839506172814,49.31975308641974,0)" xlink:href="#aR"/><use transform="matrix(0.056172839506172814,0,0,0.056172839506172814,65.04814814814813,0)" xlink:href="#ao"/><use transform="matrix(0.056172839506172814,0,0,0.056172839506172814,76.28271604938269,0)" xlink:href="#aj"/><use transform="matrix(0.056172839506172814,0,0,0.056172839506172814,87.51728395061724,0)" xlink:href="#aL"/><use transform="matrix(0.056172839506172814,0,0,0.056172839506172814,91.95493827160489,0)" xlink:href="#aJ"/><use transform="matrix(0.056172839506172814,0,0,0.056172839506172814,96.39259259259254,0)" xlink:href="#an"/><use transform="matrix(0.056172839506172814,0,0,0.056172839506172814,102.00987654320981,0)" xlink:href="#aS"/></g><path fill="#282c33" d="M185-189c-5-48-123-54-124 2 14 75 158 14 163 119 3 78-121 87-175 55-17-10-28-26-33-46l33-7c5 56 141 63 141-1 0-78-155-14-162-118-5-82 145-84 179-34 5 7 8 16 11 25" id="aT"/><g id="n"><use transform="matrix(0.06234567901234567,0,0,0.06234567901234567,0,0)" xlink:href="#aT"/><use transform="matrix(0.06234567901234567,0,0,0.06234567901234567,14.96296296296296,0)" xlink:href="#X"/><use transform="matrix(0.06234567901234567,0,0,0.06234567901234567,27.432098765432094,0)" xlink:href="#ab"/><use transform="matrix(0.06234567901234567,0,0,0.06234567901234567,39.90123456790123,0)" xlink:href="#W"/><use transform="matrix(0.06234567901234567,0,0,0.06234567901234567,51.12345679012345,0)" xlink:href="#ae"/><use transform="matrix(0.06234567901234567,0,0,0.06234567901234567,63.59259259259258,0)" xlink:href="#Y"/></g><path fill="#282c33" d="M133-28C103 26-5 8 13-77c13-62 24-115 90-117 29-1 46 15 56 35l19-102h32L160 0h-30zM45-64c-2 27 10 43 35 43 54-1 69-50 69-103 0-29-15-46-42-46-53-1-58 58-62 106" id="aU"/><path fill="#282c33" d="M68-162c25-46 127-43 121 31C183-60 169 1 98 4 69 5 53-11 43-31L36 0H5l52-261h31zm88 36c2-27-9-43-34-43-55 0-70 51-70 103 0 29 15 45 43 46 52 0 58-58 61-106" id="aV"/><path fill="#282c33" d="M89 0H52L20-190h33L74-25l89-165h34" id="aW"/><g id="o"><use transform="matrix(0.056172839506172814,0,0,0.056172839506172814,0,0)" xlink:href="#aK"/><use transform="matrix(0.056172839506172814,0,0,0.056172839506172814,16.795679012345673,0)" xlink:href="#aj"/><use transform="matrix(0.056172839506172814,0,0,0.056172839506172814,28.030246913580235,0)" xlink:href="#aU"/><use transform="matrix(0.056172839506172814,0,0,0.056172839506172814,39.2648148148148,0)" xlink:href="#am"/><use transform="matrix(0.056172839506172814,0,0,0.056172839506172814,50.49938271604936,0)" xlink:href="#aq"/><use transform="matrix(0.056172839506172814,0,0,0.056172839506172814,66.22777777777775,0)" xlink:href="#aV"/><use transform="matrix(0.056172839506172814,0,0,0.056172839506172814,77.46234567901232,0)" xlink:href="#ak"/><use transform="matrix(0.056172839506172814,0,0,0.056172839506172814,87.57345679012343,0)" xlink:href="#am"/><use transform="matrix(0.056172839506172814,0,0,0.056172839506172814,98.80802469135799,0)" xlink:href="#ap"/><use transform="matrix(0.056172839506172814,0,0,0.056172839506172814,105.49259259259254,0)" xlink:href="#aW"/><use transform="matrix(0.056172839506172814,0,0,0.056172839506172814,115.60370370370366,0)" xlink:href="#aj"/><use transform="matrix(0.056172839506172814,0,0,0.056172839506172814,126.83827160493819,0)" xlink:href="#an"/><use transform="matrix(0.056172839506172814,0,0,0.056172839506172814,132.4555555555555,0)" xlink:href="#aJ"/><use transform="matrix(0.056172839506172814,0,0,0.056172839506172814,136.89320987654315,0)" xlink:href="#aN"/><use transform="matrix(0.056172839506172814,0,0,0.056172839506172814,148.1277777777777,0)" xlink:href="#at"/></g><path fill="#282c33" d="M219-77C219 17 104-2 11 0l48-248c73 2 169-15 169 57 0 38-24 54-60 60 29 5 51 21 51 54zm-26-111c0-44-62-31-105-33l-16 79c55 0 121 9 121-46zm-7 110c-1-49-69-36-119-38L50-27c61-1 137 12 136-51" id="aX"/><g id="p"><use transform="matrix(0.056172839506172814,0,0,0.056172839506172814,0,0)" xlink:href="#aK"/><use transform="matrix(0.056172839506172814,0,0,0.056172839506172814,16.795679012345673,0)" xlink:href="#aj"/><use transform="matrix(0.056172839506172814,0,0,0.056172839506172814,28.030246913580235,0)" xlink:href="#aU"/><use transform="matrix(0.056172839506172814,0,0,0.056172839506172814,39.2648148148148,0)" xlink:href="#am"/><use transform="matrix(0.056172839506172814,0,0,0.056172839506172814,50.49938271604936,0)" xlink:href="#aX"/><use transform="matrix(0.056172839506172814,0,0,0.056172839506172814,63.980864197530835,0)" xlink:href="#aS"/><use transform="matrix(0.056172839506172814,0,0,0.056172839506172814,74.09197530864193,0)" xlink:href="#aQ"/><use transform="matrix(0.056172839506172814,0,0,0.056172839506172814,87.57345679012342,0)" xlink:href="#am"/><use transform="matrix(0.056172839506172814,0,0,0.056172839506172814,98.80802469135799,0)" xlink:href="#at"/><use transform="matrix(0.056172839506172814,0,0,0.056172839506172814,110.04259259259254,0)" xlink:href="#ak"/><use transform="matrix(0.056172839506172814,0,0,0.056172839506172814,120.15370370370366,0)" xlink:href="#aN"/><use transform="matrix(0.056172839506172814,0,0,0.056172839506172814,131.3882716049382,0)" xlink:href="#ap"/></g><path fill="#282c33" d="M238-179c0 84-86 86-175 82L45 0H11l48-248c82 0 179-12 179 69zm-34 1c0-53-64-42-116-43l-19 98c63 0 135 9 135-55" id="aY"/><path fill="#282c33" d="M44-68c0 29 11 47 38 47 30 0 42-19 51-41l28 9C148-21 126 4 82 4 31 4 10-29 12-85c3-77 74-140 146-93 12 8 15 23 18 40l-31 5c-1-22-13-36-36-36-52 0-65 49-65 101" id="aZ"/><g id="q"><use transform="matrix(0.056172839506172814,0,0,0.056172839506172814,0,0)" xlink:href="#ao"/><use transform="matrix(0.056172839506172814,0,0,0.056172839506172814,11.234567901234563,0)" xlink:href="#ak"/><use transform="matrix(0.056172839506172814,0,0,0.056172839506172814,21.34567901234567,0)" xlink:href="#am"/><use transform="matrix(0.056172839506172814,0,0,0.056172839506172814,32.58024691358023,0)" xlink:href="#aU"/><use transform="matrix(0.056172839506172814,0,0,0.056172839506172814,43.814814814814795,0)" xlink:href="#aY"/><use transform="matrix(0.056172839506172814,0,0,0.056172839506172814,57.29629629629627,0)" xlink:href="#ap"/><use transform="matrix(0.056172839506172814,0,0,0.056172839506172814,63.980864197530835,0)" xlink:href="#aN"/><use transform="matrix(0.056172839506172814,0,0,0.056172839506172814,75.2154320987654,0)" xlink:href="#aZ"/><use transform="matrix(0.056172839506172814,0,0,0.056172839506172814,85.32654320987652,0)" xlink:href="#am"/><use transform="matrix(0.056172839506172814,0,0,0.056172839506172814,96.56111111111107,0)" xlink:href="#aU"/><use transform="matrix(0.056172839506172814,0,0,0.056172839506172814,107.79567901234563,0)" xlink:href="#ao"/><use transform="matrix(0.056172839506172814,0,0,0.056172839506172814,119.0302469135802,0)" xlink:href="#ap"/><use transform="matrix(0.056172839506172814,0,0,0.056172839506172814,125.71481481481473,0)" xlink:href="#am"/></g><path fill="#282c33" d="M24 0v-261h32V0H24" id="ba"/><path fill="#282c33" d="M115-194c55 1 70 41 70 98S169 2 115 4C84 4 66-9 55-30l1 105H24l-1-265h31l2 30c10-21 28-34 59-34zm-8 174c40 0 45-34 45-75s-6-73-45-74c-42 0-51 32-51 76 0 43 10 73 51 73" id="bb"/><path fill="#282c33" d="M179-190L93 31C79 59 56 82 12 73V49c39 6 53-20 64-50L1-190h34L92-34l54-156h33" id="bc"/><g id="r"><use transform="matrix(0.06234567901234567,0,0,0.06234567901234567,0,0)" xlink:href="#U"/><use transform="matrix(0.06234567901234567,0,0,0.06234567901234567,17.456790123456788,0)" xlink:href="#V"/><use transform="matrix(0.06234567901234567,0,0,0.06234567901234567,29.92592592592592,0)" xlink:href="#W"/><use transform="matrix(0.06234567901234567,0,0,0.06234567901234567,41.14814814814814,0)" xlink:href="#X"/><use transform="matrix(0.06234567901234567,0,0,0.06234567901234567,53.61728395061727,0)" xlink:href="#Y"/><use transform="matrix(0.06234567901234567,0,0,0.06234567901234567,61.036419753086406,0)" xlink:href="#Z"/><use transform="matrix(0.06234567901234567,0,0,0.06234567901234567,72.25864197530862,0)" xlink:href="#aG"/><use transform="matrix(0.06234567901234567,0,0,0.06234567901234567,84.72777777777776,0)" xlink:href="#V"/><use transform="matrix(0.06234567901234567,0,0,0.06234567901234567,97.1969135802469,0)" xlink:href="#ba"/><use transform="matrix(0.06234567901234567,0,0,0.06234567901234567,102.1222222222222,0)" xlink:href="#X"/><use transform="matrix(0.06234567901234567,0,0,0.06234567901234567,114.59135802469135,0)" xlink:href="#ad"/><use transform="matrix(0.06234567901234567,0,0,0.06234567901234567,129.5543209876543,0)" xlink:href="#Y"/><use transform="matrix(0.06234567901234567,0,0,0.06234567901234567,136.97345679012344,0)" xlink:href="#ae"/><use transform="matrix(0.06234567901234567,0,0,0.06234567901234567,149.44259259259258,0)" xlink:href="#bb"/><use transform="matrix(0.06234567901234567,0,0,0.06234567901234567,161.91172839506171,0)" xlink:href="#X"/><use transform="matrix(0.06234567901234567,0,0,0.06234567901234567,174.38086419753085,0)" xlink:href="#Y"/><use transform="matrix(0.06234567901234567,0,0,0.06234567901234567,181.79999999999998,0)" xlink:href="#aH"/><use transform="matrix(0.06234567901234567,0,0,0.06234567901234567,188.03456790123454,0)" xlink:href="#bc"/></g><g id="s"><use transform="matrix(0.056172839506172814,0,0,0.056172839506172814,0,0)" xlink:href="#aN"/><use transform="matrix(0.056172839506172814,0,0,0.056172839506172814,11.234567901234563,0)" xlink:href="#aV"/><use transform="matrix(0.056172839506172814,0,0,0.056172839506172814,22.469135802469125,0)" xlink:href="#ak"/><use transform="matrix(0.056172839506172814,0,0,0.056172839506172814,32.58024691358023,0)" xlink:href="#am"/><use transform="matrix(0.056172839506172814,0,0,0.056172839506172814,43.814814814814795,0)" xlink:href="#ap"/><use transform="matrix(0.056172839506172814,0,0,0.056172839506172814,50.49938271604936,0)" xlink:href="#aW"/><use transform="matrix(0.056172839506172814,0,0,0.056172839506172814,60.61049382716047,0)" xlink:href="#am"/><use transform="matrix(0.056172839506172814,0,0,0.056172839506172814,71.84506172839502,0)" xlink:href="#aU"/><use transform="matrix(0.056172839506172814,0,0,0.056172839506172814,83.07962962962958,0)" xlink:href="#aY"/><use transform="matrix(0.056172839506172814,0,0,0.056172839506172814,96.56111111111106,0)" xlink:href="#ap"/><use transform="matrix(0.056172839506172814,0,0,0.056172839506172814,103.24567901234562,0)" xlink:href="#aN"/><use transform="matrix(0.056172839506172814,0,0,0.056172839506172814,114.48024691358017,0)" xlink:href="#aM"/><use transform="matrix(0.056172839506172814,0,0,0.056172839506172814,125.71481481481473,0)" xlink:href="#am"/><use transform="matrix(0.056172839506172814,0,0,0.056172839506172814,136.94938271604929,0)" xlink:href="#ap"/><use transform="matrix(0.056172839506172814,0,0,0.056172839506172814,143.63395061728386,0)" xlink:href="#an"/><use transform="matrix(0.056172839506172814,0,0,0.056172839506172814,149.25123456790115,0)" xlink:href="#aS"/></g><g id="t"><use transform="matrix(0.056172839506172814,0,0,0.056172839506172814,0,0)" xlink:href="#aJ"/><use transform="matrix(0.056172839506172814,0,0,0.056172839506172814,4.437654320987653,0)" xlink:href="#ak"/><use transform="matrix(0.056172839506172814,0,0,0.056172839506172814,14.548765432098758,0)" xlink:href="#aq"/><use transform="matrix(0.056172839506172814,0,0,0.056172839506172814,30.277160493827147,0)" xlink:href="#aV"/><use transform="matrix(0.056172839506172814,0,0,0.056172839506172814,41.51172839506171,0)" xlink:href="#ak"/><use transform="matrix(0.056172839506172814,0,0,0.056172839506172814,51.62283950617282,0)" xlink:href="#am"/><use transform="matrix(0.056172839506172814,0,0,0.056172839506172814,62.85740740740738,0)" xlink:href="#ap"/><use transform="matrix(0.056172839506172814,0,0,0.056172839506172814,69.54197530864194,0)" xlink:href="#aW"/><use transform="matrix(0.056172839506172814,0,0,0.056172839506172814,79.65308641975304,0)" xlink:href="#am"/><use transform="matrix(0.056172839506172814,0,0,0.056172839506172814,90.8876543209876,0)" xlink:href="#aU"/><use transform="matrix(0.056172839506172814,0,0,0.056172839506172814,102.12222222222215,0)" xlink:href="#aX"/><use transform="matrix(0.056172839506172814,0,0,0.056172839506172814,115.60370370370363,0)" xlink:href="#aS"/></g><path fill="#282c33" d="M62-99C39-31 123 0 170-40s38-139 58-208h34C234-144 253 4 115 4 49 4 18-43 31-112l26-136h34" id="bd"/><g id="u"><use transform="matrix(0.056172839506172814,0,0,0.056172839506172814,0,0)" xlink:href="#ai"/><use transform="matrix(0.056172839506172814,0,0,0.056172839506172814,11.234567901234563,0)" xlink:href="#aj"/><use transform="matrix(0.056172839506172814,0,0,0.056172839506172814,22.469135802469125,0)" xlink:href="#ak"/><use transform="matrix(0.056172839506172814,0,0,0.056172839506172814,32.58024691358023,0)" xlink:href="#bd"/><use transform="matrix(0.056172839506172814,0,0,0.056172839506172814,47.12901234567899,0)" xlink:href="#aL"/><use transform="matrix(0.056172839506172814,0,0,0.056172839506172814,51.56666666666664,0)" xlink:href="#an"/><use transform="matrix(0.056172839506172814,0,0,0.056172839506172814,57.18395061728393,0)" xlink:href="#aJ"/><use transform="matrix(0.056172839506172814,0,0,0.056172839506172814,61.621604938271574,0)" xlink:href="#aK"/><use transform="matrix(0.056172839506172814,0,0,0.056172839506172814,78.41728395061725,0)" xlink:href="#aj"/><use transform="matrix(0.056172839506172814,0,0,0.056172839506172814,89.6518518518518,0)" xlink:href="#an"/><use transform="matrix(0.056172839506172814,0,0,0.056172839506172814,95.26913580246908,0)" xlink:href="#am"/><use transform="matrix(0.056172839506172814,0,0,0.056172839506172814,106.50370370370365,0)" xlink:href="#al"/><use transform="matrix(0.056172839506172814,0,0,0.056172839506172814,118.8055555555555,0)" xlink:href="#am"/><use transform="matrix(0.056172839506172814,0,0,0.056172839506172814,130.04012345679007,0)" xlink:href="#aj"/><use transform="matrix(0.056172839506172814,0,0,0.056172839506172814,141.27469135802463,0)" xlink:href="#an"/><use transform="matrix(0.056172839506172814,0,0,0.056172839506172814,146.89197530864192,0)" xlink:href="#ao"/><use transform="matrix(0.056172839506172814,0,0,0.056172839506172814,158.12654320987647,0)" xlink:href="#ap"/><use transform="matrix(0.056172839506172814,0,0,0.056172839506172814,164.81111111111105,0)" xlink:href="#am"/><use transform="matrix(0.056172839506172814,0,0,0.056172839506172814,176.0456790123456,0)" xlink:href="#aq"/><use transform="matrix(0.056172839506172814,0,0,0.056172839506172814,191.77407407407398,0)" xlink:href="#ar"/><use transform="matrix(0.056172839506172814,0,0,0.056172839506172814,197.39135802469127,0)" xlink:href="#as"/><use transform="matrix(0.056172839506172814,0,0,0.056172839506172814,203.00864197530856,0)" xlink:href="#at"/><use transform="matrix(0.056172839506172814,0,0,0.056172839506172814,214.24320987654312,0)" xlink:href="#an"/><use transform="matrix(0.056172839506172814,0,0,0.056172839506172814,219.8604938271604,0)" xlink:href="#am"/><use transform="matrix(0.056172839506172814,0,0,0.056172839506172814,231.09506172839497,0)" xlink:href="#ap"/><use transform="matrix(0.056172839506172814,0,0,0.056172839506172814,237.7796296296295,0)" xlink:href="#am"/><use transform="matrix(0.056172839506172814,0,0,0.056172839506172814,249.0141975308641,0)" xlink:href="#ak"/><use transform="matrix(0.056172839506172814,0,0,0.056172839506172814,259.1253086419752,0)" xlink:href="#an"/></g><path fill="#282c33" d="M210-169c-67 3-38 105-44 169h-31v-121c0-29-5-50-35-48C34-165 62-65 56 0H25l-1-190h30c1 10-1 24 2 32 10-44 99-50 107 0 11-21 27-35 58-36 85-2 47 119 55 194h-31v-121c0-29-5-49-35-48" id="be"/><g id="v"><use transform="matrix(0.06234567901234567,0,0,0.06234567901234567,0,0)" xlink:href="#aT"/><use transform="matrix(0.06234567901234567,0,0,0.06234567901234567,14.96296296296296,0)" xlink:href="#aH"/><use transform="matrix(0.06234567901234567,0,0,0.06234567901234567,21.197530864197525,0)" xlink:href="#aa"/><use transform="matrix(0.06234567901234567,0,0,0.06234567901234567,26.12283950617283,0)" xlink:href="#be"/><use transform="matrix(0.06234567901234567,0,0,0.06234567901234567,44.76419753086418,0)" xlink:href="#ah"/><use transform="matrix(0.06234567901234567,0,0,0.06234567901234567,57.23333333333331,0)" xlink:href="#ba"/><use transform="matrix(0.06234567901234567,0,0,0.06234567901234567,62.15864197530862,0)" xlink:href="#ah"/><use transform="matrix(0.06234567901234567,0,0,0.06234567901234567,74.62777777777775,0)" xlink:href="#W"/></g><path fill="#282c33" d="M188 0h-37l-8-164L71 0H34L18-190h31l8 164 75-164h34l8 164 74-164h31" id="bf"/><path fill="#282c33" d="M103-194c29 0 47 14 56 36 2-11 5-23 8-32h30L160-5C157 61 82 97 21 62 9 55 4 45 1 30l28-7c7 42 83 31 92-3 4-16 9-38 13-55-13 20-29 36-62 36-40 0-60-25-60-64 0-71 23-131 91-131zm4 24c-53 0-58 54-61 104-2 27 10 44 36 44 49 0 65-50 67-102 1-29-15-46-42-46" id="bg"/><g id="w"><use transform="matrix(0.056172839506172814,0,0,0.056172839506172814,0,0)" xlink:href="#bf"/><use transform="matrix(0.056172839506172814,0,0,0.056172839506172814,14.548765432098758,0)" xlink:href="#aj"/><use transform="matrix(0.056172839506172814,0,0,0.056172839506172814,25.78333333333332,0)" xlink:href="#ak"/><use transform="matrix(0.056172839506172814,0,0,0.056172839506172814,35.89444444444443,0)" xlink:href="#aq"/><use transform="matrix(0.056172839506172814,0,0,0.056172839506172814,51.622839506172824,0)" xlink:href="#ap"/><use transform="matrix(0.056172839506172814,0,0,0.056172839506172814,58.307407407407396,0)" xlink:href="#aJ"/><use transform="matrix(0.056172839506172814,0,0,0.056172839506172814,62.745061728395044,0)" xlink:href="#bg"/><use transform="matrix(0.056172839506172814,0,0,0.056172839506172814,73.97962962962961,0)" xlink:href="#aJ"/><use transform="matrix(0.056172839506172814,0,0,0.056172839506172814,78.41728395061726,0)" xlink:href="#at"/><use transform="matrix(0.056172839506172814,0,0,0.056172839506172814,89.65185185185183,0)" xlink:href="#aj"/><use transform="matrix(0.056172839506172814,0,0,0.056172839506172814,100.88641975308639,0)" xlink:href="#an"/><use transform="matrix(0.056172839506172814,0,0,0.056172839506172814,106.50370370370366,0)" xlink:href="#am"/><use transform="matrix(0.056172839506172814,0,0,0.056172839506172814,117.73827160493825,0)" xlink:href="#aU"/><use transform="matrix(0.056172839506172814,0,0,0.056172839506172814,128.9728395061728,0)" xlink:href="#aX"/><use transform="matrix(0.056172839506172814,0,0,0.056172839506172814,142.45432098765426,0)" xlink:href="#aS"/></g><g id="x"><use transform="matrix(0.056172839506172814,0,0,0.056172839506172814,0,0)" xlink:href="#aU"/><use transform="matrix(0.056172839506172814,0,0,0.056172839506172814,11.234567901234563,0)" xlink:href="#am"/><use transform="matrix(0.056172839506172814,0,0,0.056172839506172814,22.469135802469125,0)" xlink:href="#an"/><use transform="matrix(0.056172839506172814,0,0,0.056172839506172814,28.086419753086407,0)" xlink:href="#am"/><use transform="matrix(0.056172839506172814,0,0,0.056172839506172814,39.32098765432097,0)" xlink:href="#aZ"/><use transform="matrix(0.056172839506172814,0,0,0.056172839506172814,49.43209876543208,0)" xlink:href="#an"/><use transform="matrix(0.056172839506172814,0,0,0.056172839506172814,55.049382716049365,0)" xlink:href="#ak"/></g><path fill="#282c33" d="M124 0L87-78 21 0h-35l86-98-46-92h33l34 74 61-74h37l-83 92 50 98h-34" id="bh"/><g id="y"><use transform="matrix(0.056172839506172814,0,0,0.056172839506172814,0,0)" xlink:href="#aJ"/><use transform="matrix(0.056172839506172814,0,0,0.056172839506172814,4.437654320987653,0)" xlink:href="#ak"/><use transform="matrix(0.056172839506172814,0,0,0.056172839506172814,14.548765432098758,0)" xlink:href="#aY"/><use transform="matrix(0.056172839506172814,0,0,0.056172839506172814,28.030246913580235,0)" xlink:href="#ap"/><use transform="matrix(0.056172839506172814,0,0,0.056172839506172814,34.7148148148148,0)" xlink:href="#aN"/><use transform="matrix(0.056172839506172814,0,0,0.056172839506172814,45.949382716049364,0)" xlink:href="#bh"/><use transform="matrix(0.056172839506172814,0,0,0.056172839506172814,56.06049382716047,0)" xlink:href="#aS"/><use transform="matrix(0.056172839506172814,0,0,0.056172839506172814,66.17160493827157,0)" xlink:href="#al"/><use transform="matrix(0.056172839506172814,0,0,0.056172839506172814,78.47345679012342,0)" xlink:href="#aN"/><use transform="matrix(0.056172839506172814,0,0,0.056172839506172814,89.70802469135799,0)" xlink:href="#ap"/></g><path fill="#979ea8" d="M30 0v-248h187v28H63v79h144v27H63v87h162V0H30" id="bi"/><path fill="#979ea8" d="M141 0L90-78 38 0H4l68-98-65-92h35l48 74 47-74h35l-64 92 68 98h-35" id="bj"/><path fill="#979ea8" d="M96-169c-40 0-48 33-48 73s9 75 48 75c24 0 41-14 43-38l32 2c-6 37-31 61-74 61-59 0-76-41-82-99-10-93 101-131 147-64 4 7 5 14 7 22l-32 3c-4-21-16-35-41-35" id="bk"/><path fill="#979ea8" d="M24-231v-30h32v30H24zM24 0v-190h32V0H24" id="bl"/><path fill="#979ea8" d="M100-194c62-1 85 37 85 99 1 63-27 99-86 99S16-35 15-95c0-66 28-99 85-99zM99-20c44 1 53-31 53-75 0-43-8-75-51-75s-53 32-53 75 10 74 51 75" id="bm"/><g id="z"><use transform="matrix(0.06234567901234567,0,0,0.06234567901234567,0,0)" xlink:href="#bi"/><use transform="matrix(0.06234567901234567,0,0,0.06234567901234567,14.96296296296296,0)" xlink:href="#bj"/><use transform="matrix(0.06234567901234567,0,0,0.06234567901234567,26.18518518518518,0)" xlink:href="#K"/><use transform="matrix(0.06234567901234567,0,0,0.06234567901234567,38.654320987654316,0)" xlink:href="#bk"/><use transform="matrix(0.06234567901234567,0,0,0.06234567901234567,49.87654320987654,0)" xlink:href="#N"/><use transform="matrix(0.06234567901234567,0,0,0.06234567901234567,62.34567901234567,0)" xlink:href="#M"/><use transform="matrix(0.06234567901234567,0,0,0.06234567901234567,68.58024691358024,0)" xlink:href="#bl"/><use transform="matrix(0.06234567901234567,0,0,0.06234567901234567,73.50555555555555,0)" xlink:href="#bm"/><use transform="matrix(0.06234567901234567,0,0,0.06234567901234567,85.97469135802467,0)" xlink:href="#S"/></g><path fill="#282c33" d="M212-179c-10-28-35-45-73-45-59 0-87 40-87 99 0 60 29 101 89 101 43 0 62-24 78-52l27 14C228-24 195 4 139 4 59 4 22-46 18-125c-6-104 99-153 187-111 19 9 31 26 39 46" id="bn"/><g id="A"><use transform="matrix(0.06234567901234567,0,0,0.06234567901234567,0,0)" xlink:href="#U"/><use transform="matrix(0.06234567901234567,0,0,0.06234567901234567,17.456790123456788,0)" xlink:href="#V"/><use transform="matrix(0.06234567901234567,0,0,0.06234567901234567,29.92592592592592,0)" xlink:href="#W"/><use transform="matrix(0.06234567901234567,0,0,0.06234567901234567,41.14814814814814,0)" xlink:href="#X"/><use transform="matrix(0.06234567901234567,0,0,0.06234567901234567,53.61728395061727,0)" xlink:href="#Y"/><use transform="matrix(0.06234567901234567,0,0,0.06234567901234567,61.036419753086406,0)" xlink:href="#Z"/><use transform="matrix(0.06234567901234567,0,0,0.06234567901234567,72.25864197530862,0)" xlink:href="#aG"/><use transform="matrix(0.06234567901234567,0,0,0.06234567901234567,84.72777777777776,0)" xlink:href="#aH"/><use transform="matrix(0.06234567901234567,0,0,0.06234567901234567,90.96234567901233,0)" xlink:href="#aa"/><use transform="matrix(0.06234567901234567,0,0,0.06234567901234567,95.88765432098764,0)" xlink:href="#ae"/><use transform="matrix(0.06234567901234567,0,0,0.06234567901234567,108.35679012345676,0)" xlink:href="#ab"/><use transform="matrix(0.06234567901234567,0,0,0.06234567901234567,120.8259259259259,0)" xlink:href="#bn"/><use transform="matrix(0.06234567901234567,0,0,0.06234567901234567,136.97345679012344,0)" xlink:href="#ae"/><use transform="matrix(0.06234567901234567,0,0,0.06234567901234567,149.44259259259258,0)" xlink:href="#ba"/><use transform="matrix(0.06234567901234567,0,0,0.06234567901234567,154.36790123456788,0)" xlink:href="#ba"/><use transform="matrix(0.06234567901234567,0,0,0.06234567901234567,159.2932098765432,0)" xlink:href="#X"/><use transform="matrix(0.06234567901234567,0,0,0.06234567901234567,171.76234567901233,0)" xlink:href="#af"/><use transform="matrix(0.06234567901234567,0,0,0.06234567901234567,182.98456790123456,0)" xlink:href="#aH"/><use transform="matrix(0.06234567901234567,0,0,0.06234567901234567,189.2191358024691,0)" xlink:href="#aa"/><use transform="matrix(0.06234567901234567,0,0,0.06234567901234567,194.14444444444442,0)" xlink:href="#ae"/><use transform="matrix(0.06234567901234567,0,0,0.06234567901234567,206.61358024691356,0)" xlink:href="#ab"/></g><g id="B"><use transform="matrix(0.056172839506172814,0,0,0.056172839506172814,0,0)" xlink:href="#aM"/><use transform="matrix(0.056172839506172814,0,0,0.056172839506172814,11.234567901234563,0)" xlink:href="#ai"/><use transform="matrix(0.056172839506172814,0,0,0.056172839506172814,22.469135802469125,0)" xlink:href="#am"/><use transform="matrix(0.056172839506172814,0,0,0.056172839506172814,33.70370370370369,0)" xlink:href="#at"/><use transform="matrix(0.056172839506172814,0,0,0.056172839506172814,44.93827160493825,0)" xlink:href="#aN"/><use transform="matrix(0.056172839506172814,0,0,0.056172839506172814,56.172839506172814,0)" xlink:href="#aK"/><use transform="matrix(0.056172839506172814,0,0,0.056172839506172814,72.9685185185185,0)" xlink:href="#am"/><use transform="matrix(0.056172839506172814,0,0,0.056172839506172814,84.20308641975305,0)" xlink:href="#at"/><use transform="matrix(0.056172839506172814,0,0,0.056172839506172814,95.4376543209876,0)" xlink:href="#aN"/><use transform="matrix(0.056172839506172814,0,0,0.056172839506172814,106.67222222222216,0)" xlink:href="#at"/><use transform="matrix(0.056172839506172814,0,0,0.056172839506172814,117.90679012345672,0)" xlink:href="#aI"/><use transform="matrix(0.056172839506172814,0,0,0.056172839506172814,130.04012345679004,0)" xlink:href="#aJ"/><use transform="matrix(0.056172839506172814,0,0,0.056172839506172814,134.4777777777777,0)" xlink:href="#aK"/><use transform="matrix(0.056172839506172814,0,0,0.056172839506172814,151.27345679012336,0)" xlink:href="#am"/></g><g id="C"><use transform="matrix(0.056172839506172814,0,0,0.056172839506172814,0,0)" xlink:href="#ai"/><use transform="matrix(0.056172839506172814,0,0,0.056172839506172814,11.234567901234563,0)" xlink:href="#aj"/><use transform="matrix(0.056172839506172814,0,0,0.056172839506172814,22.469135802469125,0)" xlink:href="#ak"/><use transform="matrix(0.056172839506172814,0,0,0.056172839506172814,32.58024691358023,0)" xlink:href="#al"/><use transform="matrix(0.056172839506172814,0,0,0.056172839506172814,44.882098765432076,0)" xlink:href="#am"/><use transform="matrix(0.056172839506172814,0,0,0.056172839506172814,56.11666666666664,0)" xlink:href="#aj"/><use transform="matrix(0.056172839506172814,0,0,0.056172839506172814,67.3512345679012,0)" xlink:href="#an"/><use transform="matrix(0.056172839506172814,0,0,0.056172839506172814,72.96851851851848,0)" xlink:href="#ao"/><use transform="matrix(0.056172839506172814,0,0,0.056172839506172814,84.20308641975305,0)" xlink:href="#ap"/><use transform="matrix(0.056172839506172814,0,0,0.056172839506172814,90.88765432098761,0)" xlink:href="#am"/><use transform="matrix(0.056172839506172814,0,0,0.056172839506172814,102.12222222222218,0)" xlink:href="#aq"/><use transform="matrix(0.056172839506172814,0,0,0.056172839506172814,117.85061728395057,0)" xlink:href="#ar"/><use transform="matrix(0.056172839506172814,0,0,0.056172839506172814,123.46790123456785,0)" xlink:href="#as"/><use transform="matrix(0.056172839506172814,0,0,0.056172839506172814,129.08518518518514,0)" xlink:href="#at"/><use transform="matrix(0.056172839506172814,0,0,0.056172839506172814,140.3197530864197,0)" xlink:href="#an"/><use transform="matrix(0.056172839506172814,0,0,0.056172839506172814,145.937037037037,0)" xlink:href="#am"/><use transform="matrix(0.056172839506172814,0,0,0.056172839506172814,157.17160493827154,0)" xlink:href="#ap"/><use transform="matrix(0.056172839506172814,0,0,0.056172839506172814,163.85617283950612,0)" xlink:href="#am"/><use transform="matrix(0.056172839506172814,0,0,0.056172839506172814,175.09074074074067,0)" xlink:href="#ak"/><use transform="matrix(0.056172839506172814,0,0,0.056172839506172814,185.20185185185179,0)" xlink:href="#an"/></g><g id="D"><use transform="matrix(0.056172839506172814,0,0,0.056172839506172814,0,0)" xlink:href="#ai"/><use transform="matrix(0.056172839506172814,0,0,0.056172839506172814,11.234567901234563,0)" xlink:href="#aj"/><use transform="matrix(0.056172839506172814,0,0,0.056172839506172814,22.469135802469125,0)" xlink:href="#ak"/><use transform="matrix(0.056172839506172814,0,0,0.056172839506172814,32.58024691358023,0)" xlink:href="#bd"/><use transform="matrix(0.056172839506172814,0,0,0.056172839506172814,47.12901234567899,0)" xlink:href="#aL"/><use transform="matrix(0.056172839506172814,0,0,0.056172839506172814,51.56666666666664,0)" xlink:href="#an"/><use transform="matrix(0.056172839506172814,0,0,0.056172839506172814,57.18395061728393,0)" xlink:href="#aJ"/><use transform="matrix(0.056172839506172814,0,0,0.056172839506172814,61.621604938271574,0)" xlink:href="#aK"/><use transform="matrix(0.056172839506172814,0,0,0.056172839506172814,78.41728395061725,0)" xlink:href="#aj"/><use transform="matrix(0.056172839506172814,0,0,0.056172839506172814,89.6518518518518,0)" xlink:href="#an"/><use transform="matrix(0.056172839506172814,0,0,0.056172839506172814,95.26913580246908,0)" xlink:href="#am"/><use transform="matrix(0.056172839506172814,0,0,0.056172839506172814,106.50370370370365,0)" xlink:href="#al"/><use transform="matrix(0.056172839506172814,0,0,0.056172839506172814,118.8055555555555,0)" xlink:href="#am"/><use transform="matrix(0.056172839506172814,0,0,0.056172839506172814,130.04012345679007,0)" xlink:href="#aj"/><use transform="matrix(0.056172839506172814,0,0,0.056172839506172814,141.27469135802463,0)" xlink:href="#an"/><use transform="matrix(0.056172839506172814,0,0,0.056172839506172814,146.89197530864192,0)" xlink:href="#ao"/><use transform="matrix(0.056172839506172814,0,0,0.056172839506172814,158.12654320987647,0)" xlink:href="#ap"/><use transform="matrix(0.056172839506172814,0,0,0.056172839506172814,164.81111111111105,0)" xlink:href="#am"/><use transform="matrix(0.056172839506172814,0,0,0.056172839506172814,176.0456790123456,0)" xlink:href="#aq"/><use transform="matrix(0.056172839506172814,0,0,0.056172839506172814,191.77407407407398,0)" xlink:href="#ar"/><use transform="matrix(0.056172839506172814,0,0,0.056172839506172814,197.39135802469127,0)" xlink:href="#as"/><use transform="matrix(0.056172839506172814,0,0,0.056172839506172814,203.00864197530856,0)" xlink:href="#at"/><use transform="matrix(0.056172839506172814,0,0,0.056172839506172814,214.24320987654312,0)" xlink:href="#an"/><use transform="matrix(0.056172839506172814,0,0,0.056172839506172814,219.8604938271604,0)" xlink:href="#am"/><use transform="matrix(0.056172839506172814,0,0,0.056172839506172814,231.09506172839497,0)" xlink:href="#ap"/><use transform="matrix(0.056172839506172814,0,0,0.056172839506172814,237.7796296296295,0)" xlink:href="#am"/><use transform="matrix(0.056172839506172814,0,0,0.056172839506172814,249.0141975308641,0)" xlink:href="#ak"/><use transform="matrix(0.056172839506172814,0,0,0.056172839506172814,259.1253086419752,0)" xlink:href="#an"/></g><g id="E"><use transform="matrix(0.056172839506172814,0,0,0.056172839506172814,0,0)" xlink:href="#aN"/><use transform="matrix(0.056172839506172814,0,0,0.056172839506172814,11.234567901234563,0)" xlink:href="#aV"/><use transform="matrix(0.056172839506172814,0,0,0.056172839506172814,22.469135802469125,0)" xlink:href="#ak"/><use transform="matrix(0.056172839506172814,0,0,0.056172839506172814,32.58024691358023,0)" xlink:href="#am"/><use transform="matrix(0.056172839506172814,0,0,0.056172839506172814,43.814814814814795,0)" xlink:href="#ap"/><use transform="matrix(0.056172839506172814,0,0,0.056172839506172814,50.49938271604936,0)" xlink:href="#aW"/><use transform="matrix(0.056172839506172814,0,0,0.056172839506172814,60.61049382716047,0)" xlink:href="#am"/><use transform="matrix(0.056172839506172814,0,0,0.056172839506172814,71.84506172839502,0)" xlink:href="#aU"/><use transform="matrix(0.056172839506172814,0,0,0.056172839506172814,83.07962962962958,0)" xlink:href="#aY"/><use transform="matrix(0.056172839506172814,0,0,0.056172839506172814,96.56111111111106,0)" xlink:href="#ap"/><use transform="matrix(0.056172839506172814,0,0,0.056172839506172814,103.24567901234562,0)" xlink:href="#aN"/><use transform="matrix(0.056172839506172814,0,0,0.056172839506172814,114.48024691358017,0)" xlink:href="#aM"/><use transform="matrix(0.056172839506172814,0,0,0.056172839506172814,125.71481481481473,0)" xlink:href="#am"/><use transform="matrix(0.056172839506172814,0,0,0.056172839506172814,136.94938271604929,0)" xlink:href="#ap"/><use transform="matrix(0.056172839506172814,0,0,0.056172839506172814,143.63395061728386,0)" xlink:href="#an"/><use transform="matrix(0.056172839506172814,0,0,0.056172839506172814,149.25123456790115,0)" xlink:href="#aS"/></g><g id="F"><use transform="matrix(0.056172839506172814,0,0,0.056172839506172814,0,0)" xlink:href="#aK"/><use transform="matrix(0.056172839506172814,0,0,0.056172839506172814,16.795679012345673,0)" xlink:href="#aj"/><use transform="matrix(0.056172839506172814,0,0,0.056172839506172814,28.030246913580235,0)" xlink:href="#aU"/><use transform="matrix(0.056172839506172814,0,0,0.056172839506172814,39.2648148148148,0)" xlink:href="#am"/><use transform="matrix(0.056172839506172814,0,0,0.056172839506172814,50.49938271604936,0)" xlink:href="#aX"/><use transform="matrix(0.056172839506172814,0,0,0.056172839506172814,63.980864197530835,0)" xlink:href="#aS"/><use transform="matrix(0.056172839506172814,0,0,0.056172839506172814,74.09197530864193,0)" xlink:href="#aQ"/><use transform="matrix(0.056172839506172814,0,0,0.056172839506172814,87.57345679012342,0)" xlink:href="#am"/><use transform="matrix(0.056172839506172814,0,0,0.056172839506172814,98.80802469135799,0)" xlink:href="#at"/><use transform="matrix(0.056172839506172814,0,0,0.056172839506172814,110.04259259259254,0)" xlink:href="#ak"/><use transform="matrix(0.056172839506172814,0,0,0.056172839506172814,120.15370370370366,0)" xlink:href="#aN"/><use transform="matrix(0.056172839506172814,0,0,0.056172839506172814,131.3882716049382,0)" xlink:href="#ap"/></g><g id="G"><use transform="matrix(0.056172839506172814,0,0,0.056172839506172814,0,0)" xlink:href="#ao"/><use transform="matrix(0.056172839506172814,0,0,0.056172839506172814,11.234567901234563,0)" xlink:href="#ak"/><use transform="matrix(0.056172839506172814,0,0,0.056172839506172814,21.34567901234567,0)" xlink:href="#am"/><use transform="matrix(0.056172839506172814,0,0,0.056172839506172814,32.58024691358023,0)" xlink:href="#aU"/><use transform="matrix(0.056172839506172814,0,0,0.056172839506172814,43.814814814814795,0)" xlink:href="#aY"/><use transform="matrix(0.056172839506172814,0,0,0.056172839506172814,57.29629629629627,0)" xlink:href="#ap"/><use transform="matrix(0.056172839506172814,0,0,0.056172839506172814,63.980864197530835,0)" xlink:href="#aN"/><use transform="matrix(0.056172839506172814,0,0,0.056172839506172814,75.2154320987654,0)" xlink:href="#aZ"/><use transform="matrix(0.056172839506172814,0,0,0.056172839506172814,85.32654320987652,0)" xlink:href="#am"/><use transform="matrix(0.056172839506172814,0,0,0.056172839506172814,96.56111111111107,0)" xlink:href="#aU"/><use transform="matrix(0.056172839506172814,0,0,0.056172839506172814,107.79567901234563,0)" xlink:href="#ao"/><use transform="matrix(0.056172839506172814,0,0,0.056172839506172814,119.0302469135802,0)" xlink:href="#ap"/><use transform="matrix(0.056172839506172814,0,0,0.056172839506172814,125.71481481481473,0)" xlink:href="#am"/></g><g id="H"><use transform="matrix(0.056172839506172814,0,0,0.056172839506172814,0,0)" xlink:href="#ai"/><use transform="matrix(0.056172839506172814,0,0,0.056172839506172814,11.234567901234563,0)" xlink:href="#aj"/><use transform="matrix(0.056172839506172814,0,0,0.056172839506172814,22.469135802469125,0)" xlink:href="#ak"/><use transform="matrix(0.056172839506172814,0,0,0.056172839506172814,32.58024691358023,0)" xlink:href="#aP"/><use transform="matrix(0.056172839506172814,0,0,0.056172839506172814,47.12901234567899,0)" xlink:href="#am"/><use transform="matrix(0.056172839506172814,0,0,0.056172839506172814,58.36358024691356,0)" xlink:href="#ak"/><use transform="matrix(0.056172839506172814,0,0,0.056172839506172814,68.47469135802466,0)" xlink:href="#ao"/><use transform="matrix(0.056172839506172814,0,0,0.056172839506172814,79.70925925925923,0)" xlink:href="#aL"/><use transform="matrix(0.056172839506172814,0,0,0.056172839506172814,84.14691358024687,0)" xlink:href="#an"/></g><path fill="#282c33" d="M222 0l43-216c-8 16-17 34-26 49L143 0h-22L81-216 41 0H11l48-248h42l38 208 116-208h45L252 0h-30" id="bo"/><g id="I"><use transform="matrix(0.056172839506172814,0,0,0.056172839506172814,0,0)" xlink:href="#ai"/><use transform="matrix(0.056172839506172814,0,0,0.056172839506172814,11.234567901234563,0)" xlink:href="#aj"/><use transform="matrix(0.056172839506172814,0,0,0.056172839506172814,22.469135802469125,0)" xlink:href="#ak"/><use transform="matrix(0.056172839506172814,0,0,0.056172839506172814,32.58024691358023,0)" xlink:href="#bo"/><use transform="matrix(0.056172839506172814,0,0,0.056172839506172814,49.375925925925905,0)" xlink:href="#am"/><use transform="matrix(0.056172839506172814,0,0,0.056172839506172814,60.61049382716047,0)" xlink:href="#aK"/><use transform="matrix(0.056172839506172814,0,0,0.056172839506172814,77.40617283950614,0)" xlink:href="#aV"/><use transform="matrix(0.056172839506172814,0,0,0.056172839506172814,88.64074074074071,0)" xlink:href="#am"/><use transform="matrix(0.056172839506172814,0,0,0.056172839506172814,99.87530864197527,0)" xlink:href="#ap"/></g></defs></g></svg>