<svg xmlns="http://www.w3.org/2000/svg" xmlns:xlink="http://www.w3.org/1999/xlink" xmlns:lucid="lucid" width="2232.77" height="843"><g transform="translate(-418.5 161.5)" lucid:page-tab-id="HWEp-vi-RSFO"><path d="M0-500h3000v1500H0z" fill="#fff"/><path d="M1160 207.33h160v60h-160z" stroke="#000" stroke-width="3" fill="#fff7a1"/><use xlink:href="#a" transform="matrix(1,0,0,1,1168,215.33333333333337) translate(43.975617283950626 26.488888888888887)"/><path d="M820 420h160v49H820z" stroke="#000" stroke-width="3" fill="#fff7a1"/><use xlink:href="#b" transform="matrix(1,0,0,1,828,428) translate(49.58672839506173 20.988888888888887)"/><path d="M997.33 181.5V162a12 12 0 0 1 12-12H1176a12 12 0 0 1 12 12v41.1" stroke="#333" stroke-width="3" fill="none"/><path d="M998.8 183h-2.94v-1.54h2.95z" stroke="#333" stroke-width=".05" fill="#333"/><path d="M1177.82 185.67L1188 202.9l10.18-17.23" stroke="#333" stroke-width="3" fill="none"/><path d="M1020 160h240v60h-240z" fill="none"/><use xlink:href="#c" transform="matrix(1,0,0,1,1020,160) translate(98.09259259259261 34.044444444444444)"/><path d="M803.33 184.5h223.34v107H803.33z" stroke="#282c33" stroke-width="3" fill="#dedeff"/><path d="M803.33 227.43h223.34" stroke="#282c33" stroke-width="3" fill="none"/><use xlink:href="#d" transform="matrix(1,0,0,1,811.3333333333333,192.5) translate(68.52530864197533 17.988888888888887)"/><use xlink:href="#e" transform="matrix(1,0,0,1,815.3333333333333,235.43333333333334) translate(37.28302469135805 16.411111111111115)"/><use xlink:href="#f" transform="matrix(1,0,0,1,815.3333333333333,235.43333333333334) translate(40.06358024691362 40.67777777777778)"/><path d="M835-20h160v60H835z" stroke="#000" stroke-width="3" fill="#ffdda6"/><use xlink:href="#g" transform="matrix(1,0,0,1,843,-12) translate(42.69753086419754 26.488888888888887)"/><path d="M915 181.5V44.23" stroke="#333" stroke-width="3" fill="none"/><path d="M916.48 183h-2.96v-1.54h2.96z" stroke="#333" stroke-width=".05" fill="#333"/><path d="M925.18 61.66L915 44.46l-10.18 17.2" stroke="#333" stroke-width="3" fill="none"/><path d="M900 40h240v60H900z" fill="none"/><use xlink:href="#h" transform="matrix(1,0,0,1,900,40) translate(32.566975308642 34.044444444444444)"/><path d="M440 207.33h220v60H440z" stroke="#000" stroke-width="3" fill="#fff"/><use xlink:href="#i" transform="matrix(1,0,0,1,448,215.33333333333337) translate(44.70432098765433 26.488888888888887)"/><path d="M800.33 238h-136.1" stroke="#333" stroke-width="3" fill="none"/><path d="M801.83 239.47h-1.54v-2.94h1.53z" stroke="#333" stroke-width=".05" fill="#333"/><path d="M681.66 227.82L664.46 238l17.2 10.18" stroke="#333" stroke-width="3" fill="none"/><path d="M566 160h240v60H566z" fill="none"/><use xlink:href="#j" transform="matrix(1,0,0,1,566,160) translate(30.82561728395065 34.044444444444444)"/><path d="M550 270.33V432.5a12 12 0 0 0 12 12h253.77" stroke="#333" stroke-width="3" fill="none"/><path d="M551.48 270.37h-2.96v-1.54h2.96z" stroke="#333" stroke-width=".05" fill="#333"/><path d="M798.34 454.68l17.2-10.18-17.2-10.18" stroke="#333" stroke-width="3" fill="none"/><path d="M640 380h240v60H640z" fill="none"/><use xlink:href="#k" transform="matrix(1,0,0,1,640,380) translate(82.95401234567903 34.044444444444444)"/><path d="M550 204.33V22a12 12 0 0 1 12-12h268.77" stroke="#333" stroke-width="3" fill="none"/><path d="M551.48 205.83h-2.96v-1.54h2.96z" stroke="#333" stroke-width=".05" fill="#333"/><path d="M813.34 20.18L830.54 10 813.35-.18" stroke="#333" stroke-width="3" fill="none"/><path d="M660 16h240v60H660z" fill="none"/><use xlink:href="#l" transform="matrix(1,0,0,1,660,16) translate(94.72222222222223 34.044444444444444)"/><path d="M992 295.73V308a12 12 0 0 0 12 12h172a12 12 0 0 0 12-12v-36.44" stroke="#333" stroke-width="3" fill="none"/><path d="M1002.18 313.16L992 295.96l-10.18 17.2M1198.18 289L1188 271.77 1177.82 289" stroke="#333" stroke-width="3" fill="none"/><path d="M1000 267.33h240v60h-240z" fill="none"/><use xlink:href="#m" transform="matrix(1,0,0,1,1000,267.33333333333337) translate(74.52808641975311 34.044444444444444)"/><path d="M900 316h240v60H900z" fill="none"/><use xlink:href="#n" transform="matrix(1,0,0,1,900,316) translate(42.537654320987684 34.044444444444444)"/><path d="M983 444.5h245a12 12 0 0 0 12-12V294.8" stroke="#333" stroke-width="3" fill="none"/><path d="M983.04 445.98h-1.54v-2.96h1.54z" stroke="#333" stroke-width=".05" fill="#333"/><path d="M1240 271.78l12.73 21.52h-25.46z" stroke="#333" stroke-width="3" fill="#fff"/><path d="M1240 204.33V22a12 12 0 0 0-12-12H999.23" stroke="#333" stroke-width="3" fill="none"/><path d="M1241.47 205.83h-2.94v-1.54h2.94z" stroke="#333" stroke-width=".05" fill="#333"/><path d="M1016.66-.18L999.46 10l17.2 10.18" stroke="#333" stroke-width="3" fill="none"/><path d="M980-44h240v60H980z" fill="none"/><use xlink:href="#o" transform="matrix(1,0,0,1,980,-44) translate(48.01450617283956 34.044444444444444)"/><path d="M1292 270.33v26.5a12 12 0 0 0 12 12h44a12 12 0 0 0 12-12v-119a12 12 0 0 0-12-12h-44a12 12 0 0 0-12 12v25.28" stroke="#333" stroke-width="3" fill="none"/><path d="M1293.47 270.37h-2.94v-1.54h2.94z" stroke="#333" stroke-width=".05" fill="#333"/><path d="M1281.82 185.67L1292 202.9l10.18-17.23" stroke="#333" stroke-width="3" fill="none"/><path d="M1220 120h240v60h-240z" fill="none"/><use xlink:href="#p" transform="matrix(1,0,0,1,1220,120) translate(43.8015432098766 34.044444444444444)"/><path d="M1703 118h36.67a12 12 0 0 1 12 12v96a12 12 0 0 0 12 12h12.2" stroke="#ced4db" stroke-width="3" fill="none"/><path d="M1703.04 119.47h-1.54v-2.94h1.54z" stroke="#ced4db" stroke-width=".05" fill="#ced4db"/><path d="M1798.9 238l-21.53 12.73v-25.46z" stroke="#ced4db" stroke-width="3" fill="#fff"/><path d="M1703 238h72.87" stroke="#ced4db" stroke-width="3" fill="none"/><path d="M1703.04 239.47h-1.54v-2.94h1.54z" stroke="#ced4db" stroke-width=".05" fill="#ced4db"/><path d="M1798.9 238l-21.53 12.73v-25.46z" stroke="#ced4db" stroke-width="3" fill="#fff"/><path d="M1703 358h36.67a12 12 0 0 0 12-12v-96a12 12 0 0 1 12-12h12.2" stroke="#ced4db" stroke-width="3" fill="none"/><path d="M1703.04 359.48h-1.54v-2.96h1.54z" stroke="#ced4db" stroke-width=".05" fill="#ced4db"/><path d="M1798.9 238l-21.53 12.73v-25.46z" stroke="#ced4db" stroke-width="3" fill="#fff"/><path d="M1480 78h220v80h-220z" stroke="#ced4db" stroke-width="3" fill="#f2f2ff"/><use xlink:href="#q" transform="matrix(1,0,0,1,1488,86) translate(55.27191358024692 36.48888888888889)"/><path d="M1480 198h220v80h-220z" stroke="#ced4db" stroke-width="3" fill="#f2f2ff"/><use xlink:href="#r" transform="matrix(1,0,0,1,1488,206) translate(41.58703703703705 36.48888888888889)"/><path d="M1480 318h220v80h-220z" stroke="#ced4db" stroke-width="3" fill="#f2f2ff"/><use xlink:href="#s" transform="matrix(1,0,0,1,1488,326.00000000000006) translate(55.33425925925927 36.48888888888889)"/><path d="M2194.6 186.2h220v60h-220z" stroke="#000" stroke-width="3" fill="#fff7a1"/><use xlink:href="#t" transform="matrix(1,0,0,1,2202.605697665679,194.20512820512823) translate(14.186111111111131 26.488888888888887)"/><path d="M1658.33 577v-35a12 12 0 0 1 12-12H1903a12 12 0 0 0 12-12v-10.54" stroke="#ced4db" stroke-width="3" fill="none"/><path d="M1659.8 578.5h-2.94v-1.54h2.95z" stroke="#ced4db" stroke-width=".05" fill="#ced4db"/><path d="M1915 484.45l12.73 21.5h-25.46z" stroke="#ced4db" stroke-width="3" fill="#fff"/><path d="M1915 577v-69.54" stroke="#ced4db" stroke-width="3" fill="none"/><path d="M1916.47 578.5h-2.94v-1.54h2.94z" stroke="#ced4db" stroke-width=".05" fill="#ced4db"/><path d="M1915 484.45l12.73 21.5h-25.46z" stroke="#ced4db" stroke-width="3" fill="#fff"/><path d="M2165.83 577v-35a12 12 0 0 0-12-12H1927a12 12 0 0 1-12-12v-10.54" stroke="#ced4db" stroke-width="3" fill="none"/><path d="M2167.3 578.5h-2.94v-1.54h2.95z" stroke="#ced4db" stroke-width=".05" fill="#ced4db"/><path d="M1915 484.45l12.73 21.5h-25.46z" stroke="#ced4db" stroke-width="3" fill="#fff"/><path d="M1915 406.77V294.5M1904.82 389.34l10.18 17.2 10.18-17.2" stroke="#000" stroke-width="3" fill="none"/><path d="M1916.47 294.54h-2.94V293h2.94z" stroke="#000" stroke-width=".05"/><path d="M1835 411h160v69h-160z" stroke="#000" stroke-width="3" fill="#fff7a1"/><use xlink:href="#u" transform="matrix(1,0,0,1,1843,419) translate(20.31543209876544 30.988888888888887)"/><path d="M1548.33 580h220v80h-220z" stroke="#ced4db" stroke-width="3" fill="#fcfcca"/><use xlink:href="#v" transform="matrix(1,0,0,1,1556.3333333333335,588) translate(3.587345679012344 36.48888888888889)"/><path d="M1796.67 580h236.66v80h-236.66z" stroke="#ced4db" stroke-width="3" fill="#fcfcca"/><use xlink:href="#w" transform="matrix(1,0,0,1,1804.6666666666665,588) translate(7.754320987654324 36.48888888888889)"/><path d="M2058.33 580h215v80h-215z" stroke="#ced4db" stroke-width="3" fill="#fcfcca"/><use xlink:href="#x" transform="matrix(1,0,0,1,2066.3333333333335,588) translate(1.1496913580246968 36.48888888888889)"/><path d="M1988.73 181.5V155a12 12 0 0 1 12-12h216.92a12 12 0 0 1 12 12v26.98" stroke="#333" stroke-width="3" fill="none"/><path d="M1990.2 183h-2.95v-1.54h2.95z" stroke="#333" stroke-width=".05" fill="#333"/><path d="M2219.47 164.54l10.18 17.22 10.18-17.22" stroke="#333" stroke-width="3" fill="none"/><path d="M2231.27 137h240v60h-240z" fill="none"/><use xlink:href="#y" transform="matrix(1,0,0,1,2231.272364332346,137) translate(24.59043209876546 34.044444444444444)"/><path d="M1700 360h240v60h-240z" fill="none"/><use xlink:href="#z" transform="matrix(1,0,0,1,1700,360) translate(51.52530864197534 34.044444444444444)"/><path d="M1803.33 184.5h223.34v107h-223.34z" stroke="#282c33" stroke-width="3" fill="#dedeff"/><path d="M1803.33 227.43h223.34" stroke="#282c33" stroke-width="3" fill="none"/><use xlink:href="#A" transform="matrix(1,0,0,1,1811.3333333333333,192.5) translate(54.778086419753095 17.988888888888887)"/><use xlink:href="#B" transform="matrix(1,0,0,1,1815.3333333333333,235.43333333333334) translate(58.066975308642 16.411111111111115)"/><use xlink:href="#C" transform="matrix(1,0,0,1,1815.3333333333333,235.43333333333334) translate(53.03950617283952 40.67777777777778)"/><path d="M2197-110h-87.5a12 12 0 0 0-12 12v54.52a12 12 0 0 1-12 12h-63.04" stroke="#ced4db" stroke-width="3" fill="none"/><path d="M2198.5-108.53h-1.54v-2.94h1.54z" stroke="#ced4db" stroke-width=".05" fill="#ced4db"/><path d="M1999.45-31.48l21.5-12.72v25.45z" stroke="#ced4db" stroke-width="3" fill="#fff"/><path d="M2197-31.48h-174.54" stroke="#ced4db" stroke-width="3" fill="none"/><path d="M2198.5-30h-1.54v-2.95h1.54z" stroke="#ced4db" stroke-width=".05" fill="#ced4db"/><path d="M1999.45-31.48l21.5-12.72v25.45z" stroke="#ced4db" stroke-width="3" fill="#fff"/><path d="M2197 51h-87.5a12 12 0 0 1-12-12v-58.48a12 12 0 0 0-12-12h-63.04" stroke="#ced4db" stroke-width="3" fill="none"/><path d="M2198.5 52.48h-1.54v-2.95h1.54z" stroke="#ced4db" stroke-width=".05" fill="#ced4db"/><path d="M1999.45-31.48l21.5-12.72v25.45z" stroke="#ced4db" stroke-width="3" fill="#fff"/><path d="M1835-69.48h160v76h-160z" stroke="#000" stroke-width="3" fill="#ffdda6"/><use xlink:href="#D" transform="matrix(1,0,0,1,1843,-61.476402025851826) translate(34.62376543209878 34.48888888888889)"/><path d="M2200-140h220v60h-220z" stroke="#ced4db" stroke-width="3" fill="#fff3d9"/><use xlink:href="#E" transform="matrix(1,0,0,1,2208,-132) translate(60.259567901234576 26.488888888888887)"/><path d="M2200-61.48h220v60h-220z" stroke="#ced4db" stroke-width="3" fill="#fff3d9"/><use xlink:href="#F" transform="matrix(1,0,0,1,2208,-53.476402025851826) translate(66.49413580246915 26.488888888888887)"/><path d="M2200 20h220v62h-220z" stroke="#ced4db" stroke-width="3" fill="#fff3d9"/><use xlink:href="#G" transform="matrix(1,0,0,1,2208,28) translate(60.32191358024693 27.488888888888887)"/><path d="M1915 181.5V10.75" stroke="#333" stroke-width="3" fill="none"/><path d="M1916.47 183h-2.94v-1.54h2.94z" stroke="#333" stroke-width=".05" fill="#333"/><path d="M1925.18 28.18L1915 10.98l-10.18 17.2" stroke="#333" stroke-width="3" fill="none"/><path d="M1860 6.52h240v60h-240z" fill="none"/><use xlink:href="#H" transform="matrix(1,0,0,1,1860,6.523597974148174) translate(76.21327160493829 34.044444444444444)"/><path d="M2194.6 272.5h160v55h-160z" stroke="#282c33" stroke-width="3" fill="#fff7a1"/><use xlink:href="#I" transform="matrix(1,0,0,1,2202.605697665679,280.50000000000006) translate(40.266049382716055 23.988888888888887)"/><path d="M1990.53 295.73v61.12a12 12 0 0 0 12 12h203.77a12 12 0 0 0 12-12v-25.12" stroke="#333" stroke-width="3" fill="none"/><path d="M2000.7 313.16l-10.17-17.2-10.18 17.2M2228.48 349.16l-10.18-17.2-10.2 17.2" stroke="#333" stroke-width="3" fill="none"/><path d="M2171.27 330.5h240v60h-240z" fill="none"/><use xlink:href="#J" transform="matrix(1,0,0,1,2171.272364332346,330.5) translate(75.11790123456792 34.044444444444444)"/><path d="M1940 300h240v60h-240z" fill="none"/><use xlink:href="#K" transform="matrix(1,0,0,1,1940,300) translate(73.46080246913583 34.044444444444444)"/><path d="M2391.27 343h160v55h-160z" stroke="#282c33" stroke-width="3" fill="#fff7a1"/><use xlink:href="#L" transform="matrix(1,0,0,1,2399.272364332346,351.00000000000006) translate(34.03148148148149 23.988888888888887)"/><path d="M2425.94 340v-28a12 12 0 0 0-12-12h-8a12 12 0 0 1-12-12v-14.33" stroke="#333" stroke-width="3" fill="none"/><path d="M2427.4 341.5h-2.94v-1.54h2.95z" stroke="#333" stroke-width=".05" fill="#333"/><path d="M2393.94 250.65l12.72 21.52h-25.45z" stroke="#333" stroke-width="3" fill="#fff"/><path d="M2425.94 340v-28a12 12 0 0 0-12-12h-31.87" stroke="#333" stroke-width="3" fill="none"/><path d="M2427.4 341.5h-2.94v-1.54h2.95z" stroke="#333" stroke-width=".05" fill="#333"/><path d="M2359.05 300l21.52-12.73v25.46z" stroke="#333" stroke-width="3" fill="#fff"/><path d="M2471.27 340V228.2a12 12 0 0 0-12-12h-40.44" stroke="#333" stroke-width="3" fill="none"/><path d="M2472.75 341.5h-2.95v-1.54h2.95z" stroke="#333" stroke-width=".05" fill="#333"/><path d="M2436.27 206.02l-17.22 10.2 17.22 10.17" stroke="#333" stroke-width="3" fill="none"/><path d="M2391.27 172.5h240v60h-240z" fill="none"/><g><use xlink:href="#M" transform="matrix(1,0,0,1,2391.272364332346,172.5) translate(67.84351851851854 34.044444444444444)"/></g><defs><path fill="#282c33" d="M30 0v-248h187v28H63v79h144v27H63v87h162V0H30" id="N"/><path fill="#282c33" d="M117-194c89-4 53 116 60 194h-32v-121c0-31-8-49-39-48C34-167 62-67 57 0H25l-1-190h30c1 10-1 24 2 32 11-22 29-35 61-36" id="O"/><path fill="#282c33" d="M59-47c-2 24 18 29 38 22v24C64 9 27 4 27-40v-127H5v-23h24l9-43h21v43h35v23H59v120" id="P"/><path fill="#282c33" d="M24-231v-30h32v30H24zM24 0v-190h32V0H24" id="Q"/><path fill="#282c33" d="M179-190L93 31C79 59 56 82 12 73V49c39 6 53-20 64-50L1-190h34L92-34l54-156h33" id="R"/><g id="a"><use transform="matrix(0.06234567901234567,0,0,0.06234567901234567,0,0)" xlink:href="#N"/><use transform="matrix(0.06234567901234567,0,0,0.06234567901234567,14.96296296296296,0)" xlink:href="#O"/><use transform="matrix(0.06234567901234567,0,0,0.06234567901234567,27.432098765432094,0)" xlink:href="#P"/><use transform="matrix(0.06234567901234567,0,0,0.06234567901234567,33.66666666666666,0)" xlink:href="#Q"/><use transform="matrix(0.06234567901234567,0,0,0.06234567901234567,38.59197530864196,0)" xlink:href="#P"/><use transform="matrix(0.06234567901234567,0,0,0.06234567901234567,44.82654320987653,0)" xlink:href="#R"/></g><path fill="#282c33" d="M30-248c87 1 191-15 191 75 0 78-77 80-158 76V0H30v-248zm33 125c57 0 124 11 124-50 0-59-68-47-124-48v98" id="S"/><path fill="#282c33" d="M24 0v-261h32V0H24" id="T"/><path fill="#282c33" d="M141-36C126-15 110 5 73 4 37 3 15-17 15-53c-1-64 63-63 125-63 3-35-9-54-41-54-24 1-41 7-42 31l-33-3c5-37 33-52 76-52 45 0 72 20 72 64v82c-1 20 7 32 28 27v20c-31 9-61-2-59-35zM48-53c0 20 12 33 32 33 41-3 63-29 60-74-43 2-92-5-92 41" id="U"/><g id="b"><use transform="matrix(0.06234567901234567,0,0,0.06234567901234567,0,0)" xlink:href="#S"/><use transform="matrix(0.06234567901234567,0,0,0.06234567901234567,14.96296296296296,0)" xlink:href="#T"/><use transform="matrix(0.06234567901234567,0,0,0.06234567901234567,19.888271604938268,0)" xlink:href="#U"/><use transform="matrix(0.06234567901234567,0,0,0.06234567901234567,32.3574074074074,0)" xlink:href="#O"/></g><path fill="#282c33" d="M67 3c-93-2-31-127-26-193h32L48-50c-3 39 53 32 70 12 30-34 30-101 43-152h32L157 0h-30c1-10 6-24 4-33-14 20-29 37-64 36" id="V"/><path fill="#282c33" d="M55-144c13 50 104 24 104 88C159 21 15 23 1-39l26-10c6 40 102 42 102-4-13-50-104-23-104-87 0-71 143-71 148-8l-29 4c-5-35-85-37-89 0" id="W"/><path fill="#282c33" d="M111-194c62-3 86 47 72 106H45c-7 38 6 69 45 68 27-1 43-14 53-32l24 11C152-15 129 4 87 4 38 3 12-23 12-71c0-70 32-119 99-123zm44 81c14-66-71-72-95-28-4 8-8 17-11 28h106" id="X"/><path fill="#282c33" d="M133-28C103 26-5 8 13-77c13-62 24-115 90-117 29-1 46 15 56 35l19-102h32L160 0h-30zM45-64c-2 27 10 43 35 43 54-1 69-50 69-103 0-29-15-46-42-46-53-1-58 58-62 106" id="Y"/><g id="c"><use transform="matrix(0.056172839506172814,0,0,0.056172839506172814,0,0)" xlink:href="#V"/><use transform="matrix(0.056172839506172814,0,0,0.056172839506172814,11.234567901234563,0)" xlink:href="#W"/><use transform="matrix(0.056172839506172814,0,0,0.056172839506172814,21.34567901234567,0)" xlink:href="#X"/><use transform="matrix(0.056172839506172814,0,0,0.056172839506172814,32.58024691358023,0)" xlink:href="#Y"/></g><path fill="#282c33" d="M205 0l-28-72H64L36 0H1l101-248h38L239 0h-34zm-38-99l-47-123c-12 45-31 82-46 123h93" id="Z"/><path fill="#282c33" d="M96-169c-40 0-48 33-48 73s9 75 48 75c24 0 41-14 43-38l32 2c-6 37-31 61-74 61-59 0-76-41-82-99-10-93 101-131 147-64 4 7 5 14 7 22l-32 3c-4-21-16-35-41-35" id="aa"/><path fill="#282c33" d="M108 0H70L1-190h34L89-25l56-165h34" id="ab"/><g id="d"><use transform="matrix(0.06234567901234567,0,0,0.06234567901234567,0,0)" xlink:href="#Z"/><use transform="matrix(0.06234567901234567,0,0,0.06234567901234567,14.96296296296296,0)" xlink:href="#aa"/><use transform="matrix(0.06234567901234567,0,0,0.06234567901234567,26.18518518518518,0)" xlink:href="#P"/><use transform="matrix(0.06234567901234567,0,0,0.06234567901234567,32.419753086419746,0)" xlink:href="#Q"/><use transform="matrix(0.06234567901234567,0,0,0.06234567901234567,37.34506172839505,0)" xlink:href="#ab"/><use transform="matrix(0.06234567901234567,0,0,0.06234567901234567,48.56728395061727,0)" xlink:href="#Q"/><use transform="matrix(0.06234567901234567,0,0,0.06234567901234567,53.49259259259258,0)" xlink:href="#P"/><use transform="matrix(0.06234567901234567,0,0,0.06234567901234567,59.72716049382714,0)" xlink:href="#R"/></g><path fill="#282c33" d="M51-54c-9 22 5 41 31 30L79-1C43 14 10-4 19-52l22-115H19l5-23h22l19-43h21l-9 43h35l-4 23H73" id="ac"/><path fill="#282c33" d="M165-48c-4 18 1 34 23 27l-3 20c-29 8-62 0-52-35h-2C116-14 99 4 63 4 30 4 8-16 8-49c0-68 71-67 138-67 10-26 0-56-31-54-26 1-42 9-47 31l-32-5c8-67 160-71 144 15-5 28-9 54-15 81zM42-50c3 52 80 24 89-6 7-12 7-24 11-38-47 1-103-4-100 44" id="ad"/><path fill="#282c33" d="M66-151c12-25 30-51 66-40l-6 26C45-176 58-65 38 0H6l36-190h30" id="ae"/><path fill="#282c33" d="M187 0l-14-72H61L19 0h-37l149-248h38L221 0h-34zm-19-99l-22-123L76-99h92" id="af"/><path fill="#282c33" d="M151-220L108 0H75l42-220H32l6-28h203l-5 28h-85" id="ag"/><path fill="#282c33" d="M50-231l6-30h32l-6 30H50zM6 0l37-190h31L37 0H6" id="ah"/><path fill="#282c33" d="M248-111c6-24 9-61-24-58-72 9-57 108-77 169h-31l26-142c3-37-50-30-64-10C52-115 50-51 37 0H6l36-190h30c-1 10-6 24-4 32 13-43 101-52 105 5 13-22 29-41 61-41 90 0 28 129 23 194h-31" id="ai"/><g id="e"><use transform="matrix(0.056172839506172814,0,0,0.056172839506172814,0,0)" xlink:href="#W"/><use transform="matrix(0.056172839506172814,0,0,0.056172839506172814,10.111111111111107,0)" xlink:href="#ac"/><use transform="matrix(0.056172839506172814,0,0,0.056172839506172814,15.728395061728389,0)" xlink:href="#ad"/><use transform="matrix(0.056172839506172814,0,0,0.056172839506172814,26.96296296296295,0)" xlink:href="#ae"/><use transform="matrix(0.056172839506172814,0,0,0.056172839506172814,33.64753086419751,0)" xlink:href="#ac"/><use transform="matrix(0.056172839506172814,0,0,0.056172839506172814,39.2648148148148,0)" xlink:href="#X"/><use transform="matrix(0.056172839506172814,0,0,0.056172839506172814,50.49938271604936,0)" xlink:href="#Y"/><use transform="matrix(0.056172839506172814,0,0,0.056172839506172814,61.733950617283924,0)" xlink:href="#af"/><use transform="matrix(0.056172839506172814,0,0,0.056172839506172814,75.2154320987654,0)" xlink:href="#ac"/><use transform="matrix(0.056172839506172814,0,0,0.056172839506172814,80.83271604938268,0)" xlink:href="#ag"/><use transform="matrix(0.056172839506172814,0,0,0.056172839506172814,92.96604938271601,0)" xlink:href="#ah"/><use transform="matrix(0.056172839506172814,0,0,0.056172839506172814,97.40370370370366,0)" xlink:href="#ai"/><use transform="matrix(0.056172839506172814,0,0,0.056172839506172814,114.19938271604933,0)" xlink:href="#X"/></g><path fill="#282c33" d="M67-158c22-48 132-52 116 29L158 0h-32l25-140c3-38-53-32-70-12C52-117 51-52 38 0H6l36-190h30" id="aj"/><g id="f"><use transform="matrix(0.056172839506172814,0,0,0.056172839506172814,0,0)" xlink:href="#X"/><use transform="matrix(0.056172839506172814,0,0,0.056172839506172814,11.234567901234563,0)" xlink:href="#aj"/><use transform="matrix(0.056172839506172814,0,0,0.056172839506172814,22.469135802469125,0)" xlink:href="#Y"/><use transform="matrix(0.056172839506172814,0,0,0.056172839506172814,33.70370370370369,0)" xlink:href="#X"/><use transform="matrix(0.056172839506172814,0,0,0.056172839506172814,44.93827160493825,0)" xlink:href="#Y"/><use transform="matrix(0.056172839506172814,0,0,0.056172839506172814,56.172839506172814,0)" xlink:href="#af"/><use transform="matrix(0.056172839506172814,0,0,0.056172839506172814,69.65432098765429,0)" xlink:href="#ac"/><use transform="matrix(0.056172839506172814,0,0,0.056172839506172814,75.27160493827157,0)" xlink:href="#ag"/><use transform="matrix(0.056172839506172814,0,0,0.056172839506172814,87.40493827160489,0)" xlink:href="#ah"/><use transform="matrix(0.056172839506172814,0,0,0.056172839506172814,91.84259259259254,0)" xlink:href="#ai"/><use transform="matrix(0.056172839506172814,0,0,0.056172839506172814,108.63827160493821,0)" xlink:href="#X"/></g><path fill="#282c33" d="M177-190C167-65 218 103 67 71c-23-6-38-20-44-43l32-5c15 47 100 32 89-28v-30C133-14 115 1 83 1 29 1 15-40 15-95c0-56 16-97 71-98 29-1 48 16 59 35 1-10 0-23 2-32h30zM94-22c36 0 50-32 50-73 0-42-14-75-50-75-39 0-46 34-46 75s6 73 46 73" id="ak"/><path fill="#282c33" d="M100-194c63 0 86 42 84 106H49c0 40 14 67 53 68 26 1 43-12 49-29l28 8c-11 28-37 45-77 45C44 4 14-33 15-96c1-61 26-98 85-98zm52 81c6-60-76-77-97-28-3 7-6 17-6 28h103" id="al"/><g id="g"><use transform="matrix(0.06234567901234567,0,0,0.06234567901234567,0,0)" xlink:href="#Z"/><use transform="matrix(0.06234567901234567,0,0,0.06234567901234567,14.96296296296296,0)" xlink:href="#ak"/><use transform="matrix(0.06234567901234567,0,0,0.06234567901234567,27.432098765432094,0)" xlink:href="#al"/><use transform="matrix(0.06234567901234567,0,0,0.06234567901234567,39.90123456790123,0)" xlink:href="#O"/><use transform="matrix(0.06234567901234567,0,0,0.06234567901234567,52.37037037037036,0)" xlink:href="#P"/></g><path fill="#282c33" d="M188 0h-37l-8-164L71 0H34L18-190h31l8 164 75-164h34l8 164 74-164h31" id="am"/><path fill="#282c33" d="M30-147c31-64 166-65 159 27C183-49 158 1 86 4 9 8 1-88 30-147zM88-20c53 0 68-48 68-100 0-31-11-51-44-50-52 1-68 46-68 97 0 32 13 53 44 53" id="an"/><path fill="#282c33" d="M44-68c0 29 11 47 38 47 30 0 42-19 51-41l28 9C148-21 126 4 82 4 31 4 10-29 12-85c3-77 74-140 146-93 12 8 15 23 18 40l-31 5c-1-22-13-36-36-36-52 0-65 49-65 101" id="ao"/><path fill="#282c33" d="M247 0h-39l-15-214-24 57L95 0H56L31-248h35L82-30l101-218h33l16 218 101-218h35" id="ap"/><path fill="#282c33" d="M67-158c15-20 31-36 64-36 94 0 33 127 27 194h-32l25-140c3-38-53-32-70-12C52-117 51-51 37 0H6l51-261h31" id="aq"/><g id="h"><use transform="matrix(0.056172839506172814,0,0,0.056172839506172814,0,0)" xlink:href="#am"/><use transform="matrix(0.056172839506172814,0,0,0.056172839506172814,14.548765432098758,0)" xlink:href="#ad"/><use transform="matrix(0.056172839506172814,0,0,0.056172839506172814,25.78333333333332,0)" xlink:href="#W"/><use transform="matrix(0.056172839506172814,0,0,0.056172839506172814,35.89444444444443,0)" xlink:href="#af"/><use transform="matrix(0.056172839506172814,0,0,0.056172839506172814,49.375925925925905,0)" xlink:href="#W"/><use transform="matrix(0.056172839506172814,0,0,0.056172839506172814,59.48703703703701,0)" xlink:href="#W"/><use transform="matrix(0.056172839506172814,0,0,0.056172839506172814,69.59814814814811,0)" xlink:href="#an"/><use transform="matrix(0.056172839506172814,0,0,0.056172839506172814,80.83271604938267,0)" xlink:href="#ao"/><use transform="matrix(0.056172839506172814,0,0,0.056172839506172814,90.94382716049378,0)" xlink:href="#ah"/><use transform="matrix(0.056172839506172814,0,0,0.056172839506172814,95.38148148148143,0)" xlink:href="#ad"/><use transform="matrix(0.056172839506172814,0,0,0.056172839506172814,106.616049382716,0)" xlink:href="#ac"/><use transform="matrix(0.056172839506172814,0,0,0.056172839506172814,112.23333333333328,0)" xlink:href="#X"/><use transform="matrix(0.056172839506172814,0,0,0.056172839506172814,123.46790123456785,0)" xlink:href="#Y"/><use transform="matrix(0.056172839506172814,0,0,0.056172839506172814,134.7024691358024,0)" xlink:href="#ap"/><use transform="matrix(0.056172839506172814,0,0,0.056172839506172814,153.5765432098765,0)" xlink:href="#ah"/><use transform="matrix(0.056172839506172814,0,0,0.056172839506172814,158.01419753086415,0)" xlink:href="#ac"/><use transform="matrix(0.056172839506172814,0,0,0.056172839506172814,163.63148148148144,0)" xlink:href="#aq"/></g><path fill="#282c33" d="M135-143c-3-34-86-38-87 0 15 53 115 12 119 90S17 21 10-45l28-5c4 36 97 45 98 0-10-56-113-15-118-90-4-57 82-63 122-42 12 7 21 19 24 35" id="ar"/><path fill="#282c33" d="M100-194c62-1 85 37 85 99 1 63-27 99-86 99S16-35 15-95c0-66 28-99 85-99zM99-20c44 1 53-31 53-75 0-43-8-75-51-75s-53 32-53 75 10 74 51 75" id="as"/><g id="i"><use transform="matrix(0.06234567901234567,0,0,0.06234567901234567,0,0)" xlink:href="#Z"/><use transform="matrix(0.06234567901234567,0,0,0.06234567901234567,14.96296296296296,0)" xlink:href="#ar"/><use transform="matrix(0.06234567901234567,0,0,0.06234567901234567,26.18518518518518,0)" xlink:href="#ar"/><use transform="matrix(0.06234567901234567,0,0,0.06234567901234567,37.4074074074074,0)" xlink:href="#as"/><use transform="matrix(0.06234567901234567,0,0,0.06234567901234567,49.87654320987653,0)" xlink:href="#aa"/><use transform="matrix(0.06234567901234567,0,0,0.06234567901234567,61.09876543209875,0)" xlink:href="#Q"/><use transform="matrix(0.06234567901234567,0,0,0.06234567901234567,66.02407407407406,0)" xlink:href="#U"/><use transform="matrix(0.06234567901234567,0,0,0.06234567901234567,78.4932098765432,0)" xlink:href="#P"/><use transform="matrix(0.06234567901234567,0,0,0.06234567901234567,84.72777777777777,0)" xlink:href="#Q"/><use transform="matrix(0.06234567901234567,0,0,0.06234567901234567,89.65308641975308,0)" xlink:href="#as"/><use transform="matrix(0.06234567901234567,0,0,0.06234567901234567,102.1222222222222,0)" xlink:href="#O"/></g><path fill="#282c33" d="M133-28C103 26-5 8 13-77c13-62 24-115 90-117 29-1 46 15 56 35 2-12 6-24 8-34h31L144 75h-31zM45-64c-2 27 10 43 35 43 54-1 69-50 69-103 0-29-15-46-42-46-53-1-58 58-62 106" id="at"/><path fill="#282c33" d="M6 0l50-261h32L37 0H6" id="au"/><path fill="#282c33" d="M76-167L44 0H12l33-167H18l4-23h27c3-47 25-81 82-69l-4 24c-35-8-44 15-46 45h37l-5 23H76" id="av"/><g id="j"><use transform="matrix(0.056172839506172814,0,0,0.056172839506172814,0,0)" xlink:href="#at"/><use transform="matrix(0.056172839506172814,0,0,0.056172839506172814,11.234567901234563,0)" xlink:href="#V"/><use transform="matrix(0.056172839506172814,0,0,0.056172839506172814,22.469135802469125,0)" xlink:href="#ad"/><use transform="matrix(0.056172839506172814,0,0,0.056172839506172814,33.70370370370369,0)" xlink:href="#au"/><use transform="matrix(0.056172839506172814,0,0,0.056172839506172814,38.14135802469134,0)" xlink:href="#ah"/><use transform="matrix(0.056172839506172814,0,0,0.056172839506172814,42.579012345679,0)" xlink:href="#av"/><use transform="matrix(0.056172839506172814,0,0,0.056172839506172814,48.19629629629628,0)" xlink:href="#ah"/><use transform="matrix(0.056172839506172814,0,0,0.056172839506172814,52.633950617283936,0)" xlink:href="#X"/><use transform="matrix(0.056172839506172814,0,0,0.056172839506172814,63.8685185185185,0)" xlink:href="#Y"/><use transform="matrix(0.056172839506172814,0,0,0.056172839506172814,75.10308641975305,0)" xlink:href="#af"/><use transform="matrix(0.056172839506172814,0,0,0.056172839506172814,88.58456790123454,0)" xlink:href="#W"/><use transform="matrix(0.056172839506172814,0,0,0.056172839506172814,98.69567901234564,0)" xlink:href="#W"/><use transform="matrix(0.056172839506172814,0,0,0.056172839506172814,108.80679012345675,0)" xlink:href="#an"/><use transform="matrix(0.056172839506172814,0,0,0.056172839506172814,120.0413580246913,0)" xlink:href="#ao"/><use transform="matrix(0.056172839506172814,0,0,0.056172839506172814,130.15246913580242,0)" xlink:href="#ah"/><use transform="matrix(0.056172839506172814,0,0,0.056172839506172814,134.59012345679008,0)" xlink:href="#ad"/><use transform="matrix(0.056172839506172814,0,0,0.056172839506172814,145.82469135802464,0)" xlink:href="#ac"/><use transform="matrix(0.056172839506172814,0,0,0.056172839506172814,151.44197530864193,0)" xlink:href="#ah"/><use transform="matrix(0.056172839506172814,0,0,0.056172839506172814,155.8796296296296,0)" xlink:href="#an"/><use transform="matrix(0.056172839506172814,0,0,0.056172839506172814,167.11419753086415,0)" xlink:href="#aj"/></g><path fill="#282c33" d="M238-179c0 84-86 86-175 82L45 0H11l48-248c82 0 179-12 179 69zm-34 1c0-53-64-42-116-43l-19 98c63 0 135 9 135-55" id="aw"/><g id="k"><use transform="matrix(0.056172839506172814,0,0,0.056172839506172814,0,0)" xlink:href="#aq"/><use transform="matrix(0.056172839506172814,0,0,0.056172839506172814,11.234567901234563,0)" xlink:href="#ad"/><use transform="matrix(0.056172839506172814,0,0,0.056172839506172814,22.469135802469125,0)" xlink:href="#Y"/><use transform="matrix(0.056172839506172814,0,0,0.056172839506172814,33.70370370370369,0)" xlink:href="#aw"/><use transform="matrix(0.056172839506172814,0,0,0.056172839506172814,47.18518518518516,0)" xlink:href="#au"/><use transform="matrix(0.056172839506172814,0,0,0.056172839506172814,51.62283950617282,0)" xlink:href="#ad"/><use transform="matrix(0.056172839506172814,0,0,0.056172839506172814,62.85740740740738,0)" xlink:href="#aj"/></g><path fill="#282c33" d="M103-194c29 0 47 14 56 36 2-11 5-23 8-32h30L160-5C157 61 82 97 21 62 9 55 4 45 1 30l28-7c7 42 83 31 92-3 4-16 9-38 13-55-13 20-29 36-62 36-40 0-60-25-60-64 0-71 23-131 91-131zm4 24c-53 0-58 54-61 104-2 27 10 44 36 44 49 0 65-50 67-102 1-29-15-46-42-46" id="ax"/><g id="l"><use transform="matrix(0.056172839506172814,0,0,0.056172839506172814,0,0)" xlink:href="#ad"/><use transform="matrix(0.056172839506172814,0,0,0.056172839506172814,11.234567901234563,0)" xlink:href="#ax"/><use transform="matrix(0.056172839506172814,0,0,0.056172839506172814,22.469135802469125,0)" xlink:href="#X"/><use transform="matrix(0.056172839506172814,0,0,0.056172839506172814,33.70370370370369,0)" xlink:href="#aj"/><use transform="matrix(0.056172839506172814,0,0,0.056172839506172814,44.93827160493825,0)" xlink:href="#ac"/></g><g id="m"><use transform="matrix(0.056172839506172814,0,0,0.056172839506172814,0,0)" xlink:href="#ax"/><use transform="matrix(0.056172839506172814,0,0,0.056172839506172814,11.234567901234563,0)" xlink:href="#X"/><use transform="matrix(0.056172839506172814,0,0,0.056172839506172814,22.469135802469125,0)" xlink:href="#aj"/><use transform="matrix(0.056172839506172814,0,0,0.056172839506172814,33.70370370370369,0)" xlink:href="#X"/><use transform="matrix(0.056172839506172814,0,0,0.056172839506172814,44.93827160493825,0)" xlink:href="#ae"/><use transform="matrix(0.056172839506172814,0,0,0.056172839506172814,51.62283950617282,0)" xlink:href="#ad"/><use transform="matrix(0.056172839506172814,0,0,0.056172839506172814,62.85740740740738,0)" xlink:href="#ac"/><use transform="matrix(0.056172839506172814,0,0,0.056172839506172814,68.47469135802466,0)" xlink:href="#X"/><use transform="matrix(0.056172839506172814,0,0,0.056172839506172814,79.70925925925923,0)" xlink:href="#Y"/></g><path fill="#282c33" d="M52-101C46-14 166-7 216-51l9-45h-74l6-28h105l-18 87C217-12 181 4 130 4 60 4 18-31 18-101c0-106 78-167 188-146 30 6 48 27 59 54l-34 9c-10-26-31-41-67-40-75 1-107 50-112 123" id="ay"/><path fill="#282c33" d="M219-77C219 17 104-2 11 0l48-248c73 2 169-15 169 57 0 38-24 54-60 60 29 5 51 21 51 54zm-26-111c0-44-62-31-105-33l-16 79c55 0 121 9 121-46zm-7 110c-1-49-69-36-119-38L50-27c61-1 137 12 136-51" id="az"/><path fill="#282c33" d="M198-190L69 30C53 58 25 83-20 72c4-11-1-27 19-22 33-1 43-29 59-52L20-190h32L79-34l84-156h35" id="aA"/><g id="n"><use transform="matrix(0.056172839506172814,0,0,0.056172839506172814,0,0)" xlink:href="#am"/><use transform="matrix(0.056172839506172814,0,0,0.056172839506172814,14.548765432098758,0)" xlink:href="#ad"/><use transform="matrix(0.056172839506172814,0,0,0.056172839506172814,25.78333333333332,0)" xlink:href="#W"/><use transform="matrix(0.056172839506172814,0,0,0.056172839506172814,35.89444444444443,0)" xlink:href="#ay"/><use transform="matrix(0.056172839506172814,0,0,0.056172839506172814,51.622839506172824,0)" xlink:href="#X"/><use transform="matrix(0.056172839506172814,0,0,0.056172839506172814,62.85740740740739,0)" xlink:href="#aj"/><use transform="matrix(0.056172839506172814,0,0,0.056172839506172814,74.09197530864195,0)" xlink:href="#X"/><use transform="matrix(0.056172839506172814,0,0,0.056172839506172814,85.32654320987652,0)" xlink:href="#ae"/><use transform="matrix(0.056172839506172814,0,0,0.056172839506172814,92.01111111111108,0)" xlink:href="#ad"/><use transform="matrix(0.056172839506172814,0,0,0.056172839506172814,103.24567901234565,0)" xlink:href="#ac"/><use transform="matrix(0.056172839506172814,0,0,0.056172839506172814,108.86296296296292,0)" xlink:href="#X"/><use transform="matrix(0.056172839506172814,0,0,0.056172839506172814,120.09753086419751,0)" xlink:href="#Y"/><use transform="matrix(0.056172839506172814,0,0,0.056172839506172814,131.33209876543205,0)" xlink:href="#az"/><use transform="matrix(0.056172839506172814,0,0,0.056172839506172814,144.81358024691352,0)" xlink:href="#aA"/></g><path fill="#282c33" d="M68-162c25-46 127-43 121 31C183-60 169 1 98 4 69 5 53-11 43-31L36 0H5l52-261h31zm88 36c2-27-9-43-34-43-55 0-70 51-70 103 0 29 15 45 43 46 52 0 58-58 61-106" id="aB"/><g id="o"><use transform="matrix(0.056172839506172814,0,0,0.056172839506172814,0,0)" xlink:href="#am"/><use transform="matrix(0.056172839506172814,0,0,0.056172839506172814,14.548765432098758,0)" xlink:href="#ad"/><use transform="matrix(0.056172839506172814,0,0,0.056172839506172814,25.78333333333332,0)" xlink:href="#W"/><use transform="matrix(0.056172839506172814,0,0,0.056172839506172814,35.89444444444443,0)" xlink:href="#af"/><use transform="matrix(0.056172839506172814,0,0,0.056172839506172814,49.375925925925905,0)" xlink:href="#ac"/><use transform="matrix(0.056172839506172814,0,0,0.056172839506172814,54.99320987654319,0)" xlink:href="#ac"/><use transform="matrix(0.056172839506172814,0,0,0.056172839506172814,60.61049382716047,0)" xlink:href="#ae"/><use transform="matrix(0.056172839506172814,0,0,0.056172839506172814,67.29506172839503,0)" xlink:href="#ah"/><use transform="matrix(0.056172839506172814,0,0,0.056172839506172814,71.73271604938267,0)" xlink:href="#aB"/><use transform="matrix(0.056172839506172814,0,0,0.056172839506172814,82.96728395061723,0)" xlink:href="#V"/><use transform="matrix(0.056172839506172814,0,0,0.056172839506172814,94.20185185185179,0)" xlink:href="#ac"/><use transform="matrix(0.056172839506172814,0,0,0.056172839506172814,99.81913580246906,0)" xlink:href="#X"/><use transform="matrix(0.056172839506172814,0,0,0.056172839506172814,111.05370370370363,0)" xlink:href="#Y"/><use transform="matrix(0.056172839506172814,0,0,0.056172839506172814,122.28827160493819,0)" xlink:href="#ag"/><use transform="matrix(0.056172839506172814,0,0,0.056172839506172814,132.73641975308632,0)" xlink:href="#an"/></g><path fill="#282c33" d="M248-139C247-14 144 9 11 0l48-248c105-6 190 8 189 109zm-34 0c1-70-52-87-126-82L50-27c98 7 163-21 164-112" id="aC"/><path fill="#282c33" d="M89 0H52L20-190h33L74-25l89-165h34" id="aD"/><path fill="#282c33" d="M87-220l-18 92h140l-5 28H64L45 0H11l48-248h178l-5 28H87" id="aE"/><g id="p"><use transform="matrix(0.056172839506172814,0,0,0.056172839506172814,0,0)" xlink:href="#am"/><use transform="matrix(0.056172839506172814,0,0,0.056172839506172814,14.548765432098758,0)" xlink:href="#ad"/><use transform="matrix(0.056172839506172814,0,0,0.056172839506172814,25.78333333333332,0)" xlink:href="#W"/><use transform="matrix(0.056172839506172814,0,0,0.056172839506172814,35.89444444444443,0)" xlink:href="#aC"/><use transform="matrix(0.056172839506172814,0,0,0.056172839506172814,50.44320987654319,0)" xlink:href="#X"/><use transform="matrix(0.056172839506172814,0,0,0.056172839506172814,61.67777777777775,0)" xlink:href="#ae"/><use transform="matrix(0.056172839506172814,0,0,0.056172839506172814,68.36234567901232,0)" xlink:href="#ah"/><use transform="matrix(0.056172839506172814,0,0,0.056172839506172814,72.79999999999997,0)" xlink:href="#aD"/><use transform="matrix(0.056172839506172814,0,0,0.056172839506172814,82.91111111111107,0)" xlink:href="#X"/><use transform="matrix(0.056172839506172814,0,0,0.056172839506172814,94.14567901234562,0)" xlink:href="#Y"/><use transform="matrix(0.056172839506172814,0,0,0.056172839506172814,105.38024691358018,0)" xlink:href="#aE"/><use transform="matrix(0.056172839506172814,0,0,0.056172839506172814,117.68209876543202,0)" xlink:href="#ae"/><use transform="matrix(0.056172839506172814,0,0,0.056172839506172814,124.36666666666659,0)" xlink:href="#an"/><use transform="matrix(0.056172839506172814,0,0,0.056172839506172814,135.60123456790114,0)" xlink:href="#ai"/></g><path fill="#282c33" d="M84 4C-5 8 30-112 23-190h32v120c0 31 7 50 39 49 72-2 45-101 50-169h31l1 190h-30c-1-10 1-25-2-33-11 22-28 36-60 37" id="aF"/><g id="q"><use transform="matrix(0.06234567901234567,0,0,0.06234567901234567,0,0)" xlink:href="#Z"/><use transform="matrix(0.06234567901234567,0,0,0.06234567901234567,14.96296296296296,0)" xlink:href="#aa"/><use transform="matrix(0.06234567901234567,0,0,0.06234567901234567,26.18518518518518,0)" xlink:href="#P"/><use transform="matrix(0.06234567901234567,0,0,0.06234567901234567,32.419753086419746,0)" xlink:href="#aF"/><use transform="matrix(0.06234567901234567,0,0,0.06234567901234567,44.88888888888888,0)" xlink:href="#U"/><use transform="matrix(0.06234567901234567,0,0,0.06234567901234567,57.35802469135801,0)" xlink:href="#P"/><use transform="matrix(0.06234567901234567,0,0,0.06234567901234567,63.59259259259258,0)" xlink:href="#Q"/><use transform="matrix(0.06234567901234567,0,0,0.06234567901234567,68.51790123456789,0)" xlink:href="#as"/><use transform="matrix(0.06234567901234567,0,0,0.06234567901234567,80.98703703703703,0)" xlink:href="#O"/></g><path fill="#282c33" d="M140-251c81 0 123 46 123 126C263-46 219 4 140 4 59 4 17-45 17-125s42-126 123-126zm0 227c63 0 89-41 89-101s-29-99-89-99c-61 0-89 39-89 99S79-25 140-24" id="aG"/><path fill="#282c33" d="M115-194c53 0 69 39 70 98 0 66-23 100-70 100C84 3 66-7 56-30L54 0H23l1-261h32v101c10-23 28-34 59-34zm-8 174c40 0 45-34 45-75 0-40-5-75-45-74-42 0-51 32-51 76 0 43 10 73 51 73" id="aH"/><path fill="#282c33" d="M114-163C36-179 61-72 57 0H25l-1-190h30c1 12-1 29 2 39 6-27 23-49 58-41v29" id="aI"/><g id="r"><use transform="matrix(0.06234567901234567,0,0,0.06234567901234567,0,0)" xlink:href="#aG"/><use transform="matrix(0.06234567901234567,0,0,0.06234567901234567,17.456790123456788,0)" xlink:href="#aH"/><use transform="matrix(0.06234567901234567,0,0,0.06234567901234567,29.92592592592592,0)" xlink:href="#ar"/><use transform="matrix(0.06234567901234567,0,0,0.06234567901234567,41.14814814814814,0)" xlink:href="#al"/><use transform="matrix(0.06234567901234567,0,0,0.06234567901234567,53.61728395061727,0)" xlink:href="#aI"/><use transform="matrix(0.06234567901234567,0,0,0.06234567901234567,61.036419753086406,0)" xlink:href="#ab"/><use transform="matrix(0.06234567901234567,0,0,0.06234567901234567,72.25864197530862,0)" xlink:href="#U"/><use transform="matrix(0.06234567901234567,0,0,0.06234567901234567,84.72777777777776,0)" xlink:href="#P"/><use transform="matrix(0.06234567901234567,0,0,0.06234567901234567,90.96234567901233,0)" xlink:href="#Q"/><use transform="matrix(0.06234567901234567,0,0,0.06234567901234567,95.88765432098764,0)" xlink:href="#as"/><use transform="matrix(0.06234567901234567,0,0,0.06234567901234567,108.35679012345676,0)" xlink:href="#O"/></g><path fill="#282c33" d="M185-189c-5-48-123-54-124 2 14 75 158 14 163 119 3 78-121 87-175 55-17-10-28-26-33-46l33-7c5 56 141 63 141-1 0-78-155-14-162-118-5-82 145-84 179-34 5 7 8 16 11 25" id="aJ"/><path fill="#282c33" d="M210-169c-67 3-38 105-44 169h-31v-121c0-29-5-50-35-48C34-165 62-65 56 0H25l-1-190h30c1 10-1 24 2 32 10-44 99-50 107 0 11-21 27-35 58-36 85-2 47 119 55 194h-31v-121c0-29-5-49-35-48" id="aK"/><path fill="#282c33" d="M115-194c55 1 70 41 70 98S169 2 115 4C84 4 66-9 55-30l1 105H24l-1-265h31l2 30c10-21 28-34 59-34zm-8 174c40 0 45-34 45-75s-6-73-45-74c-42 0-51 32-51 76 0 43 10 73 51 73" id="aL"/><g id="s"><use transform="matrix(0.06234567901234567,0,0,0.06234567901234567,0,0)" xlink:href="#aJ"/><use transform="matrix(0.06234567901234567,0,0,0.06234567901234567,14.96296296296296,0)" xlink:href="#U"/><use transform="matrix(0.06234567901234567,0,0,0.06234567901234567,27.432098765432094,0)" xlink:href="#aK"/><use transform="matrix(0.06234567901234567,0,0,0.06234567901234567,46.073456790123444,0)" xlink:href="#aL"/><use transform="matrix(0.06234567901234567,0,0,0.06234567901234567,58.54259259259258,0)" xlink:href="#T"/><use transform="matrix(0.06234567901234567,0,0,0.06234567901234567,63.46790123456788,0)" xlink:href="#Q"/><use transform="matrix(0.06234567901234567,0,0,0.06234567901234567,68.3932098765432,0)" xlink:href="#O"/><use transform="matrix(0.06234567901234567,0,0,0.06234567901234567,80.86234567901232,0)" xlink:href="#ak"/></g><path fill="#282c33" d="M63-220v92h138v28H63V0H30v-248h175v28H63" id="aM"/><path fill="#282c33" d="M101-234c-31-9-42 10-38 44h38v23H63V0H32v-167H5v-23h27c-7-52 17-82 69-68v24" id="aN"/><path fill="#282c33" d="M33 0v-248h34V0H33" id="aO"/><g id="t"><use transform="matrix(0.06234567901234567,0,0,0.06234567901234567,0,0)" xlink:href="#aM"/><use transform="matrix(0.06234567901234567,0,0,0.06234567901234567,13.653703703703702,0)" xlink:href="#al"/><use transform="matrix(0.06234567901234567,0,0,0.06234567901234567,26.122839506172834,0)" xlink:href="#U"/><use transform="matrix(0.06234567901234567,0,0,0.06234567901234567,38.59197530864196,0)" xlink:href="#P"/><use transform="matrix(0.06234567901234567,0,0,0.06234567901234567,44.82654320987653,0)" xlink:href="#aF"/><use transform="matrix(0.06234567901234567,0,0,0.06234567901234567,57.295679012345666,0)" xlink:href="#aI"/><use transform="matrix(0.06234567901234567,0,0,0.06234567901234567,64.7148148148148,0)" xlink:href="#al"/><use transform="matrix(0.06234567901234567,0,0,0.06234567901234567,77.18395061728393,0)" xlink:href="#aG"/><use transform="matrix(0.06234567901234567,0,0,0.06234567901234567,94.64074074074071,0)" xlink:href="#aN"/><use transform="matrix(0.06234567901234567,0,0,0.06234567901234567,100.87530864197528,0)" xlink:href="#aO"/><use transform="matrix(0.06234567901234567,0,0,0.06234567901234567,107.10987654320985,0)" xlink:href="#O"/><use transform="matrix(0.06234567901234567,0,0,0.06234567901234567,119.57901234567899,0)" xlink:href="#P"/><use transform="matrix(0.06234567901234567,0,0,0.06234567901234567,125.81358024691356,0)" xlink:href="#al"/><use transform="matrix(0.06234567901234567,0,0,0.06234567901234567,138.28271604938269,0)" xlink:href="#aI"/><use transform="matrix(0.06234567901234567,0,0,0.06234567901234567,145.7018518518518,0)" xlink:href="#al"/><use transform="matrix(0.06234567901234567,0,0,0.06234567901234567,158.17098765432095,0)" xlink:href="#ar"/><use transform="matrix(0.06234567901234567,0,0,0.06234567901234567,169.39320987654318,0)" xlink:href="#P"/></g><path fill="#282c33" d="M85-194c31 0 48 13 60 33l-1-100h32l1 261h-30c-2-10 0-23-3-31C134-8 116 4 85 4 32 4 16-35 15-94c0-66 23-100 70-100zm9 24c-40 0-46 34-46 75 0 40 6 74 45 74 42 0 51-32 51-76 0-42-9-74-50-73" id="aP"/><g id="u"><use transform="matrix(0.06234567901234567,0,0,0.06234567901234567,0,0)" xlink:href="#S"/><use transform="matrix(0.06234567901234567,0,0,0.06234567901234567,14.96296296296296,0)" xlink:href="#aI"/><use transform="matrix(0.06234567901234567,0,0,0.06234567901234567,22.382098765432094,0)" xlink:href="#as"/><use transform="matrix(0.06234567901234567,0,0,0.06234567901234567,34.85123456790123,0)" xlink:href="#aa"/><use transform="matrix(0.06234567901234567,0,0,0.06234567901234567,46.07345679012345,0)" xlink:href="#al"/><use transform="matrix(0.06234567901234567,0,0,0.06234567901234567,58.542592592592584,0)" xlink:href="#aP"/><use transform="matrix(0.06234567901234567,0,0,0.06234567901234567,71.01172839506171,0)" xlink:href="#aF"/><use transform="matrix(0.06234567901234567,0,0,0.06234567901234567,83.48086419753085,0)" xlink:href="#aI"/><use transform="matrix(0.06234567901234567,0,0,0.06234567901234567,90.89999999999998,0)" xlink:href="#al"/></g><g id="v"><use transform="matrix(0.06234567901234567,0,0,0.06234567901234567,0,0)" xlink:href="#Z"/><use transform="matrix(0.06234567901234567,0,0,0.06234567901234567,14.96296296296296,0)" xlink:href="#aa"/><use transform="matrix(0.06234567901234567,0,0,0.06234567901234567,26.18518518518518,0)" xlink:href="#P"/><use transform="matrix(0.06234567901234567,0,0,0.06234567901234567,32.419753086419746,0)" xlink:href="#aF"/><use transform="matrix(0.06234567901234567,0,0,0.06234567901234567,44.88888888888888,0)" xlink:href="#U"/><use transform="matrix(0.06234567901234567,0,0,0.06234567901234567,57.35802469135801,0)" xlink:href="#P"/><use transform="matrix(0.06234567901234567,0,0,0.06234567901234567,63.59259259259258,0)" xlink:href="#Q"/><use transform="matrix(0.06234567901234567,0,0,0.06234567901234567,68.51790123456789,0)" xlink:href="#O"/><use transform="matrix(0.06234567901234567,0,0,0.06234567901234567,80.98703703703703,0)" xlink:href="#ak"/><use transform="matrix(0.06234567901234567,0,0,0.06234567901234567,93.45617283950617,0)" xlink:href="#S"/><use transform="matrix(0.06234567901234567,0,0,0.06234567901234567,108.41913580246913,0)" xlink:href="#aI"/><use transform="matrix(0.06234567901234567,0,0,0.06234567901234567,115.83827160493826,0)" xlink:href="#as"/><use transform="matrix(0.06234567901234567,0,0,0.06234567901234567,128.3074074074074,0)" xlink:href="#aa"/><use transform="matrix(0.06234567901234567,0,0,0.06234567901234567,139.52962962962962,0)" xlink:href="#al"/><use transform="matrix(0.06234567901234567,0,0,0.06234567901234567,151.99876543209876,0)" xlink:href="#aP"/><use transform="matrix(0.06234567901234567,0,0,0.06234567901234567,164.4679012345679,0)" xlink:href="#aF"/><use transform="matrix(0.06234567901234567,0,0,0.06234567901234567,176.93703703703704,0)" xlink:href="#aI"/><use transform="matrix(0.06234567901234567,0,0,0.06234567901234567,184.35617283950617,0)" xlink:href="#al"/></g><g id="w"><use transform="matrix(0.06234567901234567,0,0,0.06234567901234567,0,0)" xlink:href="#aG"/><use transform="matrix(0.06234567901234567,0,0,0.06234567901234567,17.456790123456788,0)" xlink:href="#aH"/><use transform="matrix(0.06234567901234567,0,0,0.06234567901234567,29.92592592592592,0)" xlink:href="#ar"/><use transform="matrix(0.06234567901234567,0,0,0.06234567901234567,41.14814814814814,0)" xlink:href="#al"/><use transform="matrix(0.06234567901234567,0,0,0.06234567901234567,53.61728395061727,0)" xlink:href="#aI"/><use transform="matrix(0.06234567901234567,0,0,0.06234567901234567,61.036419753086406,0)" xlink:href="#ab"/><use transform="matrix(0.06234567901234567,0,0,0.06234567901234567,72.25864197530862,0)" xlink:href="#Q"/><use transform="matrix(0.06234567901234567,0,0,0.06234567901234567,77.18395061728393,0)" xlink:href="#O"/><use transform="matrix(0.06234567901234567,0,0,0.06234567901234567,89.65308641975307,0)" xlink:href="#ak"/><use transform="matrix(0.06234567901234567,0,0,0.06234567901234567,102.1222222222222,0)" xlink:href="#S"/><use transform="matrix(0.06234567901234567,0,0,0.06234567901234567,117.08518518518517,0)" xlink:href="#aI"/><use transform="matrix(0.06234567901234567,0,0,0.06234567901234567,124.5043209876543,0)" xlink:href="#as"/><use transform="matrix(0.06234567901234567,0,0,0.06234567901234567,136.97345679012344,0)" xlink:href="#aa"/><use transform="matrix(0.06234567901234567,0,0,0.06234567901234567,148.19567901234566,0)" xlink:href="#al"/><use transform="matrix(0.06234567901234567,0,0,0.06234567901234567,160.6648148148148,0)" xlink:href="#aP"/><use transform="matrix(0.06234567901234567,0,0,0.06234567901234567,173.13395061728394,0)" xlink:href="#aF"/><use transform="matrix(0.06234567901234567,0,0,0.06234567901234567,185.60308641975308,0)" xlink:href="#aI"/><use transform="matrix(0.06234567901234567,0,0,0.06234567901234567,193.0222222222222,0)" xlink:href="#al"/></g><g id="x"><use transform="matrix(0.06234567901234567,0,0,0.06234567901234567,0,0)" xlink:href="#aJ"/><use transform="matrix(0.06234567901234567,0,0,0.06234567901234567,14.96296296296296,0)" xlink:href="#U"/><use transform="matrix(0.06234567901234567,0,0,0.06234567901234567,27.432098765432094,0)" xlink:href="#aK"/><use transform="matrix(0.06234567901234567,0,0,0.06234567901234567,46.073456790123444,0)" xlink:href="#aL"/><use transform="matrix(0.06234567901234567,0,0,0.06234567901234567,58.54259259259258,0)" xlink:href="#T"/><use transform="matrix(0.06234567901234567,0,0,0.06234567901234567,63.46790123456788,0)" xlink:href="#Q"/><use transform="matrix(0.06234567901234567,0,0,0.06234567901234567,68.3932098765432,0)" xlink:href="#O"/><use transform="matrix(0.06234567901234567,0,0,0.06234567901234567,80.86234567901232,0)" xlink:href="#ak"/><use transform="matrix(0.06234567901234567,0,0,0.06234567901234567,93.33148148148146,0)" xlink:href="#S"/><use transform="matrix(0.06234567901234567,0,0,0.06234567901234567,108.29444444444442,0)" xlink:href="#aI"/><use transform="matrix(0.06234567901234567,0,0,0.06234567901234567,115.71358024691355,0)" xlink:href="#as"/><use transform="matrix(0.06234567901234567,0,0,0.06234567901234567,128.1827160493827,0)" xlink:href="#aa"/><use transform="matrix(0.06234567901234567,0,0,0.06234567901234567,139.40493827160492,0)" xlink:href="#al"/><use transform="matrix(0.06234567901234567,0,0,0.06234567901234567,151.87407407407406,0)" xlink:href="#aP"/><use transform="matrix(0.06234567901234567,0,0,0.06234567901234567,164.3432098765432,0)" xlink:href="#aF"/><use transform="matrix(0.06234567901234567,0,0,0.06234567901234567,176.81234567901234,0)" xlink:href="#aI"/><use transform="matrix(0.06234567901234567,0,0,0.06234567901234567,184.23148148148147,0)" xlink:href="#al"/></g><path fill="#282c33" d="M20-101c0-91 52-143 145-150 126-9 127 168 53 223-23 17-55 32-93 32C57 4 20-33 20-101zm216-33c5-57-18-91-73-90-77 1-110 51-110 125 0 49 23 75 73 75 72-1 104-45 110-110" id="aQ"/><path fill="#282c33" d="M14 0l48-248h34L48 0H14" id="aR"/><g id="y"><use transform="matrix(0.056172839506172814,0,0,0.056172839506172814,0,0)" xlink:href="#aq"/><use transform="matrix(0.056172839506172814,0,0,0.056172839506172814,11.234567901234563,0)" xlink:href="#ad"/><use transform="matrix(0.056172839506172814,0,0,0.056172839506172814,22.469135802469125,0)" xlink:href="#W"/><use transform="matrix(0.056172839506172814,0,0,0.056172839506172814,32.58024691358023,0)" xlink:href="#aE"/><use transform="matrix(0.056172839506172814,0,0,0.056172839506172814,44.882098765432076,0)" xlink:href="#X"/><use transform="matrix(0.056172839506172814,0,0,0.056172839506172814,56.11666666666664,0)" xlink:href="#ad"/><use transform="matrix(0.056172839506172814,0,0,0.056172839506172814,67.3512345679012,0)" xlink:href="#ac"/><use transform="matrix(0.056172839506172814,0,0,0.056172839506172814,72.96851851851848,0)" xlink:href="#V"/><use transform="matrix(0.056172839506172814,0,0,0.056172839506172814,84.20308641975305,0)" xlink:href="#ae"/><use transform="matrix(0.056172839506172814,0,0,0.056172839506172814,90.88765432098761,0)" xlink:href="#X"/><use transform="matrix(0.056172839506172814,0,0,0.056172839506172814,102.12222222222218,0)" xlink:href="#aQ"/><use transform="matrix(0.056172839506172814,0,0,0.056172839506172814,117.85061728395057,0)" xlink:href="#av"/><use transform="matrix(0.056172839506172814,0,0,0.056172839506172814,123.46790123456785,0)" xlink:href="#aR"/><use transform="matrix(0.056172839506172814,0,0,0.056172839506172814,129.08518518518514,0)" xlink:href="#aj"/><use transform="matrix(0.056172839506172814,0,0,0.056172839506172814,140.3197530864197,0)" xlink:href="#ac"/><use transform="matrix(0.056172839506172814,0,0,0.056172839506172814,145.937037037037,0)" xlink:href="#X"/><use transform="matrix(0.056172839506172814,0,0,0.056172839506172814,157.17160493827154,0)" xlink:href="#ae"/><use transform="matrix(0.056172839506172814,0,0,0.056172839506172814,163.85617283950612,0)" xlink:href="#X"/><use transform="matrix(0.056172839506172814,0,0,0.056172839506172814,175.09074074074067,0)" xlink:href="#W"/><use transform="matrix(0.056172839506172814,0,0,0.056172839506172814,185.20185185185179,0)" xlink:href="#ac"/></g><g id="z"><use transform="matrix(0.056172839506172814,0,0,0.056172839506172814,0,0)" xlink:href="#V"/><use transform="matrix(0.056172839506172814,0,0,0.056172839506172814,11.234567901234563,0)" xlink:href="#W"/><use transform="matrix(0.056172839506172814,0,0,0.056172839506172814,21.34567901234567,0)" xlink:href="#X"/><use transform="matrix(0.056172839506172814,0,0,0.056172839506172814,32.58024691358023,0)" xlink:href="#Y"/><use transform="matrix(0.056172839506172814,0,0,0.056172839506172814,43.814814814814795,0)" xlink:href="#aw"/><use transform="matrix(0.056172839506172814,0,0,0.056172839506172814,57.29629629629627,0)" xlink:href="#ae"/><use transform="matrix(0.056172839506172814,0,0,0.056172839506172814,63.980864197530835,0)" xlink:href="#an"/><use transform="matrix(0.056172839506172814,0,0,0.056172839506172814,75.2154320987654,0)" xlink:href="#ao"/><use transform="matrix(0.056172839506172814,0,0,0.056172839506172814,85.32654320987652,0)" xlink:href="#X"/><use transform="matrix(0.056172839506172814,0,0,0.056172839506172814,96.56111111111107,0)" xlink:href="#Y"/><use transform="matrix(0.056172839506172814,0,0,0.056172839506172814,107.79567901234563,0)" xlink:href="#V"/><use transform="matrix(0.056172839506172814,0,0,0.056172839506172814,119.0302469135802,0)" xlink:href="#ae"/><use transform="matrix(0.056172839506172814,0,0,0.056172839506172814,125.71481481481473,0)" xlink:href="#X"/></g><path fill="#282c33" d="M141 0L90-78 38 0H4l68-98-65-92h35l48 74 47-74h35l-64 92 68 98h-35" id="aS"/><g id="A"><use transform="matrix(0.06234567901234567,0,0,0.06234567901234567,0,0)" xlink:href="#N"/><use transform="matrix(0.06234567901234567,0,0,0.06234567901234567,14.96296296296296,0)" xlink:href="#aS"/><use transform="matrix(0.06234567901234567,0,0,0.06234567901234567,26.18518518518518,0)" xlink:href="#al"/><use transform="matrix(0.06234567901234567,0,0,0.06234567901234567,38.654320987654316,0)" xlink:href="#aa"/><use transform="matrix(0.06234567901234567,0,0,0.06234567901234567,49.87654320987654,0)" xlink:href="#aF"/><use transform="matrix(0.06234567901234567,0,0,0.06234567901234567,62.34567901234567,0)" xlink:href="#P"/><use transform="matrix(0.06234567901234567,0,0,0.06234567901234567,68.58024691358024,0)" xlink:href="#Q"/><use transform="matrix(0.06234567901234567,0,0,0.06234567901234567,73.50555555555555,0)" xlink:href="#as"/><use transform="matrix(0.06234567901234567,0,0,0.06234567901234567,85.97469135802467,0)" xlink:href="#O"/></g><g id="B"><use transform="matrix(0.056172839506172814,0,0,0.056172839506172814,0,0)" xlink:href="#W"/><use transform="matrix(0.056172839506172814,0,0,0.056172839506172814,10.111111111111107,0)" xlink:href="#ac"/><use transform="matrix(0.056172839506172814,0,0,0.056172839506172814,15.728395061728389,0)" xlink:href="#ad"/><use transform="matrix(0.056172839506172814,0,0,0.056172839506172814,26.96296296296295,0)" xlink:href="#ae"/><use transform="matrix(0.056172839506172814,0,0,0.056172839506172814,33.64753086419751,0)" xlink:href="#ac"/><use transform="matrix(0.056172839506172814,0,0,0.056172839506172814,39.2648148148148,0)" xlink:href="#ag"/><use transform="matrix(0.056172839506172814,0,0,0.056172839506172814,51.398148148148124,0)" xlink:href="#ah"/><use transform="matrix(0.056172839506172814,0,0,0.056172839506172814,55.83580246913578,0)" xlink:href="#ai"/><use transform="matrix(0.056172839506172814,0,0,0.056172839506172814,72.63148148148144,0)" xlink:href="#X"/></g><g id="C"><use transform="matrix(0.056172839506172814,0,0,0.056172839506172814,0,0)" xlink:href="#ae"/><use transform="matrix(0.056172839506172814,0,0,0.056172839506172814,6.684567901234565,0)" xlink:href="#X"/><use transform="matrix(0.056172839506172814,0,0,0.056172839506172814,17.91913580246913,0)" xlink:href="#W"/><use transform="matrix(0.056172839506172814,0,0,0.056172839506172814,28.030246913580235,0)" xlink:href="#V"/><use transform="matrix(0.056172839506172814,0,0,0.056172839506172814,39.2648148148148,0)" xlink:href="#au"/><use transform="matrix(0.056172839506172814,0,0,0.056172839506172814,43.70246913580245,0)" xlink:href="#ac"/><use transform="matrix(0.056172839506172814,0,0,0.056172839506172814,49.31975308641974,0)" xlink:href="#ag"/><use transform="matrix(0.056172839506172814,0,0,0.056172839506172814,61.453086419753056,0)" xlink:href="#ah"/><use transform="matrix(0.056172839506172814,0,0,0.056172839506172814,65.89074074074071,0)" xlink:href="#ai"/><use transform="matrix(0.056172839506172814,0,0,0.056172839506172814,82.68641975308638,0)" xlink:href="#X"/></g><g id="D"><use transform="matrix(0.06234567901234567,0,0,0.06234567901234567,0,0)" xlink:href="#aJ"/><use transform="matrix(0.06234567901234567,0,0,0.06234567901234567,14.96296296296296,0)" xlink:href="#R"/><use transform="matrix(0.06234567901234567,0,0,0.06234567901234567,26.18518518518518,0)" xlink:href="#ar"/><use transform="matrix(0.06234567901234567,0,0,0.06234567901234567,37.4074074074074,0)" xlink:href="#P"/><use transform="matrix(0.06234567901234567,0,0,0.06234567901234567,43.64197530864196,0)" xlink:href="#al"/><use transform="matrix(0.06234567901234567,0,0,0.06234567901234567,56.11111111111109,0)" xlink:href="#aK"/></g><g id="E"><use transform="matrix(0.06234567901234567,0,0,0.06234567901234567,0,0)" xlink:href="#Z"/><use transform="matrix(0.06234567901234567,0,0,0.06234567901234567,14.96296296296296,0)" xlink:href="#aa"/><use transform="matrix(0.06234567901234567,0,0,0.06234567901234567,26.18518518518518,0)" xlink:href="#P"/><use transform="matrix(0.06234567901234567,0,0,0.06234567901234567,32.419753086419746,0)" xlink:href="#aF"/><use transform="matrix(0.06234567901234567,0,0,0.06234567901234567,44.88888888888888,0)" xlink:href="#U"/><use transform="matrix(0.06234567901234567,0,0,0.06234567901234567,57.35802469135801,0)" xlink:href="#P"/><use transform="matrix(0.06234567901234567,0,0,0.06234567901234567,63.59259259259258,0)" xlink:href="#as"/><use transform="matrix(0.06234567901234567,0,0,0.06234567901234567,76.06172839506172,0)" xlink:href="#aI"/></g><g id="F"><use transform="matrix(0.06234567901234567,0,0,0.06234567901234567,0,0)" xlink:href="#aJ"/><use transform="matrix(0.06234567901234567,0,0,0.06234567901234567,14.96296296296296,0)" xlink:href="#al"/><use transform="matrix(0.06234567901234567,0,0,0.06234567901234567,27.432098765432094,0)" xlink:href="#O"/><use transform="matrix(0.06234567901234567,0,0,0.06234567901234567,39.90123456790123,0)" xlink:href="#ar"/><use transform="matrix(0.06234567901234567,0,0,0.06234567901234567,51.12345679012345,0)" xlink:href="#as"/><use transform="matrix(0.06234567901234567,0,0,0.06234567901234567,63.59259259259258,0)" xlink:href="#aI"/></g><g id="G"><use transform="matrix(0.06234567901234567,0,0,0.06234567901234567,0,0)" xlink:href="#aJ"/><use transform="matrix(0.06234567901234567,0,0,0.06234567901234567,14.96296296296296,0)" xlink:href="#U"/><use transform="matrix(0.06234567901234567,0,0,0.06234567901234567,27.432098765432094,0)" xlink:href="#aK"/><use transform="matrix(0.06234567901234567,0,0,0.06234567901234567,46.073456790123444,0)" xlink:href="#aL"/><use transform="matrix(0.06234567901234567,0,0,0.06234567901234567,58.54259259259258,0)" xlink:href="#T"/><use transform="matrix(0.06234567901234567,0,0,0.06234567901234567,63.46790123456788,0)" xlink:href="#al"/><use transform="matrix(0.06234567901234567,0,0,0.06234567901234567,75.93703703703702,0)" xlink:href="#aI"/></g><path fill="#282c33" d="M176 0l-54-107L30 0H-7l115-131-60-117h35l48 97 83-97h37L146-129 211 0h-35" id="aT"/><g id="H"><use transform="matrix(0.056172839506172814,0,0,0.056172839506172814,0,0)" xlink:href="#ai"/><use transform="matrix(0.056172839506172814,0,0,0.056172839506172814,16.795679012345673,0)" xlink:href="#ad"/><use transform="matrix(0.056172839506172814,0,0,0.056172839506172814,28.030246913580235,0)" xlink:href="#Y"/><use transform="matrix(0.056172839506172814,0,0,0.056172839506172814,39.2648148148148,0)" xlink:href="#X"/><use transform="matrix(0.056172839506172814,0,0,0.056172839506172814,50.49938271604936,0)" xlink:href="#az"/><use transform="matrix(0.056172839506172814,0,0,0.056172839506172814,63.980864197530835,0)" xlink:href="#aA"/><use transform="matrix(0.056172839506172814,0,0,0.056172839506172814,74.09197530864193,0)" xlink:href="#aT"/></g><path fill="#282c33" d="M249-183c0 48-29 72-75 77L221 0h-36l-43-103H65L45 0H11l48-248c83 2 190-17 190 65zm-34 3c0-55-74-39-127-41l-18 92c63-1 145 13 145-51" id="aU"/><g id="I"><use transform="matrix(0.06234567901234567,0,0,0.06234567901234567,0,0)" xlink:href="#aU"/><use transform="matrix(0.06234567901234567,0,0,0.06234567901234567,16.147530864197527,0)" xlink:href="#X"/><use transform="matrix(0.06234567901234567,0,0,0.06234567901234567,28.61666666666666,0)" xlink:href="#W"/><use transform="matrix(0.06234567901234567,0,0,0.06234567901234567,39.83888888888888,0)" xlink:href="#V"/><use transform="matrix(0.06234567901234567,0,0,0.06234567901234567,52.308024691358014,0)" xlink:href="#au"/><use transform="matrix(0.06234567901234567,0,0,0.06234567901234567,57.23333333333332,0)" xlink:href="#ac"/></g><g id="J"><use transform="matrix(0.056172839506172814,0,0,0.056172839506172814,0,0)" xlink:href="#aq"/><use transform="matrix(0.056172839506172814,0,0,0.056172839506172814,11.234567901234563,0)" xlink:href="#ad"/><use transform="matrix(0.056172839506172814,0,0,0.056172839506172814,22.469135802469125,0)" xlink:href="#W"/><use transform="matrix(0.056172839506172814,0,0,0.056172839506172814,32.58024691358023,0)" xlink:href="#aU"/><use transform="matrix(0.056172839506172814,0,0,0.056172839506172814,47.12901234567899,0)" xlink:href="#X"/><use transform="matrix(0.056172839506172814,0,0,0.056172839506172814,58.36358024691356,0)" xlink:href="#W"/><use transform="matrix(0.056172839506172814,0,0,0.056172839506172814,68.47469135802466,0)" xlink:href="#V"/><use transform="matrix(0.056172839506172814,0,0,0.056172839506172814,79.70925925925923,0)" xlink:href="#au"/><use transform="matrix(0.056172839506172814,0,0,0.056172839506172814,84.14691358024687,0)" xlink:href="#ac"/></g><g id="K"><use transform="matrix(0.056172839506172814,0,0,0.056172839506172814,0,0)" xlink:href="#ah"/><use transform="matrix(0.056172839506172814,0,0,0.056172839506172814,4.437654320987653,0)" xlink:href="#W"/><use transform="matrix(0.056172839506172814,0,0,0.056172839506172814,14.548765432098758,0)" xlink:href="#aU"/><use transform="matrix(0.056172839506172814,0,0,0.056172839506172814,29.097530864197516,0)" xlink:href="#X"/><use transform="matrix(0.056172839506172814,0,0,0.056172839506172814,40.33209876543208,0)" xlink:href="#W"/><use transform="matrix(0.056172839506172814,0,0,0.056172839506172814,50.443209876543186,0)" xlink:href="#V"/><use transform="matrix(0.056172839506172814,0,0,0.056172839506172814,61.67777777777775,0)" xlink:href="#au"/><use transform="matrix(0.056172839506172814,0,0,0.056172839506172814,66.1154320987654,0)" xlink:href="#ac"/><use transform="matrix(0.056172839506172814,0,0,0.056172839506172814,71.73271604938267,0)" xlink:href="#aQ"/><use transform="matrix(0.056172839506172814,0,0,0.056172839506172814,87.46111111111107,0)" xlink:href="#av"/></g><g id="L"><use transform="matrix(0.06234567901234567,0,0,0.06234567901234567,0,0)" xlink:href="#aJ"/><use transform="matrix(0.06234567901234567,0,0,0.06234567901234567,14.96296296296296,0)" xlink:href="#U"/><use transform="matrix(0.06234567901234567,0,0,0.06234567901234567,27.432098765432094,0)" xlink:href="#aK"/><use transform="matrix(0.06234567901234567,0,0,0.06234567901234567,46.073456790123444,0)" xlink:href="#aL"/><use transform="matrix(0.06234567901234567,0,0,0.06234567901234567,58.54259259259258,0)" xlink:href="#T"/><use transform="matrix(0.06234567901234567,0,0,0.06234567901234567,63.46790123456788,0)" xlink:href="#al"/></g><path fill="#282c33" d="M194-120c59 52 2 134-86 124-53-6-90-18-98-63l31-7c8 30 29 43 70 43 46 0 84-17 71-62-32-43-135-20-137-98-3-89 178-90 191-16l-30 9c-8-48-127-53-127 5 0 53 81 35 115 65" id="aV"/><path fill="#282c33" d="M67-162c32-53 139-36 121 50C175-51 163 2 97 4 68 4 52-11 42-31 38 6 28 39 22 75H-9l50-265h29c-1 10 0 20-3 28zm89 36c0-26-10-43-35-43-54 0-67 50-69 103-1 29 14 45 42 46 53 0 62-58 62-106" id="aW"/><g id="M"><use transform="matrix(0.056172839506172814,0,0,0.056172839506172814,0,0)" xlink:href="#ah"/><use transform="matrix(0.056172839506172814,0,0,0.056172839506172814,4.437654320987653,0)" xlink:href="#W"/><use transform="matrix(0.056172839506172814,0,0,0.056172839506172814,14.548765432098758,0)" xlink:href="#aV"/><use transform="matrix(0.056172839506172814,0,0,0.056172839506172814,28.030246913580235,0)" xlink:href="#ad"/><use transform="matrix(0.056172839506172814,0,0,0.056172839506172814,39.2648148148148,0)" xlink:href="#ai"/><use transform="matrix(0.056172839506172814,0,0,0.056172839506172814,56.06049382716047,0)" xlink:href="#aW"/><use transform="matrix(0.056172839506172814,0,0,0.056172839506172814,67.29506172839504,0)" xlink:href="#au"/><use transform="matrix(0.056172839506172814,0,0,0.056172839506172814,71.73271604938269,0)" xlink:href="#X"/><use transform="matrix(0.056172839506172814,0,0,0.056172839506172814,82.96728395061726,0)" xlink:href="#aQ"/><use transform="matrix(0.056172839506172814,0,0,0.056172839506172814,98.69567901234565,0)" xlink:href="#av"/></g></defs></g></svg>