<svg xmlns="http://www.w3.org/2000/svg" xmlns:xlink="http://www.w3.org/1999/xlink" xmlns:lucid="lucid" width="838" height="355"><g transform="translate(-502.00185185185194 -338.5)" lucid:page-tab-id="HWEp-vi-RSFO"><path d="M500 0h1000v1000H500z" fill="#fff"/><path d="M1028.5 544.5h180v60h-180z" fill="none"/><use xlink:href="#a" transform="matrix(1,0,0,1,1028.5,544.5) translate(-4.791666666666615 34.044444444444444)"/><path d="M740 360h160v63H740z" stroke="#282c33" stroke-width="3" fill="#fff"/><use xlink:href="#b" transform="matrix(1,0,0,1,748.0000000000001,368) translate(34.03148148148149 27.988888888888887)"/><path d="M1088.5 604.5h230v63h-230z" stroke="#282c33" stroke-width="3" fill="#fff"/><use xlink:href="#c" transform="matrix(1,0,0,1,1096.5,612.5) translate(11.798148148148172 27.988888888888887)"/><path d="M710 600h220v72H710z" stroke="#282c33" stroke-width="3" fill="#fff"/><use xlink:href="#d" transform="matrix(1,0,0,1,718,608) translate(2.433950617283955 32.48888888888889)"/><path d="M860 597V427.23" stroke="#333" stroke-width="3" fill="none"/><path d="M861.48 598.5h-2.96v-1.54h2.96z" stroke="#333" stroke-width=".05" fill="#333"/><path d="M870.18 444.66L860 427.46l-10.18 17.2M1084.27 636H933M1066.84 646.18l17.2-10.18-17.2-10.18" stroke="#333" stroke-width="3" fill="none"/><path d="M933.04 637.48h-1.54v-2.96h1.54z" stroke="#333" stroke-width=".05" fill="#333"/><path d="M768 595.77V426M757.82 578.34l10.18 17.2 10.18-17.2" stroke="#333" stroke-width="3" fill="none"/><path d="M769.48 426.04h-2.96v-1.54h2.96z" stroke="#333" stroke-width=".05" fill="#333"/><path d="M540 520h180v60H540z" fill="none"/><use xlink:href="#e" transform="matrix(1,0,0,1,540,520) translate(-15.998148148148104 34.044444444444444)"/><path d="M860 440h180v60H860z" fill="none"/><use xlink:href="#f" transform="matrix(1,0,0,1,860.0000000000001,440) translate(24.95185185185187 34.044444444444444)"/><defs><path fill="#282c33" d="M67-158c22-48 132-52 116 29L158 0h-32l25-140c3-38-53-32-70-12C52-117 51-52 38 0H6l36-190h30" id="g"/><path fill="#282c33" d="M165-48c-4 18 1 34 23 27l-3 20c-29 8-62 0-52-35h-2C116-14 99 4 63 4 30 4 8-16 8-49c0-68 71-67 138-67 10-26 0-56-31-54-26 1-42 9-47 31l-32-5c8-67 160-71 144 15-5 28-9 54-15 81zM42-50c3 52 80 24 89-6 7-12 7-24 11-38-47 1-103-4-100 44" id="h"/><path fill="#282c33" d="M51-54c-9 22 5 41 31 30L79-1C43 14 10-4 19-52l22-115H19l5-23h22l19-43h21l-9 43h35l-4 23H73" id="i"/><path fill="#282c33" d="M67 3c-93-2-31-127-26-193h32L48-50c-3 39 53 32 70 12 30-34 30-101 43-152h32L157 0h-30c1-10 6-24 4-33-14 20-29 37-64 36" id="j"/><path fill="#282c33" d="M66-151c12-25 30-51 66-40l-6 26C45-176 58-65 38 0H6l36-190h30" id="k"/><path fill="#282c33" d="M111-194c62-3 86 47 72 106H45c-7 38 6 69 45 68 27-1 43-14 53-32l24 11C152-15 129 4 87 4 38 3 12-23 12-71c0-70 32-119 99-123zm44 81c14-66-71-72-95-28-4 8-8 17-11 28h106" id="l"/><path fill="#282c33" d="M20-101c0-91 52-143 145-150 126-9 127 168 53 223-23 17-55 32-93 32C57 4 20-33 20-101zm216-33c5-57-18-91-73-90-77 1-110 51-110 125 0 49 23 75 73 75 72-1 104-45 110-110" id="m"/><path fill="#282c33" d="M76-167L44 0H12l33-167H18l4-23h27c3-47 25-81 82-69l-4 24c-35-8-44 15-46 45h37l-5 23H76" id="n"/><path fill="#282c33" d="M249-183c0 48-29 72-75 77L221 0h-36l-43-103H65L45 0H11l48-248c83 2 190-17 190 65zm-34 3c0-55-74-39-127-41l-18 92c63-1 145 13 145-51" id="o"/><path fill="#282c33" d="M6 0l50-261h32L37 0H6" id="p"/><path fill="#282c33" d="M50-231l6-30h32l-6 30H50zM6 0l37-190h31L37 0H6" id="q"/><path fill="#282c33" d="M30-147c31-64 166-65 159 27C183-49 158 1 86 4 9 8 1-88 30-147zM88-20c53 0 68-48 68-100 0-31-11-51-44-50-52 1-68 46-68 97 0 32 13 53 44 53" id="r"/><path fill="#282c33" d="M55-144c13 50 104 24 104 88C159 21 15 23 1-39l26-10c6 40 102 42 102-4-13-50-104-23-104-87 0-71 143-71 148-8l-29 4c-5-35-85-37-89 0" id="s"/><path fill="#282c33" d="M67-158c15-20 31-36 64-36 94 0 33 127 27 194h-32l25-140c3-38-53-32-70-12C52-117 51-51 37 0H6l51-261h31" id="t"/><path fill="#282c33" d="M67-162c32-53 139-36 121 50C175-51 163 2 97 4 68 4 52-11 42-31 38 6 28 39 22 75H-9l50-265h29c-1 10 0 20-3 28zm89 36c0-26-10-43-35-43-54 0-67 50-69 103-1 29 14 45 42 46 53 0 62-58 62-106" id="u"/><g id="a"><use transform="matrix(0.056172839506172814,0,0,0.056172839506172814,0,0)" xlink:href="#g"/><use transform="matrix(0.056172839506172814,0,0,0.056172839506172814,11.234567901234563,0)" xlink:href="#h"/><use transform="matrix(0.056172839506172814,0,0,0.056172839506172814,22.469135802469125,0)" xlink:href="#i"/><use transform="matrix(0.056172839506172814,0,0,0.056172839506172814,28.086419753086407,0)" xlink:href="#j"/><use transform="matrix(0.056172839506172814,0,0,0.056172839506172814,39.32098765432097,0)" xlink:href="#k"/><use transform="matrix(0.056172839506172814,0,0,0.056172839506172814,46.00555555555554,0)" xlink:href="#l"/><use transform="matrix(0.056172839506172814,0,0,0.056172839506172814,57.2401234567901,0)" xlink:href="#m"/><use transform="matrix(0.056172839506172814,0,0,0.056172839506172814,72.9685185185185,0)" xlink:href="#n"/><use transform="matrix(0.056172839506172814,0,0,0.056172839506172814,78.58580246913577,0)" xlink:href="#o"/><use transform="matrix(0.056172839506172814,0,0,0.056172839506172814,93.13456790123453,0)" xlink:href="#l"/><use transform="matrix(0.056172839506172814,0,0,0.056172839506172814,104.36913580246909,0)" xlink:href="#p"/><use transform="matrix(0.056172839506172814,0,0,0.056172839506172814,108.80679012345674,0)" xlink:href="#h"/><use transform="matrix(0.056172839506172814,0,0,0.056172839506172814,120.0413580246913,0)" xlink:href="#i"/><use transform="matrix(0.056172839506172814,0,0,0.056172839506172814,125.65864197530858,0)" xlink:href="#q"/><use transform="matrix(0.056172839506172814,0,0,0.056172839506172814,130.09629629629623,0)" xlink:href="#r"/><use transform="matrix(0.056172839506172814,0,0,0.056172839506172814,141.3308641975308,0)" xlink:href="#g"/><use transform="matrix(0.056172839506172814,0,0,0.056172839506172814,152.56543209876534,0)" xlink:href="#s"/><use transform="matrix(0.056172839506172814,0,0,0.056172839506172814,162.67654320987646,0)" xlink:href="#t"/><use transform="matrix(0.056172839506172814,0,0,0.056172839506172814,173.911111111111,0)" xlink:href="#q"/><use transform="matrix(0.056172839506172814,0,0,0.056172839506172814,178.34876543209867,0)" xlink:href="#u"/></g><path fill="#282c33" d="M185-189c-5-48-123-54-124 2 14 75 158 14 163 119 3 78-121 87-175 55-17-10-28-26-33-46l33-7c5 56 141 63 141-1 0-78-155-14-162-118-5-82 145-84 179-34 5 7 8 16 11 25" id="v"/><path fill="#282c33" d="M141-36C126-15 110 5 73 4 37 3 15-17 15-53c-1-64 63-63 125-63 3-35-9-54-41-54-24 1-41 7-42 31l-33-3c5-37 33-52 76-52 45 0 72 20 72 64v82c-1 20 7 32 28 27v20c-31 9-61-2-59-35zM48-53c0 20 12 33 32 33 41-3 63-29 60-74-43 2-92-5-92 41" id="w"/><path fill="#282c33" d="M210-169c-67 3-38 105-44 169h-31v-121c0-29-5-50-35-48C34-165 62-65 56 0H25l-1-190h30c1 10-1 24 2 32 10-44 99-50 107 0 11-21 27-35 58-36 85-2 47 119 55 194h-31v-121c0-29-5-49-35-48" id="x"/><path fill="#282c33" d="M115-194c55 1 70 41 70 98S169 2 115 4C84 4 66-9 55-30l1 105H24l-1-265h31l2 30c10-21 28-34 59-34zm-8 174c40 0 45-34 45-75s-6-73-45-74c-42 0-51 32-51 76 0 43 10 73 51 73" id="y"/><path fill="#282c33" d="M24 0v-261h32V0H24" id="z"/><path fill="#282c33" d="M100-194c63 0 86 42 84 106H49c0 40 14 67 53 68 26 1 43-12 49-29l28 8c-11 28-37 45-77 45C44 4 14-33 15-96c1-61 26-98 85-98zm52 81c6-60-76-77-97-28-3 7-6 17-6 28h103" id="A"/><g id="b"><use transform="matrix(0.06234567901234567,0,0,0.06234567901234567,0,0)" xlink:href="#v"/><use transform="matrix(0.06234567901234567,0,0,0.06234567901234567,14.96296296296296,0)" xlink:href="#w"/><use transform="matrix(0.06234567901234567,0,0,0.06234567901234567,27.432098765432094,0)" xlink:href="#x"/><use transform="matrix(0.06234567901234567,0,0,0.06234567901234567,46.073456790123444,0)" xlink:href="#y"/><use transform="matrix(0.06234567901234567,0,0,0.06234567901234567,58.54259259259258,0)" xlink:href="#z"/><use transform="matrix(0.06234567901234567,0,0,0.06234567901234567,63.46790123456788,0)" xlink:href="#A"/></g><path fill="#282c33" d="M233-177c-1 41-23 64-60 70L243 0h-38l-65-103H63V0H30v-248c88 3 205-21 203 71zM63-129c60-2 137 13 137-47 0-61-80-42-137-45v92" id="B"/><path fill="#282c33" d="M59-47c-2 24 18 29 38 22v24C64 9 27 4 27-40v-127H5v-23h24l9-43h21v43h35v23H59v120" id="C"/><path fill="#282c33" d="M24-231v-30h32v30H24zM24 0v-190h32V0H24" id="D"/><path fill="#282c33" d="M100-194c62-1 85 37 85 99 1 63-27 99-86 99S16-35 15-95c0-66 28-99 85-99zM99-20c44 1 53-31 53-75 0-43-8-75-51-75s-53 32-53 75 10 74 51 75" id="E"/><path fill="#282c33" d="M117-194c89-4 53 116 60 194h-32v-121c0-31-8-49-39-48C34-167 62-67 57 0H25l-1-190h30c1 10-1 24 2 32 11-22 29-35 61-36" id="F"/><path fill="#282c33" d="M135-143c-3-34-86-38-87 0 15 53 115 12 119 90S17 21 10-45l28-5c4 36 97 45 98 0-10-56-113-15-118-90-4-57 82-63 122-42 12 7 21 19 24 35" id="G"/><path fill="#282c33" d="M106-169C34-169 62-67 57 0H25v-261h32l-1 103c12-21 28-36 61-36 89 0 53 116 60 194h-32v-121c2-32-8-49-39-48" id="H"/><path fill="#282c33" d="M190 0L58-211 59 0H30v-248h39L202-35l-2-213h31V0h-41" id="I"/><path fill="#282c33" d="M84 4C-5 8 30-112 23-190h32v120c0 31 7 50 39 49 72-2 45-101 50-169h31l1 190h-30c-1-10 1-25-2-33-11 22-28 36-60 37" id="J"/><path fill="#282c33" d="M114-163C36-179 61-72 57 0H25l-1-190h30c1 12-1 29 2 39 6-27 23-49 58-41v29" id="K"/><g id="c"><use transform="matrix(0.06234567901234567,0,0,0.06234567901234567,0,0)" xlink:href="#B"/><use transform="matrix(0.06234567901234567,0,0,0.06234567901234567,16.147530864197527,0)" xlink:href="#A"/><use transform="matrix(0.06234567901234567,0,0,0.06234567901234567,28.61666666666666,0)" xlink:href="#z"/><use transform="matrix(0.06234567901234567,0,0,0.06234567901234567,33.541975308641966,0)" xlink:href="#w"/><use transform="matrix(0.06234567901234567,0,0,0.06234567901234567,46.0111111111111,0)" xlink:href="#C"/><use transform="matrix(0.06234567901234567,0,0,0.06234567901234567,52.24567901234566,0)" xlink:href="#D"/><use transform="matrix(0.06234567901234567,0,0,0.06234567901234567,57.17098765432097,0)" xlink:href="#E"/><use transform="matrix(0.06234567901234567,0,0,0.06234567901234567,69.64012345679009,0)" xlink:href="#F"/><use transform="matrix(0.06234567901234567,0,0,0.06234567901234567,82.10925925925923,0)" xlink:href="#G"/><use transform="matrix(0.06234567901234567,0,0,0.06234567901234567,93.33148148148145,0)" xlink:href="#H"/><use transform="matrix(0.06234567901234567,0,0,0.06234567901234567,105.80061728395057,0)" xlink:href="#D"/><use transform="matrix(0.06234567901234567,0,0,0.06234567901234567,110.72592592592588,0)" xlink:href="#y"/><use transform="matrix(0.06234567901234567,0,0,0.06234567901234567,123.19506172839502,0)" xlink:href="#I"/><use transform="matrix(0.06234567901234567,0,0,0.06234567901234567,139.34259259259255,0)" xlink:href="#w"/><use transform="matrix(0.06234567901234567,0,0,0.06234567901234567,151.8117283950617,0)" xlink:href="#C"/><use transform="matrix(0.06234567901234567,0,0,0.06234567901234567,158.04629629629625,0)" xlink:href="#J"/><use transform="matrix(0.06234567901234567,0,0,0.06234567901234567,170.5154320987654,0)" xlink:href="#K"/><use transform="matrix(0.06234567901234567,0,0,0.06234567901234567,177.93456790123452,0)" xlink:href="#A"/></g><g id="d"><use transform="matrix(0.06234567901234567,0,0,0.06234567901234567,0,0)" xlink:href="#v"/><use transform="matrix(0.06234567901234567,0,0,0.06234567901234567,14.96296296296296,0)" xlink:href="#w"/><use transform="matrix(0.06234567901234567,0,0,0.06234567901234567,27.432098765432094,0)" xlink:href="#x"/><use transform="matrix(0.06234567901234567,0,0,0.06234567901234567,46.073456790123444,0)" xlink:href="#y"/><use transform="matrix(0.06234567901234567,0,0,0.06234567901234567,58.54259259259258,0)" xlink:href="#z"/><use transform="matrix(0.06234567901234567,0,0,0.06234567901234567,63.46790123456788,0)" xlink:href="#A"/><use transform="matrix(0.06234567901234567,0,0,0.06234567901234567,75.93703703703702,0)" xlink:href="#B"/><use transform="matrix(0.06234567901234567,0,0,0.06234567901234567,92.08456790123455,0)" xlink:href="#A"/><use transform="matrix(0.06234567901234567,0,0,0.06234567901234567,104.55370370370369,0)" xlink:href="#z"/><use transform="matrix(0.06234567901234567,0,0,0.06234567901234567,109.479012345679,0)" xlink:href="#w"/><use transform="matrix(0.06234567901234567,0,0,0.06234567901234567,121.94814814814814,0)" xlink:href="#C"/><use transform="matrix(0.06234567901234567,0,0,0.06234567901234567,128.1827160493827,0)" xlink:href="#D"/><use transform="matrix(0.06234567901234567,0,0,0.06234567901234567,133.108024691358,0)" xlink:href="#E"/><use transform="matrix(0.06234567901234567,0,0,0.06234567901234567,145.57716049382714,0)" xlink:href="#F"/><use transform="matrix(0.06234567901234567,0,0,0.06234567901234567,158.04629629629628,0)" xlink:href="#G"/><use transform="matrix(0.06234567901234567,0,0,0.06234567901234567,169.2685185185185,0)" xlink:href="#H"/><use transform="matrix(0.06234567901234567,0,0,0.06234567901234567,181.73765432098764,0)" xlink:href="#D"/><use transform="matrix(0.06234567901234567,0,0,0.06234567901234567,186.66296296296295,0)" xlink:href="#y"/></g><path fill="#282c33" d="M194-120c59 52 2 134-86 124-53-6-90-18-98-63l31-7c8 30 29 43 70 43 46 0 84-17 71-62-32-43-135-20-137-98-3-89 178-90 191-16l-30 9c-8-48-127-53-127 5 0 53 81 35 115 65" id="L"/><path fill="#282c33" d="M248-111c6-24 9-61-24-58-72 9-57 108-77 169h-31l26-142c3-37-50-30-64-10C52-115 50-51 37 0H6l36-190h30c-1 10-6 24-4 32 13-43 101-52 105 5 13-22 29-41 61-41 90 0 28 129 23 194h-31" id="M"/><g id="e"><use transform="matrix(0.056172839506172814,0,0,0.056172839506172814,0,0)" xlink:href="#t"/><use transform="matrix(0.056172839506172814,0,0,0.056172839506172814,11.234567901234563,0)" xlink:href="#h"/><use transform="matrix(0.056172839506172814,0,0,0.056172839506172814,22.469135802469125,0)" xlink:href="#s"/><use transform="matrix(0.056172839506172814,0,0,0.056172839506172814,32.58024691358023,0)" xlink:href="#L"/><use transform="matrix(0.056172839506172814,0,0,0.056172839506172814,46.06172839506171,0)" xlink:href="#h"/><use transform="matrix(0.056172839506172814,0,0,0.056172839506172814,57.29629629629627,0)" xlink:href="#M"/><use transform="matrix(0.056172839506172814,0,0,0.056172839506172814,74.09197530864193,0)" xlink:href="#u"/><use transform="matrix(0.056172839506172814,0,0,0.056172839506172814,85.32654320987649,0)" xlink:href="#p"/><use transform="matrix(0.056172839506172814,0,0,0.056172839506172814,89.76419753086414,0)" xlink:href="#l"/><use transform="matrix(0.056172839506172814,0,0,0.056172839506172814,100.99876543209871,0)" xlink:href="#o"/><use transform="matrix(0.056172839506172814,0,0,0.056172839506172814,115.54753086419748,0)" xlink:href="#l"/><use transform="matrix(0.056172839506172814,0,0,0.056172839506172814,126.78209876543204,0)" xlink:href="#p"/><use transform="matrix(0.056172839506172814,0,0,0.056172839506172814,131.2197530864197,0)" xlink:href="#h"/><use transform="matrix(0.056172839506172814,0,0,0.056172839506172814,142.45432098765426,0)" xlink:href="#i"/><use transform="matrix(0.056172839506172814,0,0,0.056172839506172814,148.07160493827155,0)" xlink:href="#q"/><use transform="matrix(0.056172839506172814,0,0,0.056172839506172814,152.5092592592592,0)" xlink:href="#r"/><use transform="matrix(0.056172839506172814,0,0,0.056172839506172814,163.74382716049377,0)" xlink:href="#g"/><use transform="matrix(0.056172839506172814,0,0,0.056172839506172814,174.97839506172832,0)" xlink:href="#s"/><use transform="matrix(0.056172839506172814,0,0,0.056172839506172814,185.08950617283944,0)" xlink:href="#t"/><use transform="matrix(0.056172839506172814,0,0,0.056172839506172814,196.324074074074,0)" xlink:href="#q"/><use transform="matrix(0.056172839506172814,0,0,0.056172839506172814,200.76172839506165,0)" xlink:href="#u"/></g><path fill="#282c33" d="M133-28C103 26-5 8 13-77c13-62 24-115 90-117 29-1 46 15 56 35l19-102h32L160 0h-30zM45-64c-2 27 10 43 35 43 54-1 69-50 69-103 0-29-15-46-42-46-53-1-58 58-62 106" id="N"/><g id="f"><use transform="matrix(0.056172839506172814,0,0,0.056172839506172814,0,0)" xlink:href="#k"/><use transform="matrix(0.056172839506172814,0,0,0.056172839506172814,6.684567901234565,0)" xlink:href="#l"/><use transform="matrix(0.056172839506172814,0,0,0.056172839506172814,17.91913580246913,0)" xlink:href="#p"/><use transform="matrix(0.056172839506172814,0,0,0.056172839506172814,22.356790123456783,0)" xlink:href="#h"/><use transform="matrix(0.056172839506172814,0,0,0.056172839506172814,33.591358024691345,0)" xlink:href="#i"/><use transform="matrix(0.056172839506172814,0,0,0.056172839506172814,39.20864197530862,0)" xlink:href="#l"/><use transform="matrix(0.056172839506172814,0,0,0.056172839506172814,50.443209876543186,0)" xlink:href="#N"/><use transform="matrix(0.056172839506172814,0,0,0.056172839506172814,61.67777777777775,0)" xlink:href="#L"/><use transform="matrix(0.056172839506172814,0,0,0.056172839506172814,75.15925925925923,0)" xlink:href="#h"/><use transform="matrix(0.056172839506172814,0,0,0.056172839506172814,86.3938271604938,0)" xlink:href="#M"/><use transform="matrix(0.056172839506172814,0,0,0.056172839506172814,103.18950617283947,0)" xlink:href="#u"/><use transform="matrix(0.056172839506172814,0,0,0.056172839506172814,114.42407407407404,0)" xlink:href="#p"/><use transform="matrix(0.056172839506172814,0,0,0.056172839506172814,118.8617283950617,0)" xlink:href="#l"/></g></defs></g></svg>