<svg xmlns="http://www.w3.org/2000/svg" xmlns:xlink="http://www.w3.org/1999/xlink" xmlns:lucid="lucid" width="2301" height="1781"><g transform="translate(-99.5 -99.5)" lucid:page-tab-id="0_0"><path d="M0 0h2634.9v2346.38H0z" fill="#fff"/><path d="M1536.53 723.14A43.32 43.32 0 0 0 1552 726h820a8 8 0 0 1 8 8v1118a8 8 0 0 1-8 8H128a8 8 0 0 1-8-8V708a8 8 0 0 1 8-8h1340a43.32 43.32 0 0 1 15.47 2.86zM120 726h1424" stroke="#333" fill="#dfe3e8"/><use xlink:href="#a" transform="matrix(1,0,0,1,128,700) translate(647.525 16.6)"/><path d="M681.65 1566.15a10.83 10.83 0 0 0 10.35 7.64h80a8 8 0 0 1 8 8v114.57a8 8 0 0 1-8 8H528a8 8 0 0 1-8-8V1555.8a8 8 0 0 1 8-8h140a10.83 10.83 0 0 1 10.35 7.64zM520 1573.8h164" stroke="#333" fill="#fff0f0"/><use xlink:href="#b" transform="matrix(1,0,0,1,528,1547.793282599798) translate(8.599999999999994 16.6)"/><use xlink:href="#c" transform="matrix(1,0,0,1,528,1547.793282599798) translate(50.55 16.6)"/><path d="M683.65 1258.35A10.83 10.83 0 0 0 694 1266h88a8 8 0 0 1 8 8v118a8 8 0 0 1-8 8H518a8 8 0 0 1-8-8v-144a8 8 0 0 1 8-8h152a10.83 10.83 0 0 1 10.35 7.65zM510 1266h176" stroke="#333" fill="#ffd9d9"/><use xlink:href="#b" transform="matrix(1,0,0,1,518.000000000012,1240) translate(2.5749999999999886 16.6)"/><use xlink:href="#d" transform="matrix(1,0,0,1,518.000000000012,1240) translate(44.52499999999999 16.6)"/><path d="M968.92 1258.28A10.44 10.44 0 0 0 979 1266h73a8 8 0 0 1 8 8v118a8 8 0 0 1-8 8H828a8 8 0 0 1-8-8v-144a8 8 0 0 1 8-8h128a10.44 10.44 0 0 1 10.08 7.72zM820 1266h151" stroke="#333" fill="#ffdda6"/><use xlink:href="#b" transform="matrix(1,0,0,1,828,1240) translate(1.5999999999999943 16.6)"/><use xlink:href="#e" transform="matrix(1,0,0,1,828,1240) translate(43.55 16.6)"/><path d="M388.92 1258.28A10.44 10.44 0 0 0 399 1266h73a8 8 0 0 1 8 8v118a8 8 0 0 1-8 8H248a8 8 0 0 1-8-8v-144a8 8 0 0 1 8-8h128a10.44 10.44 0 0 1 10.08 7.72zM240 1266h151" stroke="#333" fill="#ffd6f5"/><use xlink:href="#b" transform="matrix(1,0,0,1,248,1240) translate(1.5499999999999972 16.6)"/><use xlink:href="#f" transform="matrix(1,0,0,1,248,1240) translate(43.5 16.6)"/><path d="M360 1401v10.15m0 10.15v20.3m0 10.15v10.15l.15 1.87.44 1.84.7 1.75 1 1.6 1.2 1.43 1.45 1.22 1.6 1 1.74.7 1.82.45 1.88.15h9.98m9.98 0h19.95m10 0h19.95m9.98 0h19.96m9.96 0h19.96m9.98 0h19.96m9.98 0h19.95m9.97 0h9.98l1.88.14 1.83.44 1.74.72 1.6 1 1.43 1.2 1.23 1.44.98 1.6.72 1.75.44 1.82.15 1.88v10.08m0 10.08v20.16m0 10.08v10.08" stroke="#333" fill="none"/><path d="M360.48 1401h-.96v-.5h.96z" stroke="#333" stroke-width=".05" fill="#333"/><path d="M583.37 1529.1l10.18 17.2 10.18-17.2M940 1401v9.83m0 9.84v19.66m0 9.83v19.67m0 9.83v9.83l-.15 1.87-.44 1.83-.7 1.74-1 1.6-1.22 1.44-1.43 1.22-1.6 1-1.74.7-1.82.45-1.88.14h-10.8m-10.8 0h-21.63m-10.8 0h-21.62m-10.8 0h-21.62m-10.8 0H787.5m-10.8 0h-21.6m-10.82 0h-10.8l-1.9.14-1.82.44-1.74.72-1.6 1-1.43 1.2-1.24 1.44-.98 1.6-.72 1.75-.44 1.82-.15 1.88v9.8m0 9.83v19.62m0 9.82v9.8" stroke="#333" fill="none"/><path d="M940.48 1401h-.96v-.5h.96z" stroke="#333" stroke-width=".05" fill="#333"/><path d="M711.3 1555.1l10.17 17.2 10.18-17.2M650 1401v9.7m0 9.68v19.4m0 9.68v19.4m0 9.68v19.38m0 9.7V1527m0 9.7v9.68" stroke="#333" fill="none"/><path d="M650.48 1401h-.96v-.5h.96z" stroke="#333" stroke-width=".05" fill="#333"/><path d="M639.82 1529.1l10.18 17.2 10.18-17.2M1390 1401v10.43m0 10.44v20.87m0 10.43v10.44l.15 1.88.44 1.84.7 1.73 1 1.6 1.22 1.44 1.43 1.22 1.6.98 1.74.72 1.82.44 1.88.15h9.62m9.6 0h19.24m9.6 0h19.24m9.62 0h19.23m9.6 0H1527m9.6 0h19.24m9.6 0h19.24m9.62 0h19.23m9.6 0h19.24m9.6 0h19.24m9.63 0h19.23m9.6 0h19.24m9.62 0h9.6l1.9.15 1.82.44 1.74.7 1.6 1 1.44 1.22 1.22 1.43.98 1.6.73 1.75.43 1.83.15 1.88v10.37m0 10.37v20.73m0 10.37v10.36" stroke="#333" fill="none"/><path d="M1390.47 1401h-.94v-.5h.94z" stroke="#333" stroke-width=".05" fill="#333"/><path d="M1749.95 1532.52l10.18 17.2 10.18-17.2M1770 1401v11.6m0 11.6v23.2m0 11.6v11.6l-.06.8-.18.75-.3.73-.4.66-.52.6-.6.5-.67.42-.72.3-.77.2-.78.05-.78.07-.77.18-.72.3-.67.4-.6.52-.5.6-.4.67-.32.72-.18.76-.06.8v11.52m0 11.53v23.07m0 11.53v11.53" stroke="#333" fill="none"/><path d="M1770.47 1401h-.94v-.5h.94z" stroke="#333" stroke-width=".05" fill="#333"/><path d="M1749.82 1532.52l10.18 17.2 10.18-17.2M2120 1401v9.17m0 9.16v9.17l.15 1.88.44 1.83.7 1.75 1 1.6 1.2 1.43 1.45 1.23 1.6 1 1.74.7 1.82.45 1.88.15h12.58m12.6 0h12.57l1.6-.13 1.57-.37 1.48-.62 1.38-.84 1.22-1.04 1.04-1.22.84-1.38.62-1.48.37-1.57.13-1.6-.13-1.6-.37-1.57-.62-1.48-.84-1.38-1.04-1.22-1.22-1.04-1.38-.84-1.48-.62-1.57-.37-1.6-.13h-10.2m-10.2 0h-20.38m-10.2 0h-20.4m-10.18 0h-20.4m-10.2 0h-20.4m-10.18 0h-20.4m-10.2 0h-20.38m-10.2 0h-20.38m-10.2 0h-20.4m-10.18 0h-20.4m-10.2 0h-20.38m-10.2 0h-20.38m-10.2 0h-20.4m-10.18 0h-10.2l-1.88.15-1.83.44-1.74.7-1.6 1-1.44 1.22-1.23 1.43-.98 1.6-.72 1.74-.44 1.82-.16 1.88v7.87m0 7.87v15.75m0 7.86v7.87" stroke="#333" fill="none"/><path d="M2120.47 1401h-.94v-.5h.94z" stroke="#333" stroke-width=".05" fill="#333"/><path d="M1750 1461.7l10 17.32 10.35-17.12" stroke="#333" fill="none"/><path d="M1896.58 801.23A24.18 24.18 0 0 0 1911 806h421a8 8 0 0 1 8 8v998a8 8 0 0 1-8 8H1168a8 8 0 0 1-8-8V788a8 8 0 0 1 8-8h692a24.18 24.18 0 0 1 14.42 4.77zM1160 806h743" stroke="#333" fill="#f2f3f5"/><use xlink:href="#g" transform="matrix(1,0,0,1,1168,780) translate(317.5 16.6)"/><path d="M1791.65 1569.57a10.83 10.83 0 0 0 10.35 7.64h80a8 8 0 0 1 8 8v114.6a8 8 0 0 1-8 8h-244a8 8 0 0 1-8-8v-140.6a8 8 0 0 1 8-8h140a10.83 10.83 0 0 1 10.35 7.66zM1630 1577.2h164" stroke="#333" fill="#fff0f0"/><use xlink:href="#h" transform="matrix(1,0,0,1,1638.0000000000155,1551.213077236854) translate(2.5749999999999957 16.6)"/><use xlink:href="#c" transform="matrix(1,0,0,1,1638.0000000000155,1551.213077236854) translate(56.574999999999996 16.6)"/><path d="M1806.38 1258.44A11.23 11.23 0 0 0 1817 1266h95a8 8 0 0 1 8 8v118a8 8 0 0 1-8 8h-284a8 8 0 0 1-8-8v-144a8 8 0 0 1 8-8h164a11.23 11.23 0 0 1 10.62 7.56zM1620 1266h189" stroke="#333" fill="#ffd9d9"/><use xlink:href="#h" transform="matrix(1,0,0,1,1628,1240) translate(2.549999999999997 16.6)"/><use xlink:href="#d" transform="matrix(1,0,0,1,1628,1240) translate(56.55 16.6)"/><path d="M2153.65 1258.35A10.83 10.83 0 0 0 2164 1266h88a8 8 0 0 1 8 8v118a8 8 0 0 1-8 8h-264a8 8 0 0 1-8-8v-144a8 8 0 0 1 8-8h152a10.83 10.83 0 0 1 10.35 7.65zM1980 1266h176" stroke="#333" fill="#ffdda6"/><use xlink:href="#h" transform="matrix(1,0,0,1,1988,1240) translate(7.574999999999989 16.6)"/><use xlink:href="#e" transform="matrix(1,0,0,1,1988,1240) translate(61.57499999999999 16.6)"/><path d="M1421.65 1258.35A10.83 10.83 0 0 0 1432 1266h80a8 8 0 0 1 8 8v118a8 8 0 0 1-8 8h-244a8 8 0 0 1-8-8v-144a8 8 0 0 1 8-8h140a10.83 10.83 0 0 1 10.35 7.65zM1260 1266h164" stroke="#333" fill="#ffd6f5"/><use xlink:href="#h" transform="matrix(1,0,0,1,1268,1240) translate(1.5250000000000057 16.6)"/><use xlink:href="#f" transform="matrix(1,0,0,1,1268,1240) translate(55.525000000000006 16.6)"/><path d="M1390 1401v9.75m0 9.75v19.5m0 9.75v19.5m0 9.75v19.5m0 9.75v9.75l.15 1.88.44 1.83.7 1.75 1 1.6 1.22 1.43 1.43 1.23 1.6 1 1.74.7 1.82.45 1.88.15h10.6m10.6 0h21.2m10.62 0h21.2m10.6 0h21.2m10.62 0h21.2m10.6 0h21.2m10.62 0h21.2m10.6 0h21.2m10.62 0h10.6l1.88.15 1.83.44 1.73.7 1.6 1 1.44 1.22 1.22 1.43.97 1.6.72 1.74.43 1.82.15 1.88v7.8" stroke="#333" fill="none"/><path d="M1390.47 1401h-.94v-.5h.94z" stroke="#333" stroke-width=".05" fill="#333"/><path d="M1658.3 1532.52l10.18 17.2 10.18-17.2M1770 1401v9.04m0 9.05v18.08m0 9.04v18.1m0 9.03v18.1m0 9.03v18.1m0 9.04v9.04l-.1 1.42-.35 1.4-.54 1.3-.74 1.22-.92 1.1-1.1.9-1.2.76-1.32.54-1.4.34-1.4.1" stroke="#333" fill="none"/><path d="M1770.47 1401h-.94v-.5h.94z" stroke="#333" stroke-width=".05" fill="#333"/><path d="M1771.72 1528.5l-10.84 16.8 19.95 1.42M2120 1401v9.75m0 9.75v19.5m0 9.75v19.5m0 9.75v19.5m0 9.75v9.75l-.15 1.88-.44 1.83-.7 1.75-1 1.6-1.2 1.43-1.45 1.23-1.6 1-1.74.7-1.82.45-1.88.15h-9.48m-9.48 0h-18.95m-9.5 0h-18.95m-9.48 0h-18.96m-9.47 0h-18.95m-9.48 0h-18.96m-9.48 0h-18.96m-9.48 0h-18.95m-9.48 0h-18.97m-9.48 0h-9.48l-1.87.15-1.83.44-1.74.7-1.6 1-1.44 1.22-1.23 1.43-1 1.6-.7 1.74-.45 1.82-.15 1.88v11.27m0 11.27v11.26" stroke="#333" fill="none"/><path d="M2120.47 1401h-.94v-.5h.94z" stroke="#333" stroke-width=".05" fill="#333"/><path d="M1829.9 1558.52l10.17 17.2 10.2-17.2M781 1626.08h10.1m10.1 0h20.18m10.1 0h20.2m10.08 0h20.2m10.1 0h20.18m10.1 0h20.18m10.1 0h20.2m10.08 0h20.2m10.1 0h20.18m10.1 0h20.2m10.08 0h20.2m10.1 0h20.18m10.1 0h20.18m10.1 0h20.2m10.1 0h20.18m10.07 0h20.17m10.1 0h20.16m10.08 0h20.17m10.1 0h20.16m10.1 0h20.17m10.08 0h20.17m10.1 0h20.16m10.1 0h20.16m10.08 0h20.17m10.08 0h20.17m10.08 0h20.18m10.1 0h20.16m10.1 0h20.16m10.08 0h10.1" stroke="#333" fill="none"/><path d="M781 1626.56h-.5v-.95h.5z" stroke="#333" stroke-width=".05" fill="#333"/><path d="M1611.3 1636.26l17.22-10.18-17.22-10.18" stroke="#333" fill="none"/><path d="M723.06 880.87a10.44 10.44 0 0 0 10.08 7.73h73a8 8 0 0 1 8 8v98a8 8 0 0 1-8 8h-224a8 8 0 0 1-8-8v-124a8 8 0 0 1 8-8h128a10.44 10.44 0 0 1 10.08 7.72zm-148.92 7.73h151" stroke="#333" fill="#ced4db"/><use xlink:href="#i" transform="matrix(1,0,0,1,582.1432758542868,862.5981991498076) translate(41.525 16.6)"/><path d="M694.14 1003.6v10.9m0 10.88v21.78m0 10.9v21.78m0 10.9v21.78m0 10.9V1145.15m0 10.85v21.73m0 10.86v21.7m0 10.86v21.7m0 10.87v10.86" stroke="#333" fill="none"/><path d="M694.62 1003.6h-.95v-.5h.95z" stroke="#333" stroke-width=".05" fill="#333"/><path d="M683.96 1247.3l10.18 17.22 10.18-17.22M694.14 1003.6v9.38m0 9.37v18.76m0 9.4v18.74m0 9.38v9.38l.15 1.88.43 1.83.72 1.75.98 1.6 1.23 1.43 1.43 1.23 1.6 1 1.73.7 1.84.45 1.87.15h10.3m10.3 0h20.63m10.3 0h20.6m10.32 0h20.6m10.3 0h20.6m10.32 0h20.6m10.32 0h20.6m10.3 0h10.32l1.87.15 1.83.44 1.74.7 1.6 1 1.44 1.22 1.22 1.43 1 1.6.7 1.74.45 1.82.16 1.88v10.55m0 10.55v21.1m0 10.55v21.1m0 10.54v21.1m0 10.54v10.55" stroke="#333" fill="none"/><path d="M694.62 1003.6h-.95v-.5h.95z" stroke="#333" stroke-width=".05" fill="#333"/><path d="M924.38 1221.3l10.18 17.22 10.18-17.22M694.14 1003.6v9.38m0 9.37v18.76m0 9.4v18.74m0 9.38v9.38l-.14 1.88-.44 1.83-.72 1.75-1 1.6-1.2 1.43-1.44 1.23-1.6 1-1.75.7-1.83.45-1.88.15h-9.93m-9.93 0H642.4m-9.93 0H612.6m-9.94 0H582.8m-9.95 0h-19.87m-9.94 0h-19.87m-9.93 0h-19.87m-9.94 0h-19.87m-9.94 0h-19.87m-9.93 0h-19.88m-9.93 0h-19.86m-9.94 0h-9.93l-1.88.15-1.84.44-1.74.7-1.6 1-1.44 1.22-1.22 1.43-1 1.6-.7 1.74-.45 1.82-.13 1.88v10.55m0 10.55v21.1m0 10.55v21.1m0 10.54v21.1m0 10.54v10.55" stroke="#333" fill="none"/><path d="M694.62 1003.6h-.95v-.5h.95z" stroke="#333" stroke-width=".05" fill="#333"/><path d="M332.08 1221.3l10.2 17.22 10.17-17.22" stroke="#333" fill="none"/><path d="M1553.7 878.27a10.44 10.44 0 0 0 10.08 7.73H1632a8 8 0 0 1 8 8v98a8 8 0 0 1-8 8h-211.22a8 8 0 0 1-8-8V868a8 8 0 0 1 8-8h120a10.44 10.44 0 0 1 10.07 7.73zM1412.77 886h143" stroke="#333" fill="#ced4db"/><use xlink:href="#j" transform="matrix(1,0,0,1,1420.7745257743388,860) translate(31.5 16.6)"/><path d="M1526.4 1001v8.92m0 8.9v17.85m0 8.9v17.85m0 8.9v17.85m0 8.9v8.93l-.16 1.88-.44 1.83-.72 1.75-.98 1.6-1.23 1.43-1.43 1.23-1.6 1-1.74.7-1.84.45-1.87.15h-9m-9 0h-18m-8.98 0h-18m-9 0h-17.98m-9 0h-9l-1.86.15-1.83.44-1.74.7-1.6 1-1.43 1.22-1.22 1.43-1 1.6-.7 1.74-.45 1.82-.14 1.88v8.88m0 8.88v17.77m0 8.88v17.78m0 8.88v17.77m0 8.88v8.9" stroke="#333" fill="none"/><path d="M1526.86 1001h-.95v-.5h.96z" stroke="#333" stroke-width=".05" fill="#333"/><path d="M1384.28 1221.3l10.17 17.22 10.2-17.22M1526.4 1001v8.92m0 8.9v17.85m0 8.9v17.85m0 8.9v17.85m0 8.9v8.93l.13 1.88.44 1.83.72 1.75.98 1.6 1.22 1.43 1.43 1.23 1.6 1 1.75.7 1.83.45 1.9.15h9.9m9.93 0h19.85m9.93 0h19.85m9.93 0h19.84m9.93 0h19.84m9.92 0h19.84m9.93 0h19.83m9.93 0h19.84m9.93 0h19.84m9.93 0h19.84m9.93 0h19.85m9.92 0h19.85m9.9 0h19.86m9.92 0h19.85m9.92 0h19.85m9.92 0h19.85m9.92 0h19.84m9.92 0h19.85m9.93 0h19.85m9.92 0h9.93l1.87.15 1.83.44 1.74.7 1.6 1 1.44 1.22 1.23 1.43 1 1.6.7 1.74.45 1.82.14 1.88v8.88m0 8.88v17.77m0 8.88v17.78m0 8.88v17.77m0 8.88v8.9" stroke="#333" fill="none"/><path d="M1526.86 1001h-.95v-.5h.96z" stroke="#333" stroke-width=".05" fill="#333"/><path d="M2105.84 1221.3l10.18 17.22 10.2-17.22M1526.4 1001v8.92m0 8.9v17.85m0 8.9v17.85m0 8.9v17.85m0 8.9v8.93l.13 1.88.44 1.83.72 1.75.98 1.6 1.22 1.43 1.43 1.23 1.6 1 1.75.7 1.83.45 1.9.15h10.12m10.13 0h20.26m10.15 0h20.26m10.14 0h20.27m10.14 0h20.26m10.13 0h20.27m10.13 0h10.13l1.88.15 1.83.44 1.74.7 1.62 1 1.43 1.22 1.22 1.43.98 1.6.72 1.74.44 1.82.16 1.88v8.88m0 8.88v17.77m0 8.88v17.78m0 8.88v17.77m0 8.88v8.9" stroke="#333" fill="none"/><path d="M1526.86 1001h-.95v-.5h.96z" stroke="#333" stroke-width=".05" fill="#333"/><path d="M1722.58 1221.3l10.18 17.22 10.18-17.22M940 1401v9.83m0 9.84v19.66m0 9.83v19.67m0 9.83v9.83l.15 1.87.44 1.83.7 1.74 1 1.6 1.22 1.44 1.43 1.22 1.6 1 1.74.7 1.82.45 1.88.14h9.96m9.96 0h19.93m9.96 0h19.93m9.96 0h19.92m9.96 0h19.92m9.96 0h19.93m9.95 0h19.92m9.96 0h19.93m9.96 0h19.92m9.97 0h19.93m9.96 0h19.9m9.98 0h19.92m9.96 0h19.92m9.97 0h19.92m9.96 0h19.92m9.97 0h19.92m9.96 0h19.92m9.97 0h19.9m9.97 0h19.92m9.96 0h19.92m9.96 0h19.92m9.97 0h19.92m9.96 0h19.93m9.97 0h19.92m9.96 0h19.93m9.97 0h19.92m9.95 0h19.93m9.96 0h19.92m9.96 0h19.93m9.96 0h19.93m9.96 0h19.92m9.96 0h19.92m9.96 0h19.93m9.95 0h19.92m9.96 0h19.93m9.96 0h19.92m9.96 0h19.93m9.96 0h19.9m9.98 0h9.96l1.87-.15 1.84-.44 1.74-.7 1.6-1 1.44-1.22 1.22-1.43 1-1.6.7-1.75.45-1.83.14-1.88v-12.34m0-12.33v-12.33l-.15-1.88-.45-1.83-.72-1.75-1-1.6-1.2-1.43-1.44-1.23-1.62-1-1.74-.7-1.83-.45-1.86-.15h-8.7m-8.7 0h-8.68l-1.88-.15-1.83-.44-1.74-.7-1.6-1-1.42-1.22-1.23-1.43-.98-1.6-.72-1.74-.44-1.82-.14-1.88v-9.03m0-9.03v-9.03" stroke="#333" fill="none"/><path d="M940.48 1401h-.96v-.5h.96z" stroke="#333" stroke-width=".05" fill="#333"/><path d="M2059.74 1418.7l-10.18-17.22-10.18 17.22M360 1401v9.17m0 9.16v9.17l.15 1.88.44 1.83.7 1.75 1 1.6 1.2 1.43 1.45 1.23 1.6 1 1.74.7 1.82.45 1.88.15h10.1m10.13 0h20.23m10.1 0h20.24m10.1 0h20.24m10.1 0h20.24m10.12 0h20.22m10.12 0h20.22m10.12 0h20.23m10.12 0h20.23m10.1 0h20.24m10.1 0h20.23m10.12 0h20.22m10.12 0h20.22m10.1 0h20.24m10.1 0h20.24m10.1 0h20.24m10.1 0h20.24m10.12 0h20.22m10.12 0h20.23m10.1 0h20.24m10.12 0h20.23m10.1 0h20.24m10.1 0h20.23m10.12 0h20.22m10.12 0h20.22m10.1 0h20.24m10.1 0H1171m10.1 0h20.24m10.12 0h20.22m10.12 0h20.22m10.12 0h20.23m10.1 0h10.12l1.87-.15 1.83-.44 1.74-.7 1.6-1 1.44-1.22 1.22-1.43 1-1.6.7-1.74.45-1.82.14-1.88v-9.03m0-9.03v-9.03" stroke="#333" fill="none"/><path d="M360.48 1401h-.96v-.5h.96z" stroke="#333" stroke-width=".05" fill="#333"/><path d="M1334.78 1418.7l-10.2-17.22-10.17 17.22M682.2 1401v10.55m0 10.55v21.1m0 10.55v10.55l.15 1.88.44 1.83.7 1.75 1 1.6 1.22 1.43 1.43 1.23 1.6 1 1.75.7 1.83.45 1.88.15h10m9.97 0h19.97m9.98 0h19.97m9.97 0h19.97m9.98 0H824m9.97 0h19.96m10 0h19.96m9.97 0h19.96m10 0h19.95m10 0h19.95m10 0h19.95m10 0h19.95m9.98 0h19.98m9.98 0h19.97m9.98 0h19.98m9.98 0h19.97m9.98 0h19.98m9.98 0h19.97m9.98 0h19.98m9.98 0h19.96m10 0h19.95m10 0h19.95m10 0h19.95m10 0H1393m10 0h19.95m9.98 0h19.97m9.98 0h19.97m9.98 0h19.97m9.98 0h19.97m9.98 0h19.97m9.98 0h19.97m9.98 0h19.97m9.98 0h19.97m9.98 0h9.98l1.88-.15 1.84-.44 1.74-.7 1.6-1 1.44-1.22 1.22-1.43.98-1.6.72-1.74.44-1.82.15-1.88v-10.48m0-10.48v-20.97m0-10.48v-10.5" stroke="#333" fill="none"/><path d="M682.68 1401h-.95v-.5h.95z" stroke="#333" stroke-width=".05" fill="#333"/><path d="M1704.7 1418.7l-10.17-17.22-10.18 17.22" stroke="#333" fill="none"/><path d="M459.13 138.53A11.65 11.65 0 0 0 470 146h102a8 8 0 0 1 8 8v478a8 8 0 0 1-8 8H268a8 8 0 0 1-8-8V128a8 8 0 0 1 8-8h176a11.65 11.65 0 0 1 10.87 7.47zM260 146h202" stroke="#333" fill="#cfe4ff"/><use xlink:href="#k" transform="matrix(1,0,0,1,268,120) translate(0 16.6)"/><use xlink:href="#l" transform="matrix(1,0,0,1,268,120) translate(64.95 16.6)"/><use xlink:href="#m" transform="matrix(1,0,0,1,272,154) translate(0 14.4)"/><use xlink:href="#n" transform="matrix(1,0,0,1,272,154) translate(0 36)"/><use xlink:href="#o" transform="matrix(1,0,0,1,272,154) translate(0 57.6)"/><use xlink:href="#p" transform="matrix(1,0,0,1,272,154) translate(0 79.20000000000002)"/><use xlink:href="#q" transform="matrix(1,0,0,1,272,154) translate(0 100.80000000000001)"/><use xlink:href="#r" transform="matrix(1,0,0,1,272,154) translate(0 122.4)"/><use xlink:href="#s" transform="matrix(1,0,0,1,272,154) translate(0 144)"/><use xlink:href="#t" transform="matrix(1,0,0,1,272,154) translate(0 165.6)"/><use xlink:href="#u" transform="matrix(1,0,0,1,272,154) translate(0 187.2)"/><use xlink:href="#v" transform="matrix(1,0,0,1,272,154) translate(0 208.79999999999998)"/><use xlink:href="#w" transform="matrix(1,0,0,1,272,154) translate(0 230.39999999999998)"/><use xlink:href="#x" transform="matrix(1,0,0,1,272,154) translate(0 251.99999999999997)"/><use xlink:href="#y" transform="matrix(1,0,0,1,272,154) translate(0 273.59999999999997)"/><use xlink:href="#z" transform="matrix(1,0,0,1,272,154) translate(0 295.2)"/><use xlink:href="#A" transform="matrix(1,0,0,1,272,154) translate(0 316.8)"/><use xlink:href="#B" transform="matrix(1,0,0,1,272,154) translate(0 338.40000000000003)"/><use xlink:href="#C" transform="matrix(1,0,0,1,272,154) translate(0 360.00000000000006)"/><use xlink:href="#D" transform="matrix(1,0,0,1,272,154) translate(0 381.6000000000001)"/><use xlink:href="#E" transform="matrix(1,0,0,1,272,154) translate(0 403.2000000000001)"/><use xlink:href="#F" transform="matrix(1,0,0,1,272,154) translate(0 424.8000000000001)"/><use xlink:href="#G" transform="matrix(1,0,0,1,272,154) translate(0 446.40000000000015)"/><use xlink:href="#H" transform="matrix(1,0,0,1,272,154) translate(0 468.00000000000017)"/><use xlink:href="#I" transform="matrix(1,0,0,1,272,154) translate(0 489.6000000000002)"/><path d="M2191.13 438.53A11.65 11.65 0 0 0 2202 446h110a8 8 0 0 1 8 8v118a8 8 0 0 1-8 8h-324a8 8 0 0 1-8-8V428a8 8 0 0 1 8-8h188a11.65 11.65 0 0 1 10.87 7.47zM1980 446h214" stroke="#333" fill="#ffe342"/><g><use xlink:href="#J" transform="matrix(1,0,0,1,1988,420) translate(23.125 16.6)"/><use xlink:href="#K" transform="matrix(1,0,0,1,1988,420) translate(89.025 16.6)"/></g><g><use xlink:href="#L" transform="matrix(1,0,0,1,1992,454) translate(0 51.8)"/><use xlink:href="#M" transform="matrix(1,0,0,1,1992,454) translate(0 73.4)"/></g><path d="M2194.03 581v9.9m0 9.9v19.83m0 9.9v19.82m0 9.9v19.82m0 9.9v19.82m0 9.9v19.8m0 9.92v19.82m0 9.9v19.82m0 9.9v19.82m0 9.9v19.82m0 9.9v19.82m0 9.9v19.82m0 9.9v19.82m0 9.9v19.82m0 9.9v19.83m0 9.9v19.83m0 9.9v19.82m0 9.9v19.82m0 9.9v19.82m0 9.9v19.8m0 9.92v19.8m0 9.92v19.82m0 9.9v19.82m0 9.9v9.9" stroke="#333" fill="none"/><path d="M2194.5 581h-.94v-.5h.95z" stroke="#333" stroke-width=".05" fill="#333"/><path d="M2183.85 1247.3l10.18 17.22 10.18-17.22M500.15 641v9.83m0 9.84v19.66m0 9.84v19.66m0 9.84v19.66m0 9.84v19.66m0 9.84v19.66m0 9.84v19.66m0 9.84v19.66m0 9.84v19.66m0 9.84v19.66m0 9.84v19.66m0 9.84v19.66m0 9.84v19.66m0 9.84v19.66m0 9.84v19.66m0 9.84v19.66m0 9.84v19.66m0 9.84v9.83l-.14 1.88-.43 1.83-.72 1.75-1 1.6-1.2 1.43-1.44 1.23-1.6 1-1.74.7-1.83.45-1.88.15h-8.44m-8.44 0H454.4m-8.45 0h-16.9m-8.43 0h-8.45l-1.87.15-1.83.44-1.74.7-1.6 1-1.43 1.22-1.22 1.43-1 1.6-.7 1.74-.45 1.82-.15 1.88v10.9m0 10.9v21.8m0 10.9v21.8m0 10.9v10.9" stroke="#333" fill="none"/><path d="M500.63 641h-.95v-.5h.95z" stroke="#333" stroke-width=".05" fill="#333"/><path d="M389.97 1247.3l10.18 17.22 10.2-17.22M500.15 641v9.83m0 9.84v19.66m0 9.84v19.66m0 9.84v19.66m0 9.84v19.66m0 9.84v19.66m0 9.84v19.66m0 9.84v19.66m0 9.84v19.66m0 9.84v19.66m0 9.84v19.66m0 9.84v19.66m0 9.84v19.66m0 9.84v19.66m0 9.84v19.66m0 9.84v19.66m0 9.84v19.66m0 9.84v9.83l.15 1.88.44 1.83.72 1.75 1 1.6 1.2 1.43 1.44 1.23 1.6 1 1.75.7 1.83.45 1.87.15h8.96m8.97 0h17.9m8.97 0h17.9m8.97 0h8.97l1.88.15 1.83.44 1.74.7 1.6 1 1.43 1.22 1.23 1.43.98 1.6.72 1.74.44 1.82.15 1.88v12.02m0 12v24.04m0 12.02v12" stroke="#333" fill="none"/><path d="M500.63 641h-.95v-.5h.95z" stroke="#333" stroke-width=".05" fill="#333"/><path d="M594.6 1221.3l10.17 17.22 10.18-17.22" stroke="#333" fill="none"/><defs><path fill="#333" d="M185-189c-5-48-123-54-124 2 14 75 158 14 163 119 3 78-121 87-175 55-17-10-28-26-33-46l33-7c5 56 141 63 141-1 0-78-155-14-162-118-5-82 145-84 179-34 5 7 8 16 11 25" id="N"/><path fill="#333" d="M190 0L58-211 59 0H30v-248h39L202-35l-2-213h31V0h-41" id="O"/><g id="a"><use transform="matrix(0.05,0,0,0.05,0,0)" xlink:href="#N"/><use transform="matrix(0.05,0,0,0.05,12,0)" xlink:href="#N"/><use transform="matrix(0.05,0,0,0.05,24,0)" xlink:href="#O"/></g><g id="b"><use transform="matrix(0.05,0,0,0.05,0,0)" xlink:href="#N"/><use transform="matrix(0.05,0,0,0.05,12,0)" xlink:href="#N"/><use transform="matrix(0.05,0,0,0.05,24,0)" xlink:href="#O"/></g><path fill="#333" d="M212-179c-10-28-35-45-73-45-59 0-87 40-87 99 0 60 29 101 89 101 43 0 62-24 78-52l27 14C228-24 195 4 139 4 59 4 22-46 18-125c-6-104 99-153 187-111 19 9 31 26 39 46" id="P"/><path fill="#333" d="M100-194c62-1 85 37 85 99 1 63-27 99-86 99S16-35 15-95c0-66 28-99 85-99zM99-20c44 1 53-31 53-75 0-43-8-75-51-75s-53 32-53 75 10 74 51 75" id="Q"/><path fill="#333" d="M210-169c-67 3-38 105-44 169h-31v-121c0-29-5-50-35-48C34-165 62-65 56 0H25l-1-190h30c1 10-1 24 2 32 10-44 99-50 107 0 11-21 27-35 58-36 85-2 47 119 55 194h-31v-121c0-29-5-49-35-48" id="R"/><path fill="#333" d="M117-194c89-4 53 116 60 194h-32v-121c0-31-8-49-39-48C34-167 62-67 57 0H25l-1-190h30c1 10-1 24 2 32 11-22 29-35 61-36" id="S"/><g id="c"><use transform="matrix(0.05,0,0,0.05,0,0)" xlink:href="#P"/><use transform="matrix(0.05,0,0,0.05,12.950000000000001,0)" xlink:href="#Q"/><use transform="matrix(0.05,0,0,0.05,22.950000000000003,0)" xlink:href="#R"/><use transform="matrix(0.05,0,0,0.05,37.900000000000006,0)" xlink:href="#R"/><use transform="matrix(0.05,0,0,0.05,52.85,0)" xlink:href="#Q"/><use transform="matrix(0.05,0,0,0.05,62.85,0)" xlink:href="#S"/></g><path fill="#333" d="M140-251c81 0 123 46 123 126C263-46 219 4 140 4 59 4 17-45 17-125s42-126 123-126zm0 227c63 0 89-41 89-101s-29-99-89-99c-61 0-89 39-89 99S79-25 140-24" id="T"/><path fill="#333" d="M115-194c53 0 69 39 70 98 0 66-23 100-70 100C84 3 66-7 56-30L54 0H23l1-261h32v101c10-23 28-34 59-34zm-8 174c40 0 45-34 45-75 0-40-5-75-45-74-42 0-51 32-51 76 0 43 10 73 51 73" id="U"/><path fill="#333" d="M135-143c-3-34-86-38-87 0 15 53 115 12 119 90S17 21 10-45l28-5c4 36 97 45 98 0-10-56-113-15-118-90-4-57 82-63 122-42 12 7 21 19 24 35" id="V"/><path fill="#333" d="M100-194c63 0 86 42 84 106H49c0 40 14 67 53 68 26 1 43-12 49-29l28 8c-11 28-37 45-77 45C44 4 14-33 15-96c1-61 26-98 85-98zm52 81c6-60-76-77-97-28-3 7-6 17-6 28h103" id="W"/><path fill="#333" d="M114-163C36-179 61-72 57 0H25l-1-190h30c1 12-1 29 2 39 6-27 23-49 58-41v29" id="X"/><path fill="#333" d="M108 0H70L1-190h34L89-25l56-165h34" id="Y"/><path fill="#333" d="M141-36C126-15 110 5 73 4 37 3 15-17 15-53c-1-64 63-63 125-63 3-35-9-54-41-54-24 1-41 7-42 31l-33-3c5-37 33-52 76-52 45 0 72 20 72 64v82c-1 20 7 32 28 27v20c-31 9-61-2-59-35zM48-53c0 20 12 33 32 33 41-3 63-29 60-74-43 2-92-5-92 41" id="Z"/><path fill="#333" d="M59-47c-2 24 18 29 38 22v24C64 9 27 4 27-40v-127H5v-23h24l9-43h21v43h35v23H59v120" id="aa"/><path fill="#333" d="M24-231v-30h32v30H24zM24 0v-190h32V0H24" id="ab"/><g id="d"><use transform="matrix(0.05,0,0,0.05,0,0)" xlink:href="#T"/><use transform="matrix(0.05,0,0,0.05,14,0)" xlink:href="#U"/><use transform="matrix(0.05,0,0,0.05,24,0)" xlink:href="#V"/><use transform="matrix(0.05,0,0,0.05,33,0)" xlink:href="#W"/><use transform="matrix(0.05,0,0,0.05,43,0)" xlink:href="#X"/><use transform="matrix(0.05,0,0,0.05,48.95,0)" xlink:href="#Y"/><use transform="matrix(0.05,0,0,0.05,57.95,0)" xlink:href="#Z"/><use transform="matrix(0.05,0,0,0.05,67.95,0)" xlink:href="#aa"/><use transform="matrix(0.05,0,0,0.05,72.95,0)" xlink:href="#ab"/><use transform="matrix(0.05,0,0,0.05,76.9,0)" xlink:href="#Q"/><use transform="matrix(0.05,0,0,0.05,86.9,0)" xlink:href="#S"/></g><path fill="#333" d="M115-194c55 1 70 41 70 98S169 2 115 4C84 4 66-9 55-30l1 105H24l-1-265h31l2 30c10-21 28-34 59-34zm-8 174c40 0 45-34 45-75s-6-73-45-74c-42 0-51 32-51 76 0 43 10 73 51 73" id="ac"/><path fill="#333" d="M24 0v-261h32V0H24" id="ad"/><path fill="#333" d="M177-190C167-65 218 103 67 71c-23-6-38-20-44-43l32-5c15 47 100 32 89-28v-30C133-14 115 1 83 1 29 1 15-40 15-95c0-56 16-97 71-98 29-1 48 16 59 35 1-10 0-23 2-32h30zM94-22c36 0 50-32 50-73 0-42-14-75-50-75-39 0-46 34-46 75s6 73 46 73" id="ae"/><g id="e"><use transform="matrix(0.05,0,0,0.05,0,0)" xlink:href="#N"/><use transform="matrix(0.05,0,0,0.05,12,0)" xlink:href="#Z"/><use transform="matrix(0.05,0,0,0.05,22,0)" xlink:href="#R"/><use transform="matrix(0.05,0,0,0.05,36.95,0)" xlink:href="#ac"/><use transform="matrix(0.05,0,0,0.05,46.95,0)" xlink:href="#ad"/><use transform="matrix(0.05,0,0,0.05,50.900000000000006,0)" xlink:href="#ab"/><use transform="matrix(0.05,0,0,0.05,54.85,0)" xlink:href="#S"/><use transform="matrix(0.05,0,0,0.05,64.85000000000001,0)" xlink:href="#ae"/></g><path fill="#333" d="M205 0l-28-72H64L36 0H1l101-248h38L239 0h-34zm-38-99l-47-123c-12 45-31 82-46 123h93" id="af"/><path fill="#333" d="M96-169c-40 0-48 33-48 73s9 75 48 75c24 0 41-14 43-38l32 2c-6 37-31 61-74 61-59 0-76-41-82-99-10-93 101-131 147-64 4 7 5 14 7 22l-32 3c-4-21-16-35-41-35" id="ag"/><path fill="#333" d="M84 4C-5 8 30-112 23-190h32v120c0 31 7 50 39 49 72-2 45-101 50-169h31l1 190h-30c-1-10 1-25-2-33-11 22-28 36-60 37" id="ah"/><g id="f"><use transform="matrix(0.05,0,0,0.05,0,0)" xlink:href="#af"/><use transform="matrix(0.05,0,0,0.05,12,0)" xlink:href="#ag"/><use transform="matrix(0.05,0,0,0.05,21,0)" xlink:href="#aa"/><use transform="matrix(0.05,0,0,0.05,26,0)" xlink:href="#ah"/><use transform="matrix(0.05,0,0,0.05,36,0)" xlink:href="#Z"/><use transform="matrix(0.05,0,0,0.05,46,0)" xlink:href="#aa"/><use transform="matrix(0.05,0,0,0.05,51,0)" xlink:href="#ab"/><use transform="matrix(0.05,0,0,0.05,54.95,0)" xlink:href="#Q"/><use transform="matrix(0.05,0,0,0.05,64.95,0)" xlink:href="#S"/></g><g id="g"><use transform="matrix(0.05,0,0,0.05,0,0)" xlink:href="#N"/><use transform="matrix(0.05,0,0,0.05,12,0)" xlink:href="#T"/><use transform="matrix(0.05,0,0,0.05,26,0)" xlink:href="#N"/><use transform="matrix(0.05,0,0,0.05,38,0)" xlink:href="#af"/></g><g id="h"><use transform="matrix(0.05,0,0,0.05,0,0)" xlink:href="#N"/><use transform="matrix(0.05,0,0,0.05,12,0)" xlink:href="#T"/><use transform="matrix(0.05,0,0,0.05,26,0)" xlink:href="#N"/><use transform="matrix(0.05,0,0,0.05,38,0)" xlink:href="#af"/></g><path d="M185-189c-5-48-123-54-124 2 14 75 158 14 163 119 3 78-121 87-175 55-17-10-28-26-33-46l33-7c5 56 141 63 141-1 0-78-155-14-162-118-5-82 145-84 179-34 5 7 8 16 11 25" id="ai"/><path d="M190 0L58-211 59 0H30v-248h39L202-35l-2-213h31V0h-41" id="aj"/><g id="i"><use transform="matrix(0.05,0,0,0.05,0,0)" xlink:href="#ai"/><use transform="matrix(0.05,0,0,0.05,12,0)" xlink:href="#ai"/><use transform="matrix(0.05,0,0,0.05,24,0)" xlink:href="#aj"/></g><path d="M140-251c81 0 123 46 123 126C263-46 219 4 140 4 59 4 17-45 17-125s42-126 123-126zm0 227c63 0 89-41 89-101s-29-99-89-99c-61 0-89 39-89 99S79-25 140-24" id="ak"/><path d="M205 0l-28-72H64L36 0H1l101-248h38L239 0h-34zm-38-99l-47-123c-12 45-31 82-46 123h93" id="al"/><g id="j"><use transform="matrix(0.05,0,0,0.05,0,0)" xlink:href="#ai"/><use transform="matrix(0.05,0,0,0.05,12,0)" xlink:href="#ak"/><use transform="matrix(0.05,0,0,0.05,26,0)" xlink:href="#ai"/><use transform="matrix(0.05,0,0,0.05,38,0)" xlink:href="#al"/></g><path fill="#333" d="M179-190L93 31C79 59 56 82 12 73V49c39 6 53-20 64-50L1-190h34L92-34l54-156h33" id="am"/><g id="k"><use transform="matrix(0.05,0,0,0.05,0,0)" xlink:href="#N"/><use transform="matrix(0.05,0,0,0.05,12,0)" xlink:href="#am"/><use transform="matrix(0.05,0,0,0.05,21,0)" xlink:href="#V"/><use transform="matrix(0.05,0,0,0.05,30,0)" xlink:href="#aa"/><use transform="matrix(0.05,0,0,0.05,35,0)" xlink:href="#W"/><use transform="matrix(0.05,0,0,0.05,45,0)" xlink:href="#R"/></g><g id="l"><use transform="matrix(0.05,0,0,0.05,0,0)" xlink:href="#P"/><use transform="matrix(0.05,0,0,0.05,12.950000000000001,0)" xlink:href="#Z"/><use transform="matrix(0.05,0,0,0.05,22.950000000000003,0)" xlink:href="#ac"/><use transform="matrix(0.05,0,0,0.05,32.95,0)" xlink:href="#Z"/><use transform="matrix(0.05,0,0,0.05,42.95,0)" xlink:href="#U"/><use transform="matrix(0.05,0,0,0.05,52.95,0)" xlink:href="#ab"/><use transform="matrix(0.05,0,0,0.05,56.900000000000006,0)" xlink:href="#ad"/><use transform="matrix(0.05,0,0,0.05,60.85,0)" xlink:href="#ab"/><use transform="matrix(0.05,0,0,0.05,64.80000000000001,0)" xlink:href="#aa"/><use transform="matrix(0.05,0,0,0.05,69.80000000000001,0)" xlink:href="#ab"/><use transform="matrix(0.05,0,0,0.05,73.75000000000001,0)" xlink:href="#W"/><use transform="matrix(0.05,0,0,0.05,83.75000000000001,0)" xlink:href="#V"/></g><g id="m"><use transform="matrix(0.05,0,0,0.05,0,0)" xlink:href="#N"/><use transform="matrix(0.05,0,0,0.05,12,0)" xlink:href="#am"/><use transform="matrix(0.05,0,0,0.05,21,0)" xlink:href="#V"/><use transform="matrix(0.05,0,0,0.05,30,0)" xlink:href="#aa"/><use transform="matrix(0.05,0,0,0.05,35,0)" xlink:href="#W"/><use transform="matrix(0.05,0,0,0.05,45,0)" xlink:href="#R"/><use transform="matrix(0.05,0,0,0.05,59.95,0)" xlink:href="#P"/><use transform="matrix(0.05,0,0,0.05,72.9,0)" xlink:href="#Z"/><use transform="matrix(0.05,0,0,0.05,82.9,0)" xlink:href="#ac"/><use transform="matrix(0.05,0,0,0.05,92.9,0)" xlink:href="#Z"/><use transform="matrix(0.05,0,0,0.05,102.9,0)" xlink:href="#U"/><use transform="matrix(0.05,0,0,0.05,112.9,0)" xlink:href="#ab"/><use transform="matrix(0.05,0,0,0.05,116.85000000000001,0)" xlink:href="#ad"/><use transform="matrix(0.05,0,0,0.05,120.80000000000001,0)" xlink:href="#ab"/><use transform="matrix(0.05,0,0,0.05,124.75,0)" xlink:href="#aa"/><use transform="matrix(0.05,0,0,0.05,129.75,0)" xlink:href="#am"/></g><path fill="#333" d="M30-248c87 1 191-15 191 75 0 78-77 80-158 76V0H30v-248zm33 125c57 0 124 11 124-50 0-59-68-47-124-48v98" id="an"/><g id="n"><use transform="matrix(0.05,0,0,0.05,0,0)" xlink:href="#N"/><use transform="matrix(0.05,0,0,0.05,12,0)" xlink:href="#am"/><use transform="matrix(0.05,0,0,0.05,21,0)" xlink:href="#V"/><use transform="matrix(0.05,0,0,0.05,30,0)" xlink:href="#aa"/><use transform="matrix(0.05,0,0,0.05,35,0)" xlink:href="#W"/><use transform="matrix(0.05,0,0,0.05,45,0)" xlink:href="#R"/><use transform="matrix(0.05,0,0,0.05,59.95,0)" xlink:href="#an"/><use transform="matrix(0.05,0,0,0.05,71.95,0)" xlink:href="#X"/><use transform="matrix(0.05,0,0,0.05,77.9,0)" xlink:href="#Q"/><use transform="matrix(0.05,0,0,0.05,87.9,0)" xlink:href="#ac"/><use transform="matrix(0.05,0,0,0.05,97.9,0)" xlink:href="#W"/><use transform="matrix(0.05,0,0,0.05,107.9,0)" xlink:href="#X"/><use transform="matrix(0.05,0,0,0.05,113.85000000000001,0)" xlink:href="#aa"/><use transform="matrix(0.05,0,0,0.05,118.85000000000001,0)" xlink:href="#am"/></g><path fill="#333" d="M240 0l2-218c-23 76-54 145-80 218h-23L58-218 59 0H30v-248h44l77 211c21-75 51-140 76-211h43V0h-30" id="ao"/><path fill="#333" d="M233-177c-1 41-23 64-60 70L243 0h-38l-65-103H63V0H30v-248c88 3 205-21 203 71zM63-129c60-2 137 13 137-47 0-61-80-42-137-45v92" id="ap"/><g id="o"><use transform="matrix(0.05,0,0,0.05,0,0)" xlink:href="#ao"/><use transform="matrix(0.05,0,0,0.05,14.950000000000001,0)" xlink:href="#W"/><use transform="matrix(0.05,0,0,0.05,24.950000000000003,0)" xlink:href="#Z"/><use transform="matrix(0.05,0,0,0.05,34.95,0)" xlink:href="#V"/><use transform="matrix(0.05,0,0,0.05,43.95,0)" xlink:href="#ah"/><use transform="matrix(0.05,0,0,0.05,53.95,0)" xlink:href="#X"/><use transform="matrix(0.05,0,0,0.05,59.900000000000006,0)" xlink:href="#W"/><use transform="matrix(0.05,0,0,0.05,69.9,0)" xlink:href="#R"/><use transform="matrix(0.05,0,0,0.05,84.85000000000001,0)" xlink:href="#W"/><use transform="matrix(0.05,0,0,0.05,94.85000000000001,0)" xlink:href="#S"/><use transform="matrix(0.05,0,0,0.05,104.85000000000001,0)" xlink:href="#aa"/><use transform="matrix(0.05,0,0,0.05,109.85000000000001,0)" xlink:href="#ap"/><use transform="matrix(0.05,0,0,0.05,122.80000000000001,0)" xlink:href="#Z"/><use transform="matrix(0.05,0,0,0.05,132.8,0)" xlink:href="#S"/><use transform="matrix(0.05,0,0,0.05,142.8,0)" xlink:href="#ae"/><use transform="matrix(0.05,0,0,0.05,152.8,0)" xlink:href="#W"/></g><g id="p"><use transform="matrix(0.05,0,0,0.05,0,0)" xlink:href="#af"/><use transform="matrix(0.05,0,0,0.05,12,0)" xlink:href="#ag"/><use transform="matrix(0.05,0,0,0.05,21,0)" xlink:href="#aa"/><use transform="matrix(0.05,0,0,0.05,26,0)" xlink:href="#ah"/><use transform="matrix(0.05,0,0,0.05,36,0)" xlink:href="#Z"/><use transform="matrix(0.05,0,0,0.05,46,0)" xlink:href="#aa"/><use transform="matrix(0.05,0,0,0.05,51,0)" xlink:href="#ab"/><use transform="matrix(0.05,0,0,0.05,54.95,0)" xlink:href="#Q"/><use transform="matrix(0.05,0,0,0.05,64.95,0)" xlink:href="#S"/><use transform="matrix(0.05,0,0,0.05,74.95,0)" xlink:href="#ap"/><use transform="matrix(0.05,0,0,0.05,87.9,0)" xlink:href="#Z"/><use transform="matrix(0.05,0,0,0.05,97.9,0)" xlink:href="#S"/><use transform="matrix(0.05,0,0,0.05,107.9,0)" xlink:href="#ae"/><use transform="matrix(0.05,0,0,0.05,117.9,0)" xlink:href="#W"/></g><g id="q"><use transform="matrix(0.05,0,0,0.05,0,0)" xlink:href="#af"/><use transform="matrix(0.05,0,0,0.05,12,0)" xlink:href="#ag"/><use transform="matrix(0.05,0,0,0.05,21,0)" xlink:href="#ag"/><use transform="matrix(0.05,0,0,0.05,30,0)" xlink:href="#ah"/><use transform="matrix(0.05,0,0,0.05,40,0)" xlink:href="#X"/><use transform="matrix(0.05,0,0,0.05,45.95,0)" xlink:href="#Z"/><use transform="matrix(0.05,0,0,0.05,55.95,0)" xlink:href="#ag"/><use transform="matrix(0.05,0,0,0.05,64.95,0)" xlink:href="#am"/></g><path fill="#333" d="M30-248c118-7 216 8 213 122C240-48 200 0 122 0H30v-248zM63-27c89 8 146-16 146-99s-60-101-146-95v194" id="aq"/><path fill="#333" d="M30 0v-248h33v221h125V0H30" id="ar"/><g id="r"><use transform="matrix(0.05,0,0,0.05,0,0)" xlink:href="#aq"/><use transform="matrix(0.05,0,0,0.05,12.950000000000001,0)" xlink:href="#W"/><use transform="matrix(0.05,0,0,0.05,22.950000000000003,0)" xlink:href="#aa"/><use transform="matrix(0.05,0,0,0.05,27.950000000000003,0)" xlink:href="#W"/><use transform="matrix(0.05,0,0,0.05,37.95,0)" xlink:href="#ag"/><use transform="matrix(0.05,0,0,0.05,46.95,0)" xlink:href="#aa"/><use transform="matrix(0.05,0,0,0.05,51.95,0)" xlink:href="#ab"/><use transform="matrix(0.05,0,0,0.05,55.900000000000006,0)" xlink:href="#Q"/><use transform="matrix(0.05,0,0,0.05,65.9,0)" xlink:href="#S"/><use transform="matrix(0.05,0,0,0.05,75.9,0)" xlink:href="#ar"/><use transform="matrix(0.05,0,0,0.05,85.9,0)" xlink:href="#ab"/><use transform="matrix(0.05,0,0,0.05,89.85000000000001,0)" xlink:href="#R"/><use transform="matrix(0.05,0,0,0.05,104.80000000000001,0)" xlink:href="#ab"/><use transform="matrix(0.05,0,0,0.05,108.75,0)" xlink:href="#aa"/></g><path fill="#333" d="M101-234c-31-9-42 10-38 44h38v23H63V0H32v-167H5v-23h27c-7-52 17-82 69-68v24" id="as"/><g id="s"><use transform="matrix(0.05,0,0,0.05,0,0)" xlink:href="#aq"/><use transform="matrix(0.05,0,0,0.05,12.950000000000001,0)" xlink:href="#X"/><use transform="matrix(0.05,0,0,0.05,18.900000000000002,0)" xlink:href="#ab"/><use transform="matrix(0.05,0,0,0.05,22.85,0)" xlink:href="#as"/><use transform="matrix(0.05,0,0,0.05,27.85,0)" xlink:href="#aa"/></g><path fill="#333" d="M63-220v92h138v28H63V0H30v-248h175v28H63" id="at"/><path fill="#333" d="M145-31C134-9 116 4 85 4 32 4 16-35 15-94c0-59 17-99 70-100 32-1 48 14 60 33 0-11-1-24 2-32h30l-1 268h-32zM93-21c41 0 51-33 51-76s-8-73-50-73c-40 0-46 35-46 75s5 74 45 74" id="au"/><g id="t"><use transform="matrix(0.05,0,0,0.05,0,0)" xlink:href="#at"/><use transform="matrix(0.05,0,0,0.05,10.950000000000001,0)" xlink:href="#X"/><use transform="matrix(0.05,0,0,0.05,16.900000000000002,0)" xlink:href="#W"/><use transform="matrix(0.05,0,0,0.05,26.900000000000002,0)" xlink:href="#au"/><use transform="matrix(0.05,0,0,0.05,36.900000000000006,0)" xlink:href="#ah"/><use transform="matrix(0.05,0,0,0.05,46.900000000000006,0)" xlink:href="#W"/><use transform="matrix(0.05,0,0,0.05,56.900000000000006,0)" xlink:href="#S"/><use transform="matrix(0.05,0,0,0.05,66.9,0)" xlink:href="#ag"/><use transform="matrix(0.05,0,0,0.05,75.9,0)" xlink:href="#am"/></g><g id="u"><use transform="matrix(0.05,0,0,0.05,0,0)" xlink:href="#ar"/><use transform="matrix(0.05,0,0,0.05,10,0)" xlink:href="#Z"/><use transform="matrix(0.05,0,0,0.05,20,0)" xlink:href="#aa"/><use transform="matrix(0.05,0,0,0.05,25,0)" xlink:href="#W"/><use transform="matrix(0.05,0,0,0.05,35,0)" xlink:href="#S"/><use transform="matrix(0.05,0,0,0.05,45,0)" xlink:href="#ag"/><use transform="matrix(0.05,0,0,0.05,54,0)" xlink:href="#am"/></g><g id="v"><use transform="matrix(0.05,0,0,0.05,0,0)" xlink:href="#an"/><use transform="matrix(0.05,0,0,0.05,12,0)" xlink:href="#X"/><use transform="matrix(0.05,0,0,0.05,17.95,0)" xlink:href="#W"/><use transform="matrix(0.05,0,0,0.05,27.950000000000003,0)" xlink:href="#ag"/><use transform="matrix(0.05,0,0,0.05,36.95,0)" xlink:href="#ab"/><use transform="matrix(0.05,0,0,0.05,40.900000000000006,0)" xlink:href="#V"/><use transform="matrix(0.05,0,0,0.05,49.900000000000006,0)" xlink:href="#ab"/><use transform="matrix(0.05,0,0,0.05,53.85,0)" xlink:href="#Q"/><use transform="matrix(0.05,0,0,0.05,63.85,0)" xlink:href="#S"/></g><g id="w"><use transform="matrix(0.05,0,0,0.05,0,0)" xlink:href="#ap"/><use transform="matrix(0.05,0,0,0.05,12.950000000000001,0)" xlink:href="#W"/><use transform="matrix(0.05,0,0,0.05,22.950000000000003,0)" xlink:href="#V"/><use transform="matrix(0.05,0,0,0.05,31.950000000000003,0)" xlink:href="#Q"/><use transform="matrix(0.05,0,0,0.05,41.95,0)" xlink:href="#ad"/><use transform="matrix(0.05,0,0,0.05,45.900000000000006,0)" xlink:href="#ah"/><use transform="matrix(0.05,0,0,0.05,55.900000000000006,0)" xlink:href="#aa"/><use transform="matrix(0.05,0,0,0.05,60.900000000000006,0)" xlink:href="#ab"/><use transform="matrix(0.05,0,0,0.05,64.85000000000001,0)" xlink:href="#Q"/><use transform="matrix(0.05,0,0,0.05,74.85000000000001,0)" xlink:href="#S"/></g><path fill="#333" d="M127-220V0H93v-220H8v-28h204v28h-85" id="av"/><g id="x"><use transform="matrix(0.05,0,0,0.05,0,0)" xlink:href="#ap"/><use transform="matrix(0.05,0,0,0.05,12.950000000000001,0)" xlink:href="#W"/><use transform="matrix(0.05,0,0,0.05,22.950000000000003,0)" xlink:href="#V"/><use transform="matrix(0.05,0,0,0.05,31.950000000000003,0)" xlink:href="#ac"/><use transform="matrix(0.05,0,0,0.05,41.95,0)" xlink:href="#Q"/><use transform="matrix(0.05,0,0,0.05,51.95,0)" xlink:href="#S"/><use transform="matrix(0.05,0,0,0.05,61.95,0)" xlink:href="#V"/><use transform="matrix(0.05,0,0,0.05,70.95,0)" xlink:href="#W"/><use transform="matrix(0.05,0,0,0.05,80.95,0)" xlink:href="#av"/><use transform="matrix(0.05,0,0,0.05,91.25,0)" xlink:href="#ab"/><use transform="matrix(0.05,0,0,0.05,95.2,0)" xlink:href="#R"/><use transform="matrix(0.05,0,0,0.05,110.15,0)" xlink:href="#W"/></g><g id="y"><use transform="matrix(0.05,0,0,0.05,0,0)" xlink:href="#N"/><use transform="matrix(0.05,0,0,0.05,12,0)" xlink:href="#W"/><use transform="matrix(0.05,0,0,0.05,22,0)" xlink:href="#ad"/><use transform="matrix(0.05,0,0,0.05,25.950000000000003,0)" xlink:href="#W"/><use transform="matrix(0.05,0,0,0.05,35.95,0)" xlink:href="#ag"/><use transform="matrix(0.05,0,0,0.05,44.95,0)" xlink:href="#aa"/><use transform="matrix(0.05,0,0,0.05,49.95,0)" xlink:href="#ab"/><use transform="matrix(0.05,0,0,0.05,53.900000000000006,0)" xlink:href="#Y"/><use transform="matrix(0.05,0,0,0.05,62.900000000000006,0)" xlink:href="#ab"/><use transform="matrix(0.05,0,0,0.05,66.85000000000001,0)" xlink:href="#aa"/><use transform="matrix(0.05,0,0,0.05,71.85000000000001,0)" xlink:href="#am"/></g><g id="z"><use transform="matrix(0.05,0,0,0.05,0,0)" xlink:href="#N"/><use transform="matrix(0.05,0,0,0.05,12,0)" xlink:href="#W"/><use transform="matrix(0.05,0,0,0.05,22,0)" xlink:href="#S"/><use transform="matrix(0.05,0,0,0.05,32,0)" xlink:href="#V"/><use transform="matrix(0.05,0,0,0.05,41,0)" xlink:href="#ab"/><use transform="matrix(0.05,0,0,0.05,44.95,0)" xlink:href="#aa"/><use transform="matrix(0.05,0,0,0.05,49.95,0)" xlink:href="#ab"/><use transform="matrix(0.05,0,0,0.05,53.900000000000006,0)" xlink:href="#Y"/><use transform="matrix(0.05,0,0,0.05,62.900000000000006,0)" xlink:href="#ab"/><use transform="matrix(0.05,0,0,0.05,66.85000000000001,0)" xlink:href="#aa"/><use transform="matrix(0.05,0,0,0.05,71.85000000000001,0)" xlink:href="#am"/></g><g id="A"><use transform="matrix(0.05,0,0,0.05,0,0)" xlink:href="#T"/><use transform="matrix(0.05,0,0,0.05,14,0)" xlink:href="#ac"/><use transform="matrix(0.05,0,0,0.05,24,0)" xlink:href="#W"/><use transform="matrix(0.05,0,0,0.05,34,0)" xlink:href="#X"/><use transform="matrix(0.05,0,0,0.05,39.95,0)" xlink:href="#Z"/><use transform="matrix(0.05,0,0,0.05,49.95,0)" xlink:href="#aa"/><use transform="matrix(0.05,0,0,0.05,54.95,0)" xlink:href="#ab"/><use transform="matrix(0.05,0,0,0.05,58.900000000000006,0)" xlink:href="#S"/><use transform="matrix(0.05,0,0,0.05,68.9,0)" xlink:href="#ae"/><use transform="matrix(0.05,0,0,0.05,78.9,0)" xlink:href="#ap"/><use transform="matrix(0.05,0,0,0.05,91.85000000000001,0)" xlink:href="#Z"/><use transform="matrix(0.05,0,0,0.05,101.85000000000001,0)" xlink:href="#S"/><use transform="matrix(0.05,0,0,0.05,111.85000000000001,0)" xlink:href="#ae"/><use transform="matrix(0.05,0,0,0.05,121.85000000000001,0)" xlink:href="#W"/></g><g id="B"><use transform="matrix(0.05,0,0,0.05,0,0)" xlink:href="#T"/><use transform="matrix(0.05,0,0,0.05,14,0)" xlink:href="#ac"/><use transform="matrix(0.05,0,0,0.05,24,0)" xlink:href="#W"/><use transform="matrix(0.05,0,0,0.05,34,0)" xlink:href="#X"/><use transform="matrix(0.05,0,0,0.05,39.95,0)" xlink:href="#Z"/><use transform="matrix(0.05,0,0,0.05,49.95,0)" xlink:href="#aa"/><use transform="matrix(0.05,0,0,0.05,54.95,0)" xlink:href="#ab"/><use transform="matrix(0.05,0,0,0.05,58.900000000000006,0)" xlink:href="#S"/><use transform="matrix(0.05,0,0,0.05,68.9,0)" xlink:href="#ae"/><use transform="matrix(0.05,0,0,0.05,78.9,0)" xlink:href="#an"/><use transform="matrix(0.05,0,0,0.05,90.9,0)" xlink:href="#X"/><use transform="matrix(0.05,0,0,0.05,96.85000000000001,0)" xlink:href="#Q"/><use transform="matrix(0.05,0,0,0.05,106.85000000000001,0)" xlink:href="#ac"/><use transform="matrix(0.05,0,0,0.05,116.85000000000001,0)" xlink:href="#W"/><use transform="matrix(0.05,0,0,0.05,126.85000000000001,0)" xlink:href="#X"/><use transform="matrix(0.05,0,0,0.05,132.8,0)" xlink:href="#aa"/><use transform="matrix(0.05,0,0,0.05,137.8,0)" xlink:href="#am"/></g><path fill="#333" d="M106-169C34-169 62-67 57 0H25v-261h32l-1 103c12-21 28-36 61-36 89 0 53 116 60 194h-32v-121c2-32-8-49-39-48" id="aw"/><path fill="#333" d="M85-194c31 0 48 13 60 33l-1-100h32l1 261h-30c-2-10 0-23-3-31C134-8 116 4 85 4 32 4 16-35 15-94c0-66 23-100 70-100zm9 24c-40 0-46 34-46 75 0 40 6 74 45 74 42 0 51-32 51-76 0-42-9-74-50-73" id="ax"/><g id="C"><use transform="matrix(0.05,0,0,0.05,0,0)" xlink:href="#ao"/><use transform="matrix(0.05,0,0,0.05,14.950000000000001,0)" xlink:href="#Z"/><use transform="matrix(0.05,0,0,0.05,24.950000000000003,0)" xlink:href="#ab"/><use transform="matrix(0.05,0,0,0.05,28.900000000000002,0)" xlink:href="#S"/><use transform="matrix(0.05,0,0,0.05,38.900000000000006,0)" xlink:href="#aa"/><use transform="matrix(0.05,0,0,0.05,43.900000000000006,0)" xlink:href="#W"/><use transform="matrix(0.05,0,0,0.05,53.900000000000006,0)" xlink:href="#S"/><use transform="matrix(0.05,0,0,0.05,63.900000000000006,0)" xlink:href="#Z"/><use transform="matrix(0.05,0,0,0.05,73.9,0)" xlink:href="#S"/><use transform="matrix(0.05,0,0,0.05,83.9,0)" xlink:href="#ag"/><use transform="matrix(0.05,0,0,0.05,92.9,0)" xlink:href="#W"/><use transform="matrix(0.05,0,0,0.05,102.9,0)" xlink:href="#N"/><use transform="matrix(0.05,0,0,0.05,114.9,0)" xlink:href="#ag"/><use transform="matrix(0.05,0,0,0.05,123.9,0)" xlink:href="#aw"/><use transform="matrix(0.05,0,0,0.05,133.9,0)" xlink:href="#W"/><use transform="matrix(0.05,0,0,0.05,143.9,0)" xlink:href="#ax"/><use transform="matrix(0.05,0,0,0.05,153.9,0)" xlink:href="#ah"/><use transform="matrix(0.05,0,0,0.05,163.9,0)" xlink:href="#ad"/><use transform="matrix(0.05,0,0,0.05,167.85,0)" xlink:href="#W"/></g><path fill="#333" d="M206 0h-36l-40-164L89 0H53L-1-190h32L70-26l43-164h34l41 164 42-164h31" id="ay"/><g id="D"><use transform="matrix(0.05,0,0,0.05,0,0)" xlink:href="#T"/><use transform="matrix(0.05,0,0,0.05,14,0)" xlink:href="#ac"/><use transform="matrix(0.05,0,0,0.05,24,0)" xlink:href="#W"/><use transform="matrix(0.05,0,0,0.05,34,0)" xlink:href="#X"/><use transform="matrix(0.05,0,0,0.05,39.95,0)" xlink:href="#Z"/><use transform="matrix(0.05,0,0,0.05,49.95,0)" xlink:href="#aa"/><use transform="matrix(0.05,0,0,0.05,54.95,0)" xlink:href="#ab"/><use transform="matrix(0.05,0,0,0.05,58.900000000000006,0)" xlink:href="#S"/><use transform="matrix(0.05,0,0,0.05,68.9,0)" xlink:href="#ae"/><use transform="matrix(0.05,0,0,0.05,78.9,0)" xlink:href="#an"/><use transform="matrix(0.05,0,0,0.05,90.9,0)" xlink:href="#Q"/><use transform="matrix(0.05,0,0,0.05,100.9,0)" xlink:href="#ay"/><use transform="matrix(0.05,0,0,0.05,113.85000000000001,0)" xlink:href="#W"/><use transform="matrix(0.05,0,0,0.05,123.85000000000001,0)" xlink:href="#X"/><use transform="matrix(0.05,0,0,0.05,129.8,0)" xlink:href="#ap"/><use transform="matrix(0.05,0,0,0.05,142.75,0)" xlink:href="#Z"/><use transform="matrix(0.05,0,0,0.05,152.75,0)" xlink:href="#S"/><use transform="matrix(0.05,0,0,0.05,162.75,0)" xlink:href="#ae"/><use transform="matrix(0.05,0,0,0.05,172.75,0)" xlink:href="#W"/></g><g id="E"><use transform="matrix(0.05,0,0,0.05,0,0)" xlink:href="#N"/><use transform="matrix(0.05,0,0,0.05,12,0)" xlink:href="#ah"/><use transform="matrix(0.05,0,0,0.05,22,0)" xlink:href="#X"/><use transform="matrix(0.05,0,0,0.05,27.950000000000003,0)" xlink:href="#Y"/><use transform="matrix(0.05,0,0,0.05,36.95,0)" xlink:href="#ab"/><use transform="matrix(0.05,0,0,0.05,40.900000000000006,0)" xlink:href="#Y"/><use transform="matrix(0.05,0,0,0.05,49.900000000000006,0)" xlink:href="#Z"/><use transform="matrix(0.05,0,0,0.05,59.900000000000006,0)" xlink:href="#ad"/><use transform="matrix(0.05,0,0,0.05,63.85,0)" xlink:href="#ap"/><use transform="matrix(0.05,0,0,0.05,76.80000000000001,0)" xlink:href="#Z"/><use transform="matrix(0.05,0,0,0.05,86.80000000000001,0)" xlink:href="#S"/><use transform="matrix(0.05,0,0,0.05,96.80000000000001,0)" xlink:href="#ae"/><use transform="matrix(0.05,0,0,0.05,106.80000000000001,0)" xlink:href="#W"/></g><g id="F"><use transform="matrix(0.05,0,0,0.05,0,0)" xlink:href="#N"/><use transform="matrix(0.05,0,0,0.05,12,0)" xlink:href="#ah"/><use transform="matrix(0.05,0,0,0.05,22,0)" xlink:href="#X"/><use transform="matrix(0.05,0,0,0.05,27.950000000000003,0)" xlink:href="#Y"/><use transform="matrix(0.05,0,0,0.05,36.95,0)" xlink:href="#ab"/><use transform="matrix(0.05,0,0,0.05,40.900000000000006,0)" xlink:href="#Y"/><use transform="matrix(0.05,0,0,0.05,49.900000000000006,0)" xlink:href="#Z"/><use transform="matrix(0.05,0,0,0.05,59.900000000000006,0)" xlink:href="#ad"/><use transform="matrix(0.05,0,0,0.05,63.85,0)" xlink:href="#an"/><use transform="matrix(0.05,0,0,0.05,75.85000000000001,0)" xlink:href="#X"/><use transform="matrix(0.05,0,0,0.05,81.80000000000001,0)" xlink:href="#Q"/><use transform="matrix(0.05,0,0,0.05,91.80000000000001,0)" xlink:href="#ac"/><use transform="matrix(0.05,0,0,0.05,101.80000000000001,0)" xlink:href="#W"/><use transform="matrix(0.05,0,0,0.05,111.80000000000001,0)" xlink:href="#X"/><use transform="matrix(0.05,0,0,0.05,117.75,0)" xlink:href="#aa"/><use transform="matrix(0.05,0,0,0.05,122.75,0)" xlink:href="#am"/></g><g id="G"><use transform="matrix(0.05,0,0,0.05,0,0)" xlink:href="#N"/><use transform="matrix(0.05,0,0,0.05,12,0)" xlink:href="#am"/><use transform="matrix(0.05,0,0,0.05,21,0)" xlink:href="#V"/><use transform="matrix(0.05,0,0,0.05,30,0)" xlink:href="#aa"/><use transform="matrix(0.05,0,0,0.05,35,0)" xlink:href="#W"/><use transform="matrix(0.05,0,0,0.05,45,0)" xlink:href="#R"/><use transform="matrix(0.05,0,0,0.05,59.95,0)" xlink:href="#ar"/><use transform="matrix(0.05,0,0,0.05,69.95,0)" xlink:href="#ab"/><use transform="matrix(0.05,0,0,0.05,73.9,0)" xlink:href="#as"/><use transform="matrix(0.05,0,0,0.05,78.9,0)" xlink:href="#W"/><use transform="matrix(0.05,0,0,0.05,88.9,0)" xlink:href="#aa"/><use transform="matrix(0.05,0,0,0.05,93.9,0)" xlink:href="#ab"/><use transform="matrix(0.05,0,0,0.05,97.85000000000001,0)" xlink:href="#R"/><use transform="matrix(0.05,0,0,0.05,112.80000000000001,0)" xlink:href="#W"/></g><path fill="#333" d="M160-131c35 5 61 23 61 61C221 17 115-2 30 0v-248c76 3 177-17 177 60 0 33-19 50-47 57zm-97-11c50-1 110 9 110-42 0-47-63-36-110-37v79zm0 115c55-2 124 14 124-45 0-56-70-42-124-44v89" id="az"/><g id="H"><use transform="matrix(0.05,0,0,0.05,0,0)" xlink:href="#az"/><use transform="matrix(0.05,0,0,0.05,12,0)" xlink:href="#Z"/><use transform="matrix(0.05,0,0,0.05,22,0)" xlink:href="#aa"/><use transform="matrix(0.05,0,0,0.05,27,0)" xlink:href="#aa"/><use transform="matrix(0.05,0,0,0.05,32,0)" xlink:href="#W"/><use transform="matrix(0.05,0,0,0.05,42,0)" xlink:href="#X"/><use transform="matrix(0.05,0,0,0.05,47.95,0)" xlink:href="#am"/><use transform="matrix(0.05,0,0,0.05,56.95,0)" xlink:href="#ar"/><use transform="matrix(0.05,0,0,0.05,66.95,0)" xlink:href="#ab"/><use transform="matrix(0.05,0,0,0.05,70.9,0)" xlink:href="#as"/><use transform="matrix(0.05,0,0,0.05,75.9,0)" xlink:href="#W"/><use transform="matrix(0.05,0,0,0.05,85.9,0)" xlink:href="#av"/><use transform="matrix(0.05,0,0,0.05,96.85000000000001,0)" xlink:href="#R"/><use transform="matrix(0.05,0,0,0.05,111.80000000000001,0)" xlink:href="#W"/></g><g id="J"><use transform="matrix(0.05,0,0,0.05,0,0)" xlink:href="#N"/><use transform="matrix(0.05,0,0,0.05,12,0)" xlink:href="#Z"/><use transform="matrix(0.05,0,0,0.05,22,0)" xlink:href="#R"/><use transform="matrix(0.05,0,0,0.05,36.95,0)" xlink:href="#ac"/><use transform="matrix(0.05,0,0,0.05,46.95,0)" xlink:href="#ad"/><use transform="matrix(0.05,0,0,0.05,50.900000000000006,0)" xlink:href="#W"/></g><g id="K"><use transform="matrix(0.05,0,0,0.05,0,0)" xlink:href="#X"/><use transform="matrix(0.05,0,0,0.05,5.95,0)" xlink:href="#W"/><use transform="matrix(0.05,0,0,0.05,15.949999999999998,0)" xlink:href="#ad"/><use transform="matrix(0.05,0,0,0.05,19.9,0)" xlink:href="#Z"/><use transform="matrix(0.05,0,0,0.05,29.899999999999995,0)" xlink:href="#aa"/><use transform="matrix(0.05,0,0,0.05,34.9,0)" xlink:href="#ab"/><use transform="matrix(0.05,0,0,0.05,38.85,0)" xlink:href="#Q"/><use transform="matrix(0.05,0,0,0.05,48.85,0)" xlink:href="#S"/><use transform="matrix(0.05,0,0,0.05,58.85,0)" xlink:href="#V"/></g><g id="L"><use transform="matrix(0.05,0,0,0.05,0,0)" xlink:href="#N"/><use transform="matrix(0.05,0,0,0.05,12,0)" xlink:href="#Z"/><use transform="matrix(0.05,0,0,0.05,22,0)" xlink:href="#R"/><use transform="matrix(0.05,0,0,0.05,36.95,0)" xlink:href="#ac"/><use transform="matrix(0.05,0,0,0.05,46.95,0)" xlink:href="#ad"/><use transform="matrix(0.05,0,0,0.05,50.900000000000006,0)" xlink:href="#W"/><use transform="matrix(0.05,0,0,0.05,60.900000000000006,0)" xlink:href="#ap"/><use transform="matrix(0.05,0,0,0.05,73.85000000000001,0)" xlink:href="#W"/><use transform="matrix(0.05,0,0,0.05,83.85000000000001,0)" xlink:href="#ad"/><use transform="matrix(0.05,0,0,0.05,87.80000000000001,0)" xlink:href="#Z"/><use transform="matrix(0.05,0,0,0.05,97.80000000000001,0)" xlink:href="#aa"/><use transform="matrix(0.05,0,0,0.05,102.80000000000001,0)" xlink:href="#ab"/><use transform="matrix(0.05,0,0,0.05,106.75,0)" xlink:href="#Q"/><use transform="matrix(0.05,0,0,0.05,116.75,0)" xlink:href="#S"/><use transform="matrix(0.05,0,0,0.05,126.75,0)" xlink:href="#V"/><use transform="matrix(0.05,0,0,0.05,135.75,0)" xlink:href="#aw"/><use transform="matrix(0.05,0,0,0.05,145.75,0)" xlink:href="#ab"/><use transform="matrix(0.05,0,0,0.05,149.7,0)" xlink:href="#ac"/></g><g id="M"><use transform="matrix(0.05,0,0,0.05,0,0)" xlink:href="#ap"/><use transform="matrix(0.05,0,0,0.05,12.950000000000001,0)" xlink:href="#W"/><use transform="matrix(0.05,0,0,0.05,22.950000000000003,0)" xlink:href="#ad"/><use transform="matrix(0.05,0,0,0.05,26.900000000000002,0)" xlink:href="#Z"/><use transform="matrix(0.05,0,0,0.05,36.900000000000006,0)" xlink:href="#aa"/><use transform="matrix(0.05,0,0,0.05,41.900000000000006,0)" xlink:href="#ab"/><use transform="matrix(0.05,0,0,0.05,45.85000000000001,0)" xlink:href="#Q"/><use transform="matrix(0.05,0,0,0.05,55.85,0)" xlink:href="#S"/><use transform="matrix(0.05,0,0,0.05,65.85000000000001,0)" xlink:href="#V"/><use transform="matrix(0.05,0,0,0.05,74.85000000000001,0)" xlink:href="#aw"/><use transform="matrix(0.05,0,0,0.05,84.85000000000001,0)" xlink:href="#ab"/><use transform="matrix(0.05,0,0,0.05,88.80000000000001,0)" xlink:href="#ac"/><use transform="matrix(0.05,0,0,0.05,98.80000000000001,0)" xlink:href="#V"/><use transform="matrix(0.05,0,0,0.05,107.80000000000001,0)" xlink:href="#O"/><use transform="matrix(0.05,0,0,0.05,120.75,0)" xlink:href="#Z"/><use transform="matrix(0.05,0,0,0.05,130.75,0)" xlink:href="#aa"/><use transform="matrix(0.05,0,0,0.05,135.75,0)" xlink:href="#ah"/><use transform="matrix(0.05,0,0,0.05,145.75,0)" xlink:href="#X"/><use transform="matrix(0.05,0,0,0.05,151.7,0)" xlink:href="#W"/></g></defs></g></svg>