<svg xmlns="http://www.w3.org/2000/svg" xmlns:xlink="http://www.w3.org/1999/xlink" xmlns:lucid="lucid" width="2301" height="1201"><g transform="translate(-99.5 -679.5)" lucid:page-tab-id="0_0"><path d="M0 0h2634.9v2346.38H0z" fill="#fff"/><path d="M1536.53 723.14A43.32 43.32 0 0 0 1552 726h820a8 8 0 0 1 8 8v1118a8 8 0 0 1-8 8H128a8 8 0 0 1-8-8V708a8 8 0 0 1 8-8h1340a43.32 43.32 0 0 1 15.47 2.86zM120 726h1424" stroke="#333" fill="#dfe3e8"/><use xlink:href="#a" transform="matrix(1,0,0,1,128,700) translate(647.525 16.6)"/><path d="M681.65 1596.15a10.83 10.83 0 0 0 10.35 7.64h80a8 8 0 0 1 8 8v118a8 8 0 0 1-8 8H528a8 8 0 0 1-8-8v-144a8 8 0 0 1 8-8h140a10.83 10.83 0 0 1 10.35 7.64zM520 1603.8h164" stroke="#333" fill="#fff0f0"/><use xlink:href="#b" transform="matrix(1,0,0,1,528,1577.793282599798) translate(8.599999999999994 16.6)"/><use xlink:href="#c" transform="matrix(1,0,0,1,528,1577.793282599798) translate(50.55 16.6)"/><path d="M683.65 1238.35A10.83 10.83 0 0 0 694 1246h88a8 8 0 0 1 8 8v118a8 8 0 0 1-8 8H518a8 8 0 0 1-8-8v-144a8 8 0 0 1 8-8h152a10.83 10.83 0 0 1 10.35 7.65zM510 1246h176" stroke="#333" fill="#ffd9d9"/><use xlink:href="#b" transform="matrix(1,0,0,1,518.000000000012,1220) translate(2.5749999999999886 16.6)"/><use xlink:href="#d" transform="matrix(1,0,0,1,518.000000000012,1220) translate(44.52499999999999 16.6)"/><path d="M968.92 1238.28A10.44 10.44 0 0 0 979 1246h73a8 8 0 0 1 8 8v118a8 8 0 0 1-8 8H828a8 8 0 0 1-8-8v-144a8 8 0 0 1 8-8h128a10.44 10.44 0 0 1 10.08 7.72zM820 1246h151" stroke="#333" fill="#ffdda6"/><use xlink:href="#b" transform="matrix(1,0,0,1,828,1220) translate(1.5999999999999943 16.6)"/><use xlink:href="#e" transform="matrix(1,0,0,1,828,1220) translate(43.55 16.6)"/><path d="M388.92 1238.28A10.44 10.44 0 0 0 399 1246h73a8 8 0 0 1 8 8v118a8 8 0 0 1-8 8H248a8 8 0 0 1-8-8v-144a8 8 0 0 1 8-8h128a10.44 10.44 0 0 1 10.08 7.72zM240 1246h151" stroke="#333" fill="#ffd6f5"/><use xlink:href="#b" transform="matrix(1,0,0,1,248,1220) translate(1.5499999999999972 16.6)"/><use xlink:href="#f" transform="matrix(1,0,0,1,248,1220) translate(43.5 16.6)"/><path d="M360 1381v9.54m0 9.55v19.08m0 9.54v19.1m0 9.53v9.55l.15 1.87.44 1.84.7 1.75 1 1.6 1.2 1.43 1.45 1.22 1.6 1 1.74.7 1.82.45 1.88.15h9.98m9.98 0h19.96m9.97 0h19.95m9.98 0h19.96m9.97 0h19.96m9.97 0h19.96m9.98 0h19.96m9.98 0h9.98l1.87.14 1.84.44 1.73.72 1.6 1 1.44 1.2 1.23 1.44.98 1.6.72 1.75.44 1.82.16 1.88v9.5m0 9.5v19m0 9.5v19m0 9.5v9.48" stroke="#333" fill="none"/><path d="M360.48 1381h-.96v-.5h.96z" stroke="#333" stroke-width=".05" fill="#333"/><path d="M583.38 1559.1l10.18 17.2 10.18-17.2M940 1381v9.04m0 9.04v18.1m0 9.03v18.1m0 9.03v18.08m0 9.05v9.04l-.15 1.87-.44 1.83-.7 1.74-1 1.6-1.22 1.44-1.43 1.22-1.6 1-1.74.7-1.82.45-1.88.14h-10.77m-10.76 0h-21.54m-10.76 0h-21.53m-10.77 0h-21.53m-10.77 0h-21.53m-10.77 0h-21.53m-10.76 0H734.2l-1.87.14-1.83.44-1.74.72-1.6 1-1.44 1.2-1.22 1.44-.98 1.6-.72 1.75-.44 1.82-.15 1.88v9.87m0 9.88V1553m0 9.88v19.75m0 9.88v9.88" stroke="#333" fill="none"/><path d="M940.48 1381h-.96v-.5h.96z" stroke="#333" stroke-width=".05" fill="#333"/><path d="M712.03 1585.1l10.18 17.2 10.2-17.2M650 1381v9.3m0 9.3v18.62m0 9.3v18.6m0 9.3v18.62m0 9.3v18.6m0 9.32v18.6m0 9.3v18.62m0 9.3v9.3" stroke="#333" fill="none"/><path d="M650.48 1381h-.96v-.5h.96z" stroke="#333" stroke-width=".05" fill="#333"/><path d="M639.82 1559.1l10.18 17.2 10.18-17.2M1360 1401v10.55m0 10.55v21.1m0 10.55v10.55l.15 1.88.44 1.83.7 1.75 1 1.6 1.22 1.43 1.43 1.23 1.6 1 1.74.7 1.82.45 1.88.15h9.64m9.65 0h19.28m9.64 0h19.3m9.63 0h19.3m9.64 0h19.28m9.64 0h19.3m9.63 0h19.3m9.64 0h19.28m9.64 0h19.3m9.64 0h19.28m9.65 0h19.28m9.64 0h19.3m9.63 0h19.3m9.64 0h9.63l1.88.15 1.84.44 1.74.7 1.6 1 1.44 1.2 1.22 1.45.98 1.6.73 1.74.43 1.82.15 1.88v10.48m0 10.48v20.97m0 10.48v10.5" stroke="#333" fill="none"/><path d="M1360.47 1401h-.94v-.5h.94z" stroke="#333" stroke-width=".05" fill="#333"/><path d="M1749.95 1533.9l10.18 17.22 10.18-17.22M1760 1401v10m0 10.03v20.02m0 10v20.04m0 10v20.03m0 10v20.03m0 10.02v10" stroke="#333" fill="none"/><path d="M1760.47 1401h-.94v-.5h.94z" stroke="#333" stroke-width=".05" fill="#333"/><path d="M1749.82 1533.9l10.18 17.22 10.18-17.22M2140 1401v7l-.15 1.88-.44 1.83-.7 1.75-1 1.6-1.2 1.43-1.45 1.23-1.6 1-1.74.7-1.82.45-1.88.15h-9.9m-9.87 0h-19.77m-9.9 0h-19.76m-9.88 0h-19.77m-9.88 0h-19.77m-9.9 0h-19.76m-9.88 0h-19.77m-9.9 0h-19.77m-9.88 0h-19.77m-9.9 0h-19.76m-9.88 0h-19.77m-9.9 0h-19.76m-9.87 0h-9.9l-1.87.15-1.83.44-1.74.7-1.6 1-1.44 1.22-1.23 1.43-.98 1.6-.72 1.74-.44 1.82-.16 1.88v7.87m0 7.87v15.75m0 7.86v7.87" stroke="#333" fill="none"/><path d="M2140.47 1401h-.94v-.5h.94z" stroke="#333" stroke-width=".05" fill="#333"/><path d="M1750 1461.7l10 17.32 10.35-17.12" stroke="#333" fill="none"/><path d="M1896.58 801.23A24.18 24.18 0 0 0 1911 806h421a8 8 0 0 1 8 8v998a8 8 0 0 1-8 8H1168a8 8 0 0 1-8-8V788a8 8 0 0 1 8-8h692a24.18 24.18 0 0 1 14.42 4.77zM1160 806h743" stroke="#333" fill="#f2f3f5"/><use xlink:href="#g" transform="matrix(1,0,0,1,1168,780) translate(317.5 16.6)"/><path d="M1791.65 1570.95a10.83 10.83 0 0 0 10.35 7.65h80a8 8 0 0 1 8 8v178a8 8 0 0 1-8 8h-244a8 8 0 0 1-8-8v-204a8 8 0 0 1 8-8h140a10.83 10.83 0 0 1 10.35 7.64zM1630 1578.6h164" stroke="#333" fill="#fff0f0"/><use xlink:href="#h" transform="matrix(1,0,0,1,1638.0000000000155,1552.5981991498074) translate(2.5749999999999957 16.6)"/><use xlink:href="#c" transform="matrix(1,0,0,1,1638.0000000000155,1552.5981991498074) translate(56.574999999999996 16.6)"/><use xlink:href="#i" transform="matrix(1,0,0,1,1642.0000000000155,1586.5981991498074) translate(0 17.000000000000007)"/><use xlink:href="#j" transform="matrix(1,0,0,1,1642.0000000000155,1586.5981991498074) translate(0 38.60000000000001)"/><use xlink:href="#k" transform="matrix(1,0,0,1,1642.0000000000155,1586.5981991498074) translate(0 60.20000000000001)"/><use xlink:href="#l" transform="matrix(1,0,0,1,1642.0000000000155,1586.5981991498074) translate(0 81.80000000000003)"/><use xlink:href="#m" transform="matrix(1,0,0,1,1642.0000000000155,1586.5981991498074) translate(0 103.40000000000002)"/><use xlink:href="#n" transform="matrix(1,0,0,1,1642.0000000000155,1586.5981991498074) translate(0 125.00000000000001)"/><use xlink:href="#o" transform="matrix(1,0,0,1,1642.0000000000155,1586.5981991498074) translate(0 146.6)"/><use xlink:href="#p" transform="matrix(1,0,0,1,1642.0000000000155,1586.5981991498074) translate(0 168.20000000000002)"/><path d="M1799.13 1198.53A11.65 11.65 0 0 0 1810 1206h102a8 8 0 0 1 8 8v178a8 8 0 0 1-8 8h-304a8 8 0 0 1-8-8v-204a8 8 0 0 1 8-8h176a11.65 11.65 0 0 1 10.87 7.47zM1600 1206h202" stroke="#333" fill="#ffd9d9"/><use xlink:href="#h" transform="matrix(1,0,0,1,1608,1180) translate(8.549999999999997 16.6)"/><use xlink:href="#d" transform="matrix(1,0,0,1,1608,1180) translate(62.55 16.6)"/><use xlink:href="#q" transform="matrix(1,0,0,1,1612,1214) translate(0 38.6)"/><use xlink:href="#r" transform="matrix(1,0,0,1,1612,1214) translate(0 60.2)"/><use xlink:href="#s" transform="matrix(1,0,0,1,1612,1214) translate(0 81.80000000000001)"/><use xlink:href="#t" transform="matrix(1,0,0,1,1612,1214) translate(0 103.40000000000002)"/><use xlink:href="#u" transform="matrix(1,0,0,1,1612,1214) translate(0 125.00000000000001)"/><use xlink:href="#v" transform="matrix(1,0,0,1,1612,1214) translate(0 146.6)"/><path d="M2179.13 1198.53A11.65 11.65 0 0 0 2190 1206h102a8 8 0 0 1 8 8v178a8 8 0 0 1-8 8h-304a8 8 0 0 1-8-8v-204a8 8 0 0 1 8-8h176a11.65 11.65 0 0 1 10.87 7.47zM1980 1206h202" stroke="#333" fill="#ffdda6"/><use xlink:href="#h" transform="matrix(1,0,0,1,1988,1180) translate(19.57499999999999 16.6)"/><use xlink:href="#e" transform="matrix(1,0,0,1,1988,1180) translate(73.57499999999999 16.6)"/><use xlink:href="#w" transform="matrix(1,0,0,1,1992,1214) translate(0 17.000000000000007)"/><use xlink:href="#x" transform="matrix(1,0,0,1,1992,1214) translate(0 38.60000000000001)"/><use xlink:href="#y" transform="matrix(1,0,0,1,1992,1214) translate(0 60.20000000000001)"/><use xlink:href="#z" transform="matrix(1,0,0,1,1992,1214) translate(0 81.80000000000003)"/><use xlink:href="#A" transform="matrix(1,0,0,1,1992,1214) translate(0 103.40000000000002)"/><use xlink:href="#B" transform="matrix(1,0,0,1,1992,1214) translate(0 125.00000000000001)"/><use xlink:href="#C" transform="matrix(1,0,0,1,1992,1214) translate(0 146.6)"/><use xlink:href="#D" transform="matrix(1,0,0,1,1992,1214) translate(0 168.20000000000002)"/><path d="M1399.13 1198.53A11.65 11.65 0 0 0 1410 1206h102a8 8 0 0 1 8 8v178a8 8 0 0 1-8 8h-304a8 8 0 0 1-8-8v-204a8 8 0 0 1 8-8h176a11.65 11.65 0 0 1 10.87 7.47zM1200 1206h202" stroke="#333" fill="#ffd6f5"/><use xlink:href="#h" transform="matrix(1,0,0,1,1208,1180) translate(19.525000000000006 16.6)"/><use xlink:href="#f" transform="matrix(1,0,0,1,1208,1180) translate(73.525 16.6)"/><use xlink:href="#E" transform="matrix(1,0,0,1,1212,1214) translate(0 49.39999999999999)"/><use xlink:href="#F" transform="matrix(1,0,0,1,1212,1214) translate(0 71)"/><use xlink:href="#G" transform="matrix(1,0,0,1,1212,1214) translate(0 92.6)"/><use xlink:href="#H" transform="matrix(1,0,0,1,1212,1214) translate(0 114.20000000000002)"/><use xlink:href="#I" transform="matrix(1,0,0,1,1212,1214) translate(0 135.8)"/><path d="M1360 1401v9.75m0 9.75v19.5m0 9.75v19.5m0 9.75v19.5m0 9.75v9.75l.15 1.88.44 1.83.7 1.75 1 1.6 1.22 1.43 1.43 1.23 1.6 1 1.74.7 1.82.45 1.88.15h10.54m10.55 0h21.07m10.54 0h21.1m10.54 0h21.1m10.53 0h21.08m10.55 0h21.08m10.54 0h21.1m10.53 0h21.1m10.53 0h21.08m10.55 0h10.55l1.88.15 1.83.44 1.74.7 1.6 1 1.43 1.22 1.23 1.43.98 1.6.72 1.74.44 1.82.15 1.88v9.2" stroke="#333" fill="none"/><path d="M1360.47 1401h-.94v-.5h.94z" stroke="#333" stroke-width=".05" fill="#333"/><path d="M1658.47 1533.9l10.18 17.22 10.18-17.22M1760 1401v9.7m0 9.7v19.4m0 9.7v19.4m0 9.7v19.4m0 9.7v19.4m0 9.7v9.7" stroke="#333" fill="none"/><path d="M1760.47 1401h-.94v-.5h.94z" stroke="#333" stroke-width=".05" fill="#333"/><path d="M1749.82 1529.2l10.18 17.22 10.18-17.22M2140 1401v9.75m0 9.75v19.5m0 9.75v19.5m0 9.75v19.5m0 9.75v9.75l-.15 1.88-.44 1.83-.7 1.75-1 1.6-1.2 1.43-1.45 1.23-1.6 1-1.74.7-1.82.45-1.88.15h-9.8m-9.8 0h-19.63m-9.8 0h-19.62m-9.8 0h-19.62m-9.8 0h-19.62m-9.8 0h-19.6m-9.8 0h-19.62m-9.8 0h-19.62m-9.8 0h-19.62m-9.8 0h-9.82l-1.87.15-1.83.44-1.74.7-1.6 1-1.44 1.22-1.22 1.43-1 1.6-.7 1.74-.45 1.82-.15 1.88v11.73m0 11.73v11.73" stroke="#333" fill="none"/><path d="M2140.47 1401h-.94v-.5h.94z" stroke="#333" stroke-width=".05" fill="#333"/><path d="M1841.04 1559.9l10.18 17.22 10.18-17.22M781 1657.8h10.1m10.08 0h20.18m10.1 0h20.17m10.1 0h20.17m10.1 0h20.17m10.1 0h20.18m10.1 0h20.17m10.1 0h20.17m10.08 0h20.18m10.1 0h20.17m10.1 0h20.17m10.1 0h20.17m10.1 0h20.17m10.1 0h20.17m10.1 0h20.2m10.08 0h20.18m10.1 0h20.17m10.1 0h20.17m10.1 0h20.17m10.1 0h20.17m10.1 0h20.17m10.1 0h20.18m10.1 0h20.17m10.1 0h20.18m10.1 0h20.17m10.1 0h20.17m10.1 0h20.17m10.1 0h20.17m10.1 0h10.1" stroke="#333" fill="none"/><path d="M781 1658.27h-.5v-.95h.5z" stroke="#333" stroke-width=".05" fill="#333"/><path d="M1611.3 1667.97l17.22-10.18-17.22-10.2" stroke="#333" fill="none"/><path d="M723.06 880.87a10.44 10.44 0 0 0 10.08 7.73h73a8 8 0 0 1 8 8v98a8 8 0 0 1-8 8h-224a8 8 0 0 1-8-8v-124a8 8 0 0 1 8-8h128a10.44 10.44 0 0 1 10.08 7.72zm-148.92 7.73h151" stroke="#333" fill="#ced4db"/><g><use xlink:href="#J" transform="matrix(1,0,0,1,582.1432758542868,862.5981991498076) translate(41.525 16.6)"/></g><path d="M694.14 1003.6v10.06m0 10.06v20.1m0 10.07v20.1m0 10.07v20.1m0 10.07v20.08m0 10.03v20.05m0 10.02v20.05m0 10.02v20.04m0 10.03v10.02" stroke="#333" fill="none"/><path d="M694.62 1003.6h-.95v-.5h.95z" stroke="#333" stroke-width=".05" fill="#333"/><path d="M683.96 1227.3l10.18 17.22 10.18-17.22M694.14 1003.6v9.38m0 9.37v18.76m0 9.4v18.74m0 9.38v9.38l.15 1.88.43 1.83.72 1.75.98 1.6 1.23 1.43 1.43 1.23 1.6 1 1.73.7 1.84.45 1.87.15h10.3m10.3 0h20.63m10.3 0h20.6m10.32 0h20.6m10.3 0h20.6m10.32 0h20.6m10.32 0h20.6m10.3 0h10.32l1.87.15 1.83.44 1.74.7 1.6 1 1.44 1.22 1.22 1.43 1 1.6.7 1.74.45 1.82.16 1.88v8.88m0 8.88v17.77m0 8.88v17.78m0 8.88v17.77m0 8.88v8.9" stroke="#333" fill="none"/><path d="M694.62 1003.6h-.95v-.5h.95z" stroke="#333" stroke-width=".05" fill="#333"/><path d="M924.38 1201.3l10.18 17.22 10.18-17.22M694.14 1003.6v9.38m0 9.37v18.76m0 9.4v18.74m0 9.38v9.38l-.14 1.88-.44 1.83-.72 1.75-1 1.6-1.2 1.43-1.44 1.23-1.6 1-1.75.7-1.83.45-1.88.15h-9.93m-9.93 0H642.4m-9.93 0H612.6m-9.94 0H582.8m-9.95 0h-19.87m-9.94 0h-19.87m-9.93 0h-19.87m-9.94 0h-19.87m-9.94 0h-19.87m-9.93 0h-19.88m-9.93 0h-19.86m-9.94 0h-9.93l-1.88.15-1.84.44-1.74.7-1.6 1-1.44 1.22-1.22 1.43-1 1.6-.7 1.74-.45 1.82-.13 1.88v8.88m0 8.88v17.77m0 8.88v17.78m0 8.88v17.77m0 8.88v8.9" stroke="#333" fill="none"/><path d="M694.62 1003.6h-.95v-.5h.95z" stroke="#333" stroke-width=".05" fill="#333"/><path d="M332.08 1201.3l10.2 17.22 10.17-17.22" stroke="#333" fill="none"/><path d="M1553.7 878.27a10.44 10.44 0 0 0 10.08 7.73H1632a8 8 0 0 1 8 8v98a8 8 0 0 1-8 8h-211.22a8 8 0 0 1-8-8V868a8 8 0 0 1 8-8h120a10.44 10.44 0 0 1 10.07 7.73zM1412.77 886h143" stroke="#333" fill="#ced4db"/><g><use xlink:href="#K" transform="matrix(1,0,0,1,1420.7745257743388,860) translate(31.5 16.6)"/></g><path d="M1526.4 1001v8.56m0 8.55v17.12m0 8.56v17.1m0 8.56v8.56l-.16 1.88-.44 1.83-.72 1.75-.98 1.6-1.23 1.43-1.43 1.23-1.6 1-1.74.7-1.84.45-1.87.15h-9.14m-9.13 0h-18.25m-9.13 0h-18.26m-9.13 0h-18.26m-9.12 0h-18.25m-9.13 0h-9.13l-1.87.15-1.83.44-1.74.7-1.6 1-1.44 1.22-1.23 1.43-1 1.6-.7 1.74-.45 1.82-.15 1.88v8.5m0 8.52v17.02m0 8.5v17.03m0 8.5v8.52" stroke="#333" fill="none"/><path d="M1526.86 1001h-.95v-.5h.96z" stroke="#333" stroke-width=".05" fill="#333"/><path d="M1355.3 1161.3l10.17 17.22 10.18-17.22M1526.4 1001v8.56m0 8.55v17.12m0 8.56v17.1m0 8.56v8.56l.13 1.88.44 1.83.72 1.75.98 1.6 1.22 1.43 1.43 1.23 1.6 1 1.75.7 1.83.45 1.9.15h9.74m9.75 0h19.5m9.74 0h19.5m9.76 0h19.5m9.75 0h19.5m9.75 0h19.5m9.76 0h19.5m9.75 0h19.52m9.75 0h19.5m9.75 0h19.5m9.75 0h19.5m9.76 0h19.5m9.75 0h19.5m9.76 0h19.5m9.75 0h19.5m9.74 0h19.5m9.76 0h19.5m9.75 0h19.5m9.76 0h19.5m9.76 0h19.5m9.75 0h9.77l1.87.15 1.83.44 1.74.7 1.62 1 1.43 1.22 1.22 1.43 1 1.6.7 1.74.45 1.82.14 1.88v8.5m0 8.52v17.02m0 8.5v17.03m0 8.5v8.52" stroke="#333" fill="none"/><path d="M1526.86 1001h-.95v-.5h.96z" stroke="#333" stroke-width=".05" fill="#333"/><path d="M2125.28 1161.3l10.18 17.22 10.2-17.22M1526.4 1001v8.56m0 8.55v17.12m0 8.56v17.1m0 8.56v8.56l.13 1.88.44 1.83.72 1.75.98 1.6 1.22 1.43 1.43 1.23 1.6 1 1.75.7 1.83.45 1.9.15h9.43m9.44 0h18.9m9.43 0h18.88m9.44 0h18.9m9.43 0h18.88m9.45 0h18.88m9.44 0h9.45l1.87.15 1.83.44 1.74.7 1.6 1 1.43 1.22 1.22 1.43 1 1.6.7 1.74.45 1.82.15 1.88v8.5m0 8.52v17.02m0 8.5v17.03m0 8.5v8.52" stroke="#333" fill="none"/><path d="M1526.86 1001h-.95v-.5h.96z" stroke="#333" stroke-width=".05" fill="#333"/><path d="M1710.16 1161.3l10.2 17.22 10.17-17.22M940 1381v9.04m0 9.04v18.1m0 9.03v18.1m0 9.03v18.08m0 9.05v9.04l.15 1.87.44 1.83.7 1.74 1 1.6 1.22 1.44 1.43 1.22 1.6 1 1.74.7 1.82.45 1.88.14h9.87m9.87 0h19.74m9.87 0h19.74m9.86 0h19.75m9.88 0h19.74m9.87 0h19.73m9.87 0h19.74m9.87 0h19.75m9.87 0h19.75m9.87 0h19.74m9.87 0H1258m9.86 0h19.74m9.87 0h19.74m9.88 0h19.74m9.88 0h19.74m9.87 0h19.75m9.87 0h19.74m9.87 0h19.74m9.87 0h19.74m9.87 0h19.74m9.87 0h19.74m9.88 0h19.74m9.87 0h19.73m9.87 0h19.74m9.87 0h19.75m9.87 0h19.74m9.88 0h19.74m9.87 0h19.74m9.86 0H1791m9.87 0h19.74m9.88 0h19.74m9.88 0h19.74m9.87 0h19.75m9.87 0h19.74m9.87 0h19.74m9.87 0h19.74m9.87 0h19.74m9.87 0h9.87l1.87-.15 1.84-.44 1.74-.7 1.6-1 1.44-1.22 1.22-1.43 1-1.6.7-1.75.45-1.83.14-1.88v-9.8m0-9.78v-19.57m0-9.8V1421m0-9.78v-9.8" stroke="#333" fill="none"/><path d="M940.48 1381h-.96v-.5h.96z" stroke="#333" stroke-width=".05" fill="#333"/><path d="M2069.82 1418.7l-10.18-17.22-10.18 17.22M360 1381v7.92m0 7.9v15.85m0 7.9v7.93l.15 1.88.44 1.83.7 1.75 1 1.6 1.2 1.43 1.45 1.23 1.6 1 1.74.7 1.82.45 1.88.15h9.95m9.95 0h19.9m9.96 0h19.9m9.95 0h19.9m9.97 0h19.9m9.95 0h19.9m9.96 0h19.9m9.95 0h19.9m9.96 0h19.9m9.94 0h19.9m9.95 0h19.9m9.95 0h19.9m9.95 0h19.9m9.96 0h19.9m9.95 0h19.9m9.97 0h19.9m9.95 0h19.9m9.96 0h19.9m9.95 0h19.9m9.95 0h19.9m9.96 0h19.9m9.95 0h19.9m9.95 0h19.9m9.95 0h19.9m9.96 0h19.9m9.95 0h19.9m9.97 0h19.9m9.95 0h19.9m9.96 0h19.9m9.95 0h19.9m9.95 0h9.96l1.87-.15 1.85-.44 1.73-.7 1.6-1 1.44-1.22 1.23-1.43.98-1.6.72-1.74.44-1.82.14-1.88v-9.03m0-9.03v-9.03" stroke="#333" fill="none"/><path d="M360.48 1381h-.96v-.5h.96z" stroke="#333" stroke-width=".05" fill="#333"/><path d="M1289.82 1418.7l-10.18-17.22-10.18 17.22M682.2 1381v9.26m0 9.25v18.52m0 9.26v18.5m0 9.26v9.26l.15 1.88.44 1.83.7 1.75 1 1.6 1.22 1.43 1.43 1.23 1.6 1 1.75.7 1.83.45 1.88.15h10.15m10.14 0h20.27m10.14 0h20.28m10.15 0h20.27m10.14 0h20.28m10.14 0h20.28m10.14 0h20.28m10.14 0h20.28m10.14 0h20.28m10.14 0h20.28m10.14 0h20.28m10.14 0h20.28m10.14 0h20.28m10.14 0h20.28m10.14 0h20.28m10.14 0h20.28m10.14 0h20.28m10.14 0h20.28m10.14 0h20.28m10.14 0h20.28m10.14 0h20.28m10.14 0h20.28m10.14 0h20.28m10.14 0H1404m10.14 0h20.28m10.14 0h20.28m10.14 0h20.28m10.14 0h20.28m10.14 0h20.28m10.14 0h20.28m10.14 0h20.28m10.14 0h20.28m10.14 0h10.14l1.87-.15 1.85-.44 1.73-.7 1.6-1 1.44-1.22 1.23-1.43.98-1.6.72-1.74.44-1.82.14-1.88v-10.48m0-10.48v-20.97m0-10.48v-10.5" stroke="#333" fill="none"/><path d="M682.68 1381h-.95v-.5h.95z" stroke="#333" stroke-width=".05" fill="#333"/><path d="M1689.82 1418.7l-10.18-17.22-10.18 17.22" stroke="#333" fill="none"/><defs><path fill="#333" d="M185-189c-5-48-123-54-124 2 14 75 158 14 163 119 3 78-121 87-175 55-17-10-28-26-33-46l33-7c5 56 141 63 141-1 0-78-155-14-162-118-5-82 145-84 179-34 5 7 8 16 11 25" id="L"/><path fill="#333" d="M190 0L58-211 59 0H30v-248h39L202-35l-2-213h31V0h-41" id="M"/><g id="a"><use transform="matrix(0.05,0,0,0.05,0,0)" xlink:href="#L"/><use transform="matrix(0.05,0,0,0.05,12,0)" xlink:href="#L"/><use transform="matrix(0.05,0,0,0.05,24,0)" xlink:href="#M"/></g><g id="b"><use transform="matrix(0.05,0,0,0.05,0,0)" xlink:href="#L"/><use transform="matrix(0.05,0,0,0.05,12,0)" xlink:href="#L"/><use transform="matrix(0.05,0,0,0.05,24,0)" xlink:href="#M"/></g><path fill="#333" d="M212-179c-10-28-35-45-73-45-59 0-87 40-87 99 0 60 29 101 89 101 43 0 62-24 78-52l27 14C228-24 195 4 139 4 59 4 22-46 18-125c-6-104 99-153 187-111 19 9 31 26 39 46" id="N"/><path fill="#333" d="M100-194c62-1 85 37 85 99 1 63-27 99-86 99S16-35 15-95c0-66 28-99 85-99zM99-20c44 1 53-31 53-75 0-43-8-75-51-75s-53 32-53 75 10 74 51 75" id="O"/><path fill="#333" d="M210-169c-67 3-38 105-44 169h-31v-121c0-29-5-50-35-48C34-165 62-65 56 0H25l-1-190h30c1 10-1 24 2 32 10-44 99-50 107 0 11-21 27-35 58-36 85-2 47 119 55 194h-31v-121c0-29-5-49-35-48" id="P"/><path fill="#333" d="M117-194c89-4 53 116 60 194h-32v-121c0-31-8-49-39-48C34-167 62-67 57 0H25l-1-190h30c1 10-1 24 2 32 11-22 29-35 61-36" id="Q"/><g id="c"><use transform="matrix(0.05,0,0,0.05,0,0)" xlink:href="#N"/><use transform="matrix(0.05,0,0,0.05,12.950000000000001,0)" xlink:href="#O"/><use transform="matrix(0.05,0,0,0.05,22.950000000000003,0)" xlink:href="#P"/><use transform="matrix(0.05,0,0,0.05,37.900000000000006,0)" xlink:href="#P"/><use transform="matrix(0.05,0,0,0.05,52.85,0)" xlink:href="#O"/><use transform="matrix(0.05,0,0,0.05,62.85,0)" xlink:href="#Q"/></g><path fill="#333" d="M140-251c81 0 123 46 123 126C263-46 219 4 140 4 59 4 17-45 17-125s42-126 123-126zm0 227c63 0 89-41 89-101s-29-99-89-99c-61 0-89 39-89 99S79-25 140-24" id="R"/><path fill="#333" d="M115-194c53 0 69 39 70 98 0 66-23 100-70 100C84 3 66-7 56-30L54 0H23l1-261h32v101c10-23 28-34 59-34zm-8 174c40 0 45-34 45-75 0-40-5-75-45-74-42 0-51 32-51 76 0 43 10 73 51 73" id="S"/><path fill="#333" d="M135-143c-3-34-86-38-87 0 15 53 115 12 119 90S17 21 10-45l28-5c4 36 97 45 98 0-10-56-113-15-118-90-4-57 82-63 122-42 12 7 21 19 24 35" id="T"/><path fill="#333" d="M100-194c63 0 86 42 84 106H49c0 40 14 67 53 68 26 1 43-12 49-29l28 8c-11 28-37 45-77 45C44 4 14-33 15-96c1-61 26-98 85-98zm52 81c6-60-76-77-97-28-3 7-6 17-6 28h103" id="U"/><path fill="#333" d="M114-163C36-179 61-72 57 0H25l-1-190h30c1 12-1 29 2 39 6-27 23-49 58-41v29" id="V"/><path fill="#333" d="M108 0H70L1-190h34L89-25l56-165h34" id="W"/><path fill="#333" d="M141-36C126-15 110 5 73 4 37 3 15-17 15-53c-1-64 63-63 125-63 3-35-9-54-41-54-24 1-41 7-42 31l-33-3c5-37 33-52 76-52 45 0 72 20 72 64v82c-1 20 7 32 28 27v20c-31 9-61-2-59-35zM48-53c0 20 12 33 32 33 41-3 63-29 60-74-43 2-92-5-92 41" id="X"/><path fill="#333" d="M59-47c-2 24 18 29 38 22v24C64 9 27 4 27-40v-127H5v-23h24l9-43h21v43h35v23H59v120" id="Y"/><path fill="#333" d="M24-231v-30h32v30H24zM24 0v-190h32V0H24" id="Z"/><g id="d"><use transform="matrix(0.05,0,0,0.05,0,0)" xlink:href="#R"/><use transform="matrix(0.05,0,0,0.05,14,0)" xlink:href="#S"/><use transform="matrix(0.05,0,0,0.05,24,0)" xlink:href="#T"/><use transform="matrix(0.05,0,0,0.05,33,0)" xlink:href="#U"/><use transform="matrix(0.05,0,0,0.05,43,0)" xlink:href="#V"/><use transform="matrix(0.05,0,0,0.05,48.95,0)" xlink:href="#W"/><use transform="matrix(0.05,0,0,0.05,57.95,0)" xlink:href="#X"/><use transform="matrix(0.05,0,0,0.05,67.95,0)" xlink:href="#Y"/><use transform="matrix(0.05,0,0,0.05,72.95,0)" xlink:href="#Z"/><use transform="matrix(0.05,0,0,0.05,76.9,0)" xlink:href="#O"/><use transform="matrix(0.05,0,0,0.05,86.9,0)" xlink:href="#Q"/></g><path fill="#333" d="M115-194c55 1 70 41 70 98S169 2 115 4C84 4 66-9 55-30l1 105H24l-1-265h31l2 30c10-21 28-34 59-34zm-8 174c40 0 45-34 45-75s-6-73-45-74c-42 0-51 32-51 76 0 43 10 73 51 73" id="aa"/><path fill="#333" d="M24 0v-261h32V0H24" id="ab"/><path fill="#333" d="M177-190C167-65 218 103 67 71c-23-6-38-20-44-43l32-5c15 47 100 32 89-28v-30C133-14 115 1 83 1 29 1 15-40 15-95c0-56 16-97 71-98 29-1 48 16 59 35 1-10 0-23 2-32h30zM94-22c36 0 50-32 50-73 0-42-14-75-50-75-39 0-46 34-46 75s6 73 46 73" id="ac"/><g id="e"><use transform="matrix(0.05,0,0,0.05,0,0)" xlink:href="#L"/><use transform="matrix(0.05,0,0,0.05,12,0)" xlink:href="#X"/><use transform="matrix(0.05,0,0,0.05,22,0)" xlink:href="#P"/><use transform="matrix(0.05,0,0,0.05,36.95,0)" xlink:href="#aa"/><use transform="matrix(0.05,0,0,0.05,46.95,0)" xlink:href="#ab"/><use transform="matrix(0.05,0,0,0.05,50.900000000000006,0)" xlink:href="#Z"/><use transform="matrix(0.05,0,0,0.05,54.85,0)" xlink:href="#Q"/><use transform="matrix(0.05,0,0,0.05,64.85000000000001,0)" xlink:href="#ac"/></g><path fill="#333" d="M205 0l-28-72H64L36 0H1l101-248h38L239 0h-34zm-38-99l-47-123c-12 45-31 82-46 123h93" id="ad"/><path fill="#333" d="M96-169c-40 0-48 33-48 73s9 75 48 75c24 0 41-14 43-38l32 2c-6 37-31 61-74 61-59 0-76-41-82-99-10-93 101-131 147-64 4 7 5 14 7 22l-32 3c-4-21-16-35-41-35" id="ae"/><path fill="#333" d="M84 4C-5 8 30-112 23-190h32v120c0 31 7 50 39 49 72-2 45-101 50-169h31l1 190h-30c-1-10 1-25-2-33-11 22-28 36-60 37" id="af"/><g id="f"><use transform="matrix(0.05,0,0,0.05,0,0)" xlink:href="#ad"/><use transform="matrix(0.05,0,0,0.05,12,0)" xlink:href="#ae"/><use transform="matrix(0.05,0,0,0.05,21,0)" xlink:href="#Y"/><use transform="matrix(0.05,0,0,0.05,26,0)" xlink:href="#af"/><use transform="matrix(0.05,0,0,0.05,36,0)" xlink:href="#X"/><use transform="matrix(0.05,0,0,0.05,46,0)" xlink:href="#Y"/><use transform="matrix(0.05,0,0,0.05,51,0)" xlink:href="#Z"/><use transform="matrix(0.05,0,0,0.05,54.95,0)" xlink:href="#O"/><use transform="matrix(0.05,0,0,0.05,64.95,0)" xlink:href="#Q"/></g><g id="g"><use transform="matrix(0.05,0,0,0.05,0,0)" xlink:href="#L"/><use transform="matrix(0.05,0,0,0.05,12,0)" xlink:href="#R"/><use transform="matrix(0.05,0,0,0.05,26,0)" xlink:href="#L"/><use transform="matrix(0.05,0,0,0.05,38,0)" xlink:href="#ad"/></g><g id="h"><use transform="matrix(0.05,0,0,0.05,0,0)" xlink:href="#L"/><use transform="matrix(0.05,0,0,0.05,12,0)" xlink:href="#R"/><use transform="matrix(0.05,0,0,0.05,26,0)" xlink:href="#L"/><use transform="matrix(0.05,0,0,0.05,38,0)" xlink:href="#ad"/></g><path fill="#3a414a" d="M63-220v92h138v28H63V0H30v-248h175v28H63" id="ag"/><path fill="#3a414a" d="M100-194c63 0 86 42 84 106H49c0 40 14 67 53 68 26 1 43-12 49-29l28 8c-11 28-37 45-77 45C44 4 14-33 15-96c1-61 26-98 85-98zm52 81c6-60-76-77-97-28-3 7-6 17-6 28h103" id="ah"/><path fill="#3a414a" d="M141-36C126-15 110 5 73 4 37 3 15-17 15-53c-1-64 63-63 125-63 3-35-9-54-41-54-24 1-41 7-42 31l-33-3c5-37 33-52 76-52 45 0 72 20 72 64v82c-1 20 7 32 28 27v20c-31 9-61-2-59-35zM48-53c0 20 12 33 32 33 41-3 63-29 60-74-43 2-92-5-92 41" id="ai"/><path fill="#3a414a" d="M59-47c-2 24 18 29 38 22v24C64 9 27 4 27-40v-127H5v-23h24l9-43h21v43h35v23H59v120" id="aj"/><path fill="#3a414a" d="M84 4C-5 8 30-112 23-190h32v120c0 31 7 50 39 49 72-2 45-101 50-169h31l1 190h-30c-1-10 1-25-2-33-11 22-28 36-60 37" id="ak"/><path fill="#3a414a" d="M114-163C36-179 61-72 57 0H25l-1-190h30c1 12-1 29 2 39 6-27 23-49 58-41v29" id="al"/><path fill="#3a414a" d="M140-251c81 0 123 46 123 126C263-46 219 4 140 4 59 4 17-45 17-125s42-126 123-126zm0 227c63 0 89-41 89-101s-29-99-89-99c-61 0-89 39-89 99S79-25 140-24" id="am"/><path fill="#3a414a" d="M101-234c-31-9-42 10-38 44h38v23H63V0H32v-167H5v-23h27c-7-52 17-82 69-68v24" id="an"/><path fill="#3a414a" d="M33 0v-248h34V0H33" id="ao"/><path fill="#3a414a" d="M117-194c89-4 53 116 60 194h-32v-121c0-31-8-49-39-48C34-167 62-67 57 0H25l-1-190h30c1 10-1 24 2 32 11-22 29-35 61-36" id="ap"/><path fill="#3a414a" d="M135-143c-3-34-86-38-87 0 15 53 115 12 119 90S17 21 10-45l28-5c4 36 97 45 98 0-10-56-113-15-118-90-4-57 82-63 122-42 12 7 21 19 24 35" id="aq"/><g id="i"><use transform="matrix(0.05,0,0,0.05,0,0)" xlink:href="#ag"/><use transform="matrix(0.05,0,0,0.05,10.950000000000001,0)" xlink:href="#ah"/><use transform="matrix(0.05,0,0,0.05,20.950000000000003,0)" xlink:href="#ai"/><use transform="matrix(0.05,0,0,0.05,30.950000000000003,0)" xlink:href="#aj"/><use transform="matrix(0.05,0,0,0.05,35.95,0)" xlink:href="#ak"/><use transform="matrix(0.05,0,0,0.05,45.95,0)" xlink:href="#al"/><use transform="matrix(0.05,0,0,0.05,51.900000000000006,0)" xlink:href="#ah"/><use transform="matrix(0.05,0,0,0.05,61.900000000000006,0)" xlink:href="#am"/><use transform="matrix(0.05,0,0,0.05,75.9,0)" xlink:href="#an"/><use transform="matrix(0.05,0,0,0.05,80.9,0)" xlink:href="#ao"/><use transform="matrix(0.05,0,0,0.05,85.9,0)" xlink:href="#ap"/><use transform="matrix(0.05,0,0,0.05,95.9,0)" xlink:href="#aj"/><use transform="matrix(0.05,0,0,0.05,100.9,0)" xlink:href="#ah"/><use transform="matrix(0.05,0,0,0.05,110.9,0)" xlink:href="#al"/><use transform="matrix(0.05,0,0,0.05,116.85000000000001,0)" xlink:href="#ah"/><use transform="matrix(0.05,0,0,0.05,126.85000000000001,0)" xlink:href="#aq"/><use transform="matrix(0.05,0,0,0.05,135.85000000000002,0)" xlink:href="#aj"/></g><path fill="#3a414a" d="M30-248c87 1 191-15 191 75 0 78-77 80-158 76V0H30v-248zm33 125c57 0 124 11 124-50 0-59-68-47-124-48v98" id="ar"/><path fill="#3a414a" d="M100-194c62-1 85 37 85 99 1 63-27 99-86 99S16-35 15-95c0-66 28-99 85-99zM99-20c44 1 53-31 53-75 0-43-8-75-51-75s-53 32-53 75 10 74 51 75" id="as"/><path fill="#3a414a" d="M115-194c55 1 70 41 70 98S169 2 115 4C84 4 66-9 55-30l1 105H24l-1-265h31l2 30c10-21 28-34 59-34zm-8 174c40 0 45-34 45-75s-6-73-45-74c-42 0-51 32-51 76 0 43 10 73 51 73" id="at"/><path fill="#3a414a" d="M179-190L93 31C79 59 56 82 12 73V49c39 6 53-20 64-50L1-190h34L92-34l54-156h33" id="au"/><g id="j"><use transform="matrix(0.05,0,0,0.05,0,0)" xlink:href="#ar"/><use transform="matrix(0.05,0,0,0.05,12,0)" xlink:href="#al"/><use transform="matrix(0.05,0,0,0.05,17.95,0)" xlink:href="#as"/><use transform="matrix(0.05,0,0,0.05,27.950000000000003,0)" xlink:href="#at"/><use transform="matrix(0.05,0,0,0.05,37.95,0)" xlink:href="#ah"/><use transform="matrix(0.05,0,0,0.05,47.95,0)" xlink:href="#al"/><use transform="matrix(0.05,0,0,0.05,53.900000000000006,0)" xlink:href="#aj"/><use transform="matrix(0.05,0,0,0.05,58.900000000000006,0)" xlink:href="#au"/></g><g id="k"><use transform="matrix(0.05,0,0,0.05,0,0)" xlink:href="#ar"/><use transform="matrix(0.05,0,0,0.05,12,0)" xlink:href="#al"/><use transform="matrix(0.05,0,0,0.05,17.95,0)" xlink:href="#as"/><use transform="matrix(0.05,0,0,0.05,27.950000000000003,0)" xlink:href="#at"/><use transform="matrix(0.05,0,0,0.05,37.95,0)" xlink:href="#ah"/><use transform="matrix(0.05,0,0,0.05,47.95,0)" xlink:href="#al"/><use transform="matrix(0.05,0,0,0.05,53.900000000000006,0)" xlink:href="#aj"/><use transform="matrix(0.05,0,0,0.05,58.900000000000006,0)" xlink:href="#au"/><use transform="matrix(0.05,0,0,0.05,67.9,0)" xlink:href="#am"/><use transform="matrix(0.05,0,0,0.05,81.9,0)" xlink:href="#an"/><use transform="matrix(0.05,0,0,0.05,86.9,0)" xlink:href="#ao"/><use transform="matrix(0.05,0,0,0.05,91.9,0)" xlink:href="#ap"/><use transform="matrix(0.05,0,0,0.05,101.9,0)" xlink:href="#aj"/><use transform="matrix(0.05,0,0,0.05,106.9,0)" xlink:href="#ah"/><use transform="matrix(0.05,0,0,0.05,116.9,0)" xlink:href="#al"/><use transform="matrix(0.05,0,0,0.05,122.85000000000001,0)" xlink:href="#ah"/><use transform="matrix(0.05,0,0,0.05,132.85000000000002,0)" xlink:href="#aq"/><use transform="matrix(0.05,0,0,0.05,141.85000000000002,0)" xlink:href="#aj"/></g><path fill="#3a414a" d="M96-169c-40 0-48 33-48 73s9 75 48 75c24 0 41-14 43-38l32 2c-6 37-31 61-74 61-59 0-76-41-82-99-10-93 101-131 147-64 4 7 5 14 7 22l-32 3c-4-21-16-35-41-35" id="av"/><path fill="#3a414a" d="M85-194c31 0 48 13 60 33l-1-100h32l1 261h-30c-2-10 0-23-3-31C134-8 116 4 85 4 32 4 16-35 15-94c0-66 23-100 70-100zm9 24c-40 0-46 34-46 75 0 40 6 74 45 74 42 0 51-32 51-76 0-42-9-74-50-73" id="aw"/><g id="l"><use transform="matrix(0.05,0,0,0.05,0,0)" xlink:href="#ar"/><use transform="matrix(0.05,0,0,0.05,12,0)" xlink:href="#al"/><use transform="matrix(0.05,0,0,0.05,17.95,0)" xlink:href="#as"/><use transform="matrix(0.05,0,0,0.05,27.950000000000003,0)" xlink:href="#av"/><use transform="matrix(0.05,0,0,0.05,36.95,0)" xlink:href="#ah"/><use transform="matrix(0.05,0,0,0.05,46.95,0)" xlink:href="#aw"/><use transform="matrix(0.05,0,0,0.05,56.95,0)" xlink:href="#ak"/><use transform="matrix(0.05,0,0,0.05,66.95,0)" xlink:href="#al"/><use transform="matrix(0.05,0,0,0.05,72.9,0)" xlink:href="#ah"/></g><path fill="#3a414a" d="M30 0v-248h187v28H63v79h144v27H63v87h162V0H30" id="ax"/><path fill="#3a414a" d="M141 0L90-78 38 0H4l68-98-65-92h35l48 74 47-74h35l-64 92 68 98h-35" id="ay"/><path fill="#3a414a" d="M24-231v-30h32v30H24zM24 0v-190h32V0H24" id="az"/><g id="m"><use transform="matrix(0.05,0,0,0.05,0,0)" xlink:href="#ax"/><use transform="matrix(0.05,0,0,0.05,12,0)" xlink:href="#ay"/><use transform="matrix(0.05,0,0,0.05,21,0)" xlink:href="#ah"/><use transform="matrix(0.05,0,0,0.05,31,0)" xlink:href="#av"/><use transform="matrix(0.05,0,0,0.05,40,0)" xlink:href="#ak"/><use transform="matrix(0.05,0,0,0.05,50,0)" xlink:href="#aj"/><use transform="matrix(0.05,0,0,0.05,55,0)" xlink:href="#az"/><use transform="matrix(0.05,0,0,0.05,58.95,0)" xlink:href="#as"/><use transform="matrix(0.05,0,0,0.05,68.95,0)" xlink:href="#ap"/></g><path fill="#3a414a" d="M185-189c-5-48-123-54-124 2 14 75 158 14 163 119 3 78-121 87-175 55-17-10-28-26-33-46l33-7c5 56 141 63 141-1 0-78-155-14-162-118-5-82 145-84 179-34 5 7 8 16 11 25" id="aA"/><path fill="#3a414a" d="M210-169c-67 3-38 105-44 169h-31v-121c0-29-5-50-35-48C34-165 62-65 56 0H25l-1-190h30c1 10-1 24 2 32 10-44 99-50 107 0 11-21 27-35 58-36 85-2 47 119 55 194h-31v-121c0-29-5-49-35-48" id="aB"/><g id="n"><use transform="matrix(0.05,0,0,0.05,0,0)" xlink:href="#aA"/><use transform="matrix(0.05,0,0,0.05,12,0)" xlink:href="#au"/><use transform="matrix(0.05,0,0,0.05,21,0)" xlink:href="#aq"/><use transform="matrix(0.05,0,0,0.05,30,0)" xlink:href="#aj"/><use transform="matrix(0.05,0,0,0.05,35,0)" xlink:href="#ah"/><use transform="matrix(0.05,0,0,0.05,45,0)" xlink:href="#aB"/></g><path fill="#3a414a" d="M24 0v-261h32V0H24" id="aC"/><g id="o"><use transform="matrix(0.05,0,0,0.05,0,0)" xlink:href="#ar"/><use transform="matrix(0.05,0,0,0.05,12,0)" xlink:href="#aC"/><use transform="matrix(0.05,0,0,0.05,15.949999999999998,0)" xlink:href="#ai"/><use transform="matrix(0.05,0,0,0.05,25.950000000000003,0)" xlink:href="#aj"/><use transform="matrix(0.05,0,0,0.05,30.950000000000003,0)" xlink:href="#an"/><use transform="matrix(0.05,0,0,0.05,35.95,0)" xlink:href="#as"/><use transform="matrix(0.05,0,0,0.05,45.95,0)" xlink:href="#al"/><use transform="matrix(0.05,0,0,0.05,51.900000000000006,0)" xlink:href="#aB"/></g><path fill="#3a414a" d="M30-248c118-7 216 8 213 122C240-48 200 0 122 0H30v-248zM63-27c89 8 146-16 146-99s-60-101-146-95v194" id="aD"/><g id="p"><use transform="matrix(0.05,0,0,0.05,0,0)" xlink:href="#aD"/><use transform="matrix(0.05,0,0,0.05,12.950000000000001,0)" xlink:href="#ah"/><use transform="matrix(0.05,0,0,0.05,22.950000000000003,0)" xlink:href="#at"/><use transform="matrix(0.05,0,0,0.05,32.95,0)" xlink:href="#aC"/><use transform="matrix(0.05,0,0,0.05,36.900000000000006,0)" xlink:href="#as"/><use transform="matrix(0.05,0,0,0.05,46.900000000000006,0)" xlink:href="#au"/><use transform="matrix(0.05,0,0,0.05,55.900000000000006,0)" xlink:href="#aB"/><use transform="matrix(0.05,0,0,0.05,70.85000000000001,0)" xlink:href="#ah"/><use transform="matrix(0.05,0,0,0.05,80.85000000000001,0)" xlink:href="#ap"/><use transform="matrix(0.05,0,0,0.05,90.85000000000001,0)" xlink:href="#aj"/></g><path fill="#333" d="M30-248c87 1 191-15 191 75 0 78-77 80-158 76V0H30v-248zm33 125c57 0 124 11 124-50 0-59-68-47-124-48v98" id="aE"/><path fill="#333" d="M179-190L93 31C79 59 56 82 12 73V49c39 6 53-20 64-50L1-190h34L92-34l54-156h33" id="aF"/><g id="q"><use transform="matrix(0.05,0,0,0.05,0,0)" xlink:href="#R"/><use transform="matrix(0.05,0,0,0.05,14,0)" xlink:href="#S"/><use transform="matrix(0.05,0,0,0.05,24,0)" xlink:href="#T"/><use transform="matrix(0.05,0,0,0.05,33,0)" xlink:href="#U"/><use transform="matrix(0.05,0,0,0.05,43,0)" xlink:href="#V"/><use transform="matrix(0.05,0,0,0.05,48.95,0)" xlink:href="#W"/><use transform="matrix(0.05,0,0,0.05,57.95,0)" xlink:href="#X"/><use transform="matrix(0.05,0,0,0.05,67.95,0)" xlink:href="#S"/><use transform="matrix(0.05,0,0,0.05,77.95,0)" xlink:href="#ab"/><use transform="matrix(0.05,0,0,0.05,81.9,0)" xlink:href="#U"/><use transform="matrix(0.05,0,0,0.05,91.9,0)" xlink:href="#aE"/><use transform="matrix(0.05,0,0,0.05,103.9,0)" xlink:href="#V"/><use transform="matrix(0.05,0,0,0.05,109.85000000000001,0)" xlink:href="#O"/><use transform="matrix(0.05,0,0,0.05,119.85000000000001,0)" xlink:href="#aa"/><use transform="matrix(0.05,0,0,0.05,129.85000000000002,0)" xlink:href="#U"/><use transform="matrix(0.05,0,0,0.05,139.85000000000002,0)" xlink:href="#V"/><use transform="matrix(0.05,0,0,0.05,145.8,0)" xlink:href="#Y"/><use transform="matrix(0.05,0,0,0.05,150.8,0)" xlink:href="#aF"/></g><path fill="#333" d="M85-194c31 0 48 13 60 33l-1-100h32l1 261h-30c-2-10 0-23-3-31C134-8 116 4 85 4 32 4 16-35 15-94c0-66 23-100 70-100zm9 24c-40 0-46 34-46 75 0 40 6 74 45 74 42 0 51-32 51-76 0-42-9-74-50-73" id="aG"/><g id="r"><use transform="matrix(0.05,0,0,0.05,0,0)" xlink:href="#R"/><use transform="matrix(0.05,0,0,0.05,14,0)" xlink:href="#S"/><use transform="matrix(0.05,0,0,0.05,24,0)" xlink:href="#T"/><use transform="matrix(0.05,0,0,0.05,33,0)" xlink:href="#U"/><use transform="matrix(0.05,0,0,0.05,43,0)" xlink:href="#V"/><use transform="matrix(0.05,0,0,0.05,48.95,0)" xlink:href="#W"/><use transform="matrix(0.05,0,0,0.05,57.95,0)" xlink:href="#Z"/><use transform="matrix(0.05,0,0,0.05,61.900000000000006,0)" xlink:href="#Q"/><use transform="matrix(0.05,0,0,0.05,71.9,0)" xlink:href="#ac"/><use transform="matrix(0.05,0,0,0.05,81.9,0)" xlink:href="#aE"/><use transform="matrix(0.05,0,0,0.05,93.9,0)" xlink:href="#V"/><use transform="matrix(0.05,0,0,0.05,99.85000000000001,0)" xlink:href="#O"/><use transform="matrix(0.05,0,0,0.05,109.85000000000001,0)" xlink:href="#ae"/><use transform="matrix(0.05,0,0,0.05,118.85000000000001,0)" xlink:href="#U"/><use transform="matrix(0.05,0,0,0.05,128.85000000000002,0)" xlink:href="#aG"/><use transform="matrix(0.05,0,0,0.05,138.85000000000002,0)" xlink:href="#af"/><use transform="matrix(0.05,0,0,0.05,148.85000000000002,0)" xlink:href="#V"/><use transform="matrix(0.05,0,0,0.05,154.8,0)" xlink:href="#U"/></g><g id="s"><use transform="matrix(0.05,0,0,0.05,0,0)" xlink:href="#R"/><use transform="matrix(0.05,0,0,0.05,14,0)" xlink:href="#S"/><use transform="matrix(0.05,0,0,0.05,24,0)" xlink:href="#T"/><use transform="matrix(0.05,0,0,0.05,33,0)" xlink:href="#U"/><use transform="matrix(0.05,0,0,0.05,43,0)" xlink:href="#V"/><use transform="matrix(0.05,0,0,0.05,48.95,0)" xlink:href="#W"/><use transform="matrix(0.05,0,0,0.05,57.95,0)" xlink:href="#X"/><use transform="matrix(0.05,0,0,0.05,67.95,0)" xlink:href="#Y"/><use transform="matrix(0.05,0,0,0.05,72.95,0)" xlink:href="#Z"/><use transform="matrix(0.05,0,0,0.05,76.9,0)" xlink:href="#O"/><use transform="matrix(0.05,0,0,0.05,86.9,0)" xlink:href="#Q"/></g><g id="t"><use transform="matrix(0.05,0,0,0.05,0,0)" xlink:href="#R"/><use transform="matrix(0.05,0,0,0.05,14,0)" xlink:href="#S"/><use transform="matrix(0.05,0,0,0.05,24,0)" xlink:href="#T"/><use transform="matrix(0.05,0,0,0.05,33,0)" xlink:href="#U"/><use transform="matrix(0.05,0,0,0.05,43,0)" xlink:href="#V"/><use transform="matrix(0.05,0,0,0.05,48.95,0)" xlink:href="#W"/><use transform="matrix(0.05,0,0,0.05,57.95,0)" xlink:href="#X"/><use transform="matrix(0.05,0,0,0.05,67.95,0)" xlink:href="#Y"/><use transform="matrix(0.05,0,0,0.05,72.95,0)" xlink:href="#Z"/><use transform="matrix(0.05,0,0,0.05,76.9,0)" xlink:href="#O"/><use transform="matrix(0.05,0,0,0.05,86.9,0)" xlink:href="#Q"/><use transform="matrix(0.05,0,0,0.05,96.9,0)" xlink:href="#N"/><use transform="matrix(0.05,0,0,0.05,109.85000000000001,0)" xlink:href="#O"/><use transform="matrix(0.05,0,0,0.05,119.85000000000001,0)" xlink:href="#ab"/><use transform="matrix(0.05,0,0,0.05,123.80000000000001,0)" xlink:href="#ab"/><use transform="matrix(0.05,0,0,0.05,127.75,0)" xlink:href="#U"/><use transform="matrix(0.05,0,0,0.05,137.75,0)" xlink:href="#ae"/><use transform="matrix(0.05,0,0,0.05,146.75,0)" xlink:href="#Y"/><use transform="matrix(0.05,0,0,0.05,151.75,0)" xlink:href="#Z"/><use transform="matrix(0.05,0,0,0.05,155.7,0)" xlink:href="#O"/><use transform="matrix(0.05,0,0,0.05,165.7,0)" xlink:href="#Q"/></g><g id="u"><use transform="matrix(0.05,0,0,0.05,0,0)" xlink:href="#L"/><use transform="matrix(0.05,0,0,0.05,12,0)" xlink:href="#U"/><use transform="matrix(0.05,0,0,0.05,22,0)" xlink:href="#Q"/><use transform="matrix(0.05,0,0,0.05,32,0)" xlink:href="#T"/><use transform="matrix(0.05,0,0,0.05,41,0)" xlink:href="#O"/><use transform="matrix(0.05,0,0,0.05,51,0)" xlink:href="#V"/></g><g id="v"><use transform="matrix(0.05,0,0,0.05,0,0)" xlink:href="#L"/><use transform="matrix(0.05,0,0,0.05,12,0)" xlink:href="#Y"/><use transform="matrix(0.05,0,0,0.05,17,0)" xlink:href="#Z"/><use transform="matrix(0.05,0,0,0.05,20.95,0)" xlink:href="#P"/><use transform="matrix(0.05,0,0,0.05,35.9,0)" xlink:href="#af"/><use transform="matrix(0.05,0,0,0.05,45.9,0)" xlink:href="#ab"/><use transform="matrix(0.05,0,0,0.05,49.85,0)" xlink:href="#af"/><use transform="matrix(0.05,0,0,0.05,59.85,0)" xlink:href="#T"/></g><g id="w"><use transform="matrix(0.05,0,0,0.05,0,0)" xlink:href="#L"/><use transform="matrix(0.05,0,0,0.05,12,0)" xlink:href="#X"/><use transform="matrix(0.05,0,0,0.05,22,0)" xlink:href="#P"/><use transform="matrix(0.05,0,0,0.05,36.95,0)" xlink:href="#aa"/><use transform="matrix(0.05,0,0,0.05,46.95,0)" xlink:href="#ab"/><use transform="matrix(0.05,0,0,0.05,50.900000000000006,0)" xlink:href="#U"/></g><g id="x"><use transform="matrix(0.05,0,0,0.05,0,0)" xlink:href="#L"/><use transform="matrix(0.05,0,0,0.05,12,0)" xlink:href="#X"/><use transform="matrix(0.05,0,0,0.05,22,0)" xlink:href="#P"/><use transform="matrix(0.05,0,0,0.05,36.95,0)" xlink:href="#aa"/><use transform="matrix(0.05,0,0,0.05,46.95,0)" xlink:href="#ab"/><use transform="matrix(0.05,0,0,0.05,50.900000000000006,0)" xlink:href="#U"/><use transform="matrix(0.05,0,0,0.05,60.900000000000006,0)" xlink:href="#N"/><use transform="matrix(0.05,0,0,0.05,73.85000000000001,0)" xlink:href="#O"/><use transform="matrix(0.05,0,0,0.05,83.85000000000001,0)" xlink:href="#ab"/><use transform="matrix(0.05,0,0,0.05,87.80000000000001,0)" xlink:href="#ab"/><use transform="matrix(0.05,0,0,0.05,91.75000000000001,0)" xlink:href="#U"/><use transform="matrix(0.05,0,0,0.05,101.75000000000001,0)" xlink:href="#ae"/><use transform="matrix(0.05,0,0,0.05,110.75,0)" xlink:href="#Y"/><use transform="matrix(0.05,0,0,0.05,115.75,0)" xlink:href="#Z"/><use transform="matrix(0.05,0,0,0.05,119.7,0)" xlink:href="#O"/><use transform="matrix(0.05,0,0,0.05,129.70000000000002,0)" xlink:href="#Q"/></g><g id="y"><use transform="matrix(0.05,0,0,0.05,0,0)" xlink:href="#L"/><use transform="matrix(0.05,0,0,0.05,12,0)" xlink:href="#aa"/><use transform="matrix(0.05,0,0,0.05,22,0)" xlink:href="#X"/><use transform="matrix(0.05,0,0,0.05,32,0)" xlink:href="#Y"/><use transform="matrix(0.05,0,0,0.05,37,0)" xlink:href="#Z"/><use transform="matrix(0.05,0,0,0.05,40.95,0)" xlink:href="#X"/><use transform="matrix(0.05,0,0,0.05,50.95,0)" xlink:href="#ab"/><use transform="matrix(0.05,0,0,0.05,54.900000000000006,0)" xlink:href="#L"/><use transform="matrix(0.05,0,0,0.05,66.9,0)" xlink:href="#X"/><use transform="matrix(0.05,0,0,0.05,76.9,0)" xlink:href="#P"/><use transform="matrix(0.05,0,0,0.05,91.85000000000001,0)" xlink:href="#aa"/><use transform="matrix(0.05,0,0,0.05,101.85000000000001,0)" xlink:href="#ab"/><use transform="matrix(0.05,0,0,0.05,105.80000000000001,0)" xlink:href="#U"/></g><path fill="#333" d="M240 0l2-218c-23 76-54 145-80 218h-23L58-218 59 0H30v-248h44l77 211c21-75 51-140 76-211h43V0h-30" id="aH"/><g id="z"><use transform="matrix(0.05,0,0,0.05,0,0)" xlink:href="#aH"/><use transform="matrix(0.05,0,0,0.05,14.950000000000001,0)" xlink:href="#X"/><use transform="matrix(0.05,0,0,0.05,24.950000000000003,0)" xlink:href="#Y"/><use transform="matrix(0.05,0,0,0.05,29.950000000000003,0)" xlink:href="#U"/><use transform="matrix(0.05,0,0,0.05,39.95,0)" xlink:href="#V"/><use transform="matrix(0.05,0,0,0.05,45.900000000000006,0)" xlink:href="#Z"/><use transform="matrix(0.05,0,0,0.05,49.85000000000001,0)" xlink:href="#X"/><use transform="matrix(0.05,0,0,0.05,59.85,0)" xlink:href="#ab"/><use transform="matrix(0.05,0,0,0.05,63.80000000000001,0)" xlink:href="#L"/><use transform="matrix(0.05,0,0,0.05,75.80000000000001,0)" xlink:href="#X"/><use transform="matrix(0.05,0,0,0.05,85.80000000000001,0)" xlink:href="#P"/><use transform="matrix(0.05,0,0,0.05,100.75000000000001,0)" xlink:href="#aa"/><use transform="matrix(0.05,0,0,0.05,110.75,0)" xlink:href="#ab"/><use transform="matrix(0.05,0,0,0.05,114.7,0)" xlink:href="#U"/></g><g id="A"><use transform="matrix(0.05,0,0,0.05,0,0)" xlink:href="#L"/><use transform="matrix(0.05,0,0,0.05,12,0)" xlink:href="#Y"/><use transform="matrix(0.05,0,0,0.05,17,0)" xlink:href="#X"/><use transform="matrix(0.05,0,0,0.05,27,0)" xlink:href="#Y"/><use transform="matrix(0.05,0,0,0.05,32,0)" xlink:href="#Z"/><use transform="matrix(0.05,0,0,0.05,35.95,0)" xlink:href="#T"/><use transform="matrix(0.05,0,0,0.05,44.95,0)" xlink:href="#Y"/><use transform="matrix(0.05,0,0,0.05,49.95,0)" xlink:href="#Z"/><use transform="matrix(0.05,0,0,0.05,53.900000000000006,0)" xlink:href="#ae"/><use transform="matrix(0.05,0,0,0.05,62.900000000000006,0)" xlink:href="#X"/><use transform="matrix(0.05,0,0,0.05,72.9,0)" xlink:href="#ab"/><use transform="matrix(0.05,0,0,0.05,76.85000000000001,0)" xlink:href="#L"/><use transform="matrix(0.05,0,0,0.05,88.85000000000001,0)" xlink:href="#X"/><use transform="matrix(0.05,0,0,0.05,98.85000000000001,0)" xlink:href="#P"/><use transform="matrix(0.05,0,0,0.05,113.80000000000001,0)" xlink:href="#aa"/><use transform="matrix(0.05,0,0,0.05,123.80000000000001,0)" xlink:href="#ab"/><use transform="matrix(0.05,0,0,0.05,127.75,0)" xlink:href="#U"/></g><g id="B"><use transform="matrix(0.05,0,0,0.05,0,0)" xlink:href="#L"/><use transform="matrix(0.05,0,0,0.05,12,0)" xlink:href="#X"/><use transform="matrix(0.05,0,0,0.05,22,0)" xlink:href="#P"/><use transform="matrix(0.05,0,0,0.05,36.95,0)" xlink:href="#aa"/><use transform="matrix(0.05,0,0,0.05,46.95,0)" xlink:href="#ab"/><use transform="matrix(0.05,0,0,0.05,50.900000000000006,0)" xlink:href="#Z"/><use transform="matrix(0.05,0,0,0.05,54.85,0)" xlink:href="#Q"/><use transform="matrix(0.05,0,0,0.05,64.85000000000001,0)" xlink:href="#ac"/><use transform="matrix(0.05,0,0,0.05,74.85000000000001,0)" xlink:href="#aE"/><use transform="matrix(0.05,0,0,0.05,86.85000000000001,0)" xlink:href="#V"/><use transform="matrix(0.05,0,0,0.05,92.80000000000001,0)" xlink:href="#O"/><use transform="matrix(0.05,0,0,0.05,102.80000000000001,0)" xlink:href="#ae"/><use transform="matrix(0.05,0,0,0.05,111.80000000000001,0)" xlink:href="#U"/><use transform="matrix(0.05,0,0,0.05,121.80000000000001,0)" xlink:href="#aG"/><use transform="matrix(0.05,0,0,0.05,131.8,0)" xlink:href="#af"/><use transform="matrix(0.05,0,0,0.05,141.8,0)" xlink:href="#V"/><use transform="matrix(0.05,0,0,0.05,147.75,0)" xlink:href="#U"/></g><g id="C"><use transform="matrix(0.05,0,0,0.05,0,0)" xlink:href="#L"/><use transform="matrix(0.05,0,0,0.05,12,0)" xlink:href="#X"/><use transform="matrix(0.05,0,0,0.05,22,0)" xlink:href="#P"/><use transform="matrix(0.05,0,0,0.05,36.95,0)" xlink:href="#aa"/><use transform="matrix(0.05,0,0,0.05,46.95,0)" xlink:href="#ab"/><use transform="matrix(0.05,0,0,0.05,50.900000000000006,0)" xlink:href="#Z"/><use transform="matrix(0.05,0,0,0.05,54.85,0)" xlink:href="#Q"/><use transform="matrix(0.05,0,0,0.05,64.85000000000001,0)" xlink:href="#ac"/></g><g id="D"><use transform="matrix(0.05,0,0,0.05,0,0)" xlink:href="#L"/><use transform="matrix(0.05,0,0,0.05,12,0)" xlink:href="#X"/><use transform="matrix(0.05,0,0,0.05,22,0)" xlink:href="#P"/><use transform="matrix(0.05,0,0,0.05,36.95,0)" xlink:href="#aa"/><use transform="matrix(0.05,0,0,0.05,46.95,0)" xlink:href="#ab"/><use transform="matrix(0.05,0,0,0.05,50.900000000000006,0)" xlink:href="#U"/><use transform="matrix(0.05,0,0,0.05,60.900000000000006,0)" xlink:href="#V"/></g><g id="E"><use transform="matrix(0.05,0,0,0.05,0,0)" xlink:href="#ad"/><use transform="matrix(0.05,0,0,0.05,12,0)" xlink:href="#ae"/><use transform="matrix(0.05,0,0,0.05,21,0)" xlink:href="#Y"/><use transform="matrix(0.05,0,0,0.05,26,0)" xlink:href="#af"/><use transform="matrix(0.05,0,0,0.05,36,0)" xlink:href="#X"/><use transform="matrix(0.05,0,0,0.05,46,0)" xlink:href="#Y"/><use transform="matrix(0.05,0,0,0.05,51,0)" xlink:href="#X"/><use transform="matrix(0.05,0,0,0.05,61,0)" xlink:href="#S"/><use transform="matrix(0.05,0,0,0.05,71,0)" xlink:href="#ab"/><use transform="matrix(0.05,0,0,0.05,74.95,0)" xlink:href="#U"/><use transform="matrix(0.05,0,0,0.05,84.95,0)" xlink:href="#aE"/><use transform="matrix(0.05,0,0,0.05,96.95,0)" xlink:href="#V"/><use transform="matrix(0.05,0,0,0.05,102.9,0)" xlink:href="#O"/><use transform="matrix(0.05,0,0,0.05,112.9,0)" xlink:href="#aa"/><use transform="matrix(0.05,0,0,0.05,122.9,0)" xlink:href="#U"/><use transform="matrix(0.05,0,0,0.05,132.9,0)" xlink:href="#V"/><use transform="matrix(0.05,0,0,0.05,138.85,0)" xlink:href="#Y"/><use transform="matrix(0.05,0,0,0.05,143.85,0)" xlink:href="#aF"/></g><g id="F"><use transform="matrix(0.05,0,0,0.05,0,0)" xlink:href="#ad"/><use transform="matrix(0.05,0,0,0.05,12,0)" xlink:href="#ae"/><use transform="matrix(0.05,0,0,0.05,21,0)" xlink:href="#Y"/><use transform="matrix(0.05,0,0,0.05,26,0)" xlink:href="#af"/><use transform="matrix(0.05,0,0,0.05,36,0)" xlink:href="#X"/><use transform="matrix(0.05,0,0,0.05,46,0)" xlink:href="#Y"/><use transform="matrix(0.05,0,0,0.05,51,0)" xlink:href="#Z"/><use transform="matrix(0.05,0,0,0.05,54.95,0)" xlink:href="#Q"/><use transform="matrix(0.05,0,0,0.05,64.95,0)" xlink:href="#ac"/><use transform="matrix(0.05,0,0,0.05,74.95,0)" xlink:href="#aE"/><use transform="matrix(0.05,0,0,0.05,86.95,0)" xlink:href="#V"/><use transform="matrix(0.05,0,0,0.05,92.9,0)" xlink:href="#O"/><use transform="matrix(0.05,0,0,0.05,102.9,0)" xlink:href="#ae"/><use transform="matrix(0.05,0,0,0.05,111.9,0)" xlink:href="#U"/><use transform="matrix(0.05,0,0,0.05,121.9,0)" xlink:href="#aG"/><use transform="matrix(0.05,0,0,0.05,131.9,0)" xlink:href="#af"/><use transform="matrix(0.05,0,0,0.05,141.9,0)" xlink:href="#V"/><use transform="matrix(0.05,0,0,0.05,147.85,0)" xlink:href="#U"/></g><g id="G"><use transform="matrix(0.05,0,0,0.05,0,0)" xlink:href="#ad"/><use transform="matrix(0.05,0,0,0.05,12,0)" xlink:href="#ae"/><use transform="matrix(0.05,0,0,0.05,21,0)" xlink:href="#Y"/><use transform="matrix(0.05,0,0,0.05,26,0)" xlink:href="#af"/><use transform="matrix(0.05,0,0,0.05,36,0)" xlink:href="#X"/><use transform="matrix(0.05,0,0,0.05,46,0)" xlink:href="#Y"/><use transform="matrix(0.05,0,0,0.05,51,0)" xlink:href="#Z"/><use transform="matrix(0.05,0,0,0.05,54.95,0)" xlink:href="#O"/><use transform="matrix(0.05,0,0,0.05,64.95,0)" xlink:href="#Q"/></g><g id="H"><use transform="matrix(0.05,0,0,0.05,0,0)" xlink:href="#ad"/><use transform="matrix(0.05,0,0,0.05,12,0)" xlink:href="#ae"/><use transform="matrix(0.05,0,0,0.05,21,0)" xlink:href="#Y"/><use transform="matrix(0.05,0,0,0.05,26,0)" xlink:href="#af"/><use transform="matrix(0.05,0,0,0.05,36,0)" xlink:href="#X"/><use transform="matrix(0.05,0,0,0.05,46,0)" xlink:href="#Y"/><use transform="matrix(0.05,0,0,0.05,51,0)" xlink:href="#Z"/><use transform="matrix(0.05,0,0,0.05,54.95,0)" xlink:href="#O"/><use transform="matrix(0.05,0,0,0.05,64.95,0)" xlink:href="#Q"/><use transform="matrix(0.05,0,0,0.05,74.95,0)" xlink:href="#N"/><use transform="matrix(0.05,0,0,0.05,87.9,0)" xlink:href="#O"/><use transform="matrix(0.05,0,0,0.05,97.9,0)" xlink:href="#ab"/><use transform="matrix(0.05,0,0,0.05,101.85000000000001,0)" xlink:href="#ab"/><use transform="matrix(0.05,0,0,0.05,105.80000000000001,0)" xlink:href="#U"/><use transform="matrix(0.05,0,0,0.05,115.80000000000001,0)" xlink:href="#ae"/><use transform="matrix(0.05,0,0,0.05,124.80000000000001,0)" xlink:href="#Y"/><use transform="matrix(0.05,0,0,0.05,129.8,0)" xlink:href="#Z"/><use transform="matrix(0.05,0,0,0.05,133.75,0)" xlink:href="#O"/><use transform="matrix(0.05,0,0,0.05,143.75,0)" xlink:href="#Q"/></g><g id="I"><use transform="matrix(0.05,0,0,0.05,0,0)" xlink:href="#ad"/><use transform="matrix(0.05,0,0,0.05,12,0)" xlink:href="#ae"/><use transform="matrix(0.05,0,0,0.05,21,0)" xlink:href="#Y"/><use transform="matrix(0.05,0,0,0.05,26,0)" xlink:href="#af"/><use transform="matrix(0.05,0,0,0.05,36,0)" xlink:href="#X"/><use transform="matrix(0.05,0,0,0.05,46,0)" xlink:href="#Y"/><use transform="matrix(0.05,0,0,0.05,51,0)" xlink:href="#O"/><use transform="matrix(0.05,0,0,0.05,61,0)" xlink:href="#V"/></g><path d="M185-189c-5-48-123-54-124 2 14 75 158 14 163 119 3 78-121 87-175 55-17-10-28-26-33-46l33-7c5 56 141 63 141-1 0-78-155-14-162-118-5-82 145-84 179-34 5 7 8 16 11 25" id="aI"/><path d="M190 0L58-211 59 0H30v-248h39L202-35l-2-213h31V0h-41" id="aJ"/><g id="J"><use transform="matrix(0.05,0,0,0.05,0,0)" xlink:href="#aI"/><use transform="matrix(0.05,0,0,0.05,12,0)" xlink:href="#aI"/><use transform="matrix(0.05,0,0,0.05,24,0)" xlink:href="#aJ"/></g><path d="M140-251c81 0 123 46 123 126C263-46 219 4 140 4 59 4 17-45 17-125s42-126 123-126zm0 227c63 0 89-41 89-101s-29-99-89-99c-61 0-89 39-89 99S79-25 140-24" id="aK"/><path d="M205 0l-28-72H64L36 0H1l101-248h38L239 0h-34zm-38-99l-47-123c-12 45-31 82-46 123h93" id="aL"/><g id="K"><use transform="matrix(0.05,0,0,0.05,0,0)" xlink:href="#aI"/><use transform="matrix(0.05,0,0,0.05,12,0)" xlink:href="#aK"/><use transform="matrix(0.05,0,0,0.05,26,0)" xlink:href="#aI"/><use transform="matrix(0.05,0,0,0.05,38,0)" xlink:href="#aL"/></g></defs></g></svg>