<svg xmlns="http://www.w3.org/2000/svg" xmlns:xlink="http://www.w3.org/1999/xlink" xmlns:lucid="lucid" width="1201.5" height="1095"><g transform="translate(-620 333.5)" lucid:page-tab-id="HWEp-vi-RSFO"><path d="M500-500h1500v1500H500z" fill="#fff"/><path d="M1577 96.5h-55a12 12 0 0 0-12 12v96a12 12 0 0 1-12 12h-40.63" stroke="#ced4db" stroke-width="3" fill="none"/><path d="M1578.5 97.97h-1.54v-2.94h1.54z" stroke="#ced4db" stroke-width=".05" fill="#ced4db"/><path d="M1444.45 216.5l12.9-7.64v15.28z" stroke="#ced4db" stroke-width="3" fill="#fff"/><path d="M1577 216.5h-119.63" stroke="#ced4db" stroke-width="3" fill="none"/><path d="M1578.5 217.97h-1.54v-2.94h1.54z" stroke="#ced4db" stroke-width=".05" fill="#ced4db"/><path d="M1444.45 216.5l12.9-7.64v15.28z" stroke="#ced4db" stroke-width="3" fill="#fff"/><path d="M1577 336.5h-55a12 12 0 0 1-12-12v-96a12 12 0 0 0-12-12h-40.63" stroke="#ced4db" stroke-width="3" fill="none"/><path d="M1578.5 337.98h-1.54v-2.96h1.54z" stroke="#ced4db" stroke-width=".05" fill="#ced4db"/><path d="M1444.45 216.5l12.9-7.64v15.28z" stroke="#ced4db" stroke-width="3" fill="#fff"/><path d="M1280 170.5h160v92h-160z" stroke="#000" stroke-width="3" fill="#fff"/><use xlink:href="#a" transform="matrix(1,0,0,1,1288,178.5) translate(34.62376543209878 42.48888888888889)"/><path d="M1580 56.5h220v80h-220z" stroke="#ced4db" stroke-width="3" fill="#fff"/><use xlink:href="#b" transform="matrix(1,0,0,1,1588,64.5) translate(60.259567901234576 36.48888888888889)"/><path d="M1580 176.5h220v80h-220z" stroke="#ced4db" stroke-width="3" fill="#fff"/><use xlink:href="#c" transform="matrix(1,0,0,1,1588,184.5) translate(66.49413580246915 36.48888888888889)"/><path d="M1580 296.5h220v80h-220z" stroke="#ced4db" stroke-width="3" fill="#fff"/><use xlink:href="#d" transform="matrix(1,0,0,1,1588,304.5) translate(60.32191358024693 36.48888888888889)"/><path d="M800 170.5h160v92H800z" stroke="#000" stroke-width="3" fill="#fff"/><use xlink:href="#e" transform="matrix(1,0,0,1,808,178.5) translate(12.241666666666681 42.48888888888889)"/><path d="M800 356h160v92H800z" stroke="#000" stroke-width="3" fill="#fff"/><use xlink:href="#f" transform="matrix(1,0,0,1,808,364) translate(30.32191358024692 42.48888888888889)"/><path d="M800 8h160v92H800z" stroke="#ced4db" stroke-width="3" fill="#fff"/><use xlink:href="#g" transform="matrix(1,0,0,1,808,16) translate(29.667283950617296 42.48888888888889)"/><path d="M1275.77 216.5H964.23M1258.34 226.68l17.2-10.18-17.2-10.18M981.66 206.32l-17.2 10.18 17.2 10.18M1333.33 167.5V141a12 12 0 0 0-12-12h-70.83a12 12 0 0 0-12 12v37.67a12 12 0 0 0 12 12h25.27" stroke="#333" stroke-width="3" fill="none"/><path d="M1334.8 169h-2.94v-1.54h2.95z" stroke="#333" stroke-width=".05" fill="#333"/><path d="M1258.34 200.85l17.2-10.18-17.2-10.18" stroke="#333" stroke-width="3" fill="none"/><path d="M1080 80h240v60h-240z" fill="none"/><use xlink:href="#h" transform="matrix(1,0,0,1,1080,80) translate(52.05895061728398 34.044444444444444)"/><path d="M940 160h240v60H940z" fill="none"/><use xlink:href="#i" transform="matrix(1,0,0,1,940,160) translate(49.86820987654323 34.044444444444444)"/><path d="M1060 215.25h240v60h-240z" fill="none"/><use xlink:href="#j" transform="matrix(1,0,0,1,1060,215.25) translate(45.346296296296316 34.044444444444444)"/><path d="M964.23 402h321.1a12 12 0 0 0 12-12V266.73" stroke="#333" stroke-width="3" fill="none"/><path d="M981.66 391.82L964.46 402l17.2 10.18M1307.5 284.16l-10.17-17.2-10.18 17.2" stroke="#333" stroke-width="3" fill="none"/><path d="M920 408h240v60H920z" fill="none"/><use xlink:href="#k" transform="matrix(1,0,0,1,920,408) translate(68.93888888888891 34.044444444444444)"/><path d="M1190 275.25h140v60h-140z" fill="none"/><use xlink:href="#l" transform="matrix(1,0,0,1,1190,275.25) translate(43.19135802469137 34.48888888888889)"/><path d="M880 167.5v-63.27" stroke="#979ea8" stroke-width="3" fill="none"/><path d="M881.48 169h-2.96v-1.54h2.96z" stroke="#979ea8" stroke-width=".05" fill="#979ea8"/><path d="M890.18 121.66L880 104.46l-10.18 17.2" stroke="#979ea8" stroke-width="3" fill="none"/><path d="M680 100h240v60H680z" fill="none"/><use xlink:href="#m" transform="matrix(1,0,0,1,680,100) translate(70.09043209876546 34.044444444444444)"/><path d="M880 351.77v-85.04M869.82 334.34l10.18 17.2 10.18-17.2M890.18 284.16L880 266.96l-10.18 17.2" stroke="#333" stroke-width="3" fill="none"/><path d="M660 260h240v60H660z" fill="none"/><use xlink:href="#n" transform="matrix(1,0,0,1,660,260) translate(58.322222222222244 34.044444444444444)"/><path d="M640 300h240v60H640z" fill="none"/><use xlink:href="#o" transform="matrix(1,0,0,1,640,300) translate(27.98888888888891 34.044444444444444)"/><path d="M880 167.5v-64.77" stroke="#979ea8" stroke-width="3" fill="none"/><path d="M881.48 169h-2.96v-1.54h2.96z" stroke="#979ea8" stroke-width=".05" fill="#979ea8"/><path d="M890.18 120.16L880 102.96l-10.18 17.2" stroke="#979ea8" stroke-width="3" fill="none"/><path d="M900 0h240v60H900z" fill="none"/><use xlink:href="#m" transform="matrix(1,0,0,1,900,0) translate(70.09043209876546 34.044444444444444)"/><path d="M1360 167.5V66a12 12 0 0 0-12-12H964.23" stroke="#979ea8" stroke-width="3" fill="none"/><path d="M1361.47 169h-2.94v-1.54h2.94z" stroke="#979ea8" stroke-width=".05" fill="#979ea8"/><path d="M981.66 43.82L964.46 54l17.2 10.18" stroke="#979ea8" stroke-width="3" fill="none"/><path d="M1537 460h-20a12 12 0 0 0-12 12v24a12 12 0 0 1-12 12h-5.63" stroke="#ced4db" stroke-width="3" fill="none"/><path d="M1538.5 461.48h-1.54v-2.96h1.54z" stroke="#ced4db" stroke-width=".05" fill="#ced4db"/><path d="M1474.45 508l12.9-7.64v15.28z" stroke="#ced4db" stroke-width="3" fill="#fff"/><path d="M1537 580h-20a12 12 0 0 1-12-12v-48a12 12 0 0 0-12-12h-5.63" stroke="#ced4db" stroke-width="3" fill="none"/><path d="M1538.5 581.48h-1.54v-2.96h1.54z" stroke="#ced4db" stroke-width=".05" fill="#ced4db"/><path d="M1474.45 508l12.9-7.64v15.28z" stroke="#ced4db" stroke-width="3" fill="#fff"/><path d="M1537 460h-20a12 12 0 0 0-12 12v24a12 12 0 0 1-12 12h-5.63" stroke="#ced4db" stroke-width="3" fill="none"/><path d="M1538.5 461.48h-1.54v-2.96h1.54z" stroke="#ced4db" stroke-width=".05" fill="#ced4db"/><path d="M1474.45 508l12.9-7.64v15.28zM1540 420h220v80h-220z" stroke="#ced4db" stroke-width="3" fill="#fff"/><use xlink:href="#p" transform="matrix(1,0,0,1,1548,428) translate(3.587345679012344 36.48888888888889)"/><path d="M1540 540h220v80h-220z" stroke="#ced4db" stroke-width="3" fill="#fff"/><use xlink:href="#q" transform="matrix(1,0,0,1,1548,548) translate(-0.7456790123456756 36.48888888888889)"/><path d="M1540 660h220v80h-220z" stroke="#ced4db" stroke-width="3" fill="#fff"/><use xlink:href="#r" transform="matrix(1,0,0,1,1548,668) translate(3.649691358024697 36.48888888888889)"/><path d="M1250 468h220v80h-220z" stroke="#ced4db" stroke-width="3" fill="#fff"/><use xlink:href="#s" transform="matrix(1,0,0,1,1258,476) translate(50.31543209876544 36.48888888888889)"/><path d="M1537 696.67h-20a12 12 0 0 1-12-12V520a12 12 0 0 0-12-12h-5.63" stroke="#ced4db" stroke-width="3" fill="none"/><path d="M1538.5 698.14h-1.54v-2.95h1.54z" stroke="#ced4db" stroke-width=".05" fill="#ced4db"/><path d="M1474.45 508l12.9-7.64v15.28z" stroke="#ced4db" stroke-width="3" fill="#fff"/><path d="M1336 266.73v197.04M1346.18 284.16l-10.18-17.2-10.18 17.2M1325.82 446.34l10.18 17.2 10.18-17.2" stroke="#333" stroke-width="3" fill="none"/><path d="M1330 400h140v62h-140z" fill="none"/><use xlink:href="#t" transform="matrix(1,0,0,1,1330,400) translate(12.76666666666668 35.98888888888889)"/><path d="M1300 275.25h240v60h-240z" fill="none"/><use xlink:href="#u" transform="matrix(1,0,0,1,1300,275.25) translate(50.45802469135806 34.044444444444444)"/><path d="M1537-272h-20a12 12 0 0 0-12 12v128a12 12 0 0 1-12 12h-5.63" stroke="#ced4db" stroke-width="3" fill="none"/><path d="M1538.5-270.52h-1.54v-2.96h1.54z" stroke="#ced4db" stroke-width=".05" fill="#ced4db"/><path d="M1474.45-120l12.9-7.64v15.28z" stroke="#ced4db" stroke-width="3" fill="#fff"/><path d="M1537-152h-20a12 12 0 0 0-12 12v8a12 12 0 0 1-12 12h-5.63" stroke="#ced4db" stroke-width="3" fill="none"/><path d="M1538.5-150.53h-1.54v-2.94h1.54z" stroke="#ced4db" stroke-width=".05" fill="#ced4db"/><path d="M1474.45-120l12.9-7.64v15.28z" stroke="#ced4db" stroke-width="3" fill="#fff"/><path d="M1537-32h-20a12 12 0 0 1-12-12v-64a12 12 0 0 0-12-12h-5.63" stroke="#ced4db" stroke-width="3" fill="none"/><path d="M1538.5-30.52h-1.54v-2.96h1.54z" stroke="#ced4db" stroke-width=".05" fill="#ced4db"/><path d="M1474.45-120l12.9-7.64v15.28zM1540-312h220v80h-220z" stroke="#ced4db" stroke-width="3" fill="#fff"/><use xlink:href="#v" transform="matrix(1,0,0,1,1548,-304) translate(55.27191358024692 36.48888888888889)"/><path d="M1540-192h220v80h-220z" stroke="#ced4db" stroke-width="3" fill="#fff"/><use xlink:href="#w" transform="matrix(1,0,0,1,1548,-184) translate(41.58703703703705 36.48888888888889)"/><path d="M1540-72h220V8h-220z" stroke="#ced4db" stroke-width="3" fill="#fff"/><use xlink:href="#x" transform="matrix(1,0,0,1,1548,-64) translate(55.33425925925927 36.48888888888889)"/><path d="M1250-160h220v80h-220z" stroke="#ced4db" stroke-width="3" fill="#fff"/><use xlink:href="#y" transform="matrix(1,0,0,1,1258,-152) translate(52.778086419753095 36.48888888888889)"/><path d="M1385.33-75.77v242.04M1395.5-58.34l-10.17-17.2-10.18 17.2M1375.15 148.84l10.18 17.2 10.18-17.2" stroke="#333" stroke-width="3" fill="none"/><path d="M1340 110.5h240v60h-240z" fill="none"/><use xlink:href="#z" transform="matrix(1,0,0,1,1340,110.5) translate(49.27839506172842 34.044444444444444)"/><path d="M1220-80h140v62h-140z" fill="none"/><use xlink:href="#A" transform="matrix(1,0,0,1,1220,-80) translate(-7.246296296296279 35.98888888888889)"/><defs><path fill="#282c33" d="M185-189c-5-48-123-54-124 2 14 75 158 14 163 119 3 78-121 87-175 55-17-10-28-26-33-46l33-7c5 56 141 63 141-1 0-78-155-14-162-118-5-82 145-84 179-34 5 7 8 16 11 25" id="B"/><path fill="#282c33" d="M179-190L93 31C79 59 56 82 12 73V49c39 6 53-20 64-50L1-190h34L92-34l54-156h33" id="C"/><path fill="#282c33" d="M135-143c-3-34-86-38-87 0 15 53 115 12 119 90S17 21 10-45l28-5c4 36 97 45 98 0-10-56-113-15-118-90-4-57 82-63 122-42 12 7 21 19 24 35" id="D"/><path fill="#282c33" d="M59-47c-2 24 18 29 38 22v24C64 9 27 4 27-40v-127H5v-23h24l9-43h21v43h35v23H59v120" id="E"/><path fill="#282c33" d="M100-194c63 0 86 42 84 106H49c0 40 14 67 53 68 26 1 43-12 49-29l28 8c-11 28-37 45-77 45C44 4 14-33 15-96c1-61 26-98 85-98zm52 81c6-60-76-77-97-28-3 7-6 17-6 28h103" id="F"/><path fill="#282c33" d="M210-169c-67 3-38 105-44 169h-31v-121c0-29-5-50-35-48C34-165 62-65 56 0H25l-1-190h30c1 10-1 24 2 32 10-44 99-50 107 0 11-21 27-35 58-36 85-2 47 119 55 194h-31v-121c0-29-5-49-35-48" id="G"/><g id="a"><use transform="matrix(0.06234567901234567,0,0,0.06234567901234567,0,0)" xlink:href="#B"/><use transform="matrix(0.06234567901234567,0,0,0.06234567901234567,14.96296296296296,0)" xlink:href="#C"/><use transform="matrix(0.06234567901234567,0,0,0.06234567901234567,26.18518518518518,0)" xlink:href="#D"/><use transform="matrix(0.06234567901234567,0,0,0.06234567901234567,37.4074074074074,0)" xlink:href="#E"/><use transform="matrix(0.06234567901234567,0,0,0.06234567901234567,43.64197530864196,0)" xlink:href="#F"/><use transform="matrix(0.06234567901234567,0,0,0.06234567901234567,56.11111111111109,0)" xlink:href="#G"/></g><path fill="#282c33" d="M205 0l-28-72H64L36 0H1l101-248h38L239 0h-34zm-38-99l-47-123c-12 45-31 82-46 123h93" id="H"/><path fill="#282c33" d="M96-169c-40 0-48 33-48 73s9 75 48 75c24 0 41-14 43-38l32 2c-6 37-31 61-74 61-59 0-76-41-82-99-10-93 101-131 147-64 4 7 5 14 7 22l-32 3c-4-21-16-35-41-35" id="I"/><path fill="#282c33" d="M84 4C-5 8 30-112 23-190h32v120c0 31 7 50 39 49 72-2 45-101 50-169h31l1 190h-30c-1-10 1-25-2-33-11 22-28 36-60 37" id="J"/><path fill="#282c33" d="M141-36C126-15 110 5 73 4 37 3 15-17 15-53c-1-64 63-63 125-63 3-35-9-54-41-54-24 1-41 7-42 31l-33-3c5-37 33-52 76-52 45 0 72 20 72 64v82c-1 20 7 32 28 27v20c-31 9-61-2-59-35zM48-53c0 20 12 33 32 33 41-3 63-29 60-74-43 2-92-5-92 41" id="K"/><path fill="#282c33" d="M100-194c62-1 85 37 85 99 1 63-27 99-86 99S16-35 15-95c0-66 28-99 85-99zM99-20c44 1 53-31 53-75 0-43-8-75-51-75s-53 32-53 75 10 74 51 75" id="L"/><path fill="#282c33" d="M114-163C36-179 61-72 57 0H25l-1-190h30c1 12-1 29 2 39 6-27 23-49 58-41v29" id="M"/><g id="b"><use transform="matrix(0.06234567901234567,0,0,0.06234567901234567,0,0)" xlink:href="#H"/><use transform="matrix(0.06234567901234567,0,0,0.06234567901234567,14.96296296296296,0)" xlink:href="#I"/><use transform="matrix(0.06234567901234567,0,0,0.06234567901234567,26.18518518518518,0)" xlink:href="#E"/><use transform="matrix(0.06234567901234567,0,0,0.06234567901234567,32.419753086419746,0)" xlink:href="#J"/><use transform="matrix(0.06234567901234567,0,0,0.06234567901234567,44.88888888888888,0)" xlink:href="#K"/><use transform="matrix(0.06234567901234567,0,0,0.06234567901234567,57.35802469135801,0)" xlink:href="#E"/><use transform="matrix(0.06234567901234567,0,0,0.06234567901234567,63.59259259259258,0)" xlink:href="#L"/><use transform="matrix(0.06234567901234567,0,0,0.06234567901234567,76.06172839506172,0)" xlink:href="#M"/></g><path fill="#282c33" d="M117-194c89-4 53 116 60 194h-32v-121c0-31-8-49-39-48C34-167 62-67 57 0H25l-1-190h30c1 10-1 24 2 32 11-22 29-35 61-36" id="N"/><g id="c"><use transform="matrix(0.06234567901234567,0,0,0.06234567901234567,0,0)" xlink:href="#B"/><use transform="matrix(0.06234567901234567,0,0,0.06234567901234567,14.96296296296296,0)" xlink:href="#F"/><use transform="matrix(0.06234567901234567,0,0,0.06234567901234567,27.432098765432094,0)" xlink:href="#N"/><use transform="matrix(0.06234567901234567,0,0,0.06234567901234567,39.90123456790123,0)" xlink:href="#D"/><use transform="matrix(0.06234567901234567,0,0,0.06234567901234567,51.12345679012345,0)" xlink:href="#L"/><use transform="matrix(0.06234567901234567,0,0,0.06234567901234567,63.59259259259258,0)" xlink:href="#M"/></g><path fill="#282c33" d="M115-194c55 1 70 41 70 98S169 2 115 4C84 4 66-9 55-30l1 105H24l-1-265h31l2 30c10-21 28-34 59-34zm-8 174c40 0 45-34 45-75s-6-73-45-74c-42 0-51 32-51 76 0 43 10 73 51 73" id="O"/><path fill="#282c33" d="M24 0v-261h32V0H24" id="P"/><g id="d"><use transform="matrix(0.06234567901234567,0,0,0.06234567901234567,0,0)" xlink:href="#B"/><use transform="matrix(0.06234567901234567,0,0,0.06234567901234567,14.96296296296296,0)" xlink:href="#K"/><use transform="matrix(0.06234567901234567,0,0,0.06234567901234567,27.432098765432094,0)" xlink:href="#G"/><use transform="matrix(0.06234567901234567,0,0,0.06234567901234567,46.073456790123444,0)" xlink:href="#O"/><use transform="matrix(0.06234567901234567,0,0,0.06234567901234567,58.54259259259258,0)" xlink:href="#P"/><use transform="matrix(0.06234567901234567,0,0,0.06234567901234567,63.46790123456788,0)" xlink:href="#F"/><use transform="matrix(0.06234567901234567,0,0,0.06234567901234567,75.93703703703702,0)" xlink:href="#M"/></g><path fill="#282c33" d="M30-248c118-7 216 8 213 122C240-48 200 0 122 0H30v-248zM63-27c89 8 146-16 146-99s-60-101-146-95v194" id="Q"/><g id="e"><use transform="matrix(0.06234567901234567,0,0,0.06234567901234567,0,0)" xlink:href="#Q"/><use transform="matrix(0.06234567901234567,0,0,0.06234567901234567,16.147530864197527,0)" xlink:href="#F"/><use transform="matrix(0.06234567901234567,0,0,0.06234567901234567,28.61666666666666,0)" xlink:href="#O"/><use transform="matrix(0.06234567901234567,0,0,0.06234567901234567,41.08580246913579,0)" xlink:href="#P"/><use transform="matrix(0.06234567901234567,0,0,0.06234567901234567,46.0111111111111,0)" xlink:href="#L"/><use transform="matrix(0.06234567901234567,0,0,0.06234567901234567,58.48024691358023,0)" xlink:href="#C"/><use transform="matrix(0.06234567901234567,0,0,0.06234567901234567,69.70246913580245,0)" xlink:href="#G"/><use transform="matrix(0.06234567901234567,0,0,0.06234567901234567,88.3438271604938,0)" xlink:href="#F"/><use transform="matrix(0.06234567901234567,0,0,0.06234567901234567,100.81296296296293,0)" xlink:href="#N"/><use transform="matrix(0.06234567901234567,0,0,0.06234567901234567,113.28209876543207,0)" xlink:href="#E"/></g><path fill="#282c33" d="M30-248c87 1 191-15 191 75 0 78-77 80-158 76V0H30v-248zm33 125c57 0 124 11 124-50 0-59-68-47-124-48v98" id="R"/><path fill="#282c33" d="M101-234c-31-9-42 10-38 44h38v23H63V0H32v-167H5v-23h27c-7-52 17-82 69-68v24" id="S"/><g id="f"><use transform="matrix(0.06234567901234567,0,0,0.06234567901234567,0,0)" xlink:href="#R"/><use transform="matrix(0.06234567901234567,0,0,0.06234567901234567,14.96296296296296,0)" xlink:href="#P"/><use transform="matrix(0.06234567901234567,0,0,0.06234567901234567,19.888271604938268,0)" xlink:href="#K"/><use transform="matrix(0.06234567901234567,0,0,0.06234567901234567,32.3574074074074,0)" xlink:href="#E"/><use transform="matrix(0.06234567901234567,0,0,0.06234567901234567,38.59197530864196,0)" xlink:href="#S"/><use transform="matrix(0.06234567901234567,0,0,0.06234567901234567,44.82654320987653,0)" xlink:href="#L"/><use transform="matrix(0.06234567901234567,0,0,0.06234567901234567,57.295679012345666,0)" xlink:href="#M"/><use transform="matrix(0.06234567901234567,0,0,0.06234567901234567,64.7148148148148,0)" xlink:href="#G"/></g><g id="g"><use transform="matrix(0.06234567901234567,0,0,0.06234567901234567,0,0)" xlink:href="#R"/><use transform="matrix(0.06234567901234567,0,0,0.06234567901234567,14.96296296296296,0)" xlink:href="#M"/><use transform="matrix(0.06234567901234567,0,0,0.06234567901234567,22.382098765432094,0)" xlink:href="#L"/><use transform="matrix(0.06234567901234567,0,0,0.06234567901234567,34.85123456790123,0)" xlink:href="#O"/><use transform="matrix(0.06234567901234567,0,0,0.06234567901234567,47.32037037037036,0)" xlink:href="#F"/><use transform="matrix(0.06234567901234567,0,0,0.06234567901234567,59.789506172839495,0)" xlink:href="#M"/><use transform="matrix(0.06234567901234567,0,0,0.06234567901234567,67.20864197530862,0)" xlink:href="#E"/><use transform="matrix(0.06234567901234567,0,0,0.06234567901234567,73.4432098765432,0)" xlink:href="#C"/></g><path fill="#282c33" d="M67-158c15-20 31-36 64-36 94 0 33 127 27 194h-32l25-140c3-38-53-32-70-12C52-117 51-51 37 0H6l51-261h31" id="T"/><path fill="#282c33" d="M165-48c-4 18 1 34 23 27l-3 20c-29 8-62 0-52-35h-2C116-14 99 4 63 4 30 4 8-16 8-49c0-68 71-67 138-67 10-26 0-56-31-54-26 1-42 9-47 31l-32-5c8-67 160-71 144 15-5 28-9 54-15 81zM42-50c3 52 80 24 89-6 7-12 7-24 11-38-47 1-103-4-100 44" id="U"/><path fill="#282c33" d="M55-144c13 50 104 24 104 88C159 21 15 23 1-39l26-10c6 40 102 42 102-4-13-50-104-23-104-87 0-71 143-71 148-8l-29 4c-5-35-85-37-89 0" id="V"/><path fill="#282c33" d="M194-120c59 52 2 134-86 124-53-6-90-18-98-63l31-7c8 30 29 43 70 43 46 0 84-17 71-62-32-43-135-20-137-98-3-89 178-90 191-16l-30 9c-8-48-127-53-127 5 0 53 81 35 115 65" id="W"/><path fill="#282c33" d="M67 3c-93-2-31-127-26-193h32L48-50c-3 39 53 32 70 12 30-34 30-101 43-152h32L157 0h-30c1-10 6-24 4-33-14 20-29 37-64 36" id="X"/><path fill="#282c33" d="M68-162c25-46 127-43 121 31C183-60 169 1 98 4 69 5 53-11 43-31L36 0H5l52-261h31zm88 36c2-27-9-43-34-43-55 0-70 51-70 103 0 29 15 45 43 46 52 0 58-58 61-106" id="Y"/><path fill="#282c33" d="M198-190L69 30C53 58 25 83-20 72c4-11-1-27 19-22 33-1 43-29 59-52L20-190h32L79-34l84-156h35" id="Z"/><path fill="#282c33" d="M51-54c-9 22 5 41 31 30L79-1C43 14 10-4 19-52l22-115H19l5-23h22l19-43h21l-9 43h35l-4 23H73" id="aa"/><path fill="#282c33" d="M111-194c62-3 86 47 72 106H45c-7 38 6 69 45 68 27-1 43-14 53-32l24 11C152-15 129 4 87 4 38 3 12-23 12-71c0-70 32-119 99-123zm44 81c14-66-71-72-95-28-4 8-8 17-11 28h106" id="ab"/><path fill="#282c33" d="M248-111c6-24 9-61-24-58-72 9-57 108-77 169h-31l26-142c3-37-50-30-64-10C52-115 50-51 37 0H6l36-190h30c-1 10-6 24-4 32 13-43 101-52 105 5 13-22 29-41 61-41 90 0 28 129 23 194h-31" id="ac"/><g id="h"><use transform="matrix(0.056172839506172814,0,0,0.056172839506172814,0,0)" xlink:href="#T"/><use transform="matrix(0.056172839506172814,0,0,0.056172839506172814,11.234567901234563,0)" xlink:href="#U"/><use transform="matrix(0.056172839506172814,0,0,0.056172839506172814,22.469135802469125,0)" xlink:href="#V"/><use transform="matrix(0.056172839506172814,0,0,0.056172839506172814,32.58024691358023,0)" xlink:href="#W"/><use transform="matrix(0.056172839506172814,0,0,0.056172839506172814,46.06172839506171,0)" xlink:href="#X"/><use transform="matrix(0.056172839506172814,0,0,0.056172839506172814,57.29629629629627,0)" xlink:href="#Y"/><use transform="matrix(0.056172839506172814,0,0,0.056172839506172814,68.53086419753083,0)" xlink:href="#W"/><use transform="matrix(0.056172839506172814,0,0,0.056172839506172814,82.01234567901231,0)" xlink:href="#Z"/><use transform="matrix(0.056172839506172814,0,0,0.056172839506172814,92.12345679012341,0)" xlink:href="#V"/><use transform="matrix(0.056172839506172814,0,0,0.056172839506172814,102.23456790123453,0)" xlink:href="#aa"/><use transform="matrix(0.056172839506172814,0,0,0.056172839506172814,107.8518518518518,0)" xlink:href="#ab"/><use transform="matrix(0.056172839506172814,0,0,0.056172839506172814,119.08641975308636,0)" xlink:href="#ac"/></g><path fill="#282c33" d="M248-139C247-14 144 9 11 0l48-248c105-6 190 8 189 109zm-34 0c1-70-52-87-126-82L50-27c98 7 163-21 164-112" id="ad"/><path fill="#282c33" d="M67-162c32-53 139-36 121 50C175-51 163 2 97 4 68 4 52-11 42-31 38 6 28 39 22 75H-9l50-265h29c-1 10 0 20-3 28zm89 36c0-26-10-43-35-43-54 0-67 50-69 103-1 29 14 45 42 46 53 0 62-58 62-106" id="ae"/><path fill="#282c33" d="M6 0l50-261h32L37 0H6" id="af"/><path fill="#282c33" d="M30-147c31-64 166-65 159 27C183-49 158 1 86 4 9 8 1-88 30-147zM88-20c53 0 68-48 68-100 0-31-11-51-44-50-52 1-68 46-68 97 0 32 13 53 44 53" id="ag"/><path fill="#282c33" d="M67-158c22-48 132-52 116 29L158 0h-32l25-140c3-38-53-32-70-12C52-117 51-52 38 0H6l36-190h30" id="ah"/><g id="i"><use transform="matrix(0.056172839506172814,0,0,0.056172839506172814,0,0)" xlink:href="#T"/><use transform="matrix(0.056172839506172814,0,0,0.056172839506172814,11.234567901234563,0)" xlink:href="#U"/><use transform="matrix(0.056172839506172814,0,0,0.056172839506172814,22.469135802469125,0)" xlink:href="#V"/><use transform="matrix(0.056172839506172814,0,0,0.056172839506172814,32.58024691358023,0)" xlink:href="#ad"/><use transform="matrix(0.056172839506172814,0,0,0.056172839506172814,47.12901234567899,0)" xlink:href="#ab"/><use transform="matrix(0.056172839506172814,0,0,0.056172839506172814,58.36358024691356,0)" xlink:href="#ae"/><use transform="matrix(0.056172839506172814,0,0,0.056172839506172814,69.59814814814811,0)" xlink:href="#af"/><use transform="matrix(0.056172839506172814,0,0,0.056172839506172814,74.03580246913576,0)" xlink:href="#ag"/><use transform="matrix(0.056172839506172814,0,0,0.056172839506172814,85.27037037037033,0)" xlink:href="#Z"/><use transform="matrix(0.056172839506172814,0,0,0.056172839506172814,95.38148148148144,0)" xlink:href="#ac"/><use transform="matrix(0.056172839506172814,0,0,0.056172839506172814,112.17716049382712,0)" xlink:href="#ab"/><use transform="matrix(0.056172839506172814,0,0,0.056172839506172814,123.4117283950617,0)" xlink:href="#ah"/><use transform="matrix(0.056172839506172814,0,0,0.056172839506172814,134.64629629629624,0)" xlink:href="#aa"/></g><path fill="#282c33" d="M133-28C103 26-5 8 13-77c13-62 24-115 90-117 29-1 46 15 56 35l19-102h32L160 0h-30zM45-64c-2 27 10 43 35 43 54-1 69-50 69-103 0-29-15-46-42-46-53-1-58 58-62 106" id="ai"/><g id="j"><use transform="matrix(0.056172839506172814,0,0,0.056172839506172814,0,0)" xlink:href="#ai"/><use transform="matrix(0.056172839506172814,0,0,0.056172839506172814,11.234567901234563,0)" xlink:href="#ab"/><use transform="matrix(0.056172839506172814,0,0,0.056172839506172814,22.469135802469125,0)" xlink:href="#ae"/><use transform="matrix(0.056172839506172814,0,0,0.056172839506172814,33.70370370370369,0)" xlink:href="#af"/><use transform="matrix(0.056172839506172814,0,0,0.056172839506172814,38.14135802469134,0)" xlink:href="#ag"/><use transform="matrix(0.056172839506172814,0,0,0.056172839506172814,49.375925925925905,0)" xlink:href="#Z"/><use transform="matrix(0.056172839506172814,0,0,0.056172839506172814,59.48703703703701,0)" xlink:href="#ab"/><use transform="matrix(0.056172839506172814,0,0,0.056172839506172814,70.72160493827158,0)" xlink:href="#ai"/><use transform="matrix(0.056172839506172814,0,0,0.056172839506172814,81.95617283950614,0)" xlink:href="#W"/><use transform="matrix(0.056172839506172814,0,0,0.056172839506172814,95.43765432098762,0)" xlink:href="#Z"/><use transform="matrix(0.056172839506172814,0,0,0.056172839506172814,105.54876543209872,0)" xlink:href="#V"/><use transform="matrix(0.056172839506172814,0,0,0.056172839506172814,115.65987654320982,0)" xlink:href="#aa"/><use transform="matrix(0.056172839506172814,0,0,0.056172839506172814,121.27716049382711,0)" xlink:href="#ab"/><use transform="matrix(0.056172839506172814,0,0,0.056172839506172814,132.51172839506168,0)" xlink:href="#ac"/></g><path fill="#282c33" d="M50-231l6-30h32l-6 30H50zM6 0l37-190h31L37 0H6" id="aj"/><path fill="#282c33" d="M179 0l23-115H67L45 0H11l48-248h34L72-143h135l21-105h32L212 0h-33" id="ak"/><path fill="#282c33" d="M219-77C219 17 104-2 11 0l48-248c73 2 169-15 169 57 0 38-24 54-60 60 29 5 51 21 51 54zm-26-111c0-44-62-31-105-33l-16 79c55 0 121 9 121-46zm-7 110c-1-49-69-36-119-38L50-27c61-1 137 12 136-51" id="al"/><g id="k"><use transform="matrix(0.056172839506172814,0,0,0.056172839506172814,0,0)" xlink:href="#aj"/><use transform="matrix(0.056172839506172814,0,0,0.056172839506172814,4.437654320987653,0)" xlink:href="#V"/><use transform="matrix(0.056172839506172814,0,0,0.056172839506172814,14.548765432098758,0)" xlink:href="#ak"/><use transform="matrix(0.056172839506172814,0,0,0.056172839506172814,29.097530864197516,0)" xlink:href="#ag"/><use transform="matrix(0.056172839506172814,0,0,0.056172839506172814,40.33209876543208,0)" xlink:href="#V"/><use transform="matrix(0.056172839506172814,0,0,0.056172839506172814,50.443209876543186,0)" xlink:href="#aa"/><use transform="matrix(0.056172839506172814,0,0,0.056172839506172814,56.06049382716047,0)" xlink:href="#ab"/><use transform="matrix(0.056172839506172814,0,0,0.056172839506172814,67.29506172839504,0)" xlink:href="#ai"/><use transform="matrix(0.056172839506172814,0,0,0.056172839506172814,78.5296296296296,0)" xlink:href="#al"/><use transform="matrix(0.056172839506172814,0,0,0.056172839506172814,92.01111111111108,0)" xlink:href="#Z"/></g><g id="l"><use transform="matrix(0.06234567901234567,0,0,0.06234567901234567,0,0)" xlink:href="#T"/><use transform="matrix(0.06234567901234567,0,0,0.06234567901234567,12.469135802469133,0)" xlink:href="#ag"/><use transform="matrix(0.06234567901234567,0,0,0.06234567901234567,24.938271604938265,0)" xlink:href="#V"/><use transform="matrix(0.06234567901234567,0,0,0.06234567901234567,36.16049382716049,0)" xlink:href="#aa"/><use transform="matrix(0.06234567901234567,0,0,0.06234567901234567,42.39506172839505,0)" xlink:href="#V"/></g><path fill="#979ea8" d="M76-167L44 0H12l33-167H18l4-23h27c3-47 25-81 82-69l-4 24c-35-8-44 15-46 45h37l-5 23H76" id="am"/><path fill="#979ea8" d="M30-147c31-64 166-65 159 27C183-49 158 1 86 4 9 8 1-88 30-147zM88-20c53 0 68-48 68-100 0-31-11-51-44-50-52 1-68 46-68 97 0 32 13 53 44 53" id="an"/><path fill="#979ea8" d="M66-151c12-25 30-51 66-40l-6 26C45-176 58-65 38 0H6l36-190h30" id="ao"/><path fill="#979ea8" d="M238-179c0 84-86 86-175 82L45 0H11l48-248c82 0 179-12 179 69zm-34 1c0-53-64-42-116-43l-19 98c63 0 135 9 135-55" id="ap"/><path fill="#979ea8" d="M67-162c32-53 139-36 121 50C175-51 163 2 97 4 68 4 52-11 42-31 38 6 28 39 22 75H-9l50-265h29c-1 10 0 20-3 28zm89 36c0-26-10-43-35-43-54 0-67 50-69 103-1 29 14 45 42 46 53 0 62-58 62-106" id="aq"/><path fill="#979ea8" d="M111-194c62-3 86 47 72 106H45c-7 38 6 69 45 68 27-1 43-14 53-32l24 11C152-15 129 4 87 4 38 3 12-23 12-71c0-70 32-119 99-123zm44 81c14-66-71-72-95-28-4 8-8 17-11 28h106" id="ar"/><path fill="#979ea8" d="M51-54c-9 22 5 41 31 30L79-1C43 14 10-4 19-52l22-115H19l5-23h22l19-43h21l-9 43h35l-4 23H73" id="as"/><path fill="#979ea8" d="M198-190L69 30C53 58 25 83-20 72c4-11-1-27 19-22 33-1 43-29 59-52L20-190h32L79-34l84-156h35" id="at"/><g id="m"><use transform="matrix(0.056172839506172814,0,0,0.056172839506172814,0,0)" xlink:href="#am"/><use transform="matrix(0.056172839506172814,0,0,0.056172839506172814,5.617283950617281,0)" xlink:href="#an"/><use transform="matrix(0.056172839506172814,0,0,0.056172839506172814,16.851851851851844,0)" xlink:href="#ao"/><use transform="matrix(0.056172839506172814,0,0,0.056172839506172814,23.53641975308641,0)" xlink:href="#ap"/><use transform="matrix(0.056172839506172814,0,0,0.056172839506172814,37.01790123456789,0)" xlink:href="#ao"/><use transform="matrix(0.056172839506172814,0,0,0.056172839506172814,43.70246913580245,0)" xlink:href="#an"/><use transform="matrix(0.056172839506172814,0,0,0.056172839506172814,54.937037037037015,0)" xlink:href="#aq"/><use transform="matrix(0.056172839506172814,0,0,0.056172839506172814,66.17160493827157,0)" xlink:href="#ar"/><use transform="matrix(0.056172839506172814,0,0,0.056172839506172814,77.40617283950613,0)" xlink:href="#ao"/><use transform="matrix(0.056172839506172814,0,0,0.056172839506172814,84.09074074074069,0)" xlink:href="#as"/><use transform="matrix(0.056172839506172814,0,0,0.056172839506172814,89.70802469135796,0)" xlink:href="#at"/></g><g id="n"><use transform="matrix(0.056172839506172814,0,0,0.056172839506172814,0,0)" xlink:href="#aj"/><use transform="matrix(0.056172839506172814,0,0,0.056172839506172814,4.437654320987653,0)" xlink:href="#ah"/><use transform="matrix(0.056172839506172814,0,0,0.056172839506172814,15.672222222222215,0)" xlink:href="#ad"/><use transform="matrix(0.056172839506172814,0,0,0.056172839506172814,30.220987654320975,0)" xlink:href="#ab"/><use transform="matrix(0.056172839506172814,0,0,0.056172839506172814,41.455555555555534,0)" xlink:href="#ae"/><use transform="matrix(0.056172839506172814,0,0,0.056172839506172814,52.6901234567901,0)" xlink:href="#af"/><use transform="matrix(0.056172839506172814,0,0,0.056172839506172814,57.12777777777775,0)" xlink:href="#ag"/><use transform="matrix(0.056172839506172814,0,0,0.056172839506172814,68.36234567901232,0)" xlink:href="#Z"/><use transform="matrix(0.056172839506172814,0,0,0.056172839506172814,78.47345679012344,0)" xlink:href="#ac"/><use transform="matrix(0.056172839506172814,0,0,0.056172839506172814,95.26913580246911,0)" xlink:href="#ab"/><use transform="matrix(0.056172839506172814,0,0,0.056172839506172814,106.50370370370368,0)" xlink:href="#ah"/><use transform="matrix(0.056172839506172814,0,0,0.056172839506172814,117.73827160493825,0)" xlink:href="#aa"/></g><path fill="#282c33" d="M20-101c0-91 52-143 145-150 126-9 127 168 53 223-23 17-55 32-93 32C57 4 20-33 20-101zm216-33c5-57-18-91-73-90-77 1-110 51-110 125 0 49 23 75 73 75 72-1 104-45 110-110" id="au"/><path fill="#282c33" d="M238-179c0 84-86 86-175 82L45 0H11l48-248c82 0 179-12 179 69zm-34 1c0-53-64-42-116-43l-19 98c63 0 135 9 135-55" id="av"/><path fill="#282c33" d="M76-167L44 0H12l33-167H18l4-23h27c3-47 25-81 82-69l-4 24c-35-8-44 15-46 45h37l-5 23H76" id="aw"/><path fill="#282c33" d="M66-151c12-25 30-51 66-40l-6 26C45-176 58-65 38 0H6l36-190h30" id="ax"/><g id="o"><use transform="matrix(0.056172839506172814,0,0,0.056172839506172814,0,0)" xlink:href="#ai"/><use transform="matrix(0.056172839506172814,0,0,0.056172839506172814,11.234567901234563,0)" xlink:href="#ab"/><use transform="matrix(0.056172839506172814,0,0,0.056172839506172814,22.469135802469125,0)" xlink:href="#ae"/><use transform="matrix(0.056172839506172814,0,0,0.056172839506172814,33.70370370370369,0)" xlink:href="#af"/><use transform="matrix(0.056172839506172814,0,0,0.056172839506172814,38.14135802469134,0)" xlink:href="#ag"/><use transform="matrix(0.056172839506172814,0,0,0.056172839506172814,49.375925925925905,0)" xlink:href="#Z"/><use transform="matrix(0.056172839506172814,0,0,0.056172839506172814,59.48703703703701,0)" xlink:href="#ab"/><use transform="matrix(0.056172839506172814,0,0,0.056172839506172814,70.72160493827158,0)" xlink:href="#ai"/><use transform="matrix(0.056172839506172814,0,0,0.056172839506172814,81.95617283950614,0)" xlink:href="#au"/><use transform="matrix(0.056172839506172814,0,0,0.056172839506172814,97.68456790123453,0)" xlink:href="#ah"/><use transform="matrix(0.056172839506172814,0,0,0.056172839506172814,108.9191358024691,0)" xlink:href="#av"/><use transform="matrix(0.056172839506172814,0,0,0.056172839506172814,122.40061728395058,0)" xlink:href="#af"/><use transform="matrix(0.056172839506172814,0,0,0.056172839506172814,126.83827160493824,0)" xlink:href="#U"/><use transform="matrix(0.056172839506172814,0,0,0.056172839506172814,138.07283950617278,0)" xlink:href="#aa"/><use transform="matrix(0.056172839506172814,0,0,0.056172839506172814,143.69012345679008,0)" xlink:href="#aw"/><use transform="matrix(0.056172839506172814,0,0,0.056172839506172814,149.30740740740737,0)" xlink:href="#ag"/><use transform="matrix(0.056172839506172814,0,0,0.056172839506172814,160.54197530864192,0)" xlink:href="#ax"/><use transform="matrix(0.056172839506172814,0,0,0.056172839506172814,167.2265432098765,0)" xlink:href="#ac"/></g><path fill="#282c33" d="M24-231v-30h32v30H24zM24 0v-190h32V0H24" id="ay"/><path fill="#282c33" d="M177-190C167-65 218 103 67 71c-23-6-38-20-44-43l32-5c15 47 100 32 89-28v-30C133-14 115 1 83 1 29 1 15-40 15-95c0-56 16-97 71-98 29-1 48 16 59 35 1-10 0-23 2-32h30zM94-22c36 0 50-32 50-73 0-42-14-75-50-75-39 0-46 34-46 75s6 73 46 73" id="az"/><path fill="#282c33" d="M85-194c31 0 48 13 60 33l-1-100h32l1 261h-30c-2-10 0-23-3-31C134-8 116 4 85 4 32 4 16-35 15-94c0-66 23-100 70-100zm9 24c-40 0-46 34-46 75 0 40 6 74 45 74 42 0 51-32 51-76 0-42-9-74-50-73" id="aA"/><g id="p"><use transform="matrix(0.06234567901234567,0,0,0.06234567901234567,0,0)" xlink:href="#H"/><use transform="matrix(0.06234567901234567,0,0,0.06234567901234567,14.96296296296296,0)" xlink:href="#I"/><use transform="matrix(0.06234567901234567,0,0,0.06234567901234567,26.18518518518518,0)" xlink:href="#E"/><use transform="matrix(0.06234567901234567,0,0,0.06234567901234567,32.419753086419746,0)" xlink:href="#J"/><use transform="matrix(0.06234567901234567,0,0,0.06234567901234567,44.88888888888888,0)" xlink:href="#K"/><use transform="matrix(0.06234567901234567,0,0,0.06234567901234567,57.35802469135801,0)" xlink:href="#E"/><use transform="matrix(0.06234567901234567,0,0,0.06234567901234567,63.59259259259258,0)" xlink:href="#ay"/><use transform="matrix(0.06234567901234567,0,0,0.06234567901234567,68.51790123456789,0)" xlink:href="#N"/><use transform="matrix(0.06234567901234567,0,0,0.06234567901234567,80.98703703703703,0)" xlink:href="#az"/><use transform="matrix(0.06234567901234567,0,0,0.06234567901234567,93.45617283950617,0)" xlink:href="#R"/><use transform="matrix(0.06234567901234567,0,0,0.06234567901234567,108.41913580246913,0)" xlink:href="#M"/><use transform="matrix(0.06234567901234567,0,0,0.06234567901234567,115.83827160493826,0)" xlink:href="#L"/><use transform="matrix(0.06234567901234567,0,0,0.06234567901234567,128.3074074074074,0)" xlink:href="#I"/><use transform="matrix(0.06234567901234567,0,0,0.06234567901234567,139.52962962962962,0)" xlink:href="#F"/><use transform="matrix(0.06234567901234567,0,0,0.06234567901234567,151.99876543209876,0)" xlink:href="#aA"/><use transform="matrix(0.06234567901234567,0,0,0.06234567901234567,164.4679012345679,0)" xlink:href="#J"/><use transform="matrix(0.06234567901234567,0,0,0.06234567901234567,176.93703703703704,0)" xlink:href="#M"/><use transform="matrix(0.06234567901234567,0,0,0.06234567901234567,184.35617283950617,0)" xlink:href="#F"/></g><path fill="#282c33" d="M140-251c81 0 123 46 123 126C263-46 219 4 140 4 59 4 17-45 17-125s42-126 123-126zm0 227c63 0 89-41 89-101s-29-99-89-99c-61 0-89 39-89 99S79-25 140-24" id="aB"/><path fill="#282c33" d="M115-194c53 0 69 39 70 98 0 66-23 100-70 100C84 3 66-7 56-30L54 0H23l1-261h32v101c10-23 28-34 59-34zm-8 174c40 0 45-34 45-75 0-40-5-75-45-74-42 0-51 32-51 76 0 43 10 73 51 73" id="aC"/><path fill="#282c33" d="M108 0H70L1-190h34L89-25l56-165h34" id="aD"/><g id="q"><use transform="matrix(0.06234567901234567,0,0,0.06234567901234567,0,0)" xlink:href="#aB"/><use transform="matrix(0.06234567901234567,0,0,0.06234567901234567,17.456790123456788,0)" xlink:href="#aC"/><use transform="matrix(0.06234567901234567,0,0,0.06234567901234567,29.92592592592592,0)" xlink:href="#D"/><use transform="matrix(0.06234567901234567,0,0,0.06234567901234567,41.14814814814814,0)" xlink:href="#F"/><use transform="matrix(0.06234567901234567,0,0,0.06234567901234567,53.61728395061727,0)" xlink:href="#M"/><use transform="matrix(0.06234567901234567,0,0,0.06234567901234567,61.036419753086406,0)" xlink:href="#aD"/><use transform="matrix(0.06234567901234567,0,0,0.06234567901234567,72.25864197530862,0)" xlink:href="#ay"/><use transform="matrix(0.06234567901234567,0,0,0.06234567901234567,77.18395061728393,0)" xlink:href="#N"/><use transform="matrix(0.06234567901234567,0,0,0.06234567901234567,89.65308641975307,0)" xlink:href="#az"/><use transform="matrix(0.06234567901234567,0,0,0.06234567901234567,102.1222222222222,0)" xlink:href="#R"/><use transform="matrix(0.06234567901234567,0,0,0.06234567901234567,117.08518518518517,0)" xlink:href="#M"/><use transform="matrix(0.06234567901234567,0,0,0.06234567901234567,124.5043209876543,0)" xlink:href="#L"/><use transform="matrix(0.06234567901234567,0,0,0.06234567901234567,136.97345679012344,0)" xlink:href="#I"/><use transform="matrix(0.06234567901234567,0,0,0.06234567901234567,148.19567901234566,0)" xlink:href="#F"/><use transform="matrix(0.06234567901234567,0,0,0.06234567901234567,160.6648148148148,0)" xlink:href="#aA"/><use transform="matrix(0.06234567901234567,0,0,0.06234567901234567,173.13395061728394,0)" xlink:href="#J"/><use transform="matrix(0.06234567901234567,0,0,0.06234567901234567,185.60308641975308,0)" xlink:href="#M"/><use transform="matrix(0.06234567901234567,0,0,0.06234567901234567,193.0222222222222,0)" xlink:href="#F"/></g><g id="r"><use transform="matrix(0.06234567901234567,0,0,0.06234567901234567,0,0)" xlink:href="#B"/><use transform="matrix(0.06234567901234567,0,0,0.06234567901234567,14.96296296296296,0)" xlink:href="#K"/><use transform="matrix(0.06234567901234567,0,0,0.06234567901234567,27.432098765432094,0)" xlink:href="#G"/><use transform="matrix(0.06234567901234567,0,0,0.06234567901234567,46.073456790123444,0)" xlink:href="#O"/><use transform="matrix(0.06234567901234567,0,0,0.06234567901234567,58.54259259259258,0)" xlink:href="#P"/><use transform="matrix(0.06234567901234567,0,0,0.06234567901234567,63.46790123456788,0)" xlink:href="#ay"/><use transform="matrix(0.06234567901234567,0,0,0.06234567901234567,68.3932098765432,0)" xlink:href="#N"/><use transform="matrix(0.06234567901234567,0,0,0.06234567901234567,80.86234567901232,0)" xlink:href="#az"/><use transform="matrix(0.06234567901234567,0,0,0.06234567901234567,93.33148148148146,0)" xlink:href="#R"/><use transform="matrix(0.06234567901234567,0,0,0.06234567901234567,108.29444444444442,0)" xlink:href="#M"/><use transform="matrix(0.06234567901234567,0,0,0.06234567901234567,115.71358024691355,0)" xlink:href="#L"/><use transform="matrix(0.06234567901234567,0,0,0.06234567901234567,128.1827160493827,0)" xlink:href="#I"/><use transform="matrix(0.06234567901234567,0,0,0.06234567901234567,139.40493827160492,0)" xlink:href="#F"/><use transform="matrix(0.06234567901234567,0,0,0.06234567901234567,151.87407407407406,0)" xlink:href="#aA"/><use transform="matrix(0.06234567901234567,0,0,0.06234567901234567,164.3432098765432,0)" xlink:href="#J"/><use transform="matrix(0.06234567901234567,0,0,0.06234567901234567,176.81234567901234,0)" xlink:href="#M"/><use transform="matrix(0.06234567901234567,0,0,0.06234567901234567,184.23148148148147,0)" xlink:href="#F"/></g><g id="s"><use transform="matrix(0.06234567901234567,0,0,0.06234567901234567,0,0)" xlink:href="#R"/><use transform="matrix(0.06234567901234567,0,0,0.06234567901234567,14.96296296296296,0)" xlink:href="#M"/><use transform="matrix(0.06234567901234567,0,0,0.06234567901234567,22.382098765432094,0)" xlink:href="#L"/><use transform="matrix(0.06234567901234567,0,0,0.06234567901234567,34.85123456790123,0)" xlink:href="#I"/><use transform="matrix(0.06234567901234567,0,0,0.06234567901234567,46.07345679012345,0)" xlink:href="#F"/><use transform="matrix(0.06234567901234567,0,0,0.06234567901234567,58.542592592592584,0)" xlink:href="#aA"/><use transform="matrix(0.06234567901234567,0,0,0.06234567901234567,71.01172839506171,0)" xlink:href="#J"/><use transform="matrix(0.06234567901234567,0,0,0.06234567901234567,83.48086419753085,0)" xlink:href="#M"/><use transform="matrix(0.06234567901234567,0,0,0.06234567901234567,90.89999999999998,0)" xlink:href="#F"/></g><g id="t"><use transform="matrix(0.06234567901234567,0,0,0.06234567901234567,0,0)" xlink:href="#aj"/><use transform="matrix(0.06234567901234567,0,0,0.06234567901234567,4.925308641975308,0)" xlink:href="#ac"/><use transform="matrix(0.06234567901234567,0,0,0.06234567901234567,23.566666666666663,0)" xlink:href="#ae"/><use transform="matrix(0.06234567901234567,0,0,0.06234567901234567,36.035802469135795,0)" xlink:href="#af"/><use transform="matrix(0.06234567901234567,0,0,0.06234567901234567,40.9611111111111,0)" xlink:href="#ab"/><use transform="matrix(0.06234567901234567,0,0,0.06234567901234567,53.430246913580234,0)" xlink:href="#ac"/><use transform="matrix(0.06234567901234567,0,0,0.06234567901234567,72.07160493827159,0)" xlink:href="#ab"/><use transform="matrix(0.06234567901234567,0,0,0.06234567901234567,84.54074074074072,0)" xlink:href="#ah"/><use transform="matrix(0.06234567901234567,0,0,0.06234567901234567,97.00987654320986,0)" xlink:href="#aa"/><use transform="matrix(0.06234567901234567,0,0,0.06234567901234567,103.24444444444443,0)" xlink:href="#V"/></g><path fill="#979ea8" d="M50-231l6-30h32l-6 30H50zM6 0l37-190h31L37 0H6" id="aE"/><path fill="#979ea8" d="M248-111c6-24 9-61-24-58-72 9-57 108-77 169h-31l26-142c3-37-50-30-64-10C52-115 50-51 37 0H6l36-190h30c-1 10-6 24-4 32 13-43 101-52 105 5 13-22 29-41 61-41 90 0 28 129 23 194h-31" id="aF"/><path fill="#979ea8" d="M6 0l50-261h32L37 0H6" id="aG"/><path fill="#979ea8" d="M67-158c22-48 132-52 116 29L158 0h-32l25-140c3-38-53-32-70-12C52-117 51-52 38 0H6l36-190h30" id="aH"/><path fill="#979ea8" d="M133-28C103 26-5 8 13-77c13-62 24-115 90-117 29-1 46 15 56 35l19-102h32L160 0h-30zM45-64c-2 27 10 43 35 43 54-1 69-50 69-103 0-29-15-46-42-46-53-1-58 58-62 106" id="aI"/><path fill="#979ea8" d="M219-77C219 17 104-2 11 0l48-248c73 2 169-15 169 57 0 38-24 54-60 60 29 5 51 21 51 54zm-26-111c0-44-62-31-105-33l-16 79c55 0 121 9 121-46zm-7 110c-1-49-69-36-119-38L50-27c61-1 137 12 136-51" id="aJ"/><g id="u"><use transform="matrix(0.056172839506172814,0,0,0.056172839506172814,0,0)" xlink:href="#aE"/><use transform="matrix(0.056172839506172814,0,0,0.056172839506172814,4.437654320987653,0)" xlink:href="#aF"/><use transform="matrix(0.056172839506172814,0,0,0.056172839506172814,21.233333333333327,0)" xlink:href="#aq"/><use transform="matrix(0.056172839506172814,0,0,0.056172839506172814,32.46790123456789,0)" xlink:href="#aG"/><use transform="matrix(0.056172839506172814,0,0,0.056172839506172814,36.905555555555544,0)" xlink:href="#ar"/><use transform="matrix(0.056172839506172814,0,0,0.056172839506172814,48.14012345679011,0)" xlink:href="#aF"/><use transform="matrix(0.056172839506172814,0,0,0.056172839506172814,64.93580246913578,0)" xlink:href="#ar"/><use transform="matrix(0.056172839506172814,0,0,0.056172839506172814,76.17037037037034,0)" xlink:href="#aH"/><use transform="matrix(0.056172839506172814,0,0,0.056172839506172814,87.40493827160489,0)" xlink:href="#as"/><use transform="matrix(0.056172839506172814,0,0,0.056172839506172814,93.02222222222217,0)" xlink:href="#ar"/><use transform="matrix(0.056172839506172814,0,0,0.056172839506172814,104.25679012345674,0)" xlink:href="#aI"/><use transform="matrix(0.056172839506172814,0,0,0.056172839506172814,115.49135802469131,0)" xlink:href="#aJ"/><use transform="matrix(0.056172839506172814,0,0,0.056172839506172814,128.97283950617276,0)" xlink:href="#at"/></g><g id="v"><use transform="matrix(0.06234567901234567,0,0,0.06234567901234567,0,0)" xlink:href="#H"/><use transform="matrix(0.06234567901234567,0,0,0.06234567901234567,14.96296296296296,0)" xlink:href="#I"/><use transform="matrix(0.06234567901234567,0,0,0.06234567901234567,26.18518518518518,0)" xlink:href="#E"/><use transform="matrix(0.06234567901234567,0,0,0.06234567901234567,32.419753086419746,0)" xlink:href="#J"/><use transform="matrix(0.06234567901234567,0,0,0.06234567901234567,44.88888888888888,0)" xlink:href="#K"/><use transform="matrix(0.06234567901234567,0,0,0.06234567901234567,57.35802469135801,0)" xlink:href="#E"/><use transform="matrix(0.06234567901234567,0,0,0.06234567901234567,63.59259259259258,0)" xlink:href="#ay"/><use transform="matrix(0.06234567901234567,0,0,0.06234567901234567,68.51790123456789,0)" xlink:href="#L"/><use transform="matrix(0.06234567901234567,0,0,0.06234567901234567,80.98703703703703,0)" xlink:href="#N"/></g><g id="w"><use transform="matrix(0.06234567901234567,0,0,0.06234567901234567,0,0)" xlink:href="#aB"/><use transform="matrix(0.06234567901234567,0,0,0.06234567901234567,17.456790123456788,0)" xlink:href="#aC"/><use transform="matrix(0.06234567901234567,0,0,0.06234567901234567,29.92592592592592,0)" xlink:href="#D"/><use transform="matrix(0.06234567901234567,0,0,0.06234567901234567,41.14814814814814,0)" xlink:href="#F"/><use transform="matrix(0.06234567901234567,0,0,0.06234567901234567,53.61728395061727,0)" xlink:href="#M"/><use transform="matrix(0.06234567901234567,0,0,0.06234567901234567,61.036419753086406,0)" xlink:href="#aD"/><use transform="matrix(0.06234567901234567,0,0,0.06234567901234567,72.25864197530862,0)" xlink:href="#K"/><use transform="matrix(0.06234567901234567,0,0,0.06234567901234567,84.72777777777776,0)" xlink:href="#E"/><use transform="matrix(0.06234567901234567,0,0,0.06234567901234567,90.96234567901233,0)" xlink:href="#ay"/><use transform="matrix(0.06234567901234567,0,0,0.06234567901234567,95.88765432098764,0)" xlink:href="#L"/><use transform="matrix(0.06234567901234567,0,0,0.06234567901234567,108.35679012345676,0)" xlink:href="#N"/></g><g id="x"><use transform="matrix(0.06234567901234567,0,0,0.06234567901234567,0,0)" xlink:href="#B"/><use transform="matrix(0.06234567901234567,0,0,0.06234567901234567,14.96296296296296,0)" xlink:href="#K"/><use transform="matrix(0.06234567901234567,0,0,0.06234567901234567,27.432098765432094,0)" xlink:href="#G"/><use transform="matrix(0.06234567901234567,0,0,0.06234567901234567,46.073456790123444,0)" xlink:href="#O"/><use transform="matrix(0.06234567901234567,0,0,0.06234567901234567,58.54259259259258,0)" xlink:href="#P"/><use transform="matrix(0.06234567901234567,0,0,0.06234567901234567,63.46790123456788,0)" xlink:href="#ay"/><use transform="matrix(0.06234567901234567,0,0,0.06234567901234567,68.3932098765432,0)" xlink:href="#N"/><use transform="matrix(0.06234567901234567,0,0,0.06234567901234567,80.86234567901232,0)" xlink:href="#az"/></g><path fill="#282c33" d="M30 0v-248h187v28H63v79h144v27H63v87h162V0H30" id="aK"/><path fill="#282c33" d="M141 0L90-78 38 0H4l68-98-65-92h35l48 74 47-74h35l-64 92 68 98h-35" id="aL"/><g id="y"><use transform="matrix(0.06234567901234567,0,0,0.06234567901234567,0,0)" xlink:href="#aK"/><use transform="matrix(0.06234567901234567,0,0,0.06234567901234567,14.96296296296296,0)" xlink:href="#aL"/><use transform="matrix(0.06234567901234567,0,0,0.06234567901234567,26.18518518518518,0)" xlink:href="#F"/><use transform="matrix(0.06234567901234567,0,0,0.06234567901234567,38.654320987654316,0)" xlink:href="#I"/><use transform="matrix(0.06234567901234567,0,0,0.06234567901234567,49.87654320987654,0)" xlink:href="#J"/><use transform="matrix(0.06234567901234567,0,0,0.06234567901234567,62.34567901234567,0)" xlink:href="#E"/><use transform="matrix(0.06234567901234567,0,0,0.06234567901234567,68.58024691358024,0)" xlink:href="#ay"/><use transform="matrix(0.06234567901234567,0,0,0.06234567901234567,73.50555555555555,0)" xlink:href="#L"/><use transform="matrix(0.06234567901234567,0,0,0.06234567901234567,85.97469135802467,0)" xlink:href="#N"/></g><path fill="#979ea8" d="M165-48c-4 18 1 34 23 27l-3 20c-29 8-62 0-52-35h-2C116-14 99 4 63 4 30 4 8-16 8-49c0-68 71-67 138-67 10-26 0-56-31-54-26 1-42 9-47 31l-32-5c8-67 160-71 144 15-5 28-9 54-15 81zM42-50c3 52 80 24 89-6 7-12 7-24 11-38-47 1-103-4-100 44" id="aM"/><path fill="#979ea8" d="M194-120c59 52 2 134-86 124-53-6-90-18-98-63l31-7c8 30 29 43 70 43 46 0 84-17 71-62-32-43-135-20-137-98-3-89 178-90 191-16l-30 9c-8-48-127-53-127 5 0 53 81 35 115 65" id="aN"/><path fill="#979ea8" d="M55-144c13 50 104 24 104 88C159 21 15 23 1-39l26-10c6 40 102 42 102-4-13-50-104-23-104-87 0-71 143-71 148-8l-29 4c-5-35-85-37-89 0" id="aO"/><g id="z"><use transform="matrix(0.056172839506172814,0,0,0.056172839506172814,0,0)" xlink:href="#aF"/><use transform="matrix(0.056172839506172814,0,0,0.056172839506172814,16.795679012345673,0)" xlink:href="#aM"/><use transform="matrix(0.056172839506172814,0,0,0.056172839506172814,28.030246913580235,0)" xlink:href="#aI"/><use transform="matrix(0.056172839506172814,0,0,0.056172839506172814,39.2648148148148,0)" xlink:href="#ar"/><use transform="matrix(0.056172839506172814,0,0,0.056172839506172814,50.49938271604936,0)" xlink:href="#aJ"/><use transform="matrix(0.056172839506172814,0,0,0.056172839506172814,63.980864197530835,0)" xlink:href="#at"/><use transform="matrix(0.056172839506172814,0,0,0.056172839506172814,74.09197530864193,0)" xlink:href="#aN"/><use transform="matrix(0.056172839506172814,0,0,0.056172839506172814,87.57345679012342,0)" xlink:href="#at"/><use transform="matrix(0.056172839506172814,0,0,0.056172839506172814,97.68456790123452,0)" xlink:href="#aO"/><use transform="matrix(0.056172839506172814,0,0,0.056172839506172814,107.79567901234563,0)" xlink:href="#as"/><use transform="matrix(0.056172839506172814,0,0,0.056172839506172814,113.41296296296291,0)" xlink:href="#ar"/><use transform="matrix(0.056172839506172814,0,0,0.056172839506172814,124.64753086419748,0)" xlink:href="#aF"/></g><path fill="#282c33" d="M11 0l48-248h184l-5 28H87l-15 79h140l-5 27H67L50-27h158l-5 27H11" id="aP"/><path fill="#282c33" d="M124 0L87-78 21 0h-35l86-98-46-92h33l34 74 61-74h37l-83 92 50 98h-34" id="aQ"/><path fill="#282c33" d="M44-68c0 29 11 47 38 47 30 0 42-19 51-41l28 9C148-21 126 4 82 4 31 4 10-29 12-85c3-77 74-140 146-93 12 8 15 23 18 40l-31 5c-1-22-13-36-36-36-52 0-65 49-65 101" id="aR"/><g id="A"><use transform="matrix(0.06234567901234567,0,0,0.06234567901234567,0,0)" xlink:href="#ac"/><use transform="matrix(0.06234567901234567,0,0,0.06234567901234567,18.641358024691353,0)" xlink:href="#U"/><use transform="matrix(0.06234567901234567,0,0,0.06234567901234567,31.110493827160486,0)" xlink:href="#ai"/><use transform="matrix(0.06234567901234567,0,0,0.06234567901234567,43.57962962962962,0)" xlink:href="#ab"/><use transform="matrix(0.06234567901234567,0,0,0.06234567901234567,56.048765432098755,0)" xlink:href="#aP"/><use transform="matrix(0.06234567901234567,0,0,0.06234567901234567,71.01172839506171,0)" xlink:href="#aQ"/><use transform="matrix(0.06234567901234567,0,0,0.06234567901234567,82.23395061728392,0)" xlink:href="#ab"/><use transform="matrix(0.06234567901234567,0,0,0.06234567901234567,94.70308641975305,0)" xlink:href="#aR"/><use transform="matrix(0.06234567901234567,0,0,0.06234567901234567,105.92530864197526,0)" xlink:href="#X"/><use transform="matrix(0.06234567901234567,0,0,0.06234567901234567,118.39444444444439,0)" xlink:href="#aa"/><use transform="matrix(0.06234567901234567,0,0,0.06234567901234567,124.62901234567896,0)" xlink:href="#aj"/><use transform="matrix(0.06234567901234567,0,0,0.06234567901234567,129.55432098765428,0)" xlink:href="#ag"/><use transform="matrix(0.06234567901234567,0,0,0.06234567901234567,142.02345679012342,0)" xlink:href="#ah"/></g></defs></g></svg>