<svg xmlns="http://www.w3.org/2000/svg" xmlns:xlink="http://www.w3.org/1999/xlink" xmlns:lucid="lucid" width="1103" height="721.83"><g transform="translate(-698.5 60)" lucid:page-tab-id="HWEp-vi-RSFO"><path d="M500-500h1500v1500H500z" fill="#fff"/><path d="M883 266.83h55a12 12 0 0 0 12-12V162a12 12 0 0 1 12-12h192.27" stroke="#333" stroke-width="3" fill="none"/><path d="M883.04 268.3h-1.54v-2.94h1.54z" stroke="#333" stroke-width=".05" fill="#333"/><path d="M1136.84 160.18l17.2-10.18-17.2-10.18" stroke="#333" stroke-width="3" fill="none"/><path d="M958.5 100h180v60h-180z" fill="none"/><use xlink:href="#a" transform="matrix(1,0,0,1,958.5,100) translate(-4.229938271604908 34.044444444444444)"/><path d="M720 249.5h160v80H720z" stroke="#282c33" stroke-width="3" fill="#fff"/><use xlink:href="#b" transform="matrix(1,0,0,1,728,257.5) translate(7.815123456790133 36.48888888888889)"/><path d="M1158.5 89.5h260v121h-260z" stroke="#282c33" stroke-width="3" fill="#fff"/><path d="M1158.5 132.43h260" stroke="#282c33" stroke-width="3" fill="none"/><use xlink:href="#c" transform="matrix(1,0,0,1,1166.5,97.5) translate(35.49537037037038 17.988888888888887)"/><use xlink:href="#d" transform="matrix(1,0,0,1,1170.5,140.43333333333334) translate(67.55679012345682 35.544444444444444)"/><path d="M1620 60.5h160v80h-160z" stroke="#979ea8" stroke-width="3" fill="#fff"/><use xlink:href="#e" transform="matrix(1,0,0,1,1628,68.5) translate(2.8586419753086574 36.48888888888889)"/><path d="M1421.5 100.5H1615.77" stroke="#333" stroke-width="3" fill="none"/><path d="M1421.54 101.97H1420v-2.94h1.54z" stroke="#333" stroke-width=".05" fill="#333"/><path d="M1598.34 110.68l17.2-10.18-17.2-10.18" stroke="#333" stroke-width="3" fill="none"/><path d="M1400 40h240v60h-240z" fill="none"/><use xlink:href="#f" transform="matrix(1,0,0,1,1400,40) translate(37.79722222222223 34.48888888888889)"/><path d="M883 289.5h271.27" stroke="#333" stroke-width="3" fill="none"/><path d="M883.04 290.98h-1.54v-2.96h1.54z" stroke="#333" stroke-width=".05" fill="#333"/><path d="M1136.84 299.68l17.2-10.18-17.2-10.18" stroke="#333" stroke-width="3" fill="none"/><path d="M978.5 240h180v60h-180z" fill="none"/><use xlink:href="#g" transform="matrix(1,0,0,1,978.5,240) translate(8.100000000000065 34.044444444444444)"/><path d="M1158.5 229h260v121h-260z" stroke="#282c33" stroke-width="3" fill="#fff"/><path d="M1158.5 271.93h260" stroke="#282c33" stroke-width="3" fill="none"/><use xlink:href="#h" transform="matrix(1,0,0,1,1166.5,237) translate(49.18024691358025 17.988888888888887)"/><use xlink:href="#d" transform="matrix(1,0,0,1,1170.5,279.93333333333334) translate(67.55679012345682 35.544444444444444)"/><path d="M883 313.5h55a12 12 0 0 1 12 12V417a12 12 0 0 0 12 12h192.27" stroke="#333" stroke-width="3" fill="none"/><path d="M883.04 314.98h-1.54v-2.96h1.54z" stroke="#333" stroke-width=".05" fill="#333"/><path d="M1136.84 439.18l17.2-10.18-17.2-10.18" stroke="#333" stroke-width="3" fill="none"/><path d="M960 429.5h180v60H960z" fill="none"/><use xlink:href="#i" transform="matrix(1,0,0,1,960,429.5) translate(-0.3540123456789388 34.044444444444444)"/><path d="M1158.5 368.5h260v121h-260z" stroke="#282c33" stroke-width="3" fill="#fff"/><path d="M1158.5 411.43h260" stroke="#282c33" stroke-width="3" fill="none"/><use xlink:href="#j" transform="matrix(1,0,0,1,1166.5,376.5) translate(39.79722222222222 17.988888888888887)"/><use xlink:href="#d" transform="matrix(1,0,0,1,1170.5,419.43333333333334) translate(67.55679012345682 35.544444444444444)"/><path d="M1421.5 184H1688a12 12 0 0 0 12-12v-4.03" stroke="#333" stroke-width="3" fill="none"/><path d="M1421.54 185.47H1420v-2.94h1.54z" stroke="#333" stroke-width=".05" fill="#333"/><path d="M1700 144.95l12.73 21.52h-25.46z" stroke="#333" stroke-width="3" fill="#fff"/><path d="M1421.5 289.5H1688a12 12 0 0 0 12-12V167.97" stroke="#333" stroke-width="3" fill="none"/><path d="M1421.54 290.98H1420v-2.96h1.54z" stroke="#333" stroke-width=".05" fill="#333"/><path d="M1700 144.95l12.73 21.52h-25.46z" stroke="#333" stroke-width="3" fill="#fff"/><path d="M1421.5 429H1688a12 12 0 0 0 12-12V167.97" stroke="#333" stroke-width="3" fill="none"/><path d="M1421.54 430.48H1420v-2.96h1.54z" stroke="#333" stroke-width=".05" fill="#333"/><path d="M1700 144.95l12.73 21.52h-25.46z" stroke="#333" stroke-width="3" fill="#fff"/><path d="M1160-20h160v80h-160z" stroke="#282c33" stroke-width="3" fill="#fff"/><use xlink:href="#k" transform="matrix(1,0,0,1,1168,-12) translate(12.210493827160505 36.48888888888889)"/><path d="M883 257.33h9.5a12 12 0 0 0 12-12v-213a12 12 0 0 1 12-12h239.27" stroke="#333" stroke-width="3" fill="none"/><path d="M883.04 258.8h-1.54v-2.94h1.54z" stroke="#333" stroke-width=".05" fill="#333"/><path d="M1138.34 30.5l17.2-10.17-17.2-10.18" stroke="#333" stroke-width="3" fill="none"/><path d="M978.5-40h180v60h-180z" fill="none"/><use xlink:href="#l" transform="matrix(1,0,0,1,978.5,-40) translate(19.840123456790153 34.044444444444444)"/><path d="M720 560.33h160v80H720z" stroke="#282c33" stroke-width="3" fill="#fff"/><use xlink:href="#m" transform="matrix(1,0,0,1,728,568.3333333333335) translate(3.513271604938282 36.48888888888889)"/><path d="M1160 560h160v80h-160z" stroke="#282c33" stroke-width="3" fill="#fff"/><use xlink:href="#n" transform="matrix(1,0,0,1,1168,568) translate(7.9086419753086545 36.48888888888889)"/><path d="M883 600.33h272.77" stroke="#333" stroke-width="3" fill="none"/><path d="M883.04 601.8h-1.54v-2.94h1.54z" stroke="#333" stroke-width=".05" fill="#333"/><path d="M1138.34 610.5l17.2-10.17-17.2-10.18" stroke="#333" stroke-width="3" fill="none"/><path d="M962.5 540h180v60h-180z" fill="none"/><use xlink:href="#o" transform="matrix(1,0,0,1,962.5,540) translate(16.77777777777777 34)"/><defs><path fill="#282c33" d="M67-158c15-20 31-36 64-36 94 0 33 127 27 194h-32l25-140c3-38-53-32-70-12C52-117 51-51 37 0H6l51-261h31" id="p"/><path fill="#282c33" d="M165-48c-4 18 1 34 23 27l-3 20c-29 8-62 0-52-35h-2C116-14 99 4 63 4 30 4 8-16 8-49c0-68 71-67 138-67 10-26 0-56-31-54-26 1-42 9-47 31l-32-5c8-67 160-71 144 15-5 28-9 54-15 81zM42-50c3 52 80 24 89-6 7-12 7-24 11-38-47 1-103-4-100 44" id="q"/><path fill="#282c33" d="M55-144c13 50 104 24 104 88C159 21 15 23 1-39l26-10c6 40 102 42 102-4-13-50-104-23-104-87 0-71 143-71 148-8l-29 4c-5-35-85-37-89 0" id="r"/><path fill="#282c33" d="M194-120c59 52 2 134-86 124-53-6-90-18-98-63l31-7c8 30 29 43 70 43 46 0 84-17 71-62-32-43-135-20-137-98-3-89 178-90 191-16l-30 9c-8-48-127-53-127 5 0 53 81 35 115 65" id="s"/><path fill="#282c33" d="M198-190L69 30C53 58 25 83-20 72c4-11-1-27 19-22 33-1 43-29 59-52L20-190h32L79-34l84-156h35" id="t"/><path fill="#282c33" d="M51-54c-9 22 5 41 31 30L79-1C43 14 10-4 19-52l22-115H19l5-23h22l19-43h21l-9 43h35l-4 23H73" id="u"/><path fill="#282c33" d="M111-194c62-3 86 47 72 106H45c-7 38 6 69 45 68 27-1 43-14 53-32l24 11C152-15 129 4 87 4 38 3 12-23 12-71c0-70 32-119 99-123zm44 81c14-66-71-72-95-28-4 8-8 17-11 28h106" id="v"/><path fill="#282c33" d="M248-111c6-24 9-61-24-58-72 9-57 108-77 169h-31l26-142c3-37-50-30-64-10C52-115 50-51 37 0H6l36-190h30c-1 10-6 24-4 32 13-43 101-52 105 5 13-22 29-41 61-41 90 0 28 129 23 194h-31" id="w"/><path fill="#282c33" d="M125-24c46 0 70-25 89-51l25 16C214-24 183 4 123 4 8 4-5-146 60-208c32-50 158-61 191-5 5 7 9 14 11 22l-32 10c-9-28-33-43-69-43-74 0-108 51-108 125 0 46 24 75 72 75" id="x"/><path fill="#282c33" d="M67-162c32-53 139-36 121 50C175-51 163 2 97 4 68 4 52-11 42-31 38 6 28 39 22 75H-9l50-265h29c-1 10 0 20-3 28zm89 36c0-26-10-43-35-43-54 0-67 50-69 103-1 29 14 45 42 46 53 0 62-58 62-106" id="y"/><path fill="#282c33" d="M68-162c25-46 127-43 121 31C183-60 169 1 98 4 69 5 53-11 43-31L36 0H5l52-261h31zm88 36c2-27-9-43-34-43-55 0-70 51-70 103 0 29 15 45 43 46 52 0 58-58 61-106" id="z"/><path fill="#282c33" d="M50-231l6-30h32l-6 30H50zM6 0l37-190h31L37 0H6" id="A"/><path fill="#282c33" d="M6 0l50-261h32L37 0H6" id="B"/><g id="a"><use transform="matrix(0.056172839506172814,0,0,0.056172839506172814,0,0)" xlink:href="#p"/><use transform="matrix(0.056172839506172814,0,0,0.056172839506172814,11.234567901234563,0)" xlink:href="#q"/><use transform="matrix(0.056172839506172814,0,0,0.056172839506172814,22.469135802469125,0)" xlink:href="#r"/><use transform="matrix(0.056172839506172814,0,0,0.056172839506172814,32.58024691358023,0)" xlink:href="#s"/><use transform="matrix(0.056172839506172814,0,0,0.056172839506172814,46.06172839506171,0)" xlink:href="#t"/><use transform="matrix(0.056172839506172814,0,0,0.056172839506172814,56.172839506172814,0)" xlink:href="#r"/><use transform="matrix(0.056172839506172814,0,0,0.056172839506172814,66.28395061728392,0)" xlink:href="#u"/><use transform="matrix(0.056172839506172814,0,0,0.056172839506172814,71.9012345679012,0)" xlink:href="#v"/><use transform="matrix(0.056172839506172814,0,0,0.056172839506172814,83.13580246913577,0)" xlink:href="#w"/><use transform="matrix(0.056172839506172814,0,0,0.056172839506172814,99.93148148148144,0)" xlink:href="#x"/><use transform="matrix(0.056172839506172814,0,0,0.056172839506172814,114.4802469135802,0)" xlink:href="#q"/><use transform="matrix(0.056172839506172814,0,0,0.056172839506172814,125.71481481481476,0)" xlink:href="#y"/><use transform="matrix(0.056172839506172814,0,0,0.056172839506172814,136.9493827160493,0)" xlink:href="#q"/><use transform="matrix(0.056172839506172814,0,0,0.056172839506172814,148.18395061728387,0)" xlink:href="#z"/><use transform="matrix(0.056172839506172814,0,0,0.056172839506172814,159.41851851851843,0)" xlink:href="#A"/><use transform="matrix(0.056172839506172814,0,0,0.056172839506172814,163.8561728395061,0)" xlink:href="#B"/><use transform="matrix(0.056172839506172814,0,0,0.056172839506172814,168.29382716049375,0)" xlink:href="#A"/><use transform="matrix(0.056172839506172814,0,0,0.056172839506172814,172.7314814814814,0)" xlink:href="#u"/><use transform="matrix(0.056172839506172814,0,0,0.056172839506172814,178.3487654320987,0)" xlink:href="#t"/></g><path fill="#282c33" d="M135-143c-3-34-86-38-87 0 15 53 115 12 119 90S17 21 10-45l28-5c4 36 97 45 98 0-10-56-113-15-118-90-4-57 82-63 122-42 12 7 21 19 24 35" id="C"/><path fill="#282c33" d="M100-194c62-1 85 37 85 99 1 63-27 99-86 99S16-35 15-95c0-66 28-99 85-99zM99-20c44 1 53-31 53-75 0-43-8-75-51-75s-53 32-53 75 10 74 51 75" id="D"/><path fill="#282c33" d="M141-36C126-15 110 5 73 4 37 3 15-17 15-53c-1-64 63-63 125-63 3-35-9-54-41-54-24 1-41 7-42 31l-33-3c5-37 33-52 76-52 45 0 72 20 72 64v82c-1 20 7 32 28 27v20c-31 9-61-2-59-35zM48-53c0 20 12 33 32 33 41-3 63-29 60-74-43 2-92-5-92 41" id="E"/><path fill="#282c33" d="M33-154v-36h34v36H33zM33 0v-36h34V0H33" id="F"/><path fill="#282c33" d="M185-189c-5-48-123-54-124 2 14 75 158 14 163 119 3 78-121 87-175 55-17-10-28-26-33-46l33-7c5 56 141 63 141-1 0-78-155-14-162-118-5-82 145-84 179-34 5 7 8 16 11 25" id="G"/><path fill="#282c33" d="M179-190L93 31C79 59 56 82 12 73V49c39 6 53-20 64-50L1-190h34L92-34l54-156h33" id="H"/><path fill="#282c33" d="M59-47c-2 24 18 29 38 22v24C64 9 27 4 27-40v-127H5v-23h24l9-43h21v43h35v23H59v120" id="I"/><path fill="#282c33" d="M100-194c63 0 86 42 84 106H49c0 40 14 67 53 68 26 1 43-12 49-29l28 8c-11 28-37 45-77 45C44 4 14-33 15-96c1-61 26-98 85-98zm52 81c6-60-76-77-97-28-3 7-6 17-6 28h103" id="J"/><path fill="#282c33" d="M210-169c-67 3-38 105-44 169h-31v-121c0-29-5-50-35-48C34-165 62-65 56 0H25l-1-190h30c1 10-1 24 2 32 10-44 99-50 107 0 11-21 27-35 58-36 85-2 47 119 55 194h-31v-121c0-29-5-49-35-48" id="K"/><g id="b"><use transform="matrix(0.06234567901234567,0,0,0.06234567901234567,0,0)" xlink:href="#C"/><use transform="matrix(0.06234567901234567,0,0,0.06234567901234567,11.22222222222222,0)" xlink:href="#D"/><use transform="matrix(0.06234567901234567,0,0,0.06234567901234567,23.691358024691354,0)" xlink:href="#C"/><use transform="matrix(0.06234567901234567,0,0,0.06234567901234567,34.913580246913575,0)" xlink:href="#E"/><use transform="matrix(0.06234567901234567,0,0,0.06234567901234567,47.38271604938271,0)" xlink:href="#F"/><use transform="matrix(0.06234567901234567,0,0,0.06234567901234567,53.61728395061728,0)" xlink:href="#G"/><use transform="matrix(0.06234567901234567,0,0,0.06234567901234567,68.58024691358024,0)" xlink:href="#H"/><use transform="matrix(0.06234567901234567,0,0,0.06234567901234567,79.80246913580245,0)" xlink:href="#C"/><use transform="matrix(0.06234567901234567,0,0,0.06234567901234567,91.02469135802467,0)" xlink:href="#I"/><use transform="matrix(0.06234567901234567,0,0,0.06234567901234567,97.25925925925924,0)" xlink:href="#J"/><use transform="matrix(0.06234567901234567,0,0,0.06234567901234567,109.72839506172838,0)" xlink:href="#K"/></g><path d="M185-189c-5-48-123-54-124 2 14 75 158 14 163 119 3 78-121 87-175 55-17-10-28-26-33-46l33-7c5 56 141 63 141-1 0-78-155-14-162-118-5-82 145-84 179-34 5 7 8 16 11 25" id="L"/><path d="M179-190L93 31C79 59 56 82 12 73V49c39 6 53-20 64-50L1-190h34L92-34l54-156h33" id="M"/><path d="M135-143c-3-34-86-38-87 0 15 53 115 12 119 90S17 21 10-45l28-5c4 36 97 45 98 0-10-56-113-15-118-90-4-57 82-63 122-42 12 7 21 19 24 35" id="N"/><path d="M59-47c-2 24 18 29 38 22v24C64 9 27 4 27-40v-127H5v-23h24l9-43h21v43h35v23H59v120" id="O"/><path d="M100-194c63 0 86 42 84 106H49c0 40 14 67 53 68 26 1 43-12 49-29l28 8c-11 28-37 45-77 45C44 4 14-33 15-96c1-61 26-98 85-98zm52 81c6-60-76-77-97-28-3 7-6 17-6 28h103" id="P"/><path d="M210-169c-67 3-38 105-44 169h-31v-121c0-29-5-50-35-48C34-165 62-65 56 0H25l-1-190h30c1 10-1 24 2 32 10-44 99-50 107 0 11-21 27-35 58-36 85-2 47 119 55 194h-31v-121c0-29-5-49-35-48" id="Q"/><path d="M212-179c-10-28-35-45-73-45-59 0-87 40-87 99 0 60 29 101 89 101 43 0 62-24 78-52l27 14C228-24 195 4 139 4 59 4 22-46 18-125c-6-104 99-153 187-111 19 9 31 26 39 46" id="R"/><path d="M141-36C126-15 110 5 73 4 37 3 15-17 15-53c-1-64 63-63 125-63 3-35-9-54-41-54-24 1-41 7-42 31l-33-3c5-37 33-52 76-52 45 0 72 20 72 64v82c-1 20 7 32 28 27v20c-31 9-61-2-59-35zM48-53c0 20 12 33 32 33 41-3 63-29 60-74-43 2-92-5-92 41" id="S"/><path d="M115-194c55 1 70 41 70 98S169 2 115 4C84 4 66-9 55-30l1 105H24l-1-265h31l2 30c10-21 28-34 59-34zm-8 174c40 0 45-34 45-75s-6-73-45-74c-42 0-51 32-51 76 0 43 10 73 51 73" id="T"/><path d="M115-194c53 0 69 39 70 98 0 66-23 100-70 100C84 3 66-7 56-30L54 0H23l1-261h32v101c10-23 28-34 59-34zm-8 174c40 0 45-34 45-75 0-40-5-75-45-74-42 0-51 32-51 76 0 43 10 73 51 73" id="U"/><path d="M24-231v-30h32v30H24zM24 0v-190h32V0H24" id="V"/><path d="M24 0v-261h32V0H24" id="W"/><g id="c"><use transform="matrix(0.06234567901234567,0,0,0.06234567901234567,0,0)" xlink:href="#L"/><use transform="matrix(0.06234567901234567,0,0,0.06234567901234567,14.96296296296296,0)" xlink:href="#M"/><use transform="matrix(0.06234567901234567,0,0,0.06234567901234567,26.18518518518518,0)" xlink:href="#N"/><use transform="matrix(0.06234567901234567,0,0,0.06234567901234567,37.4074074074074,0)" xlink:href="#O"/><use transform="matrix(0.06234567901234567,0,0,0.06234567901234567,43.64197530864196,0)" xlink:href="#P"/><use transform="matrix(0.06234567901234567,0,0,0.06234567901234567,56.11111111111109,0)" xlink:href="#Q"/><use transform="matrix(0.06234567901234567,0,0,0.06234567901234567,74.75246913580244,0)" xlink:href="#R"/><use transform="matrix(0.06234567901234567,0,0,0.06234567901234567,90.89999999999998,0)" xlink:href="#S"/><use transform="matrix(0.06234567901234567,0,0,0.06234567901234567,103.36913580246912,0)" xlink:href="#T"/><use transform="matrix(0.06234567901234567,0,0,0.06234567901234567,115.83827160493826,0)" xlink:href="#S"/><use transform="matrix(0.06234567901234567,0,0,0.06234567901234567,128.3074074074074,0)" xlink:href="#U"/><use transform="matrix(0.06234567901234567,0,0,0.06234567901234567,140.77654320987654,0)" xlink:href="#V"/><use transform="matrix(0.06234567901234567,0,0,0.06234567901234567,145.70185185185184,0)" xlink:href="#W"/><use transform="matrix(0.06234567901234567,0,0,0.06234567901234567,150.62716049382715,0)" xlink:href="#V"/><use transform="matrix(0.06234567901234567,0,0,0.06234567901234567,155.55246913580245,0)" xlink:href="#O"/><use transform="matrix(0.06234567901234567,0,0,0.06234567901234567,161.787037037037,0)" xlink:href="#M"/></g><path fill="#282c33" d="M67-158c22-48 132-52 116 29L158 0h-32l25-140c3-38-53-32-70-12C52-117 51-52 38 0H6l36-190h30" id="X"/><path fill="#282c33" d="M30-147c31-64 166-65 159 27C183-49 158 1 86 4 9 8 1-88 30-147zM88-20c53 0 68-48 68-100 0-31-11-51-44-50-52 1-68 46-68 97 0 32 13 53 44 53" id="Y"/><path fill="#282c33" d="M133-28C103 26-5 8 13-77c13-62 24-115 90-117 29-1 46 15 56 35l19-102h32L160 0h-30zM45-64c-2 27 10 43 35 43 54-1 69-50 69-103 0-29-15-46-42-46-53-1-58 58-62 106" id="Z"/><g id="d"><use transform="matrix(0.056172839506172814,0,0,0.056172839506172814,0,0)" xlink:href="#A"/><use transform="matrix(0.056172839506172814,0,0,0.056172839506172814,4.437654320987653,0)" xlink:href="#X"/><use transform="matrix(0.056172839506172814,0,0,0.056172839506172814,15.672222222222215,0)" xlink:href="#x"/><use transform="matrix(0.056172839506172814,0,0,0.056172839506172814,30.220987654320975,0)" xlink:href="#Y"/><use transform="matrix(0.056172839506172814,0,0,0.056172839506172814,41.455555555555534,0)" xlink:href="#X"/><use transform="matrix(0.056172839506172814,0,0,0.056172839506172814,52.6901234567901,0)" xlink:href="#Z"/><use transform="matrix(0.056172839506172814,0,0,0.056172839506172814,63.92469135802466,0)" xlink:href="#A"/><use transform="matrix(0.056172839506172814,0,0,0.056172839506172814,68.36234567901231,0)" xlink:href="#u"/><use transform="matrix(0.056172839506172814,0,0,0.056172839506172814,73.97962962962958,0)" xlink:href="#A"/><use transform="matrix(0.056172839506172814,0,0,0.056172839506172814,78.41728395061723,0)" xlink:href="#Y"/><use transform="matrix(0.056172839506172814,0,0,0.056172839506172814,89.6518518518518,0)" xlink:href="#X"/></g><path fill="#282c33" d="M30-248c87 1 191-15 191 75 0 78-77 80-158 76V0H30v-248zm33 125c57 0 124 11 124-50 0-59-68-47-124-48v98" id="aa"/><path fill="#282c33" d="M114-163C36-179 61-72 57 0H25l-1-190h30c1 12-1 29 2 39 6-27 23-49 58-41v29" id="ab"/><path fill="#282c33" d="M115-194c55 1 70 41 70 98S169 2 115 4C84 4 66-9 55-30l1 105H24l-1-265h31l2 30c10-21 28-34 59-34zm-8 174c40 0 45-34 45-75s-6-73-45-74c-42 0-51 32-51 76 0 43 10 73 51 73" id="ac"/><g id="e"><use transform="matrix(0.06234567901234567,0,0,0.06234567901234567,0,0)" xlink:href="#C"/><use transform="matrix(0.06234567901234567,0,0,0.06234567901234567,11.22222222222222,0)" xlink:href="#D"/><use transform="matrix(0.06234567901234567,0,0,0.06234567901234567,23.691358024691354,0)" xlink:href="#C"/><use transform="matrix(0.06234567901234567,0,0,0.06234567901234567,34.913580246913575,0)" xlink:href="#E"/><use transform="matrix(0.06234567901234567,0,0,0.06234567901234567,47.38271604938271,0)" xlink:href="#F"/><use transform="matrix(0.06234567901234567,0,0,0.06234567901234567,53.61728395061728,0)" xlink:href="#aa"/><use transform="matrix(0.06234567901234567,0,0,0.06234567901234567,68.58024691358024,0)" xlink:href="#ab"/><use transform="matrix(0.06234567901234567,0,0,0.06234567901234567,75.99938271604937,0)" xlink:href="#D"/><use transform="matrix(0.06234567901234567,0,0,0.06234567901234567,88.4685185185185,0)" xlink:href="#ac"/><use transform="matrix(0.06234567901234567,0,0,0.06234567901234567,100.93765432098763,0)" xlink:href="#J"/><use transform="matrix(0.06234567901234567,0,0,0.06234567901234567,113.40679012345677,0)" xlink:href="#ab"/><use transform="matrix(0.06234567901234567,0,0,0.06234567901234567,120.8259259259259,0)" xlink:href="#I"/><use transform="matrix(0.06234567901234567,0,0,0.06234567901234567,127.06049382716047,0)" xlink:href="#H"/></g><path fill="#6f7681" d="M135-143c-3-34-86-38-87 0 15 53 115 12 119 90S17 21 10-45l28-5c4 36 97 45 98 0-10-56-113-15-118-90-4-57 82-63 122-42 12 7 21 19 24 35" id="ad"/><path fill="#6f7681" d="M100-194c62-1 85 37 85 99 1 63-27 99-86 99S16-35 15-95c0-66 28-99 85-99zM99-20c44 1 53-31 53-75 0-43-8-75-51-75s-53 32-53 75 10 74 51 75" id="ae"/><path fill="#6f7681" d="M141-36C126-15 110 5 73 4 37 3 15-17 15-53c-1-64 63-63 125-63 3-35-9-54-41-54-24 1-41 7-42 31l-33-3c5-37 33-52 76-52 45 0 72 20 72 64v82c-1 20 7 32 28 27v20c-31 9-61-2-59-35zM48-53c0 20 12 33 32 33 41-3 63-29 60-74-43 2-92-5-92 41" id="af"/><path fill="#6f7681" d="M33-154v-36h34v36H33zM33 0v-36h34V0H33" id="ag"/><path fill="#6f7681" d="M101-234c-31-9-42 10-38 44h38v23H63V0H32v-167H5v-23h27c-7-52 17-82 69-68v24" id="ah"/><path fill="#6f7681" d="M114-163C36-179 61-72 57 0H25l-1-190h30c1 12-1 29 2 39 6-27 23-49 58-41v29" id="ai"/><path fill="#6f7681" d="M30-248c87 1 191-15 191 75 0 78-77 80-158 76V0H30v-248zm33 125c57 0 124 11 124-50 0-59-68-47-124-48v98" id="aj"/><path fill="#6f7681" d="M115-194c55 1 70 41 70 98S169 2 115 4C84 4 66-9 55-30l1 105H24l-1-265h31l2 30c10-21 28-34 59-34zm-8 174c40 0 45-34 45-75s-6-73-45-74c-42 0-51 32-51 76 0 43 10 73 51 73" id="ak"/><path fill="#6f7681" d="M100-194c63 0 86 42 84 106H49c0 40 14 67 53 68 26 1 43-12 49-29l28 8c-11 28-37 45-77 45C44 4 14-33 15-96c1-61 26-98 85-98zm52 81c6-60-76-77-97-28-3 7-6 17-6 28h103" id="al"/><path fill="#6f7681" d="M59-47c-2 24 18 29 38 22v24C64 9 27 4 27-40v-127H5v-23h24l9-43h21v43h35v23H59v120" id="am"/><path fill="#6f7681" d="M179-190L93 31C79 59 56 82 12 73V49c39 6 53-20 64-50L1-190h34L92-34l54-156h33" id="an"/><g id="f"><use transform="matrix(0.06234567901234567,0,0,0.06234567901234567,0,0)" xlink:href="#ad"/><use transform="matrix(0.06234567901234567,0,0,0.06234567901234567,11.22222222222222,0)" xlink:href="#ae"/><use transform="matrix(0.06234567901234567,0,0,0.06234567901234567,23.691358024691354,0)" xlink:href="#ad"/><use transform="matrix(0.06234567901234567,0,0,0.06234567901234567,34.913580246913575,0)" xlink:href="#af"/><use transform="matrix(0.06234567901234567,0,0,0.06234567901234567,47.38271604938271,0)" xlink:href="#ag"/><use transform="matrix(0.06234567901234567,0,0,0.06234567901234567,53.61728395061728,0)" xlink:href="#ah"/><use transform="matrix(0.06234567901234567,0,0,0.06234567901234567,59.85185185185185,0)" xlink:href="#ae"/><use transform="matrix(0.06234567901234567,0,0,0.06234567901234567,72.32098765432099,0)" xlink:href="#ai"/><use transform="matrix(0.06234567901234567,0,0,0.06234567901234567,79.74012345679012,0)" xlink:href="#aj"/><use transform="matrix(0.06234567901234567,0,0,0.06234567901234567,94.70308641975308,0)" xlink:href="#ai"/><use transform="matrix(0.06234567901234567,0,0,0.06234567901234567,102.1222222222222,0)" xlink:href="#ae"/><use transform="matrix(0.06234567901234567,0,0,0.06234567901234567,114.59135802469135,0)" xlink:href="#ak"/><use transform="matrix(0.06234567901234567,0,0,0.06234567901234567,127.06049382716049,0)" xlink:href="#al"/><use transform="matrix(0.06234567901234567,0,0,0.06234567901234567,139.52962962962962,0)" xlink:href="#ai"/><use transform="matrix(0.06234567901234567,0,0,0.06234567901234567,146.94876543209875,0)" xlink:href="#am"/><use transform="matrix(0.06234567901234567,0,0,0.06234567901234567,153.1833333333333,0)" xlink:href="#an"/></g><path fill="#282c33" d="M67 3c-93-2-31-127-26-193h32L48-50c-3 39 53 32 70 12 30-34 30-101 43-152h32L157 0h-30c1-10 6-24 4-33-14 20-29 37-64 36" id="ao"/><path fill="#282c33" d="M66-151c12-25 30-51 66-40l-6 26C45-176 58-65 38 0H6l36-190h30" id="ap"/><path fill="#282c33" d="M89 0H52L20-190h33L74-25l89-165h34" id="aq"/><path fill="#282c33" d="M249-183c0 48-29 72-75 77L221 0h-36l-43-103H65L45 0H11l48-248c83 2 190-17 190 65zm-34 3c0-55-74-39-127-41l-18 92c63-1 145 13 145-51" id="ar"/><path fill="#282c33" d="M103-194c29 0 47 14 56 36 2-11 5-23 8-32h30L160-5C157 61 82 97 21 62 9 55 4 45 1 30l28-7c7 42 83 31 92-3 4-16 9-38 13-55-13 20-29 36-62 36-40 0-60-25-60-64 0-71 23-131 91-131zm4 24c-53 0-58 54-61 104-2 27 10 44 36 44 49 0 65-50 67-102 1-29-15-46-42-46" id="as"/><g id="g"><use transform="matrix(0.056172839506172814,0,0,0.056172839506172814,0,0)" xlink:href="#p"/><use transform="matrix(0.056172839506172814,0,0,0.056172839506172814,11.234567901234563,0)" xlink:href="#q"/><use transform="matrix(0.056172839506172814,0,0,0.056172839506172814,22.469135802469125,0)" xlink:href="#r"/><use transform="matrix(0.056172839506172814,0,0,0.056172839506172814,32.58024691358023,0)" xlink:href="#s"/><use transform="matrix(0.056172839506172814,0,0,0.056172839506172814,46.06172839506171,0)" xlink:href="#ao"/><use transform="matrix(0.056172839506172814,0,0,0.056172839506172814,57.29629629629627,0)" xlink:href="#ap"/><use transform="matrix(0.056172839506172814,0,0,0.056172839506172814,63.980864197530835,0)" xlink:href="#aq"/><use transform="matrix(0.056172839506172814,0,0,0.056172839506172814,74.09197530864193,0)" xlink:href="#A"/><use transform="matrix(0.056172839506172814,0,0,0.056172839506172814,78.52962962962958,0)" xlink:href="#aq"/><use transform="matrix(0.056172839506172814,0,0,0.056172839506172814,88.64074074074068,0)" xlink:href="#q"/><use transform="matrix(0.056172839506172814,0,0,0.056172839506172814,99.87530864197524,0)" xlink:href="#B"/><use transform="matrix(0.056172839506172814,0,0,0.056172839506172814,104.31296296296289,0)" xlink:href="#ar"/><use transform="matrix(0.056172839506172814,0,0,0.056172839506172814,118.86172839506165,0)" xlink:href="#q"/><use transform="matrix(0.056172839506172814,0,0,0.056172839506172814,130.0962962962962,0)" xlink:href="#X"/><use transform="matrix(0.056172839506172814,0,0,0.056172839506172814,141.33086419753076,0)" xlink:href="#as"/><use transform="matrix(0.056172839506172814,0,0,0.056172839506172814,152.5654320987653,0)" xlink:href="#v"/></g><path d="M84 4C-5 8 30-112 23-190h32v120c0 31 7 50 39 49 72-2 45-101 50-169h31l1 190h-30c-1-10 1-25-2-33-11 22-28 36-60 37" id="at"/><path d="M114-163C36-179 61-72 57 0H25l-1-190h30c1 12-1 29 2 39 6-27 23-49 58-41v29" id="au"/><path d="M108 0H70L1-190h34L89-25l56-165h34" id="av"/><path d="M233-177c-1 41-23 64-60 70L243 0h-38l-65-103H63V0H30v-248c88 3 205-21 203 71zM63-129c60-2 137 13 137-47 0-61-80-42-137-45v92" id="aw"/><path d="M117-194c89-4 53 116 60 194h-32v-121c0-31-8-49-39-48C34-167 62-67 57 0H25l-1-190h30c1 10-1 24 2 32 11-22 29-35 61-36" id="ax"/><path d="M177-190C167-65 218 103 67 71c-23-6-38-20-44-43l32-5c15 47 100 32 89-28v-30C133-14 115 1 83 1 29 1 15-40 15-95c0-56 16-97 71-98 29-1 48 16 59 35 1-10 0-23 2-32h30zM94-22c36 0 50-32 50-73 0-42-14-75-50-75-39 0-46 34-46 75s6 73 46 73" id="ay"/><g id="h"><use transform="matrix(0.06234567901234567,0,0,0.06234567901234567,0,0)" xlink:href="#L"/><use transform="matrix(0.06234567901234567,0,0,0.06234567901234567,14.96296296296296,0)" xlink:href="#at"/><use transform="matrix(0.06234567901234567,0,0,0.06234567901234567,27.432098765432094,0)" xlink:href="#au"/><use transform="matrix(0.06234567901234567,0,0,0.06234567901234567,34.85123456790123,0)" xlink:href="#av"/><use transform="matrix(0.06234567901234567,0,0,0.06234567901234567,46.07345679012345,0)" xlink:href="#V"/><use transform="matrix(0.06234567901234567,0,0,0.06234567901234567,50.99876543209876,0)" xlink:href="#av"/><use transform="matrix(0.06234567901234567,0,0,0.06234567901234567,62.22098765432098,0)" xlink:href="#S"/><use transform="matrix(0.06234567901234567,0,0,0.06234567901234567,74.6901234567901,0)" xlink:href="#W"/><use transform="matrix(0.06234567901234567,0,0,0.06234567901234567,79.61543209876541,0)" xlink:href="#aw"/><use transform="matrix(0.06234567901234567,0,0,0.06234567901234567,95.76296296296294,0)" xlink:href="#S"/><use transform="matrix(0.06234567901234567,0,0,0.06234567901234567,108.23209876543208,0)" xlink:href="#ax"/><use transform="matrix(0.06234567901234567,0,0,0.06234567901234567,120.70123456790122,0)" xlink:href="#ay"/><use transform="matrix(0.06234567901234567,0,0,0.06234567901234567,133.17037037037036,0)" xlink:href="#P"/></g><path fill="#282c33" d="M20-101c0-91 52-143 145-150 126-9 127 168 53 223-23 17-55 32-93 32C57 4 20-33 20-101zm216-33c5-57-18-91-73-90-77 1-110 51-110 125 0 49 23 75 73 75 72-1 104-45 110-110" id="az"/><g id="i"><use transform="matrix(0.056172839506172814,0,0,0.056172839506172814,0,0)" xlink:href="#p"/><use transform="matrix(0.056172839506172814,0,0,0.056172839506172814,11.234567901234563,0)" xlink:href="#q"/><use transform="matrix(0.056172839506172814,0,0,0.056172839506172814,22.469135802469125,0)" xlink:href="#r"/><use transform="matrix(0.056172839506172814,0,0,0.056172839506172814,32.58024691358023,0)" xlink:href="#az"/><use transform="matrix(0.056172839506172814,0,0,0.056172839506172814,48.30864197530862,0)" xlink:href="#y"/><use transform="matrix(0.056172839506172814,0,0,0.056172839506172814,59.54320987654318,0)" xlink:href="#v"/><use transform="matrix(0.056172839506172814,0,0,0.056172839506172814,70.77777777777774,0)" xlink:href="#ap"/><use transform="matrix(0.056172839506172814,0,0,0.056172839506172814,77.4623456790123,0)" xlink:href="#q"/><use transform="matrix(0.056172839506172814,0,0,0.056172839506172814,88.69691358024687,0)" xlink:href="#u"/><use transform="matrix(0.056172839506172814,0,0,0.056172839506172814,94.31419753086415,0)" xlink:href="#A"/><use transform="matrix(0.056172839506172814,0,0,0.056172839506172814,98.7518518518518,0)" xlink:href="#X"/><use transform="matrix(0.056172839506172814,0,0,0.056172839506172814,109.98641975308635,0)" xlink:href="#as"/><use transform="matrix(0.056172839506172814,0,0,0.056172839506172814,121.22098765432091,0)" xlink:href="#ar"/><use transform="matrix(0.056172839506172814,0,0,0.056172839506172814,135.76975308641966,0)" xlink:href="#q"/><use transform="matrix(0.056172839506172814,0,0,0.056172839506172814,147.0043209876542,0)" xlink:href="#X"/><use transform="matrix(0.056172839506172814,0,0,0.056172839506172814,158.23888888888877,0)" xlink:href="#as"/><use transform="matrix(0.056172839506172814,0,0,0.056172839506172814,169.47345679012332,0)" xlink:href="#v"/></g><path d="M140-251c81 0 123 46 123 126C263-46 219 4 140 4 59 4 17-45 17-125s42-126 123-126zm0 227c63 0 89-41 89-101s-29-99-89-99c-61 0-89 39-89 99S79-25 140-24" id="aA"/><g id="j"><use transform="matrix(0.06234567901234567,0,0,0.06234567901234567,0,0)" xlink:href="#aA"/><use transform="matrix(0.06234567901234567,0,0,0.06234567901234567,17.456790123456788,0)" xlink:href="#T"/><use transform="matrix(0.06234567901234567,0,0,0.06234567901234567,29.92592592592592,0)" xlink:href="#P"/><use transform="matrix(0.06234567901234567,0,0,0.06234567901234567,42.39506172839505,0)" xlink:href="#au"/><use transform="matrix(0.06234567901234567,0,0,0.06234567901234567,49.814197530864185,0)" xlink:href="#S"/><use transform="matrix(0.06234567901234567,0,0,0.06234567901234567,62.28333333333332,0)" xlink:href="#O"/><use transform="matrix(0.06234567901234567,0,0,0.06234567901234567,68.51790123456789,0)" xlink:href="#V"/><use transform="matrix(0.06234567901234567,0,0,0.06234567901234567,73.4432098765432,0)" xlink:href="#ax"/><use transform="matrix(0.06234567901234567,0,0,0.06234567901234567,85.91234567901233,0)" xlink:href="#ay"/><use transform="matrix(0.06234567901234567,0,0,0.06234567901234567,98.38148148148147,0)" xlink:href="#aw"/><use transform="matrix(0.06234567901234567,0,0,0.06234567901234567,114.529012345679,0)" xlink:href="#S"/><use transform="matrix(0.06234567901234567,0,0,0.06234567901234567,126.99814814814815,0)" xlink:href="#ax"/><use transform="matrix(0.06234567901234567,0,0,0.06234567901234567,139.4672839506173,0)" xlink:href="#ay"/><use transform="matrix(0.06234567901234567,0,0,0.06234567901234567,151.93641975308643,0)" xlink:href="#P"/></g><path fill="#282c33" d="M194 0L95-120 63-95V0H30v-248h33v124l119-124h40L117-140 236 0h-42" id="aB"/><path fill="#282c33" d="M24-231v-30h32v30H24zM24 0v-190h32V0H24" id="aC"/><path fill="#282c33" d="M117-194c89-4 53 116 60 194h-32v-121c0-31-8-49-39-48C34-167 62-67 57 0H25l-1-190h30c1 10-1 24 2 32 11-22 29-35 61-36" id="aD"/><path fill="#282c33" d="M85-194c31 0 48 13 60 33l-1-100h32l1 261h-30c-2-10 0-23-3-31C134-8 116 4 85 4 32 4 16-35 15-94c0-66 23-100 70-100zm9 24c-40 0-46 34-46 75 0 40 6 74 45 74 42 0 51-32 51-76 0-42-9-74-50-73" id="aE"/><g id="k"><use transform="matrix(0.06234567901234567,0,0,0.06234567901234567,0,0)" xlink:href="#G"/><use transform="matrix(0.06234567901234567,0,0,0.06234567901234567,14.96296296296296,0)" xlink:href="#H"/><use transform="matrix(0.06234567901234567,0,0,0.06234567901234567,26.18518518518518,0)" xlink:href="#C"/><use transform="matrix(0.06234567901234567,0,0,0.06234567901234567,37.4074074074074,0)" xlink:href="#I"/><use transform="matrix(0.06234567901234567,0,0,0.06234567901234567,43.64197530864196,0)" xlink:href="#J"/><use transform="matrix(0.06234567901234567,0,0,0.06234567901234567,56.11111111111109,0)" xlink:href="#K"/><use transform="matrix(0.06234567901234567,0,0,0.06234567901234567,74.75246913580244,0)" xlink:href="#aB"/><use transform="matrix(0.06234567901234567,0,0,0.06234567901234567,89.7154320987654,0)" xlink:href="#aC"/><use transform="matrix(0.06234567901234567,0,0,0.06234567901234567,94.64074074074071,0)" xlink:href="#aD"/><use transform="matrix(0.06234567901234567,0,0,0.06234567901234567,107.10987654320985,0)" xlink:href="#aE"/></g><path fill="#282c33" d="M180 0L97-118 63-96 45 0H11l48-248h34L69-126c44-43 94-81 141-122h43L121-137 219 0h-39" id="aF"/><g id="l"><use transform="matrix(0.056172839506172814,0,0,0.056172839506172814,0,0)" xlink:href="#p"/><use transform="matrix(0.056172839506172814,0,0,0.056172839506172814,11.234567901234563,0)" xlink:href="#q"/><use transform="matrix(0.056172839506172814,0,0,0.056172839506172814,22.469135802469125,0)" xlink:href="#r"/><use transform="matrix(0.056172839506172814,0,0,0.056172839506172814,32.58024691358023,0)" xlink:href="#s"/><use transform="matrix(0.056172839506172814,0,0,0.056172839506172814,46.06172839506171,0)" xlink:href="#t"/><use transform="matrix(0.056172839506172814,0,0,0.056172839506172814,56.172839506172814,0)" xlink:href="#r"/><use transform="matrix(0.056172839506172814,0,0,0.056172839506172814,66.28395061728392,0)" xlink:href="#u"/><use transform="matrix(0.056172839506172814,0,0,0.056172839506172814,71.9012345679012,0)" xlink:href="#v"/><use transform="matrix(0.056172839506172814,0,0,0.056172839506172814,83.13580246913577,0)" xlink:href="#w"/><use transform="matrix(0.056172839506172814,0,0,0.056172839506172814,99.93148148148144,0)" xlink:href="#aF"/><use transform="matrix(0.056172839506172814,0,0,0.056172839506172814,113.41296296296292,0)" xlink:href="#A"/><use transform="matrix(0.056172839506172814,0,0,0.056172839506172814,117.85061728395057,0)" xlink:href="#X"/><use transform="matrix(0.056172839506172814,0,0,0.056172839506172814,129.08518518518514,0)" xlink:href="#Z"/></g><path fill="#282c33" d="M24 0v-261h32V0H24" id="aG"/><path fill="#282c33" d="M101-234c-31-9-42 10-38 44h38v23H63V0H32v-167H5v-23h27c-7-52 17-82 69-68v24" id="aH"/><g id="m"><use transform="matrix(0.06234567901234567,0,0,0.06234567901234567,0,0)" xlink:href="#C"/><use transform="matrix(0.06234567901234567,0,0,0.06234567901234567,11.22222222222222,0)" xlink:href="#D"/><use transform="matrix(0.06234567901234567,0,0,0.06234567901234567,23.691358024691354,0)" xlink:href="#C"/><use transform="matrix(0.06234567901234567,0,0,0.06234567901234567,34.913580246913575,0)" xlink:href="#E"/><use transform="matrix(0.06234567901234567,0,0,0.06234567901234567,47.38271604938271,0)" xlink:href="#F"/><use transform="matrix(0.06234567901234567,0,0,0.06234567901234567,53.61728395061728,0)" xlink:href="#aa"/><use transform="matrix(0.06234567901234567,0,0,0.06234567901234567,68.58024691358024,0)" xlink:href="#aG"/><use transform="matrix(0.06234567901234567,0,0,0.06234567901234567,73.50555555555555,0)" xlink:href="#E"/><use transform="matrix(0.06234567901234567,0,0,0.06234567901234567,85.97469135802467,0)" xlink:href="#I"/><use transform="matrix(0.06234567901234567,0,0,0.06234567901234567,92.20925925925924,0)" xlink:href="#aH"/><use transform="matrix(0.06234567901234567,0,0,0.06234567901234567,98.44382716049381,0)" xlink:href="#D"/><use transform="matrix(0.06234567901234567,0,0,0.06234567901234567,110.91296296296295,0)" xlink:href="#ab"/><use transform="matrix(0.06234567901234567,0,0,0.06234567901234567,118.33209876543208,0)" xlink:href="#K"/></g><g id="n"><use transform="matrix(0.06234567901234567,0,0,0.06234567901234567,0,0)" xlink:href="#aa"/><use transform="matrix(0.06234567901234567,0,0,0.06234567901234567,14.96296296296296,0)" xlink:href="#aG"/><use transform="matrix(0.06234567901234567,0,0,0.06234567901234567,19.888271604938268,0)" xlink:href="#E"/><use transform="matrix(0.06234567901234567,0,0,0.06234567901234567,32.3574074074074,0)" xlink:href="#I"/><use transform="matrix(0.06234567901234567,0,0,0.06234567901234567,38.59197530864196,0)" xlink:href="#aH"/><use transform="matrix(0.06234567901234567,0,0,0.06234567901234567,44.82654320987653,0)" xlink:href="#D"/><use transform="matrix(0.06234567901234567,0,0,0.06234567901234567,57.295679012345666,0)" xlink:href="#ab"/><use transform="matrix(0.06234567901234567,0,0,0.06234567901234567,64.7148148148148,0)" xlink:href="#K"/><use transform="matrix(0.06234567901234567,0,0,0.06234567901234567,83.35617283950616,0)" xlink:href="#aB"/><use transform="matrix(0.06234567901234567,0,0,0.06234567901234567,98.31913580246912,0)" xlink:href="#aC"/><use transform="matrix(0.06234567901234567,0,0,0.06234567901234567,103.24444444444443,0)" xlink:href="#aD"/><use transform="matrix(0.06234567901234567,0,0,0.06234567901234567,115.71358024691355,0)" xlink:href="#aE"/></g><path fill="#282c33" d="M238-179c0 84-86 86-175 82L45 0H11l48-248c82 0 179-12 179 69zm-34 1c0-53-64-42-116-43l-19 98c63 0 135 9 135-55" id="aI"/><path fill="#282c33" d="M76-167L44 0H12l33-167H18l4-23h27c3-47 25-81 82-69l-4 24c-35-8-44 15-46 45h37l-5 23H76" id="aJ"/><g id="o"><use transform="matrix(0.05555555555555555,0,0,0.05555555555555555,0,0)" xlink:href="#p"/><use transform="matrix(0.05555555555555555,0,0,0.05555555555555555,11.11111111111111,0)" xlink:href="#q"/><use transform="matrix(0.05555555555555555,0,0,0.05555555555555555,22.22222222222222,0)" xlink:href="#r"/><use transform="matrix(0.05555555555555555,0,0,0.05555555555555555,32.22222222222222,0)" xlink:href="#aI"/><use transform="matrix(0.05555555555555555,0,0,0.05555555555555555,45.55555555555556,0)" xlink:href="#B"/><use transform="matrix(0.05555555555555555,0,0,0.05555555555555555,49.94444444444444,0)" xlink:href="#q"/><use transform="matrix(0.05555555555555555,0,0,0.05555555555555555,61.05555555555555,0)" xlink:href="#u"/><use transform="matrix(0.05555555555555555,0,0,0.05555555555555555,66.61111111111111,0)" xlink:href="#aJ"/><use transform="matrix(0.05555555555555555,0,0,0.05555555555555555,72.16666666666667,0)" xlink:href="#Y"/><use transform="matrix(0.05555555555555555,0,0,0.05555555555555555,83.27777777777779,0)" xlink:href="#ap"/><use transform="matrix(0.05555555555555555,0,0,0.05555555555555555,89.8888888888889,0)" xlink:href="#w"/><use transform="matrix(0.05555555555555555,0,0,0.05555555555555555,106.50000000000001,0)" xlink:href="#aF"/><use transform="matrix(0.05555555555555555,0,0,0.05555555555555555,119.83333333333336,0)" xlink:href="#A"/><use transform="matrix(0.05555555555555555,0,0,0.05555555555555555,124.22222222222224,0)" xlink:href="#X"/><use transform="matrix(0.05555555555555555,0,0,0.05555555555555555,135.33333333333334,0)" xlink:href="#Z"/></g></defs></g></svg>